<svg width="24" height="24" viewBox="0 0 24 24" fill="none" xmlns="http://www.w3.org/2000/svg">
<path d="M3.50484 3.54978C6.19235 1.25351 9.65223 1.67342 11.9921 3.71873C14.3294 1.67215 17.753 1.28221 20.4707 3.54099C23.4442 6.01245 23.8014 10.2273 21.5117 13.1738C20.7166 14.1969 19.2367 15.6825 17.7539 17.0967C16.2544 18.5266 14.6961 19.936 13.7041 20.8213C13.5343 20.9728 13.3636 21.1254 13.207 21.2441C13.0385 21.3719 12.8312 21.5038 12.5673 21.583C12.1955 21.6944 11.7908 21.6944 11.4189 21.583C11.155 21.5038 10.9478 21.3719 10.7793 21.2441C10.6227 21.1254 10.452 20.9728 10.2822 20.8213C9.29006 19.9359 7.73091 18.5266 6.2314 17.0967C4.74863 15.6826 3.26956 14.1968 2.47456 13.1738C0.176086 10.216 0.598228 6.03339 3.50484 3.54978ZM11.2334 5.78611C9.52835 3.79281 6.81821 3.35005 4.80464 5.07029C2.70133 6.8674 2.41782 9.84225 4.05367 11.9472C4.74457 12.8362 6.11903 14.2254 7.61226 15.6494C9.089 17.0577 10.6296 18.4505 11.6142 19.3291C11.8071 19.5012 11.9091 19.5911 11.9873 19.6504C11.9891 19.6517 11.9914 19.653 11.9931 19.6543C11.9948 19.653 11.9972 19.6517 11.999 19.6504C12.0771 19.5911 12.1791 19.5012 12.372 19.3291C13.3566 18.4505 14.8972 17.0577 16.374 15.6494C17.8672 14.2254 19.2417 12.8362 19.9326 11.9472C21.5772 9.83088 21.315 6.84329 19.1923 5.07908C17.1254 3.36114 14.4504 3.80155 12.7529 5.78611C12.5629 6.00806 12.2853 6.13571 11.9931 6.13572C11.701 6.13572 11.4233 6.00806 11.2334 5.78611ZM11.0712 7.50291C11.4744 7.53173 11.8203 7.80015 11.9482 8.18357L13.1845 11.8935L13.6054 11.0527C13.7748 10.7139 14.1212 10.5 14.5 10.5H15.5C16.0522 10.5 16.5 10.9477 16.5 11.5C16.5 12.0523 16.0522 12.5 15.5 12.5H15.1181L13.8945 14.9472C13.7136 15.309 13.3321 15.5257 12.9287 15.497C12.5255 15.4682 12.1796 15.1998 12.0517 14.8164L10.8144 11.1054L10.3945 11.9472C10.2251 12.286 9.87873 12.5 9.49996 12.5H8.49996C7.94767 12.5 7.49996 12.0523 7.49996 11.5C7.49996 10.9477 7.94767 10.5 8.49996 10.5H8.88179L10.1054 8.05271C10.2863 7.69095 10.6678 7.47423 11.0712 7.50291Z" fill="#475467"/>
</svg>
