<svg width="24" height="24" viewBox="0 0 24 24" fill="none" xmlns="http://www.w3.org/2000/svg">
<path d="M18.9911 12.6533C18.9054 10.923 18.1809 9.2806 16.9501 8.04979C15.6374 6.73704 13.8564 5.99999 11.9999 5.99999C10.1434 5.99999 8.36248 6.73704 7.04973 8.04979C5.73697 9.36255 4.99992 11.1435 4.99992 13C4.99992 14.8565 5.73697 16.6374 7.04973 17.9502C8.36248 19.2629 10.1434 20 11.9999 20L12.3466 19.9912C14.0769 19.9055 15.7193 19.181 16.9501 17.9502C18.2629 16.6374 18.9999 14.8565 18.9999 13L18.9911 12.6533ZM14.7929 10.293C15.1834 9.90243 15.8164 9.90243 16.207 10.293C16.5975 10.6835 16.5975 11.3165 16.207 11.707L11.707 16.207C11.3164 16.5975 10.6834 16.5975 10.2929 16.207L8.29289 14.207L8.22453 14.1308C7.90418 13.7381 7.92678 13.1591 8.29289 12.793C8.65901 12.4268 9.23801 12.4042 9.63078 12.7246L9.70696 12.793L10.9999 14.0859L14.7929 10.293ZM4.29289 2.29295C4.68342 1.90243 5.31643 1.90243 5.70696 2.29295C6.09748 2.68348 6.09748 3.31649 5.70696 3.70702L2.70696 6.70702C2.31643 7.09754 1.68342 7.09754 1.29289 6.70702C0.902369 6.31649 0.902369 5.68348 1.29289 5.29295L4.29289 2.29295ZM18.2929 2.29295C18.6834 1.90243 19.3164 1.90243 19.707 2.29295L22.707 5.29295L22.7753 5.36913C23.0957 5.7619 23.0731 6.3409 22.707 6.70702C22.3408 7.07313 21.7618 7.09573 21.3691 6.77538L21.2929 6.70702L18.2929 3.70702L18.2245 3.63084C17.9042 3.23807 17.9268 2.65907 18.2929 2.29295ZM20.9892 13.4463C20.8954 15.337 20.206 17.1444 19.0302 18.6162L20.707 20.293L20.7753 20.3691C21.0957 20.7619 21.0731 21.3409 20.707 21.707C20.3408 22.0731 19.7618 22.0957 19.3691 21.7754L19.2929 21.707L17.6161 20.0303C16.1443 21.2061 14.3369 21.8954 12.4462 21.9892L11.9999 22C9.94849 22 7.97006 21.2986 6.38274 20.0303L4.70696 21.707C4.31643 22.0975 3.68342 22.0975 3.29289 21.707C2.90237 21.3165 2.90237 20.6835 3.29289 20.293L4.96867 18.6162C3.70087 17.0291 2.99992 15.051 2.99992 13C2.99992 10.613 3.94784 8.32356 5.63567 6.63573C7.32349 4.9479 9.61298 3.99999 11.9999 3.99999C14.3869 3.99999 16.6764 4.9479 18.3642 6.63573C20.052 8.32356 20.9999 10.613 20.9999 13L20.9892 13.4463Z" fill="#475467"/>
</svg>
