<svg width="24" height="24" viewBox="0 0 24 24" fill="none" xmlns="http://www.w3.org/2000/svg">
<path d="M2.29289 2.29302C2.68342 1.90249 3.31643 1.90249 3.70696 2.29302L18.8271 17.4131C18.8408 17.4263 18.8543 17.4394 18.8671 17.4532L21.707 20.293L21.7753 20.3692C22.0957 20.762 22.0731 21.341 21.707 21.7071C21.3408 22.0732 20.7618 22.0958 20.3691 21.7754L20.2929 21.7071L18.1513 19.5655C16.4862 21.1257 14.2891 22 11.9999 22C9.94849 22 7.97006 21.2987 6.38274 20.0303L4.70696 21.7071C4.31643 22.0976 3.68342 22.0976 3.29289 21.7071C2.90237 21.3166 2.90237 20.6835 3.29289 20.293L4.96867 18.6163C3.70087 17.0291 2.99992 15.051 2.99992 13C2.99992 10.7109 3.87329 8.51283 5.43352 6.8477L3.99992 5.41411L2.70696 6.70708C2.31643 7.0976 1.68342 7.0976 1.29289 6.70708C0.902369 6.31655 0.902369 5.68354 1.29289 5.29302L2.58586 4.00005L2.29289 3.70708L2.22453 3.63091C1.90418 3.23813 1.92678 2.65913 2.29289 2.29302ZM18.9999 13C18.9999 11.1435 18.2629 9.36261 16.9501 8.04985C15.6374 6.7371 13.8564 6.00005 11.9999 6.00005C11.5562 6.00005 11.117 6.04207 10.6874 6.12407C10.1449 6.22763 9.62106 5.87164 9.5175 5.32915C9.41412 4.78676 9.77003 4.26277 10.3124 4.15923C10.8648 4.05379 11.4296 4.00005 11.9999 4.00005C14.3869 4.00005 16.6764 4.94796 18.3642 6.63579C20.052 8.32362 20.9999 10.6131 20.9999 13C20.9999 13.5703 20.9462 14.1352 20.8407 14.6875C20.7372 15.2299 20.2132 15.5859 19.6708 15.4825C19.1283 15.3789 18.7723 14.855 18.8759 14.3125C18.9579 13.883 18.9999 13.4437 18.9999 13ZM18.2929 2.29302C18.6834 1.90249 19.3164 1.90249 19.707 2.29302L22.707 5.29302L22.7753 5.36919C23.0957 5.76196 23.0731 6.34096 22.707 6.70708C22.3408 7.07319 21.7618 7.09579 21.3691 6.77544L21.2929 6.70708L18.2929 3.70708L18.2245 3.63091C17.9042 3.23813 17.9268 2.65913 18.2929 2.29302ZM4.99992 13C4.99992 14.8566 5.73697 16.6375 7.04973 17.9502C8.36248 19.263 10.1434 20 11.9999 20C13.7586 20 15.448 19.3371 16.7372 18.1514L6.84758 8.26177C5.66186 9.55101 4.99992 11.2414 4.99992 13Z" fill="#475467"/>
</svg>
