<svg width="24" height="24" viewBox="0 0 24 24" fill="none" xmlns="http://www.w3.org/2000/svg">
<path d="M18.9911 12.6534C18.9054 10.9231 18.1809 9.28066 16.9501 8.04985C15.6374 6.7371 13.8564 6.00005 11.9999 6.00005C10.1434 6.00005 8.36248 6.7371 7.04973 8.04985C5.73697 9.36261 4.99992 11.1435 4.99992 13C4.99992 14.8566 5.73697 16.6375 7.04973 17.9502C8.36248 19.263 10.1434 20 11.9999 20L12.3466 19.9913C14.0769 19.9055 15.7193 19.181 16.9501 17.9502C18.2629 16.6375 18.9999 14.8566 18.9999 13L18.9911 12.6534ZM14.9999 12C15.5522 12 15.9999 12.4478 15.9999 13C15.9999 13.5523 15.5522 14 14.9999 14H8.99992C8.44764 14 7.99992 13.5523 7.99992 13C7.99992 12.4478 8.44764 12 8.99992 12H14.9999ZM4.29289 2.29302C4.68342 1.90249 5.31643 1.90249 5.70696 2.29302C6.09748 2.68354 6.09748 3.31655 5.70696 3.70708L2.70696 6.70708C2.31643 7.0976 1.68342 7.0976 1.29289 6.70708C0.902369 6.31655 0.902369 5.68354 1.29289 5.29302L4.29289 2.29302ZM18.2929 2.29302C18.6834 1.90249 19.3164 1.90249 19.707 2.29302L22.707 5.29302L22.7753 5.36919C23.0957 5.76196 23.0731 6.34096 22.707 6.70708C22.3408 7.07319 21.7618 7.09579 21.3691 6.77544L21.2929 6.70708L18.2929 3.70708L18.2245 3.63091C17.9042 3.23813 17.9268 2.65913 18.2929 2.29302ZM20.9892 13.4463C20.8954 15.337 20.206 17.1445 19.0302 18.6163L20.707 20.293L20.7753 20.3692C21.0957 20.762 21.0731 21.341 20.707 21.7071C20.3408 22.0732 19.7618 22.0958 19.3691 21.7754L19.2929 21.7071L17.6161 20.0303C16.1443 21.2061 14.3369 21.8955 12.4462 21.9893L11.9999 22C9.94849 22 7.97006 21.2987 6.38274 20.0303L4.70696 21.7071C4.31643 22.0976 3.68342 22.0976 3.29289 21.7071C2.90237 21.3166 2.90237 20.6835 3.29289 20.293L4.96867 18.6163C3.70087 17.0291 2.99992 15.051 2.99992 13C2.99992 10.6131 3.94784 8.32362 5.63567 6.63579C7.32349 4.94796 9.61298 4.00005 11.9999 4.00005C14.3869 4.00005 16.6764 4.94796 18.3642 6.63579C20.052 8.32362 20.9999 10.6131 20.9999 13L20.9892 13.4463Z" fill="#475467"/>
</svg>
