<svg width="24" height="24" viewBox="0 0 24 24" fill="none" xmlns="http://www.w3.org/2000/svg">
<path d="M11 21V9.41406L5.70703 14.707C5.31651 15.0976 4.68349 15.0976 4.29297 14.707C3.90244 14.3165 3.90244 13.6835 4.29297 13.293L11.293 6.29297L11.3691 6.22461C11.7619 5.90426 12.3409 5.92685 12.707 6.29297L19.707 13.293L19.7754 13.3691C20.0957 13.7619 20.0731 14.3409 19.707 14.707C19.3409 15.0731 18.7619 15.0957 18.3691 14.7754L18.293 14.707L13 9.41406V21C13 21.5523 12.5523 22 12 22C11.4477 22 11 21.5523 11 21ZM21 2C21.5523 2 22 2.44772 22 3C22 3.55228 21.5523 4 21 4H3C2.44772 4 2 3.55228 2 3C2 2.44772 2.44772 2 3 2H21Z" fill="#475467"/>
</svg>
