<svg width="24" height="24" viewBox="0 0 24 24" fill="none" xmlns="http://www.w3.org/2000/svg">
<path d="M21 20L21.1025 20.0049C21.6067 20.0562 22 20.4823 22 21C22 21.5177 21.6067 21.9438 21.1025 21.9951L21 22H3C2.44772 22 2 21.5523 2 21C2 20.4477 2.44772 20 3 20H21ZM11 3C11 2.44772 11.4477 2 12 2C12.5523 2 13 2.44772 13 3V14.5859L18.293 9.29297C18.6835 8.90244 19.3165 8.90244 19.707 9.29297C20.0976 9.68349 20.0976 10.3165 19.707 10.707L12.707 17.707C12.5195 17.8946 12.2652 18 12 18C11.7348 18 11.4805 17.8946 11.293 17.707L4.29297 10.707L4.22461 10.6309C3.90426 10.2381 3.92685 9.65908 4.29297 9.29297C4.65908 8.92685 5.23809 8.90426 5.63086 9.22461L5.70703 9.29297L11 14.5859V3Z" fill="#475467"/>
</svg>
