<svg width="24" height="24" viewBox="0 0 24 24" fill="none" xmlns="http://www.w3.org/2000/svg">
<path d="M11 21V3C11 2.44772 11.4477 2 12 2C12.5523 2 13 2.44772 13 3V21C13 21.5523 12.5523 22 12 22C11.4477 22 11 21.5523 11 21ZM3.79297 7.29297C4.15908 6.92685 4.73809 6.90426 5.13086 7.22461L5.20703 7.29297L9.20703 11.293C9.59756 11.6835 9.59756 12.3165 9.20703 12.707L5.20703 16.707C4.81651 17.0976 4.18349 17.0976 3.79297 16.707C3.40244 16.3165 3.40244 15.6835 3.79297 15.293L6.08594 13H2C1.44772 13 1 12.5523 1 12C1 11.4477 1.44772 11 2 11H6.08594L3.79297 8.70703L3.72461 8.63086C3.40426 8.23809 3.42685 7.65908 3.79297 7.29297ZM18.793 7.29297C19.1835 6.90244 19.8165 6.90244 20.207 7.29297C20.5976 7.68349 20.5976 8.31651 20.207 8.70703L17.9141 11H22C22.5523 11 23 11.4477 23 12C23 12.5523 22.5523 13 22 13H17.9141L20.207 15.293L20.2754 15.3691C20.5957 15.7619 20.5731 16.3409 20.207 16.707C19.8409 17.0731 19.2619 17.0957 18.8691 16.7754L18.793 16.707L14.793 12.707C14.4024 12.3165 14.4024 11.6835 14.793 11.293L18.793 7.29297Z" fill="#475467"/>
</svg>
