<svg width="24" height="24" viewBox="0 0 24 24" fill="none" xmlns="http://www.w3.org/2000/svg">
<path d="M19 8.99996H4.99996V16.2002C4.99996 17.0565 5.00031 17.6388 5.03707 18.0888C5.07289 18.5272 5.13805 18.7518 5.21774 18.9082C5.40947 19.2844 5.71551 19.5905 6.09176 19.7822C6.24816 19.8619 6.47268 19.927 6.9111 19.9629C7.36113 19.9996 7.94338 20 8.79977 20H15.2002C16.0565 20 16.6388 19.9996 17.0888 19.9629C17.5272 19.927 17.7518 19.8619 17.9082 19.7822C18.2844 19.5905 18.5905 19.2844 18.7822 18.9082C18.8619 18.7518 18.927 18.5272 18.9629 18.0888C18.9996 17.6388 19 17.0565 19 16.2002V8.99996ZM14 12C14.5522 12 15 12.4477 15 13C15 13.5522 14.5522 14 14 14H9.99996C9.44768 14 8.99996 13.5522 8.99996 13C8.99996 12.4477 9.44768 12 9.99996 12H14ZM21 5.49996C21 4.98738 20.9948 4.8769 20.9804 4.80465C20.9015 4.40818 20.5917 4.09847 20.1953 4.01949C20.123 4.00512 20.0125 3.99996 19.5 3.99996H4.49996C3.98738 3.99996 3.8769 4.00512 3.80465 4.01949C3.40818 4.09847 3.09847 4.40818 3.01949 4.80465C3.00512 4.8769 2.99996 4.98738 2.99996 5.49996C2.99996 6.01255 3.00512 6.12303 3.01949 6.19528C3.09847 6.59174 3.40818 6.90146 3.80465 6.98043L4.02535 6.99703L4.06344 6.99996H19.9365C19.949 6.99917 19.9619 6.99736 19.9746 6.99703L20.1953 6.98043C20.5917 6.90146 20.9015 6.59174 20.9804 6.19528C20.9948 6.12303 21 6.01255 21 5.49996ZM23 5.49996C23 5.91655 23.0048 6.27085 22.9423 6.58492C22.7339 7.63275 21.9877 8.47914 21 8.82809V16.2002C21 17.0236 21.001 17.7015 20.956 18.2519C20.9101 18.814 20.8117 19.3311 20.5644 19.8164C20.1809 20.5689 19.5689 21.1809 18.8164 21.5644C18.3311 21.8117 17.814 21.9101 17.2519 21.956C16.7015 22.001 16.0236 22 15.2002 22H8.79977C7.97628 22 7.29839 22.001 6.74801 21.956C6.18595 21.9101 5.66886 21.8117 5.18356 21.5644C4.43105 21.1809 3.81898 20.5689 3.43551 19.8164C3.18824 19.3311 3.08984 18.814 3.04391 18.2519C2.99894 17.7015 2.99996 17.0236 2.99996 16.2002V8.82809C2.01227 8.47914 1.26601 7.63275 1.05758 6.58492C0.995156 6.27085 0.999964 5.91655 0.999964 5.49996C0.999964 5.08337 0.995156 4.72907 1.05758 4.415C1.2943 3.22493 2.22493 2.2943 3.415 2.05758C3.72907 1.99516 4.08337 1.99996 4.49996 1.99996H19.5C19.9166 1.99996 20.2709 1.99516 20.5849 2.05758C21.775 2.2943 22.7056 3.22493 22.9423 4.415C23.0048 4.72907 23 5.08337 23 5.49996Z" fill="#475467"/>
</svg>
