<svg width="24" height="24" viewBox="0 0 24 24" fill="none" xmlns="http://www.w3.org/2000/svg">
<path d="M14.2002 1.99997C14.3235 1.99997 14.476 1.99887 14.6094 2.00974C14.7184 2.01864 14.8631 2.03863 15.0205 2.0947L15.1807 2.16306L15.2842 2.22165C15.4855 2.34517 15.6548 2.51443 15.7783 2.71579L15.8369 2.81931L15.9053 2.97946C15.9613 3.13686 15.9813 3.2816 15.9902 3.3906C16.0011 3.52395 16 3.67645 16 3.79978V13H19C19.4044 13 19.769 13.2436 19.9238 13.6172C20.0786 13.9908 19.993 14.421 19.707 14.707L12.707 21.707C12.3165 22.0975 11.6835 22.0975 11.293 21.707L4.29297 14.707C4.00697 14.421 3.92139 13.9908 4.07617 13.6172C4.23099 13.2436 4.59559 13 5 13H8V3.79978C8 3.67645 7.9989 3.52395 8.00977 3.3906C8.02163 3.24547 8.05221 3.0371 8.16309 2.81931C8.3069 2.53706 8.53709 2.30687 8.81934 2.16306L8.97949 2.0947C9.13689 2.03863 9.28163 2.01864 9.39063 2.00974C9.52399 1.99887 9.67648 1.99997 9.79981 1.99997H14.2002ZM10 14C10 14.5523 9.55229 15 9 15H7.41406L12 19.5859L16.5859 15H15C14.4477 15 14 14.5523 14 14V3.99997H10V14Z" fill="#475467"/>
</svg>
