<svg width="24" height="24" viewBox="0 0 24 24" fill="none" xmlns="http://www.w3.org/2000/svg">
<path d="M5.99999 20V6.41407L3.70702 8.70704C3.31649 9.09757 2.68348 9.09757 2.29295 8.70704C1.90243 8.31652 1.90243 7.6835 2.29295 7.29298L6.29295 3.29298L6.36913 3.22462C6.7619 2.90427 7.3409 2.92686 7.70702 3.29298L11.707 7.29298L11.7754 7.36915C12.0957 7.76192 12.0731 8.34092 11.707 8.70704C11.3409 9.07316 10.7619 9.09575 10.3691 8.7754L10.293 8.70704L7.99999 6.41407V20C7.99999 20.5523 7.55227 21 6.99999 21C6.4477 21 5.99999 20.5523 5.99999 20ZM16 20V11.4141L13.707 13.707C13.3165 14.0976 12.6835 14.0976 12.293 13.707C11.9024 13.3165 11.9024 12.6835 12.293 12.293L16.293 8.29298L16.3691 8.22462C16.7619 7.90427 17.3409 7.92686 17.707 8.29298L21.707 12.293L21.7754 12.3692C22.0957 12.7619 22.0731 13.3409 21.707 13.707C21.3409 14.0732 20.7619 14.0958 20.3691 13.7754L20.293 13.707L18 11.4141V20C18 20.5523 17.5523 21 17 21C16.4477 21 16 20.5523 16 20Z" fill="#475467"/>
</svg>
