<svg width="24" height="24" viewBox="0 0 24 24" fill="none" xmlns="http://www.w3.org/2000/svg">
<path d="M4.22163 4.22172C7.01163 1.43173 10.9271 0.45508 14.5029 1.28715L14.8476 1.37309L14.9453 1.40434C15.4191 1.58397 15.6892 2.09752 15.5556 2.5977C15.4219 3.09778 14.9319 3.40779 14.4316 3.32719L14.331 3.30571L14.0488 3.23539C11.1185 2.55356 7.91681 3.35467 5.6357 5.63578C2.12098 9.1505 2.12098 14.8496 5.6357 18.3643C9.15042 21.879 14.8495 21.879 18.3642 18.3643C20.6453 16.0832 21.4464 12.8815 20.7646 9.95121L20.6943 9.66899L20.6728 9.5684C20.5922 9.0681 20.9022 8.57806 21.4023 8.44438C21.9025 8.3108 22.416 8.58086 22.5957 9.05473L22.6269 9.15238L22.7128 9.49711C23.5449 13.0729 22.5683 16.9884 19.7783 19.7784C15.4825 24.0741 8.5174 24.0741 4.22163 19.7784C-0.0741324 15.4826 -0.0741324 8.51749 4.22163 4.22172ZM18.2929 4.29301C18.6834 3.90248 19.3165 3.90249 19.707 4.29301C20.0975 4.68353 20.0975 5.31655 19.707 5.70707L11.414 14H15C15.5522 14 16 14.4478 16 15C16 15.5523 15.5522 16 15 16H8.99995C8.44778 15.9999 7.99995 15.5522 7.99995 15V9.00004C7.99996 8.44784 8.44778 8.00017 8.99995 8.00004C9.55224 8.00004 9.99995 8.44776 9.99995 9.00004V12.586L18.2929 4.29301Z" fill="#475467"/>
</svg>
