<svg width="24" height="24" viewBox="0 0 24 24" fill="none" xmlns="http://www.w3.org/2000/svg">
<path d="M9.49712 1.28715C13.0729 0.45508 16.9884 1.43173 19.7784 4.22172C24.0741 8.51749 24.0741 15.4826 19.7784 19.7784C15.4826 24.0741 8.5175 24.0741 4.22173 19.7784C1.34182 16.8984 0.393857 12.8193 1.3731 9.15238L1.40435 9.05473C1.58398 8.58086 2.09753 8.3108 2.59771 8.44438C3.13114 8.58698 3.44819 9.13549 3.30571 9.66899L3.2354 9.95121C2.55357 12.8815 3.35468 16.0832 5.63579 18.3643C9.15051 21.879 14.8496 21.879 18.3643 18.3643C21.879 14.8496 21.879 9.1505 18.3643 5.63578C16.0097 3.28122 12.6743 2.50328 9.669 3.30571L9.56841 3.32719C9.06811 3.40779 8.57807 3.09778 8.44439 2.5977C8.3019 2.06413 8.61883 1.5156 9.15239 1.37309L9.49712 1.28715ZM4.29302 4.29301C4.65915 3.92688 5.23814 3.90425 5.63091 4.22465L5.70708 4.29301L14.0001 12.586V9.00004C14.0001 8.4478 14.4478 8.00012 15.0001 8.00004C15.5523 8.00004 16 8.44776 16.0001 9.00004V15C16.0001 15.5523 15.5523 16 15.0001 16H9.00005C8.44783 16 8.00005 15.5523 8.00005 15C8.00005 14.4478 8.44783 14.0001 9.00005 14H12.586L4.29302 5.70707L4.22466 5.6309C3.90427 5.23813 3.92689 4.65914 4.29302 4.29301Z" fill="#475467"/>
</svg>
