<svg width="24" height="24" viewBox="0 0 24 24" fill="none" xmlns="http://www.w3.org/2000/svg">
<path d="M0.999931 12C0.999931 5.92487 5.9248 1 11.9999 1C16.0726 1 19.6268 3.21393 21.5273 6.49902C21.8038 6.97699 21.6408 7.58861 21.163 7.86523C20.715 8.12443 20.1494 7.9975 19.8525 7.58691L19.7968 7.50098L19.6464 7.25098C18.0565 4.69685 15.2259 3 11.9999 3C7.02937 3 2.99993 7.02944 2.99993 12C2.99993 16.9706 7.02937 21 11.9999 21C15.3299 21 18.2392 19.1917 19.7968 16.499C20.0734 16.0212 20.6851 15.8583 21.163 16.1348C21.6408 16.4114 21.8038 17.023 21.5273 17.501C19.6268 20.7861 16.0726 23 11.9999 23C5.9248 23 0.999931 18.0751 0.999931 12ZM11.2929 7.29297C11.6834 6.90246 12.3164 6.90248 12.707 7.29297C13.0975 7.68349 13.0975 8.31651 12.707 8.70703L10.414 11H21.9999C22.5522 11 22.9999 11.4477 22.9999 12C22.9999 12.5523 22.5522 13 21.9999 13H10.414L12.707 15.293L12.7753 15.3691C13.0957 15.7619 13.0731 16.3409 12.707 16.707C12.3408 17.0731 11.7618 17.0958 11.3691 16.7754L11.2929 16.707L7.2929 12.707C6.90242 12.3165 6.90242 11.6835 7.2929 11.293L11.2929 7.29297Z" fill="#475467"/>
</svg>
