<svg width="24" height="24" viewBox="0 0 24 24" fill="none" xmlns="http://www.w3.org/2000/svg">
<path d="M13.6172 4.07614C13.9909 3.92136 14.421 4.00694 14.707 4.29294L21.707 11.2929C22.0976 11.6835 22.0976 12.3165 21.707 12.707L14.707 19.707C14.421 19.993 13.9909 20.0786 13.6172 19.9238C13.2436 19.769 13 19.4044 13 19V16H3.79981C3.67648 16 3.52398 16.0011 3.39063 15.9902C3.2455 15.9783 3.03713 15.9478 2.81934 15.8369C2.53709 15.6931 2.3069 15.4629 2.16309 15.1806C2.05221 14.9628 2.02162 14.7545 2.00977 14.6093C1.9989 14.476 2 14.3235 2 14.2002V9.79978C2 9.67645 1.9989 9.52395 2.00977 9.3906C2.02162 9.24547 2.05221 9.0371 2.16309 8.81931L2.22168 8.71579C2.3658 8.48085 2.5724 8.28888 2.81934 8.16306C3.03713 8.05218 3.2455 8.02159 3.39063 8.00974C3.52398 7.99887 3.67648 7.99997 3.79981 7.99997H13V4.99997C13 4.59556 13.2436 4.23095 13.6172 4.07614ZM15 8.99997C15 9.55226 14.5523 9.99997 14 9.99997H4V14H14C14.5523 14 15 14.4477 15 15V16.5859L19.5859 12L15 7.41403V8.99997Z" fill="#475467"/>
</svg>
