<svg width="24" height="24" viewBox="0 0 24 24" fill="none" xmlns="http://www.w3.org/2000/svg">
<path d="M9.29297 5.29302C9.68349 4.90249 10.3165 4.90249 10.707 5.29302C11.0976 5.68354 11.0976 6.31655 10.707 6.70708L6.41406 11H20C20.5523 11 21 11.4478 21 12C21 12.5523 20.5523 13 20 13H6.41406L10.707 17.293L10.7754 17.3692C11.0957 17.762 11.0731 18.341 10.707 18.7071C10.3409 19.0732 9.76192 19.0958 9.36914 18.7754L9.29297 18.7071L3.29297 12.7071C2.90245 12.3166 2.90245 11.6835 3.29297 11.293L9.29297 5.29302Z" fill="#475467"/>
</svg>
