<svg width="24" height="24" viewBox="0 0 24 24" fill="none" xmlns="http://www.w3.org/2000/svg">
<path d="M15.293 12.293C15.6591 11.9268 16.2381 11.9042 16.6309 12.2246L16.707 12.293L20.707 16.293C21.0976 16.6835 21.0976 17.3165 20.707 17.707L16.707 21.707C16.3165 22.0975 15.6835 22.0975 15.293 21.707C14.9024 21.3165 14.9024 20.6835 15.293 20.293L17.5859 18H4C3.44772 18 3 17.5523 3 17C3 16.4477 3.44772 16 4 16H17.5859L15.293 13.707L15.2246 13.6308C14.9043 13.2381 14.9269 12.6591 15.293 12.293ZM10.293 2.29295C10.6835 1.90243 11.3165 1.90243 11.707 2.29295L15.707 6.29295C16.0976 6.68348 16.0976 7.31649 15.707 7.70702L11.707 11.707C11.3165 12.0975 10.6835 12.0975 10.293 11.707C9.90244 11.3165 9.90244 10.6835 10.293 10.293L12.5859 7.99999H4C3.44772 7.99999 3 7.55227 3 6.99999C3 6.4477 3.44772 5.99999 4 5.99999H12.5859L10.293 3.70702L10.2246 3.63084C9.90426 3.23807 9.92685 2.65907 10.293 2.29295Z" fill="#475467"/>
</svg>
