<svg width="24" height="24" viewBox="0 0 24 24" fill="none" xmlns="http://www.w3.org/2000/svg">
<path d="M21 12C21 7.02944 16.9706 3 12 3C7.02944 3 3 7.02944 3 12C3 16.9706 7.02944 21 12 21C16.9706 21 21 16.9706 21 12ZM11.293 7.29297C11.6835 6.90244 12.3165 6.90244 12.707 7.29297C13.0976 7.68349 13.0976 8.31651 12.707 8.70703L10.4141 11H16C16.5523 11 17 11.4477 17 12C17 12.5523 16.5523 13 16 13H10.4141L12.707 15.293L12.7754 15.3691C13.0957 15.7619 13.0731 16.3409 12.707 16.707C12.3409 17.0731 11.7619 17.0957 11.3691 16.7754L11.293 16.707L7.29297 12.707C6.90244 12.3165 6.90244 11.6835 7.29297 11.293L11.293 7.29297ZM23 12C23 18.0751 18.0751 23 12 23C5.92487 23 1 18.0751 1 12C1 5.92487 5.92487 1 12 1C18.0751 1 23 5.92487 23 12Z" fill="#475467"/>
</svg>
