<svg width="24" height="24" viewBox="0 0 24 24" fill="none" xmlns="http://www.w3.org/2000/svg">
<path d="M21 12C21 7.02944 16.9706 3 12 3C8.67002 3.00003 5.76077 4.80828 4.20312 7.50098C3.92649 7.97877 3.31486 8.14171 2.83691 7.86523C2.35912 7.5886 2.19618 6.97697 2.47266 6.49902C4.37314 3.21394 7.92736 1.00003 12 1C18.0751 1 23 5.92487 23 12C23 18.0751 18.0751 23 12 23C8.05453 23 4.5954 20.9223 2.65527 17.8057L2.47266 17.501L2.42578 17.4092C2.21788 16.9472 2.38909 16.3941 2.83691 16.1348C3.31486 15.8583 3.92649 16.0212 4.20312 16.499C5.76077 19.1917 8.67002 21 12 21C16.9706 21 21 16.9706 21 12ZM11.293 7.29297C11.6591 6.92685 12.2381 6.90426 12.6309 7.22461L12.707 7.29297L16.707 11.293C16.8946 11.4805 17 11.7348 17 12C17 12.2652 16.8946 12.5195 16.707 12.707L12.707 16.707C12.3165 17.0976 11.6835 17.0976 11.293 16.707C10.9024 16.3165 10.9024 15.6835 11.293 15.293L13.5859 13H2C1.44772 13 1 12.5523 1 12C1 11.4477 1.44772 11 2 11H13.5859L11.293 8.70703L11.2246 8.63086C10.9043 8.23809 10.9269 7.65908 11.293 7.29297Z" fill="#475467"/>
</svg>
