<svg width="24" height="24" viewBox="0 0 24 24" fill="none" xmlns="http://www.w3.org/2000/svg">
<path d="M11 20V6.41407L6.70703 10.707C6.31651 11.0976 5.68349 11.0976 5.29297 10.707C4.90245 10.3165 4.90245 9.6835 5.29297 9.29298L11.293 3.29298L11.3691 3.22462C11.7619 2.90427 12.3409 2.92686 12.707 3.29298L18.707 9.29298L18.7754 9.36915C19.0957 9.76192 19.0731 10.3409 18.707 10.707C18.3409 11.0732 17.7619 11.0958 17.3691 10.7754L17.293 10.707L13 6.41407V20C13 20.5523 12.5523 21 12 21C11.4477 21 11 20.5523 11 20Z" fill="#475467"/>
</svg>
