<svg width="24" height="24" viewBox="0 0 24 24" fill="none" xmlns="http://www.w3.org/2000/svg">
<path d="M4.22163 4.22158C8.5174 -0.0741861 15.4825 -0.0741856 19.7783 4.22158C22.6582 7.10149 23.6061 11.1807 22.6269 14.8476L22.5957 14.9452C22.416 15.4191 21.9025 15.6891 21.4023 15.5556C20.8689 15.413 20.5518 14.8645 20.6943 14.331C21.4967 11.3256 20.7188 7.99021 18.3642 5.63564C14.8495 2.12093 9.15042 2.12092 5.6357 5.63564C2.12098 9.15036 2.12098 14.8494 5.6357 18.3642C7.99026 20.7187 11.3257 21.4967 14.331 20.6942C14.8645 20.5518 15.413 20.8688 15.5556 21.4022C15.6981 21.9358 15.3812 22.4843 14.8476 22.6269L14.5029 22.7128C10.9271 23.5449 7.01163 22.5682 4.22163 19.7782C-0.0741322 15.4825 -0.0741327 8.51735 4.22163 4.22158ZM7.99995 14.9999V8.9999C8.00001 8.44774 8.44781 8.00003 8.99996 7.9999H15C15.5522 7.9999 15.9999 8.44766 16 8.9999C16 9.55219 15.5522 9.9999 15 9.9999H11.414L19.707 18.2929L19.7753 18.369C20.0957 18.7618 20.0731 19.3408 19.707 19.7069C19.3409 20.0731 18.7619 20.0957 18.3691 19.7753L18.2929 19.7069L9.99996 11.414V14.9999C9.99996 15.5522 9.55224 15.9999 8.99996 15.9999C8.44778 15.9998 7.99995 15.5521 7.99995 14.9999Z" fill="#475467"/>
</svg>
