<svg width="24" height="24" viewBox="0 0 24 24" fill="none" xmlns="http://www.w3.org/2000/svg">
<path d="M7.41406 9.00001H9C9.55229 9.00001 10 9.44772 10 10V20H14V10C14 9.44772 14.4477 9.00001 15 9.00001H16.5859L12 4.41407L7.41406 9.00001ZM16 20.2002C16 20.3235 16.0011 20.476 15.9902 20.6094C15.9784 20.7545 15.9478 20.9629 15.8369 21.1807C15.6931 21.4629 15.4629 21.6931 15.1807 21.8369C14.9629 21.9478 14.7545 21.9784 14.6094 21.9902C14.476 22.0011 14.3235 22 14.2002 22H9.79981C9.67648 22 9.52399 22.0011 9.39063 21.9902C9.2455 21.9784 9.03713 21.9478 8.81934 21.8369C8.5371 21.6931 8.3069 21.4629 8.16309 21.1807C8.05221 20.9629 8.02163 20.7545 8.00977 20.6094C7.9989 20.476 8 20.3235 8 20.2002V11H5C4.59559 11 4.23099 10.7564 4.07617 10.3828C3.92139 10.0091 4.00697 9.57898 4.29297 9.29298L11.293 2.29298L11.3691 2.22462C11.7619 1.90427 12.3409 1.92686 12.707 2.29298L19.707 9.29298C19.993 9.57898 20.0786 10.0091 19.9238 10.3828C19.769 10.7564 19.4044 11 19 11H16V20.2002Z" fill="#475467"/>
</svg>
