<svg width="24" height="24" viewBox="0 0 24 24" fill="none" xmlns="http://www.w3.org/2000/svg">
<path d="M18.5059 11.647C18.9477 11.377 19.5166 11.4905 19.8232 11.894L19.8809 11.979L20.8779 13.6099C21.3538 14.3885 21.7477 15.0313 22.0088 15.562C22.2667 16.0865 22.4759 16.6538 22.4228 17.2612C22.3479 18.1185 21.9081 18.9025 21.2158 19.4136C20.7251 19.7757 20.1319 19.8934 19.5498 19.9468C18.9608 20.0008 18.2066 19.9995 17.2939 19.9995H14.9141L16.207 21.2925C16.5975 21.683 16.5975 22.317 16.207 22.7075C15.8166 23.0977 15.1834 23.0977 14.793 22.7075L11.793 19.7075C11.4024 19.317 11.4024 18.683 11.793 18.2925L14.793 15.2925L14.8691 15.2241C15.2618 14.904 15.841 14.9267 16.207 15.2925C16.5975 15.683 16.5975 16.317 16.207 16.7075L14.915 17.9995H17.2939C18.2462 17.9995 18.8913 17.9992 19.3672 17.9556C19.8499 17.9113 19.9884 17.8329 20.0273 17.8042C20.2581 17.6339 20.4046 17.3731 20.4297 17.0874C20.4339 17.0393 20.4289 16.88 20.2148 16.4448C20.0039 16.016 19.6684 15.4653 19.1719 14.6528L18.1748 13.021L18.126 12.9312C17.9069 12.4744 18.0644 11.917 18.5059 11.647ZM5.83886 9.53369C6.37223 9.39078 6.92138 9.70744 7.06445 10.2407L7.07324 10.2739C7.08898 10.3188 7.10014 10.365 7.10937 10.4116L8.1621 14.3394L8.18359 14.439C8.26484 14.9394 7.95526 15.4299 7.45507 15.564C6.95504 15.6979 6.44178 15.4282 6.26171 14.9546L6.23046 14.8569L5.76464 13.1196L4.82812 14.6528C4.33159 15.4653 3.99605 16.016 3.78515 16.4448C3.57114 16.88 3.5661 17.0393 3.57031 17.0874C3.59538 17.3731 3.7419 17.6339 3.97265 17.8042C4.01158 17.8329 4.1501 17.9113 4.63281 17.9556C5.10872 17.9992 5.75382 17.9995 6.70605 17.9995H8.49999C9.05212 17.9995 9.49973 18.4474 9.49999 18.9995C9.49999 19.5518 9.05228 19.9995 8.49999 19.9995H6.70605C5.79338 19.9995 5.03919 20.0008 4.45019 19.9468C3.86813 19.8934 3.27484 19.7757 2.78417 19.4136C2.09192 18.9025 1.65213 18.1185 1.57714 17.2612C1.52407 16.6538 1.73329 16.0865 1.99121 15.562C2.25225 15.0313 2.64622 14.3885 3.12206 13.6099L4.05468 12.0825L2.25878 12.564C1.72535 12.7069 1.17714 12.3903 1.03417 11.8569C0.891234 11.3235 1.20775 10.7753 1.74121 10.6323L5.83886 9.53369ZM10.8076 2.08252C11.5684 1.75301 12.4316 1.75301 13.1924 2.08252C13.7262 2.31385 14.1134 2.73272 14.4443 3.17725C14.7765 3.62348 15.1428 4.22481 15.584 4.94678L16.5527 6.53369L17.0342 4.7417C17.1771 4.20828 17.7254 3.89084 18.2588 4.03369C18.7922 4.17663 19.1088 4.72581 18.9658 5.25928L17.8682 9.35693C17.7253 9.89027 17.1769 10.2066 16.6435 10.064L12.5449 8.96631C12.0116 8.8234 11.6952 8.27502 11.8379 7.7417C11.9808 7.20832 12.5291 6.89093 13.0625 7.03369L14.7988 7.49854L13.8769 5.98975C13.4154 5.23442 13.1044 4.72694 12.8398 4.37158C12.5742 4.01477 12.4446 3.93792 12.3975 3.91748C12.1439 3.80771 11.8561 3.80771 11.6025 3.91748C11.5554 3.93792 11.4258 4.01477 11.1602 4.37158C10.8956 4.72694 10.5846 5.23442 10.123 5.98975L9.10253 7.65869L7.39648 6.61572L8.41601 4.94678C8.85721 4.22481 9.2235 3.62348 9.55566 3.17725C9.88657 2.73272 10.2738 2.31385 10.8076 2.08252ZM9.10253 7.65869C8.81443 8.12959 8.19961 8.27763 7.72851 7.98975C7.25731 7.70179 7.10863 7.08696 7.39648 6.61572L9.10253 7.65869Z" fill="#475467"/>
</svg>
