<svg width="24" height="24" viewBox="0 0 24 24" fill="none" xmlns="http://www.w3.org/2000/svg">
<path d="M4.22173 4.22158C8.5175 -0.0741856 15.4826 -0.0741861 19.7784 4.22158C24.0741 8.51735 24.0741 15.4825 19.7784 19.7782C16.9884 22.5682 13.0729 23.5449 9.49712 22.7128L9.15239 22.6269L9.05474 22.5956C8.58087 22.416 8.31081 21.9024 8.44438 21.4022C8.57807 20.9022 9.0681 20.5922 9.56841 20.6728L9.66899 20.6942L9.95122 20.7645C12.8815 21.4464 16.0832 20.6453 18.3643 18.3642C21.879 14.8494 21.879 9.15036 18.3643 5.63564C14.8496 2.12092 9.15051 2.12093 5.63579 5.63564C3.35468 7.91675 2.55356 11.1184 3.2354 14.0487L3.30571 14.331L3.3272 14.4315C3.4078 14.9318 3.09778 15.4219 2.59771 15.5556C2.09753 15.6891 1.58398 15.4191 1.40435 14.9452L1.3731 14.8476L1.28716 14.5028C0.455088 10.927 1.43174 7.01157 4.22173 4.22158ZM16 14.9999C16 15.5522 15.5523 15.9999 15 15.9999C14.4478 15.9998 14 15.5521 14 14.9999V11.414L5.70708 19.7069C5.31655 20.0974 4.68354 20.0975 4.29302 19.7069C3.9025 19.3164 3.90249 18.6834 4.29302 18.2929L12.586 9.9999H9.00005C8.44783 9.99983 8.00005 9.55214 8.00005 8.9999C8.0001 8.44771 8.44786 7.99998 9.00005 7.9999H15C15.5523 7.9999 16 8.44766 16 8.9999V14.9999Z" fill="#475467"/>
</svg>
