<svg width="24" height="24" viewBox="0 0 24 24" fill="none" xmlns="http://www.w3.org/2000/svg">
<path d="M4.41406 12L9 16.5859V15C9 14.4477 9.44772 14 10 14H20V9.99997H10C9.44772 9.99997 9 9.55226 9 8.99997V7.41403L4.41406 12ZM22 14.2002C22 14.3235 22.0011 14.476 21.9902 14.6093C21.9784 14.7545 21.9478 14.9628 21.8369 15.1806C21.6931 15.4629 21.4629 15.6931 21.1807 15.8369C20.9629 15.9478 20.7545 15.9783 20.6094 15.9902C20.476 16.0011 20.3235 16 20.2002 16H11V19C11 19.4044 10.7564 19.769 10.3828 19.9238C10.0091 20.0786 9.57897 19.993 9.29297 19.707L2.29297 12.707C1.90245 12.3165 1.90245 11.6835 2.29297 11.2929L9.29297 4.29294C9.57897 4.00694 10.0091 3.92136 10.3828 4.07614C10.7564 4.23095 11 4.59556 11 4.99997V7.99997H20.2002C20.3235 7.99997 20.476 7.99887 20.6094 8.00974C20.7545 8.02159 20.9629 8.05218 21.1807 8.16306C21.4276 8.28888 21.6342 8.48085 21.7783 8.71579L21.8369 8.81931L21.9053 8.97946C21.9613 9.13686 21.9813 9.2816 21.9902 9.3906C22.0011 9.52395 22 9.67645 22 9.79978V14.2002Z" fill="#475467"/>
</svg>
