<svg width="24" height="24" viewBox="0 0 24 24" fill="none" xmlns="http://www.w3.org/2000/svg">
<path d="M7.29297 12.293C7.68349 11.9025 8.31651 11.9025 8.70703 12.293C9.09756 12.6835 9.09756 13.3166 8.70703 13.7071L6.41406 16H20C20.5523 16 21 16.4478 21 17C21 17.5523 20.5523 18 20 18H6.41406L8.70703 20.293L8.77539 20.3692C9.09574 20.762 9.07315 21.341 8.70703 21.7071C8.34092 22.0732 7.76192 22.0958 7.36914 21.7754L7.29297 21.7071L3.29297 17.7071C2.90245 17.3166 2.90245 16.6835 3.29297 16.293L7.29297 12.293ZM12.293 2.29302C12.6835 1.90249 13.3165 1.90249 13.707 2.29302C14.0976 2.68354 14.0976 3.31655 13.707 3.70708L11.4141 6.00005H20L20.1025 6.00493C20.6067 6.05626 21 6.48237 21 7.00005C21 7.51772 20.6067 7.94383 20.1025 7.99516L20 8.00005H11.4141L13.707 10.293L13.7754 10.3692C14.0957 10.762 14.0731 11.341 13.707 11.7071C13.3409 12.0732 12.7619 12.0958 12.3691 11.7754L12.293 11.7071L8.29297 7.70708C8.10543 7.51954 8 7.26526 8 7.00005C8 6.73483 8.10543 6.48055 8.29297 6.29302L12.293 2.29302Z" fill="#475467"/>
</svg>
