<svg width="24" height="24" viewBox="0 0 24 24" fill="none" xmlns="http://www.w3.org/2000/svg">
<path d="M6 4C6 3.44772 6.44772 3 7 3C7.55229 3 8 3.44772 8 4V17.5859L10.293 15.293C10.6835 14.9024 11.3165 14.9024 11.707 15.293C12.0976 15.6835 12.0976 16.3165 11.707 16.707L7.70703 20.707C7.31651 21.0976 6.68349 21.0976 6.29297 20.707L2.29297 16.707C1.90245 16.3165 1.90245 15.6835 2.29297 15.293C2.65909 14.9269 3.23809 14.9043 3.63086 15.2246L3.70703 15.293L6 17.5859V4ZM16 4C16 3.44772 16.4477 3 17 3C17.5523 3 18 3.44772 18 4V12.5859L20.293 10.293C20.6835 9.90244 21.3165 9.90244 21.707 10.293C22.0976 10.6835 22.0976 11.3165 21.707 11.707L17.707 15.707C17.3165 16.0976 16.6835 16.0976 16.293 15.707L12.293 11.707L12.2246 11.6309C11.9043 11.2381 11.9269 10.6591 12.293 10.293C12.6591 9.92685 13.2381 9.90426 13.6309 10.2246L13.707 10.293L16 12.5859V4Z" fill="#475467"/>
</svg>
