<svg width="24" height="24" viewBox="0 0 24 24" fill="none" xmlns="http://www.w3.org/2000/svg">
<path d="M11 20V14.4141L6.70703 18.707C6.31651 19.0976 5.68349 19.0976 5.29297 18.707C4.90244 18.3165 4.90244 17.6835 5.29297 17.293L9.58594 13H4C3.44772 13 3 12.5523 3 12C3 11.4477 3.44772 11 4 11H9.58594L5.29297 6.70703L5.22461 6.63086C4.90426 6.23809 4.92685 5.65908 5.29297 5.29297C5.65908 4.92685 6.23809 4.90426 6.63086 5.22461L6.70703 5.29297L11 9.58594V4C11 3.44772 11.4477 3 12 3C12.5523 3 13 3.44772 13 4V9.58594L17.293 5.29297C17.6835 4.90244 18.3165 4.90244 18.707 5.29297C19.0976 5.68349 19.0976 6.31651 18.707 6.70703L14.4141 11H20C20.5523 11 21 11.4477 21 12C21 12.5523 20.5523 13 20 13H14.4141L18.707 17.293L18.7754 17.3691C19.0957 17.7619 19.0731 18.3409 18.707 18.707C18.3409 19.0731 17.7619 19.0957 17.3691 18.7754L17.293 18.707L13 14.4141V20C13 20.5523 12.5523 21 12 21C11.4477 21 11 20.5523 11 20Z" fill="#475467"/>
</svg>
