<svg width="24" height="24" viewBox="0 0 24 24" fill="none" xmlns="http://www.w3.org/2000/svg">
<path d="M11.9999 6.99968C13.1258 6.99968 14.1642 7.37276 14.9999 8.00066V7.99968C15.0001 7.44757 15.4478 6.99969 15.9999 6.99968C16.5521 6.99968 16.9997 7.44756 16.9999 7.99968V12.9997C16.9999 13.5301 17.2108 14.0397 17.5859 14.4147C17.9609 14.7896 18.4697 14.9997 18.9999 14.9997C19.5302 14.9997 20.039 14.7896 20.414 14.4147C20.7891 14.0397 20.9999 13.5301 20.9999 12.9997V11.9997C20.9997 9.96856 20.3123 7.99698 19.0497 6.40593C17.7871 4.8149 16.0229 3.69763 14.0449 3.23601C12.0669 2.77452 9.99061 2.99612 8.15423 3.86394C6.31791 4.73185 4.82878 6.19505 3.92962 8.01629C3.03045 9.83758 2.7745 11.9095 3.20209 13.8952C3.62975 15.8808 4.71593 17.6641 6.28509 18.9538C7.85438 20.2435 9.81467 20.9648 11.8456 20.9997C13.8764 21.0345 15.8591 20.381 17.4716 19.1462C17.91 18.8104 18.5381 18.8934 18.874 19.3317C19.2097 19.7701 19.1267 20.3982 18.6884 20.7341C16.7173 22.2435 14.2928 23.0414 11.8105 22.9987C9.32831 22.9559 6.93349 22.075 5.01556 20.4987C3.09773 18.9225 1.76978 16.7438 1.24701 14.3171C0.72431 11.8902 1.03773 9.35759 2.13666 7.13152C3.23567 4.90546 5.05522 3.11612 7.29974 2.05535C9.54439 0.99459 12.0822 0.724526 14.4999 1.28875C16.9175 1.85296 19.0729 3.21823 20.6161 5.16277C22.1593 7.10743 22.9997 9.51712 22.9999 11.9997V12.9997C22.9999 14.0605 22.5782 15.0786 21.8281 15.8288C21.0779 16.5787 20.0607 16.9997 18.9999 16.9997C17.9392 16.9997 16.9219 16.5787 16.1718 15.8288C16.0126 15.6696 15.8689 15.4973 15.7402 15.3161C14.8242 16.3485 13.4886 16.9997 11.9999 16.9997C9.23852 16.9997 6.99994 14.7611 6.99994 11.9997C7.00013 9.23843 9.23864 6.99969 11.9999 6.99968ZM8.99994 11.9997C8.99994 13.6565 10.3431 14.9997 11.9999 14.9997C13.6568 14.9997 14.9999 13.6565 14.9999 11.9997C14.9997 10.343 13.6567 8.99968 11.9999 8.99968C10.3432 8.99969 9.00013 10.343 8.99994 11.9997Z" fill="#475467"/>
</svg>
