<svg width="24" height="24" viewBox="0 0 24 24" fill="none" xmlns="http://www.w3.org/2000/svg">
<path d="M18.4347 1.80515C19.4618 1.7975 20.4581 2.07367 21.1925 2.80808C21.9266 3.54241 22.2021 4.53807 22.1945 5.56491C22.1868 6.58715 21.9017 7.7212 21.424 8.88132C21.013 9.87927 20.4433 10.9315 19.7375 11.9995C20.4437 13.0679 21.0129 14.1213 21.424 15.1196C21.9016 16.2796 22.1868 17.4129 22.1945 18.435C22.2021 19.4621 21.926 20.4575 21.1916 21.1919C20.4572 21.9263 19.4618 22.2024 18.4347 22.1948C17.4126 22.1871 16.2793 21.9019 15.1193 21.4243C14.121 21.0132 13.0676 20.444 11.9992 19.7378C10.931 20.4438 9.87819 21.0143 8.88004 21.4253C7.72009 21.9028 6.5867 22.1871 5.56461 22.1948C4.53752 22.2024 3.54121 21.9273 2.8068 21.1928C2.07241 20.4584 1.79717 19.4621 1.80484 18.435C1.81251 17.4128 2.09767 16.2797 2.57535 15.1196C2.98639 14.1214 3.55476 13.0678 4.2609 11.9995C3.55499 10.9315 2.9863 9.87835 2.57535 8.88034C2.09769 7.72027 1.81251 6.58711 1.80484 5.56491C1.79718 4.53781 2.07238 3.54152 2.8068 2.8071C3.54122 2.07268 4.53751 1.79749 5.56461 1.80515C6.5868 1.81281 7.71997 2.098 8.88004 2.57566C9.87805 2.9866 10.9312 3.55529 11.9992 4.2612C13.0674 3.55511 14.1211 2.98667 15.1193 2.57566C16.2793 2.09802 17.4126 1.81281 18.4347 1.80515ZM5.52555 13.7397C5.07297 14.4835 4.70293 15.2039 4.42398 15.8813C4.00614 16.8962 3.81 17.7673 3.80484 18.4497C3.79976 19.1272 3.98004 19.536 4.22184 19.7778C4.46367 20.0196 4.87242 20.1999 5.54996 20.1948C6.23244 20.1897 7.10411 19.9937 8.1193 19.5757C8.79677 19.2967 9.51607 18.9257 10.2599 18.4731C9.41517 17.8043 8.57323 17.0589 7.75699 16.2426C6.94062 15.4263 6.19445 14.5846 5.52555 13.7397ZM18.4728 13.7397C17.804 14.5845 17.0586 15.4264 16.2423 16.2426C15.4261 17.0589 14.5841 17.8043 13.7394 18.4731C14.4833 18.9257 15.2026 19.2967 15.88 19.5757C16.8952 19.9937 17.7669 20.1897 18.4494 20.1948C19.1269 20.1999 19.5357 20.0196 19.7775 19.7778C20.0193 19.536 20.1996 19.1272 20.1945 18.4497C20.1894 17.7672 19.9934 16.8955 19.5754 15.8803C19.2964 15.2029 18.9254 14.4836 18.4728 13.7397ZM11.9992 6.70944C11.0577 7.41625 10.1024 8.24002 9.17105 9.17136C8.23958 10.1028 7.41504 11.0579 6.70816 11.9995C7.41515 12.9413 8.23936 13.8969 9.17105 14.8286C10.1024 15.7599 11.0577 16.5837 11.9992 17.2905C12.9408 16.5836 13.8967 15.7601 14.8283 14.8286C15.7598 13.897 16.5833 12.9412 17.2902 11.9995C16.5834 11.058 15.7596 10.1027 14.8283 9.17136C13.8967 8.23982 12.9408 7.41635 11.9992 6.70944ZM12.1535 10.5083C12.9096 10.5853 13.5002 11.224 13.5002 12.0005C13.5 12.8286 12.8282 13.5002 12.0002 13.5005C11.2236 13.5005 10.5839 12.91 10.507 12.1538L10.5002 12.0005L10.507 11.8471C10.5836 11.0906 11.2234 10.5005 12.0002 10.5005L12.1535 10.5083ZM18.4494 3.80515C17.7669 3.81028 16.8952 4.00725 15.88 4.42527C15.2028 4.70416 14.483 5.07343 13.7394 5.52585C14.5843 6.19475 15.426 6.94092 16.2423 7.7573C17.0586 8.57353 17.804 9.41548 18.4728 10.2602C18.9254 9.51637 19.2964 8.79708 19.5754 8.1196C19.9934 7.10438 20.1894 6.23275 20.1945 5.55027C20.1996 4.87277 20.0193 4.46396 19.7775 4.22214C19.5357 3.98034 19.1269 3.80007 18.4494 3.80515ZM5.54996 3.80515C4.87242 3.80007 4.46367 3.98031 4.22184 4.22214C3.98 4.46397 3.79976 4.87272 3.80484 5.55027C3.80998 6.23274 4.00598 7.10444 4.42398 8.1196C4.70282 8.79672 5.07324 9.51581 5.52555 10.2592C6.19432 9.41458 6.94083 8.57346 7.75699 7.7573C8.57318 6.94111 9.41424 6.19463 10.2589 5.52585C9.5155 5.07355 8.79642 4.70312 8.1193 4.42429C7.10413 4.00628 6.23243 3.81029 5.54996 3.80515Z" fill="#475467"/>
</svg>
