<svg width="24" height="24" viewBox="0 0 24 24" fill="none" xmlns="http://www.w3.org/2000/svg">
<path d="M14.2388 2.56153C16.5621 1.87822 18.9547 1.98388 20.5064 3.53516C21.5684 4.59713 21.9537 6.07053 21.8726 7.61231C21.7994 9.00337 21.3463 10.5159 20.5972 12.0195C20.9701 12.7678 21.2674 13.512 21.481 14.2383C22.1644 16.5617 22.058 18.9542 20.5064 20.5059C18.9547 22.0575 16.5623 22.1638 14.2388 21.4805C13.5128 21.2669 12.769 20.9694 12.021 20.5967C11.2731 20.9693 10.5292 21.267 9.80326 21.4805C7.47992 22.1637 5.08724 22.0574 3.53568 20.5059C2.47472 19.4446 2.09005 17.9731 2.17045 16.4326C2.24318 15.0403 2.69494 13.5256 3.44486 12.0205C3.07228 11.2727 2.77553 10.5286 2.56205 9.80274C1.87877 7.47938 1.98411 5.08674 3.53568 3.53516C5.08726 1.98359 7.4799 1.87825 9.80326 2.56153C10.5291 2.77501 11.2732 3.07176 12.021 3.44434C12.7689 3.07169 13.5129 2.77506 14.2388 2.56153ZM4.70267 14.1377C4.38323 15.0022 4.20531 15.8138 4.16752 16.5361C4.10684 17.6978 4.40565 18.5467 4.95072 19.0918C5.7422 19.8832 7.21188 20.1576 9.23881 19.5615C9.45695 19.4974 9.67835 19.4218 9.90287 19.3389C8.93035 18.6669 7.97497 17.8738 7.07181 16.9707C6.16816 16.0671 5.37492 15.1108 4.70267 14.1377ZM9.23881 4.48047C7.21174 3.88436 5.74219 4.15874 4.95072 4.9502C4.15926 5.74166 3.88488 7.21122 4.48099 9.23829C5.06509 11.2242 6.43299 13.5038 8.48588 15.5566C9.624 16.6947 10.8324 17.621 12.021 18.3213C13.2099 17.621 14.4188 16.695 15.5572 15.5566C15.8398 15.274 16.1096 14.9861 16.3667 14.6953C16.7326 14.2818 17.3642 14.2437 17.7779 14.6094C18.1916 14.9753 18.2306 15.6068 17.8648 16.0205C17.5805 16.3419 17.2827 16.6593 16.9712 16.9707C16.0679 17.8741 15.1119 18.6668 14.1392 19.3389C14.3638 19.4219 14.585 19.4973 14.8033 19.5615C16.8305 20.1578 18.3008 19.8833 19.0923 19.0918C19.8838 18.3003 20.1583 16.83 19.562 14.8027C19.3494 14.0799 19.0323 13.3185 18.6167 12.543C18.5973 12.511 18.5797 12.4782 18.564 12.4443C17.8412 11.1204 16.8311 9.75929 15.5572 8.48536C14.4186 7.34678 13.2101 6.41912 12.021 5.71875C10.8321 6.41908 9.62427 7.34696 8.48588 8.48536C8.19041 8.78082 7.90873 9.08151 7.64115 9.38575L7.56986 9.45899C7.1985 9.80382 6.61885 9.81824 6.23002 9.47657C5.81531 9.11183 5.77446 8.47917 6.1392 8.06446C6.435 7.72814 6.7463 7.39681 7.07181 7.07129C7.97531 6.16779 8.93093 5.37433 9.90385 4.70215C9.67911 4.61911 9.45715 4.54469 9.23881 4.48047ZM10.0005 12C10.0005 10.8955 10.896 10 12.0005 10C13.1051 10 14.0005 10.8954 14.0005 12C14.0005 13.1046 13.1051 14 12.0005 14C10.896 14 10.0005 13.1045 10.0005 12ZM19.0923 4.9502C18.3008 4.15869 16.8305 3.88423 14.8033 4.48047C14.5848 4.54473 14.3631 4.61906 14.1382 4.70215C15.1113 5.3744 16.0676 6.16764 16.9712 7.07129C17.8746 7.97465 18.6673 8.93057 19.3394 9.90332C19.6584 9.0399 19.8375 8.22954 19.8755 7.50782C19.9367 6.34507 19.6377 5.49564 19.0923 4.9502Z" fill="#475467"/>
</svg>
