<svg width="24" height="24" viewBox="0 0 24 24" fill="none" xmlns="http://www.w3.org/2000/svg">
<path d="M13.021 2.76806C14.7784 1.01077 17.627 1.01072 19.3843 2.76806C21.1416 4.5254 21.1416 7.374 19.3843 9.13134L10.7222 17.7934C9.64824 18.8674 7.90745 18.8674 6.83351 17.7934C5.75963 16.7195 5.75959 14.9787 6.83351 13.9048L14.4351 6.30321C14.8256 5.91287 15.4587 5.91275 15.8491 6.30321C16.2395 6.69368 16.2395 7.32676 15.8491 7.71727L8.24757 15.3188C7.9547 15.6117 7.95474 16.0865 8.24757 16.3794C8.54047 16.6723 9.01523 16.6723 9.30812 16.3794L17.9702 7.71727C18.9464 6.74098 18.9464 5.15841 17.9702 4.18212C16.9939 3.20583 15.4114 3.20588 14.4351 4.18212L5.41945 13.1977C3.75974 14.8575 3.75978 17.5478 5.41945 19.2075C7.07918 20.8672 9.76949 20.8672 11.4292 19.2075L20.4448 10.1919C20.8352 9.80158 21.4684 9.80184 21.8589 10.1919C22.2494 10.5824 22.2494 11.2164 21.8589 11.6069L12.8433 20.6225C10.4026 23.0628 6.44606 23.0628 4.00539 20.6225C1.56461 18.1818 1.56461 14.2245 4.00539 11.7837L13.021 2.76806Z" fill="#475467"/>
</svg>
