<svg width="24" height="24" viewBox="0 0 24 24" fill="none" xmlns="http://www.w3.org/2000/svg">
<path d="M2.00005 16.2002V12C2.00005 11.4477 2.44776 11 3.00005 11C3.55233 11 4.00005 11.4477 4.00005 12V16.2002C4.00005 17.0566 4.0004 17.6388 4.03716 18.0889C4.07298 18.5273 4.13813 18.7518 4.21782 18.9082C4.40955 19.2845 4.71559 19.5905 5.09184 19.7822C5.24824 19.8619 5.47276 19.9271 5.91118 19.9629C6.36122 19.9997 6.94346 20 7.79985 20H16.2002C17.0566 20 17.6389 19.9997 18.0889 19.9629C18.5273 19.9271 18.7519 19.8619 18.9082 19.7822C19.2845 19.5905 19.5905 19.2845 19.7823 18.9082C19.862 18.7518 19.9271 18.5273 19.9629 18.0889C19.9997 17.6388 20 17.0566 20 16.2002V7.7998C20 6.94341 19.9997 6.36117 19.9629 5.91113C19.9271 5.47272 19.862 5.2482 19.7823 5.0918C19.5905 4.71554 19.2845 4.40951 18.9082 4.21777C18.7519 4.13808 18.5273 4.07293 18.0889 4.03711C17.6389 4.00035 17.0566 4 16.2002 4H12C11.4478 4 11 3.55228 11 3C11 2.44772 11.4478 2 12 2H16.2002C17.0237 2 17.7016 1.99898 18.252 2.04395C18.8141 2.08987 19.3311 2.18827 19.8165 2.43555C20.569 2.81902 21.181 3.43109 21.5645 4.18359C21.8118 4.6689 21.9102 5.18599 21.9561 5.74805C22.0011 6.29843 22 6.97631 22 7.7998V16.2002C22 17.0237 22.0011 17.7016 21.9561 18.252C21.9102 18.814 21.8118 19.3311 21.5645 19.8164C21.181 20.5689 20.569 21.181 19.8165 21.5645C19.3311 21.8117 18.8141 21.9101 18.252 21.9561C17.7016 22.001 17.0237 22 16.2002 22H7.79985C6.97636 22 6.29847 22.001 5.74809 21.9561C5.18604 21.9101 4.66895 21.8117 4.18364 21.5645C3.43114 21.181 2.81906 20.5689 2.43559 19.8164C2.18832 19.3311 2.08992 18.814 2.04399 18.252C1.99902 17.7016 2.00005 17.0237 2.00005 16.2002ZM7.00005 17V13C7.00005 12.4477 7.44776 12 8.00005 12C8.55233 12 9.00005 12.4477 9.00005 13V17C9.00005 17.5523 8.55233 18 8.00005 18C7.44776 18 7.00005 17.5523 7.00005 17ZM11 17V7C11 6.44772 11.4478 6 12 6C12.5523 6 13 6.44772 13 7V17C13 17.5523 12.5523 18 12 18C11.4478 18 11 17.5523 11 17ZM15 17V11C15 10.4477 15.4478 10 16 10C16.5523 10 17 10.4477 17 11V17C17 17.5523 16.5523 18 16 18C15.4478 18 15 17.5523 15 17ZM4.00005 8V4.41406L2.70708 5.70703C2.31655 6.09756 1.68354 6.09756 1.29302 5.70703C0.902491 5.31651 0.902491 4.68349 1.29302 4.29297L4.29302 1.29297L4.36626 1.22656C4.54421 1.08073 4.76795 1 5.00005 1C5.26526 1 5.51954 1.10543 5.70708 1.29297L8.70708 4.29297L8.77544 4.36914C9.09579 4.76191 9.07319 5.34092 8.70708 5.70703C8.34096 6.07315 7.76196 6.09574 7.36919 5.77539L7.29302 5.70703L6.00005 4.41406V8C6.00005 8.55228 5.55233 9 5.00005 9C4.44776 9 4.00005 8.55228 4.00005 8Z" fill="#475467"/>
</svg>
