<svg width="24" height="24" viewBox="0 0 24 24" fill="none" xmlns="http://www.w3.org/2000/svg">
<path d="M1.00008 14V10.7998C1.00008 9.97628 0.999061 9.29839 1.04403 8.74801C1.08996 8.18596 1.18836 7.66887 1.43563 7.18356C1.8191 6.43105 2.43117 5.81898 3.18368 5.43551C3.66898 5.18824 4.18607 5.08984 4.74813 5.04391C5.29851 4.99894 5.9764 4.99997 6.79989 4.99997H7.00008C7.55237 4.99997 8.00008 5.44768 8.00008 5.99997C8.00008 6.55225 7.55237 6.99997 7.00008 6.99997H6.79989C5.9435 6.99997 5.36125 7.00032 4.91122 7.03708C4.4728 7.0729 4.24828 7.13805 4.09188 7.21774C3.71563 7.40947 3.40959 7.71551 3.21786 8.09176C3.13817 8.24816 3.07301 8.47268 3.03719 8.9111C3.00043 9.36114 3.00008 9.94338 3.00008 10.7998V14C3.00008 14.9943 3.00888 15.2953 3.06844 15.5175C3.25338 16.2077 3.79232 16.7467 4.48251 16.9316C4.70478 16.9912 5.00574 17 6.00008 17C6.55237 17 7.00008 17.4477 7.00008 18C7.00008 18.5523 6.55237 19 6.00008 19C5.1345 19 4.50565 19.0081 3.96493 18.8632C2.58456 18.4934 1.50667 17.4155 1.1368 16.0351C0.991918 15.4944 1.00008 14.8656 1.00008 14ZM10.6681 5.44528C10.9744 4.98575 11.5952 4.86158 12.0548 5.16794C12.5143 5.47429 12.6385 6.09513 12.3321 6.55465L9.36825 11H13.5001C13.8689 11 14.2079 11.2031 14.3819 11.5283C14.5558 11.8534 14.5366 12.2479 14.3321 12.5547L10.3321 18.5547C10.0258 19.0142 9.40493 19.1384 8.9454 18.832C8.48587 18.5256 8.3617 17.9048 8.66805 17.4453L11.6319 13H7.50008C7.13129 13 6.79227 12.7968 6.61825 12.4716C6.44435 12.1465 6.46352 11.7521 6.66805 11.4453L10.6681 5.44528ZM18.0001 13.2002V9.99997C18.0001 9.00562 17.9913 8.70467 17.9317 8.48239C17.7468 7.79221 17.2078 7.25326 16.5177 7.06833C16.2954 7.00877 15.9944 6.99997 15.0001 6.99997C14.4478 6.99997 14.0001 6.55225 14.0001 5.99997C14.0001 5.44768 14.4478 4.99997 15.0001 4.99997C15.8657 4.99997 16.4945 4.9918 17.0352 5.13669C18.4156 5.50655 19.4935 6.58444 19.8634 7.96481C20.0082 8.50553 20.0001 9.13438 20.0001 9.99997V13.2002C20.0001 14.0237 20.0011 14.7015 19.9561 15.2519C19.9102 15.814 19.8118 16.3311 19.5645 16.8164C19.1811 17.5689 18.569 18.181 17.8165 18.5644C17.3312 18.8117 16.8141 18.9101 16.252 18.956C15.7017 19.001 15.0238 19 14.2003 19H14.0001C13.4478 19 13.0001 18.5523 13.0001 18C13.0001 17.4477 13.4478 17 14.0001 17H14.2003C15.0567 17 15.6389 16.9996 16.089 16.9629C16.5274 16.927 16.7519 16.8619 16.9083 16.7822C17.2845 16.5905 17.5906 16.2844 17.7823 15.9082C17.862 15.7518 17.9272 15.5273 17.963 15.0888C17.9997 14.6388 18.0001 14.0566 18.0001 13.2002ZM21.0001 13V11C21.0001 10.4477 21.4478 9.99997 22.0001 9.99997C22.5524 9.99997 23.0001 10.4477 23.0001 11V13C23.0001 13.5523 22.5524 14 22.0001 14C21.4478 14 21.0001 13.5523 21.0001 13Z" fill="#475467"/>
</svg>
