<svg width="24" height="24" viewBox="0 0 24 24" fill="none" xmlns="http://www.w3.org/2000/svg">
<path d="M14.0001 6.99997H10.0001V10.8623C9.99714 11.2127 9.98084 11.5332 9.89755 11.8427C9.80627 12.182 9.6554 12.5027 9.45321 12.79C9.2073 13.1393 8.87075 13.4097 8.48934 13.7275L5.76278 16H18.2374L15.5108 13.7275C15.1294 13.4097 14.7929 13.1393 14.547 12.79C14.3448 12.5027 14.1939 12.182 14.1026 11.8427C14.0193 11.5332 14.003 11.2127 14.0001 10.8623V6.99997ZM5.50009 18C4.9875 18 4.87702 18.0051 4.80477 18.0195C4.40831 18.0985 4.09859 18.4082 4.01962 18.8047C4.00787 18.8637 4.00264 18.9483 4.00106 19.2568C4.00269 19.5869 4.00813 19.8318 4.0245 20.0322C4.04062 20.2294 4.06429 20.3366 4.08602 20.3994C4.11114 20.4569 4.14092 20.5113 4.17587 20.5625C4.18198 20.5714 4.18705 20.5811 4.19344 20.5898C4.22381 20.6313 4.25678 20.6707 4.29305 20.707C4.33664 20.7506 4.38553 20.7882 4.43661 20.8232C4.48776 20.8582 4.54222 20.8879 4.59969 20.9131C4.66233 20.9349 4.76943 20.9593 4.96786 20.9756C5.2512 20.9987 5.62373 21 6.20028 21H17.7999C18.3764 21 18.749 20.9987 19.0323 20.9756C19.2298 20.9594 19.3367 20.9348 19.3995 20.9131C19.457 20.8879 19.5114 20.8582 19.5626 20.8232C19.5716 20.8171 19.5812 20.812 19.5899 20.8056C19.6313 20.7754 19.671 20.7431 19.7071 20.707C19.7509 20.6632 19.7883 20.6138 19.8233 20.5625C19.8583 20.5113 19.888 20.4569 19.9132 20.3994C19.9349 20.3366 19.9595 20.2297 19.9757 20.0322C19.992 19.8318 19.9965 19.5869 19.9981 19.2568C19.9966 18.9483 19.9923 18.8637 19.9806 18.8047C19.9016 18.4082 19.5919 18.0985 19.1954 18.0195C19.1232 18.0051 19.0127 18 18.5001 18H5.50009ZM8.50009 4.99997H15.5001V2.99997H8.50009V4.99997ZM17.5001 5.20017C17.5001 5.32349 17.5012 5.47599 17.4903 5.60935C17.4785 5.75447 17.4479 5.96284 17.337 6.18063C17.1932 6.46288 16.963 6.69307 16.6807 6.83688C16.463 6.94776 16.2546 6.97835 16.1095 6.9902C16.0741 6.99309 16.0373 6.99263 16.0001 6.99411V10.5009C16.0001 11.106 16.008 11.2255 16.0343 11.3232C16.0647 11.4362 16.1153 11.5429 16.1827 11.6386C16.241 11.7214 16.3275 11.8042 16.7921 12.1914L20.4893 15.2724C20.8708 15.5903 21.2073 15.8606 21.4532 16.2099C21.6554 16.4972 21.8063 16.8179 21.8975 17.1572C21.9808 17.4668 21.9971 17.7872 22.0001 18.1377V18.7998C22.0001 18.9607 21.9979 19.1152 21.9972 19.2627C21.9973 19.3395 22.0001 19.4185 22.0001 19.5C22.0001 19.9166 22.0049 20.2709 21.9425 20.5849C21.8937 20.8303 21.813 21.0637 21.7091 21.2832C21.697 21.3092 21.6861 21.3364 21.6729 21.3623C21.6682 21.3716 21.6622 21.3803 21.6573 21.3896C21.6388 21.4251 21.6186 21.4595 21.5987 21.4941C21.5796 21.5273 21.5604 21.5604 21.5401 21.5927C21.5145 21.6336 21.4875 21.6734 21.46 21.7129C21.4464 21.7324 21.4331 21.7522 21.419 21.7715C21.3828 21.8209 21.3449 21.8689 21.3057 21.916C21.2955 21.9283 21.2859 21.941 21.2755 21.9531C21.1763 22.0686 21.0687 22.1762 20.9532 22.2754C20.9411 22.2858 20.9284 22.2954 20.9161 22.3056C20.869 22.3448 20.821 22.3827 20.7716 22.4189C20.7523 22.433 20.7326 22.4463 20.713 22.4599C20.6735 22.4874 20.6337 22.5144 20.5929 22.54C20.5605 22.5603 20.5274 22.5795 20.4942 22.5986C20.4596 22.6185 20.4252 22.6386 20.3897 22.6572C20.3804 22.6621 20.3717 22.6681 20.3624 22.6728C20.3365 22.686 20.3093 22.6969 20.2833 22.709C20.0638 22.8129 19.8304 22.8936 19.585 22.9424C19.271 23.0048 18.9167 23 18.5001 23H5.50009C5.08349 23 4.7292 23.0048 4.41512 22.9424C4.1695 22.8935 3.93558 22.8131 3.71591 22.709C3.69015 22.697 3.6634 22.6859 3.63778 22.6728C3.62817 22.6679 3.61901 22.6622 3.60946 22.6572C3.57401 22.6386 3.53955 22.6185 3.50497 22.5986C3.47176 22.5795 3.43871 22.5603 3.40634 22.54C3.36551 22.5144 3.32568 22.4874 3.28622 22.4599C3.26664 22.4463 3.24686 22.433 3.22762 22.4189C3.17818 22.3827 3.13015 22.3448 3.08309 22.3056C3.07081 22.2954 3.0581 22.2858 3.04598 22.2754C2.93073 22.1763 2.82368 22.0684 2.72469 21.9531C2.71429 21.941 2.70463 21.9283 2.69442 21.916C2.65529 21.8689 2.61738 21.8209 2.58114 21.7715C2.56705 21.7522 2.55376 21.7324 2.54012 21.7129C2.51262 21.6734 2.48567 21.6336 2.46005 21.5927C2.43974 21.5604 2.42055 21.5273 2.40145 21.4941C2.38155 21.4595 2.36141 21.4251 2.34286 21.3896C2.338 21.3803 2.332 21.3716 2.32723 21.3623C2.31404 21.3364 2.30318 21.3092 2.2911 21.2832C2.18716 21.0637 2.1065 20.8303 2.0577 20.5849C1.99528 20.2709 2.00009 19.9166 2.00009 19.5C2.00009 19.4185 2.00285 19.3395 2.00302 19.2627C2.0023 19.1152 2.00009 18.9607 2.00009 18.7998V18.1377C2.00303 17.7872 2.01933 17.4668 2.10262 17.1572C2.1939 16.8179 2.34477 16.4972 2.54696 16.2099C2.79287 15.8606 3.12942 15.5903 3.51083 15.2724L7.20809 12.1914C7.67267 11.8042 7.75921 11.7214 7.81747 11.6386C7.88484 11.5429 7.93548 11.4362 7.96591 11.3232C7.99221 11.2255 8.00009 11.106 8.00009 10.5009V6.99411C7.96292 6.99263 7.92609 6.99309 7.89071 6.9902C7.74559 6.97835 7.53722 6.94776 7.31942 6.83688C7.03718 6.69307 6.80698 6.46288 6.66317 6.18063C6.5523 5.96284 6.52171 5.75447 6.50985 5.60935C6.49899 5.47599 6.50009 5.32349 6.50009 5.20017V2.79978C6.50009 2.67645 6.49899 2.52395 6.50985 2.3906C6.52171 2.24547 6.5523 2.0371 6.66317 1.81931C6.80698 1.53706 7.03718 1.30687 7.31942 1.16306L7.47958 1.0947C7.63698 1.03863 7.78171 1.01864 7.89071 1.00974C8.02407 0.998872 8.17656 0.999969 8.29989 0.99997H15.7003C15.8236 0.999969 15.9761 0.998872 16.1095 1.00974C16.2185 1.01864 16.3632 1.03863 16.5206 1.0947L16.6807 1.16306L16.7843 1.22165C16.9856 1.34517 17.1549 1.51443 17.2784 1.71579L17.337 1.81931L17.4054 1.97946C17.4614 2.13686 17.4814 2.2816 17.4903 2.3906C17.5012 2.52395 17.5001 2.67645 17.5001 2.79978V5.20017Z" fill="#475467"/>
</svg>
