<svg width="24" height="24" viewBox="0 0 24 24" fill="none" xmlns="http://www.w3.org/2000/svg">
<path d="M14.0645 20.1865C14.4763 19.8913 15.0528 19.95 15.3955 20.3379C15.761 20.752 15.7217 21.3845 15.3076 21.75L15.1396 21.8916C14.2818 22.5843 13.1883 23 12 23C10.8119 22.9999 9.71905 22.5841 8.86133 21.8916L8.69238 21.75L8.61914 21.6777C8.27534 21.3056 8.26199 20.7259 8.60449 20.3379C8.94722 19.9497 9.5246 19.891 9.93652 20.1865L10.0166 20.25L10.2227 20.417C10.7203 20.7839 11.334 20.9999 12 21C12.7615 21 13.4549 20.7173 13.9844 20.25L14.0645 20.1865ZM17 8C17 6.67409 16.4736 5.40249 15.5361 4.46484C14.5985 3.52716 13.3261 3 12 3C10.674 3.00007 9.40247 3.52722 8.46484 4.46484C7.52724 5.40251 7 6.67398 7 8C7 11.2676 6.17343 13.5681 5.19922 15.1338C4.98663 15.4754 4.8091 15.7608 4.66406 15.998C4.87037 15.9992 5.11031 16 5.38867 16H18.6113C18.8892 16 19.1289 15.9992 19.335 15.998C19.19 15.7609 19.0141 15.4751 18.8018 15.1338C17.8275 13.5681 17 11.2677 17 8ZM3.83496 1.42871C4.31593 1.15745 4.9259 1.32765 5.19727 1.80859C5.46866 2.28959 5.29838 2.8995 4.81738 3.1709C3.87091 3.70508 3.28336 4.72282 3.29395 5.80957C3.2994 6.36183 2.85597 6.81485 2.30371 6.82031C1.78602 6.82527 1.35684 6.4354 1.30078 5.93164L1.29395 5.83008L1.30273 5.49121C1.40103 3.80581 2.35234 2.26527 3.83496 1.42871ZM18.7988 1.80859C19.0533 1.35752 19.6059 1.18029 20.0703 1.38379L20.1611 1.42871L20.4512 1.60547C21.8614 2.53332 22.719 4.12794 22.7021 5.83008L22.6963 5.93164C22.6403 6.43553 22.2102 6.82543 21.6924 6.82031C21.1402 6.81479 20.6967 6.36179 20.7021 5.80957C20.7127 4.72271 20.1253 3.70503 19.1787 3.1709C18.6978 2.89952 18.5276 2.28955 18.7988 1.80859ZM19 8C19 10.9127 19.7326 12.8439 20.5 14.0771C20.8628 14.6603 21.1493 15.1211 21.3418 15.4551C21.4371 15.6205 21.5236 15.7802 21.5879 15.9219C21.62 15.9925 21.6565 16.0788 21.6846 16.1729C21.7079 16.2511 21.752 16.4186 21.7354 16.6221C21.7242 16.7589 21.6966 16.9929 21.5625 17.2344C21.4283 17.4759 21.244 17.6233 21.1338 17.7051C20.8796 17.8934 20.5872 17.9338 20.4961 17.9473C20.3487 17.9691 20.1814 17.9807 20.0127 17.9873C19.6727 18.0006 19.2 18 18.6113 18H5.38867C4.80018 18 4.32725 18.0006 3.9873 17.9873C3.81871 17.9807 3.65118 17.9691 3.50391 17.9473C3.41217 17.9337 3.12001 17.8933 2.86621 17.7051C2.756 17.6233 2.57262 17.4757 2.43848 17.2344C2.30433 16.9929 2.27584 16.7589 2.26465 16.6221C2.24805 16.4186 2.29311 16.2511 2.31641 16.1729C2.34443 16.0789 2.38008 15.9924 2.41211 15.9219C2.47645 15.7802 2.5638 15.6206 2.65918 15.4551C2.8517 15.121 3.13807 14.6604 3.50098 14.0771C4.22035 12.9211 4.90889 11.1516 4.99219 8.53516L5 8C5 6.14348 5.73803 4.36256 7.05078 3.0498C8.36344 1.73734 10.1437 1.00007 12 1C13.8565 1 15.6375 1.73713 16.9502 3.0498C18.263 4.36256 19 6.14348 19 8Z" fill="#475467"/>
</svg>
