<svg width="24" height="24" viewBox="0 0 24 24" fill="none" xmlns="http://www.w3.org/2000/svg">
<path d="M13.9843 20.25C14.3983 19.8849 15.03 19.9241 15.3954 20.3379C15.7609 20.752 15.7216 21.3845 15.3075 21.75C14.4267 22.5274 13.2673 23 11.9999 23C10.7326 23 9.57311 22.5274 8.69231 21.75C8.27824 21.3845 8.23895 20.752 8.60442 20.3379C8.96983 19.9241 9.60155 19.8849 10.0155 20.25C10.545 20.7173 11.2384 21 11.9999 21C12.7614 21 13.4548 20.7173 13.9843 20.25ZM2.29289 2.29297C2.65901 1.92685 3.23801 1.90426 3.63078 2.22461L3.70696 2.29297L6.955 5.54102C6.96294 5.54874 6.97078 5.55648 6.97844 5.56445L21.707 20.293L21.7753 20.3691C22.0957 20.7619 22.0731 21.3409 21.707 21.707C21.3408 22.0731 20.7618 22.0957 20.3691 21.7754L20.2929 21.707L16.5859 18H5.3886C4.79999 18 4.32722 18.0006 3.98723 17.9873C3.81855 17.9807 3.65118 17.9691 3.50383 17.9473C3.41239 17.9337 3.12012 17.8933 2.86614 17.7051C2.75589 17.6233 2.57158 17.4759 2.43742 17.2344C2.30333 16.9929 2.27576 16.7589 2.26457 16.6221C2.24797 16.4186 2.29206 16.2511 2.31535 16.1729C2.3434 16.0788 2.37997 15.9925 2.41203 15.9219C2.47634 15.7803 2.56282 15.6205 2.65813 15.4551C2.85065 15.121 3.138 14.6604 3.5009 14.0771C4.26825 12.8439 4.99992 10.9126 4.99992 8C4.99992 7.51359 5.05099 7.03245 5.14934 6.56348L2.29289 3.70703C1.90237 3.31651 1.90237 2.68349 2.29289 2.29297ZM6.99309 8.40723C6.92758 11.4599 6.13142 13.634 5.19817 15.1338C4.98569 15.4753 4.80898 15.7609 4.66399 15.998C4.8703 15.9992 5.11024 16 5.3886 16H14.5859L6.99309 8.40723ZM16.9999 8C16.9999 6.67392 16.4728 5.40253 15.5351 4.46484C14.5974 3.52716 13.326 3 11.9999 3C10.9925 3 10.0164 3.30402 9.19426 3.86133L9.10637 3.91406C8.66027 4.15463 8.09615 4.02325 7.80559 3.59473C7.49568 3.13759 7.61505 2.51597 8.07219 2.20605L8.28996 2.06348C9.39358 1.37382 10.6776 1 11.9999 1C13.8564 1 15.6374 1.73705 16.9501 3.0498C18.2629 4.36256 18.9999 6.14348 18.9999 8C18.9999 10.0143 19.2589 11.5685 19.6073 12.749C19.7637 13.2787 19.4611 13.8348 18.9316 13.9912C18.435 14.1378 17.9155 13.8812 17.7236 13.4121L17.6894 13.3154L17.5429 12.7803C17.2157 11.4903 16.9999 9.91381 16.9999 8Z" fill="#475467"/>
</svg>
