<svg width="24" height="24" viewBox="0 0 24 24" fill="none" xmlns="http://www.w3.org/2000/svg">
<path d="M9.05585 1.14617C10.9228 0.646136 12.8417 1.75379 13.342 3.62078C13.4532 4.03578 13.484 4.45373 13.4455 4.85809C14.0827 4.97183 14.7005 5.16811 15.2785 5.44891C16.855 6.21492 18.0186 7.54978 18.4572 9.18621C19.0026 11.2217 19.8907 12.5288 20.7502 13.3708C21.3098 13.9189 21.7467 14.347 22.0451 14.6569C22.193 14.8105 22.3259 14.9538 22.4279 15.0798C22.4785 15.1422 22.5357 15.2183 22.5871 15.3014C22.6158 15.348 22.6777 15.4505 22.7219 15.5905L22.759 15.7429L22.7746 15.8532C22.7897 15.9833 22.7958 16.1679 22.7424 16.3718C22.671 16.6438 22.5233 16.8341 22.4474 16.9284C22.3238 17.0821 22.1825 17.1718 22.1115 17.2136C22.0281 17.2626 21.9443 17.3005 21.8742 17.3298C21.7337 17.3883 21.566 17.4442 21.3908 17.4977C21.0374 17.6057 20.5369 17.7397 19.9055 17.9089L16.7492 18.7546C16.7669 20.536 15.5838 22.1726 13.7834 22.655C11.9829 23.1373 10.1401 22.3113 9.26483 20.7595L8.04022 21.0886C7.40872 21.2578 6.90807 21.3921 6.54804 21.4753C6.36961 21.5165 6.19698 21.5514 6.04608 21.571C5.97062 21.5807 5.87852 21.5894 5.78143 21.5886C5.69901 21.5878 5.53239 21.5815 5.34882 21.5104C5.23597 21.4667 5.01239 21.3762 4.81464 21.1764C4.61683 20.9766 4.52907 20.7517 4.48651 20.6384C4.40904 20.432 4.41207 20.2435 4.41425 20.1706C4.41719 20.073 4.42902 19.9784 4.44159 19.8991C4.46698 19.739 4.50946 19.5484 4.56073 19.3415C4.66423 18.9239 4.82866 18.3352 5.03925 17.5807C5.36271 16.4218 5.47921 14.8459 4.93378 12.8102C4.49526 11.1737 4.83519 9.4358 5.81757 7.98406C6.17778 7.4518 6.61451 6.97249 7.10956 6.55535C6.87409 6.22451 6.69143 5.84719 6.58026 5.4323C6.08015 3.56526 7.18881 1.64644 9.05585 1.14617ZM11.3351 20.2048C11.8239 20.6925 12.5509 20.9148 13.2658 20.7233C13.9805 20.5318 14.4984 19.9758 14.6779 19.3093L11.3351 20.2048ZM14.4045 7.24773C13.2974 6.70989 11.9303 6.58704 10.6086 6.94109C9.28662 7.29531 8.16375 8.08562 7.47382 9.10516C6.78723 10.1198 6.59004 11.2649 6.86542 12.2927C7.50103 14.6649 7.3884 16.6056 6.966 18.1188C6.82104 18.6382 6.70463 19.0597 6.61444 19.3962C6.86494 19.3311 7.16522 19.2517 7.52264 19.1559L19.3879 15.9772C19.7447 15.8816 20.0439 15.7999 20.2932 15.7311C20.0469 15.4849 19.7358 15.1776 19.3508 14.8005C18.2283 13.7011 17.1602 12.076 16.5246 9.70379C16.2491 8.6763 15.5062 7.78305 14.4045 7.24773ZM2.40936 6.97332C2.80374 6.58701 3.43688 6.59278 3.82343 6.98699C4.21007 7.38136 4.20314 8.01539 3.80878 8.40203C3.08122 9.11558 2.76864 10.1578 2.97284 11.1481L3.02069 11.3454L3.04315 11.445C3.12911 11.9445 2.82414 12.4379 2.32538 12.5768C1.79335 12.725 1.24214 12.4135 1.09393 11.8815C0.606777 10.1324 1.11286 8.24444 2.40936 6.97332ZM17.6945 2.87762C19.3431 3.30195 20.6604 4.54364 21.1916 6.14617L21.2873 6.47137L21.3078 6.57098C21.3841 7.07212 21.07 7.55901 20.5685 7.68816C20.0671 7.81723 19.5563 7.54274 19.381 7.06707L19.3508 6.96941L19.2932 6.77508C18.9748 5.81522 18.1825 5.06819 17.1955 4.81414L17.4455 3.84637L17.6945 2.87762ZM11.4103 4.13836C11.196 3.3383 10.3735 2.86366 9.57343 3.07781C8.77332 3.2922 8.29767 4.11461 8.5119 4.91473C8.56921 5.1286 8.67112 5.318 8.80292 5.4782C9.21483 5.28642 9.64625 5.12863 10.091 5.00945C10.5355 4.89038 10.9873 4.81103 11.4396 4.77117C11.4736 4.56662 11.4676 4.35213 11.4103 4.13836ZM16.4767 3.59734C16.6144 3.06249 17.1597 2.73996 17.6945 2.87762L17.1955 4.81414C16.6611 4.67628 16.3394 4.13188 16.4767 3.59734Z" fill="#475467"/>
</svg>
