<svg width="24" height="24" viewBox="0 0 24 24" fill="none" xmlns="http://www.w3.org/2000/svg">
<path d="M13.9836 20.25C14.3977 19.8846 15.0303 19.9239 15.3957 20.3379C15.7612 20.7519 15.7219 21.3845 15.3079 21.75C14.4271 22.5274 13.2675 22.9999 12.0002 23C10.8119 23 9.71841 22.5843 8.86059 21.8916L8.69262 21.75L8.61937 21.6777C8.27536 21.3057 8.26216 20.726 8.60473 20.3379C8.97019 19.9242 9.6019 19.8848 10.0159 20.25C10.5453 20.7173 11.2387 21 12.0002 21C12.7616 20.9999 13.4542 20.7172 13.9836 20.25ZM5.00023 8C5.00023 6.14348 5.73728 4.36256 7.05004 3.0498C8.36278 1.73712 10.1438 1 12.0002 1C12.2953 1.00001 12.5884 1.01903 12.8782 1.05566L13.1662 1.09766L13.2668 1.12012C13.7554 1.25474 14.0719 1.74053 13.9856 2.25098C13.8991 2.76131 13.4405 3.11568 12.9348 3.08203L12.8332 3.07031L12.6272 3.03906C12.4204 3.01292 12.211 3.00001 12.0002 3C10.6742 3 9.40178 3.52716 8.4641 4.46484C7.52665 5.40249 7.00023 6.67409 7.00023 8C7.00023 11.2677 6.17271 13.5681 5.19848 15.1338C4.986 15.4753 4.80929 15.7608 4.6643 15.998C4.8706 15.9992 5.11057 16 5.38891 16H18.6116C18.889 16 19.1284 15.9992 19.3342 15.998C19.1893 15.7609 19.0133 15.475 18.801 15.1338C18.3214 14.363 17.8746 13.4096 17.5461 12.2451L17.4133 11.7324L17.3948 11.6318C17.3273 11.1295 17.65 10.6477 18.1536 10.5273C18.6569 10.4072 19.1622 10.6907 19.3293 11.1689L19.3586 11.2676L19.4709 11.7012C19.7479 12.6832 20.1179 13.4642 20.4993 14.0771C20.8621 14.6604 21.1485 15.121 21.3411 15.4551C21.4364 15.6206 21.5238 15.7802 21.5881 15.9219C21.6202 15.9924 21.6558 16.0789 21.6838 16.1729C21.7071 16.251 21.7522 16.4186 21.7356 16.6221C21.7244 16.7589 21.6959 16.9929 21.5618 17.2344C21.4276 17.4758 21.2442 17.6233 21.134 17.7051C20.8803 17.8933 20.5881 17.9337 20.4963 17.9473C20.3489 17.9691 20.1807 17.9807 20.012 17.9873C19.6721 18.0005 19.1998 18 18.6116 18H5.38891C4.80022 18 4.32756 18.0006 3.98754 17.9873C3.81878 17.9807 3.65155 17.9691 3.50414 17.9473C3.41297 17.9338 3.1206 17.8934 2.86644 17.7051C2.7562 17.6233 2.57189 17.4759 2.43773 17.2344C2.30359 16.9929 2.27607 16.7589 2.26488 16.6221C2.24828 16.4186 2.29236 16.2511 2.31566 16.1729C2.34372 16.0788 2.38028 15.9925 2.41234 15.9219C2.47666 15.7802 2.5631 15.6205 2.65844 15.4551C2.85093 15.1211 3.13739 14.6603 3.50023 14.0771C4.26761 12.8439 5.00023 10.9127 5.00023 8ZM17.0002 8V6H15.0002C14.4479 6 14.0002 5.55228 14.0002 5C14.0002 4.44772 14.4479 4 15.0002 4H17.0002V2C17.0002 1.44772 17.4479 1 18.0002 1C18.5524 1.00012 19.0002 1.44779 19.0002 2V4H21.0002C21.5524 4.00012 22.0002 4.44779 22.0002 5C22.0002 5.55221 21.5524 5.99988 21.0002 6H19.0002V8C19.0002 8.55221 18.5524 8.99988 18.0002 9C17.4479 9 17.0002 8.55228 17.0002 8Z" fill="#475467"/>
</svg>
