<svg width="24" height="24" viewBox="0 0 24 24" fill="none" xmlns="http://www.w3.org/2000/svg">
<path d="M2.29289 2.29296C2.65901 1.92684 3.23801 1.90425 3.63078 2.2246L3.70696 2.29296L21.707 20.293L21.7753 20.3691C22.0957 20.7619 22.0731 21.3409 21.707 21.707C21.3408 22.0731 20.7618 22.0957 20.3691 21.7754L20.2929 21.707L17.3925 18.8066L12.6405 22.7685C12.3425 23.0169 11.9274 23.0698 11.5761 22.9053C11.2247 22.7407 10.9999 22.388 10.9999 22V14.1357L6.64055 17.7685C6.2163 18.1221 5.58495 18.0648 5.23137 17.6406C4.87783 17.2164 4.93511 16.585 5.3593 16.2314L10.5175 11.9316L2.29289 3.70702C1.90237 3.31649 1.90237 2.68348 2.29289 2.29296ZM12.9999 19.8642L15.9726 17.3867L12.9999 14.4141V19.8642ZM15.7216 10.2002C15.2974 10.5536 14.6669 10.4964 14.3134 10.0723C13.9599 9.64805 14.0173 9.01765 14.4413 8.66405L15.7216 10.2002ZM10.9999 6.99999V1.99999C10.9999 1.61197 11.2247 1.25929 11.5761 1.09471C11.9274 0.930218 12.3425 0.983064 12.6405 1.23143L18.6405 6.23143C18.8685 6.42143 18.9999 6.70325 18.9999 6.99999C18.9999 7.29673 18.8685 7.57855 18.6405 7.76854L15.7216 10.2002L15.082 9.43163L14.4413 8.66405L16.4364 6.99999L12.9999 4.13573V6.99999C12.9999 7.55227 12.5522 7.99999 11.9999 7.99999C11.4476 7.99999 10.9999 7.55227 10.9999 6.99999Z" fill="#475467"/>
</svg>
