<svg width="24" height="24" viewBox="0 0 24 24" fill="none" xmlns="http://www.w3.org/2000/svg">
<path d="M7.57608 1.09471C7.92743 0.930218 8.34249 0.983064 8.64053 1.23143L14.6405 6.23143C14.8685 6.42143 14.9999 6.70325 14.9999 6.99999C14.9999 7.29673 14.8685 7.57855 14.6405 7.76854L9.56241 12L14.6405 16.2314C14.8685 16.4214 14.9999 16.7032 14.9999 17C14.9999 17.2967 14.8685 17.5785 14.6405 17.7685L8.64053 22.7685C8.34249 23.0169 7.92743 23.0698 7.57608 22.9053C7.22469 22.7407 6.99991 22.388 6.99991 22V14.1357L2.64053 17.7685C2.21629 18.1221 1.58493 18.0648 1.23135 17.6406C0.877813 17.2164 0.935091 16.585 1.35928 16.2314L6.43643 12L1.35928 7.76854L1.28409 7.69921C0.929474 7.33705 0.89988 6.75713 1.23135 6.35936C1.56283 5.96168 2.13837 5.88645 2.5585 6.16991L2.64053 6.23143L6.99991 9.86425V1.99999C6.99991 1.61197 7.22469 1.25929 7.57608 1.09471ZM8.99991 19.8642L12.4364 17L8.99991 14.1357V19.8642ZM20.914 12C20.914 10.2785 20.3991 8.67983 19.5146 7.34667L19.3329 7.08397L19.2772 6.99803C19.0243 6.55882 19.1402 5.99087 19.5605 5.68846C20.0087 5.36598 20.6334 5.46778 20.956 5.916C22.1879 7.62851 22.914 9.73097 22.914 12C22.914 14.269 22.1879 16.3715 20.956 18.084C20.6334 18.5322 20.0087 18.634 19.5605 18.3115C19.1122 17.989 19.0104 17.3643 19.3329 16.916C20.3282 15.5324 20.914 13.8361 20.914 12ZM17.8202 15.7148C17.5043 16.1678 16.8806 16.2788 16.4276 15.9629C15.975 15.6469 15.864 15.0241 16.1796 14.5713L17.8202 15.7148ZM16.9853 12C16.9852 11.1624 16.7576 10.3804 16.3603 9.70995L16.1796 9.42968L16.1259 9.34276C15.8792 8.89987 16.003 8.33342 16.4276 8.0371C16.8523 7.74086 17.4272 7.81972 17.7577 8.20409L17.8202 8.28514L17.954 8.48534C18.6067 9.49907 18.9852 10.7065 18.9853 12C18.9853 13.3796 18.5548 14.6616 17.8202 15.7148L16.1796 14.5713C16.6877 13.8428 16.9853 12.9574 16.9853 12ZM8.99991 9.86425L12.4364 6.99999L8.99991 4.13573V9.86425Z" fill="#475467"/>
</svg>
