<svg width="24" height="24" viewBox="0 0 24 24" fill="none" xmlns="http://www.w3.org/2000/svg">
<path d="M11.5761 1.09471C11.9274 0.930218 12.3425 0.983064 12.6405 1.23143L18.6405 6.23143C18.8685 6.42143 18.9999 6.70325 18.9999 6.99999C18.9999 7.29673 18.8685 7.57855 18.6405 7.76854L13.5624 12L18.6405 16.2314C18.8685 16.4214 18.9999 16.7032 18.9999 17C18.9999 17.2967 18.8685 17.5785 18.6405 17.7685L12.6405 22.7685C12.3425 23.0169 11.9274 23.0698 11.5761 22.9053C11.2247 22.7407 10.9999 22.388 10.9999 22V14.1357L6.64053 17.7685C6.21629 18.1221 5.58493 18.0648 5.23135 17.6406C4.87781 17.2164 4.93509 16.585 5.35928 16.2314L10.4364 12L5.35928 7.76854L5.28409 7.69921C4.92947 7.33705 4.89988 6.75713 5.23135 6.35936C5.56283 5.96168 6.13837 5.88645 6.5585 6.16991L6.64053 6.23143L10.9999 9.86425V1.99999C10.9999 1.61197 11.2247 1.25929 11.5761 1.09471ZM12.9999 19.8642L16.4364 17L12.9999 14.1357V19.8642ZM12.9999 9.86425L16.4364 6.99999L12.9999 4.13573V9.86425Z" fill="#475467"/>
</svg>
