<svg width="24" height="24" viewBox="0 0 24 24" fill="none" xmlns="http://www.w3.org/2000/svg">
<path d="M8.57608 1.09471C8.92743 0.930218 9.34249 0.983064 9.64053 1.23143L15.6405 6.23143C15.8685 6.42143 15.9999 6.70325 15.9999 6.99999C15.9999 7.29673 15.8685 7.57855 15.6405 7.76854L10.5624 12L15.6405 16.2314C15.8685 16.4214 15.9999 16.7032 15.9999 17C15.9999 17.2967 15.8685 17.5785 15.6405 17.7685L9.64053 22.7685C9.34249 23.0169 8.92743 23.0698 8.57608 22.9053C8.22469 22.7407 7.99991 22.388 7.99991 22V14.1357L3.64053 17.7685C3.21629 18.1221 2.58493 18.0648 2.23135 17.6406C1.87781 17.2164 1.93509 16.585 2.35928 16.2314L7.43643 12L2.35928 7.76854L2.28409 7.69921C1.92947 7.33705 1.89988 6.75713 2.23135 6.35936C2.56283 5.96168 3.13837 5.88645 3.5585 6.16991L3.64053 6.23143L7.99991 9.86425V1.99999C7.99991 1.61197 8.22469 1.25929 8.57608 1.09471ZM9.99991 19.8642L13.4364 17L9.99991 14.1357V19.8642ZM15.0097 11C15.562 11 16.0097 11.4477 16.0097 12C16.0097 12.5523 15.562 13 15.0097 13H14.9999C14.4476 13 13.9999 12.5523 13.9999 12C13.9999 11.4477 14.4476 11 14.9999 11H15.0097ZM18.0097 11C18.562 11 19.0097 11.4477 19.0097 12C19.0097 12.5523 18.562 13 18.0097 13H17.9999C17.4476 13 16.9999 12.5523 16.9999 12C16.9999 11.4477 17.4476 11 17.9999 11H18.0097ZM21.0097 11C21.562 11 22.0097 11.4477 22.0097 12C22.0097 12.5523 21.562 13 21.0097 13H20.9999C20.4476 13 19.9999 12.5523 19.9999 12C19.9999 11.4477 20.4476 11 20.9999 11H21.0097ZM9.99991 9.86425L13.4364 6.99999L9.99991 4.13573V9.86425Z" fill="#475467"/>
</svg>
