<svg width="24" height="24" viewBox="0 0 24 24" fill="none" xmlns="http://www.w3.org/2000/svg">
<path d="M4.22183 4.22171C8.5176 -0.0740623 15.4827 -0.0740671 19.7785 4.22171C24.0742 8.51747 24.0742 15.4826 19.7785 19.7783C15.4827 24.0741 8.51758 24.0741 4.22183 19.7783C-0.0739408 15.4826 -0.0739441 8.51745 4.22183 4.22171ZM7.04409 12.6543C5.87752 14.1779 5.25691 16.0996 5.37124 18.086C5.45749 18.1798 5.54493 18.2733 5.63589 18.3643C7.05417 19.7826 8.82856 20.6268 10.671 20.9004C8.81079 19.1503 7.65481 16.7399 7.48843 14.1563C7.25968 13.6776 7.11184 13.1704 7.04409 12.6543ZM10.089 16.6211C10.825 18.3916 12.1775 19.8887 13.9533 20.7832C15.5695 20.4254 17.1072 19.6215 18.3644 18.3643C18.6086 18.12 18.8338 17.8635 19.0441 17.5996C16.5973 18.3365 13.9305 18.1325 11.6085 16.9834C11.0901 16.9429 10.5769 16.8227 10.089 16.6211ZM20.3722 8.69632C19.7874 11.1848 18.2768 13.3933 16.1203 14.8301C15.9496 15.0779 15.7557 15.3148 15.5353 15.5352C15.3795 15.691 15.2151 15.833 15.0451 15.9639C16.9479 16.2121 18.9217 15.7888 20.5851 14.6963C21.1981 12.7387 21.1281 10.6147 20.3722 8.69632ZM8.95425 8.03518C7.0517 7.78723 5.07733 8.21039 3.41421 9.30276C2.8012 11.2599 2.87185 13.3837 3.6271 15.3018C4.21217 12.8141 5.7233 10.6064 7.87905 9.16995C8.04977 8.92196 8.24445 8.68541 8.46499 8.46487C8.62073 8.30913 8.7843 8.16608 8.95425 8.03518ZM12.0011 9.00003C11.233 8.99978 10.4651 9.2929 9.87905 9.87893C8.70748 11.0505 8.70748 12.9496 9.87905 14.1211C11.0506 15.2927 12.9497 15.2927 14.1212 14.1211C14.2501 13.9922 14.3635 13.8536 14.464 13.709C14.4993 13.6315 14.5449 13.5583 14.5998 13.4912C15.093 12.6325 15.1272 11.5852 14.7013 10.7002C14.6593 10.6388 14.6244 10.5724 14.5968 10.502C14.4684 10.2797 14.3114 10.0691 14.1212 9.87893C13.5854 9.34314 12.8975 9.05454 12.1964 9.00882C12.1316 9.01222 12.0663 9.00952 12.0011 9.00003ZM13.3283 3.09866C15.1888 4.84857 16.3442 7.25913 16.5109 9.8428C16.7397 10.3211 16.8873 10.828 16.9552 11.3438C18.1215 9.82005 18.7427 7.89951 18.6281 5.91311C18.5421 5.81965 18.455 5.72641 18.3644 5.63577C16.9459 4.21721 15.1711 3.37214 13.3283 3.09866ZM10.0451 3.21585C8.42949 3.57382 6.89271 4.37895 5.63589 5.63577C5.39183 5.87982 5.16637 6.13579 4.9562 6.39944C7.40306 5.66263 10.0708 5.86642 12.3927 7.01565C12.9101 7.05616 13.4223 7.17702 13.9093 7.37796C13.173 5.60753 11.8212 4.11 10.0451 3.21585Z" fill="#475467"/>
</svg>
