<svg width="24" height="24" viewBox="0 0 24 24" fill="none" xmlns="http://www.w3.org/2000/svg">
<path d="M8.00025 12C8.55254 12 9.00025 12.4477 9.00025 13C9.00025 13.5523 8.55254 14 8.00025 14H5.00025C4.44797 14 4.00025 13.5523 4.00025 13C4.00025 12.4477 4.44797 12 5.00025 12H8.00025ZM19.0002 12C19.5525 12 20.0002 12.4477 20.0002 13C20.0002 13.5523 19.5525 14 19.0002 14H16.0002C15.448 14 15.0002 13.5523 15.0002 13C15.0002 12.4477 15.448 12 16.0002 12H19.0002ZM7.74732 5.00389C7.30379 5.01108 7.17572 5.02988 7.07545 5.06932C6.91986 5.13056 6.78236 5.23015 6.67506 5.35838C6.58291 5.46857 6.5091 5.63654 6.21998 6.50389L5.38306 9.01268C5.79801 9.00082 6.26868 8.99998 6.80006 8.99998H17.2004C17.7314 8.99998 18.2017 9.00085 18.6165 9.01268L17.7805 6.50389C17.4914 5.63653 17.4176 5.46856 17.3254 5.35838C17.2181 5.23015 17.0806 5.13056 16.9251 5.06932C16.8248 5.02988 16.6967 5.01108 16.2532 5.00389L15.6936 4.99998H8.30689L7.74732 5.00389ZM18.0002 18C18.0002 18.5523 18.448 19 19.0002 19H19.5002C20.0128 19 20.1233 18.9948 20.1956 18.9804C20.592 18.9015 20.9017 18.5918 20.9807 18.1953C20.9951 18.123 21.0002 18.0126 21.0002 17.5V14.7998C21.0002 13.9434 20.9999 13.3612 20.9631 12.9111C20.9273 12.4727 20.8622 12.2482 20.7825 12.0918C20.5907 11.7155 20.2847 11.4095 19.9085 11.2178C19.7521 11.1381 19.5275 11.0729 19.0891 11.0371C18.6391 11.0003 18.0568 11 17.2004 11H6.80006C5.94366 11 5.36142 11.0003 4.91138 11.0371C4.47297 11.0729 4.24845 11.1381 4.09205 11.2178C3.71579 11.4095 3.40976 11.7155 3.21802 12.0918C3.13833 12.2482 3.07318 12.4727 3.03736 12.9111C3.0006 13.3612 3.00025 13.9434 3.00025 14.7998V17.5C3.00025 18.0126 3.00541 18.123 3.01978 18.1953C3.09876 18.5918 3.40847 18.9015 3.80494 18.9804C3.87719 18.9948 3.98766 19 4.50025 19H5.00025C5.55253 19 6.00025 18.5523 6.00025 18C6.00025 17.1716 6.67182 16.5 7.50025 16.5H16.5002C17.3287 16.5 18.0002 17.1716 18.0002 18ZM23.0002 17.5C23.0002 17.9166 23.0051 18.2709 22.9426 18.5849C22.7059 19.775 21.7753 20.7056 20.5852 20.9424C20.2711 21.0048 19.9168 21 19.5002 21H19.0002C17.5138 21 16.2803 19.9188 16.0422 18.5H7.95826C7.72018 19.9188 6.48672 21 5.00025 21H4.50025C4.08366 21 3.72936 21.0048 3.41529 20.9424C2.22522 20.7056 1.29459 19.775 1.05787 18.5849C0.995443 18.2709 1.00025 17.9166 1.00025 17.5V14.7998C1.00025 13.9763 0.999228 13.2984 1.0442 12.748C1.09012 12.186 1.18852 11.6689 1.4358 11.1836C1.62298 10.8163 1.86581 10.4834 2.15162 10.1933L1.55298 9.89451L1.46412 9.84373C1.03599 9.57242 0.874165 9.01582 1.10572 8.55272C1.33728 8.08959 1.87983 7.88469 2.35377 8.06443L2.44752 8.10545L3.41627 8.58982L4.32252 5.87205C4.55781 5.16617 4.74657 4.54669 5.14088 4.07518C5.46302 3.69009 5.87677 3.39175 6.344 3.20799C6.91594 2.98313 7.56295 2.99998 8.30689 2.99998H15.6936L16.2336 3.00096C16.7563 3.00676 17.2275 3.03932 17.6565 3.20799C18.1237 3.39175 18.5375 3.69009 18.8596 4.07518C19.2539 4.54669 19.4427 5.16618 19.678 5.87205L20.5833 8.58982L21.553 8.10545C22.047 7.85846 22.6478 8.05874 22.8948 8.55272C23.1418 9.04669 22.9415 9.64752 22.4475 9.89451L21.8479 10.1933C22.1339 10.4835 22.3774 10.816 22.5647 11.1836C22.812 11.6689 22.9104 12.186 22.9563 12.748C23.0013 13.2984 23.0002 13.9763 23.0002 14.7998V17.5Z" fill="#475467"/>
</svg>
