<svg width="24" height="24" viewBox="0 0 24 24" fill="none" xmlns="http://www.w3.org/2000/svg">
<path d="M8.86616 2.15437C10.6721 0.615536 13.3278 0.615536 15.1337 2.15437C15.5873 2.54092 16.152 2.77493 16.746 2.82234C19.1111 3.01124 20.9888 4.88892 21.1777 7.25398C21.2251 7.84804 21.4591 8.41269 21.8457 8.86628C23.3845 10.6722 23.3845 13.3279 21.8457 15.1339C21.4591 15.5875 21.2251 16.1521 21.1777 16.7462C20.9888 19.1112 19.1111 20.9889 16.746 21.1778C16.152 21.2252 15.5873 21.4592 15.1337 21.8458C13.3278 23.3846 10.6721 23.3846 8.86616 21.8458C8.41257 21.4592 7.84792 21.2252 7.25386 21.1778C4.8888 20.9889 3.01112 19.1112 2.82221 16.7462C2.77481 16.1521 2.54079 15.5875 2.15425 15.1339C0.615414 13.3279 0.615414 10.6722 2.15425 8.86628C2.54079 8.41269 2.77481 7.84804 2.82221 7.25398C3.01112 4.88892 4.8888 3.01124 7.25386 2.82234C7.84792 2.77493 8.41257 2.54092 8.86616 2.15437ZM13.8369 3.67683C12.8446 2.83122 11.4142 2.77785 10.3671 3.51765L10.163 3.67683C9.38914 4.3363 8.42659 4.73462 7.41303 4.8155C6.0269 4.92622 4.9261 6.02702 4.81538 7.41316C4.7446 8.30012 4.43038 9.14779 3.91108 9.86433L3.67671 10.1632C2.77466 11.2217 2.77466 12.7785 3.67671 13.837C4.33618 14.6109 4.7345 15.5734 4.81538 16.587C4.9261 17.9731 6.0269 19.0739 7.41303 19.1846C8.42659 19.2655 9.38914 19.6638 10.163 20.3233L10.3671 20.4825C11.4142 21.2223 12.8446 21.1689 13.8369 20.3233C14.6108 19.6638 15.5733 19.2655 16.5869 19.1846C17.973 19.0739 19.0738 17.9731 19.1845 16.587C19.2654 15.5734 19.6637 14.6109 20.3232 13.837C21.1688 12.8447 21.2222 11.4143 20.4824 10.3673L20.3232 10.1632C19.6637 9.38926 19.2654 8.42671 19.1845 7.41316C19.0738 6.02702 17.973 4.92622 16.5869 4.8155C15.5733 4.73462 14.6108 4.3363 13.8369 3.67683ZM14.7929 8.79304C15.1834 8.40252 15.8165 8.40252 16.207 8.79304C16.5975 9.18356 16.5975 9.81658 16.207 10.2071L11.707 14.7071C11.3165 15.0976 10.6834 15.0976 10.2929 14.7071L8.29292 12.7071L8.22456 12.6309C7.90421 12.2382 7.9268 11.6592 8.29292 11.293C8.65903 10.9269 9.23804 10.9043 9.63081 11.2247L9.70698 11.293L10.9999 12.586L14.7929 8.79304Z" fill="#475467"/>
</svg>
