<svg width="24" height="24" viewBox="0 0 24 24" fill="none" xmlns="http://www.w3.org/2000/svg">
<path d="M21 15.2999C21 15.1981 20.9846 15.0971 20.9551 15.0001L20.9209 14.9044L20.2002 13.1632L20.0986 12.88C19.8953 12.211 19.9299 11.4891 20.1992 10.8389L20.9219 9.09479C21.0265 8.84193 21.0266 8.55759 20.9219 8.30475C20.8171 8.05171 20.6153 7.85097 20.3623 7.74616L18.6172 7.02253H18.6162C17.9079 6.72829 17.342 6.17573 17.0244 5.48054C17.0075 5.44946 16.9913 5.4172 16.9775 5.38386L16.2549 3.63874C16.1501 3.38576 15.9483 3.18493 15.6953 3.08015C15.4424 2.97546 15.1582 2.97543 14.9053 3.08015H14.9043L13.1582 3.80085L13.1572 3.79987C12.4153 4.1069 11.582 4.10848 10.8398 3.80183L10.8389 3.80085L9.0957 3.07819C8.84269 2.97339 8.5577 2.97339 8.30469 3.07819C8.05169 3.183 7.8509 3.38473 7.74609 3.63776L7.02344 5.38288L7.02246 5.38386C6.75247 6.03285 6.26686 6.5651 5.65234 6.89362L5.38184 7.02155L3.6377 7.74421C3.51245 7.79605 3.39862 7.87203 3.30273 7.96784C3.20683 8.06372 3.13004 8.17751 3.07812 8.3028C3.02624 8.42808 3.00001 8.56271 3 8.69831C3.00002 8.80004 3.01549 8.90112 3.04492 8.99811L3.0791 9.09382V9.09479L3.7998 10.8399C4.10792 11.5825 4.10869 12.4172 3.80176 13.1602V13.1612L3.0791 14.9053C2.97478 15.1581 2.97537 15.4417 3.08008 15.6944C3.18493 15.9473 3.38577 16.1482 3.63867 16.253L5.38379 16.9766H5.38477C6.12701 17.285 6.71622 17.8755 7.02344 18.6182L7.74707 20.3633H7.74609C7.85096 20.6161 8.05196 20.8172 8.30469 20.9219C8.55745 21.0266 8.84189 21.0265 9.09473 20.9219L10.8389 20.2003L11.1211 20.0987C11.6933 19.9252 12.3045 19.925 12.877 20.0977L13.1592 20.1983L13.1602 20.1993L14.9043 20.921C15.1573 21.0257 15.4414 21.0257 15.6943 20.921C15.9472 20.8161 16.1481 20.6153 16.2529 20.3624L16.9756 18.6173L16.9766 18.6163C17.2848 17.8741 17.8746 17.2839 18.6172 16.9766L20.3613 16.255H20.3623C20.4876 16.2031 20.6014 16.1262 20.6973 16.0303C20.7931 15.9345 20.869 15.8206 20.9209 15.6954C20.9728 15.5701 21 15.4355 21 15.2999ZM14.793 8.79304C15.1835 8.40251 15.8165 8.40251 16.207 8.79304C16.5976 9.18356 16.5976 9.81657 16.207 10.2071L11.707 14.7071C11.3165 15.0976 10.6835 15.0976 10.293 14.7071L8.29297 12.7071L8.22461 12.6309C7.90426 12.2382 7.92685 11.6592 8.29297 11.293C8.65908 10.9269 9.23809 10.9043 9.63086 11.2247L9.70703 11.293L11 12.586L14.793 8.79304ZM23 15.2999C23.0001 15.6983 22.921 16.0929 22.7686 16.461C22.6161 16.829 22.393 17.1637 22.1113 17.4454C21.9001 17.6565 21.6589 17.8344 21.3965 17.9747L21.127 18.1026L19.3828 18.8253C19.1614 18.9168 18.9795 19.0818 18.8672 19.2911L18.8232 19.3829L18.1006 21.128C17.7928 21.8708 17.2027 22.4608 16.46 22.7686C15.7169 23.0764 14.8818 23.0764 14.1387 22.7686L12.3945 22.0469V22.046C12.1418 21.9419 11.858 21.9431 11.6055 22.0479H11.6045L9.85938 22.7696C9.11685 23.0766 8.2824 23.077 7.54004 22.7696C6.79767 22.4621 6.20745 21.8721 5.89941 21.1299V21.129L5.17578 19.3829C5.07125 19.1301 4.87072 18.9284 4.61816 18.8233V18.8243L2.87305 18.1007C2.13044 17.793 1.54035 17.2035 1.23242 16.461C0.924523 15.7183 0.924289 14.8827 1.23145 14.1397L1.95313 12.3956C2.05726 12.1428 2.05788 11.8591 1.95313 11.6065L1.95215 11.6055L1.23047 9.85847L1.23145 9.85749C1.07944 9.49012 1.00012 9.09687 1 8.69929C0.999936 8.30102 1.07812 7.90613 1.23047 7.53815C1.38293 7.17007 1.60692 6.83546 1.88867 6.55378C2.17042 6.27211 2.50494 6.0489 2.87305 5.89655L4.61621 5.1739H4.61719C4.86986 5.06942 5.07067 4.86871 5.17578 4.61628L5.89844 2.87214C6.2062 2.12919 6.79614 1.53836 7.53906 1.23054C8.28202 0.92278 9.11736 0.922878 9.86035 1.23054L11.6045 1.95319L11.6035 1.95417C11.8564 2.0586 12.1408 2.05705 12.3936 1.95222L12.3955 1.95124L14.1406 1.23249V1.23151C14.8835 0.924023 15.7181 0.924792 16.4609 1.23249C17.2039 1.54023 17.7947 2.13022 18.1025 2.87311L18.8135 4.59186C18.8171 4.60009 18.8217 4.60792 18.8252 4.61628C18.9296 4.86872 19.1298 5.06968 19.3818 5.17487L21.1279 5.8985C21.8709 6.2063 22.4617 6.79615 22.7695 7.53913C23.0773 8.28214 23.0772 9.11739 22.7695 9.86042L22.0469 11.6046C21.955 11.8264 21.944 12.0715 22.0127 12.2979L22.0469 12.3936L22.0479 12.3966L22.7686 14.1387L22.8691 14.42C22.9555 14.7047 23 15.0012 23 15.2999Z" fill="#475467"/>
</svg>
