<svg width="24" height="24" viewBox="0 0 24 24" fill="none" xmlns="http://www.w3.org/2000/svg">
<path d="M3.50484 3.54984C6.19235 1.25357 9.65223 1.67349 11.9921 3.71879C14.3294 1.67221 17.753 1.28227 20.4707 3.54105C23.4442 6.01251 23.8014 10.2274 21.5117 13.1739C20.7166 14.1969 19.2367 15.6826 17.7539 17.0967C16.2544 18.5266 14.6961 19.936 13.7041 20.8213C13.5343 20.9728 13.3636 21.1254 13.207 21.2442C13.0385 21.3719 12.8312 21.5039 12.5673 21.583C12.1955 21.6945 11.7908 21.6945 11.4189 21.583C11.155 21.5039 10.9478 21.3719 10.7793 21.2442C10.6227 21.1255 10.452 20.9728 10.2822 20.8213C9.29006 19.936 7.73091 18.5267 6.2314 17.0967C4.74863 15.6827 3.26956 14.1969 2.47456 13.1739C0.176086 10.2161 0.598228 6.03345 3.50484 3.54984ZM11.2334 5.78617C9.52835 3.79287 6.81821 3.35011 4.80464 5.07035C2.70133 6.86747 2.41782 9.84231 4.05367 11.9473C4.74457 12.8363 6.11903 14.2255 7.61226 15.6495C9.089 17.0577 10.6296 18.4505 11.6142 19.3291C11.8071 19.5013 11.9091 19.5912 11.9873 19.6504C11.9891 19.6518 11.9914 19.6531 11.9931 19.6543C11.9948 19.6531 11.9972 19.6518 11.999 19.6504C12.0771 19.5912 12.1791 19.5013 12.372 19.3291C13.3566 18.4505 14.8972 17.0577 16.374 15.6495C17.8672 14.2255 19.2417 12.8363 19.9326 11.9473C21.5772 9.83094 21.315 6.84335 19.1923 5.07914C17.1254 3.3612 14.4504 3.80161 12.7529 5.78617C12.5629 6.00813 12.2853 6.13578 11.9931 6.13578C11.701 6.13578 11.4233 6.00812 11.2334 5.78617ZM14.7929 7.79301C15.1834 7.40248 15.8165 7.40248 16.207 7.79301C16.5975 8.18353 16.5975 8.81654 16.207 9.20707L11.707 13.7071C11.3165 14.0976 10.6834 14.0976 10.2929 13.7071L8.29292 11.7071L8.22456 11.6309C7.90421 11.2381 7.92681 10.6591 8.29292 10.293C8.65904 9.92689 9.23804 9.9043 9.63081 10.2246L9.70699 10.293L11 11.586L14.7929 7.79301Z" fill="#475467"/>
</svg>
