<svg width="24" height="24" viewBox="0 0 24 24" fill="none" xmlns="http://www.w3.org/2000/svg">
<path d="M9.57618 1.27049C11.7451 0.780514 14.0078 0.960528 16.0674 1.78025L16.4766 1.95213L16.5684 1.999C17.0079 2.25103 17.194 2.79962 16.9834 3.27244C16.7727 3.74526 16.2401 3.9746 15.7588 3.81639L15.6631 3.77928L15.3281 3.63768C13.643 2.96696 11.7913 2.8207 10.0166 3.22166C8.12357 3.64938 6.41916 4.67701 5.15821 6.15232C3.89726 7.62765 3.14724 9.47162 3.01954 11.4082C2.89193 13.3446 3.39394 15.2704 4.4502 16.8984C5.5065 18.5265 7.06044 19.7698 8.88087 20.4424C10.7013 21.1149 12.6907 21.1811 14.5518 20.6308C16.4129 20.0806 18.046 18.943 19.208 17.3887C20.3699 15.8344 20.9987 13.9464 21 12.0058V11.0859C21 10.5336 21.4477 10.0859 22 10.0859C22.5523 10.0859 23 10.5336 23 11.0859V12.0058L22.9912 12.4502C22.9005 14.6651 22.1419 16.8049 20.8106 18.5859C19.3903 20.4857 17.3938 21.8762 15.1191 22.5488C12.8444 23.2214 10.4126 23.1404 8.18751 22.3183C5.96273 21.4963 4.06346 19.9769 2.77247 17.9873C1.48143 15.9974 0.867407 13.6432 1.02344 11.2763C1.17951 8.90962 2.09676 6.6566 3.6377 4.8535C5.17888 3.05032 7.26244 1.79325 9.57618 1.27049ZM21.293 3.29295C21.6833 2.90258 22.3164 2.90274 22.707 3.29295C23.0974 3.68331 23.0973 4.31641 22.707 4.70701L12.707 14.7168C12.5196 14.9043 12.2652 15.0097 12 15.0097C11.7348 15.0097 11.4805 14.9043 11.293 14.7168L8.29298 11.7168L8.22462 11.6416C7.90389 11.2488 7.92672 10.669 8.29298 10.3027C8.68347 9.91235 9.31654 9.91235 9.70704 10.3027L12 12.5957L21.293 3.29295Z" fill="#475467"/>
</svg>
