<svg width="24" height="24" viewBox="0 0 24 24" fill="none" xmlns="http://www.w3.org/2000/svg">
<path d="M10.293 6.29302C10.6835 5.90249 11.3165 5.90249 11.707 6.29302C12.0975 6.68354 12.0975 7.31655 11.707 7.70708L7.41405 12L11.707 16.293L11.7754 16.3692C12.0957 16.762 12.0731 17.341 11.707 17.7071C11.3409 18.0732 10.7619 18.0958 10.3691 17.7754L10.293 17.7071L5.29295 12.7071C4.90243 12.3166 4.90243 11.6835 5.29295 11.293L10.293 6.29302ZM17.293 6.29302C17.6835 5.90249 18.3165 5.90249 18.707 6.29302C19.0975 6.68354 19.0975 7.31655 18.707 7.70708L14.414 12L18.707 16.293L18.7754 16.3692C19.0957 16.762 19.0731 17.341 18.707 17.7071C18.3409 18.0732 17.7619 18.0958 17.3691 17.7754L17.293 17.7071L12.293 12.7071C11.9024 12.3166 11.9024 11.6835 12.293 11.293L17.293 6.29302Z" fill="#475467"/>
</svg>
