<svg width="24" height="24" viewBox="0 0 24 24" fill="none" xmlns="http://www.w3.org/2000/svg">
<path d="M5.29295 6.29302C5.68348 5.90249 6.31649 5.90249 6.70702 6.29302L11.707 11.293C12.0975 11.6835 12.0975 12.3166 11.707 12.7071L6.70702 17.7071C6.31649 18.0976 5.68348 18.0976 5.29295 17.7071C4.90243 17.3166 4.90243 16.6835 5.29295 16.293L9.58592 12L5.29295 7.70708C4.90243 7.31655 4.90243 6.68354 5.29295 6.29302ZM12.293 6.29302C12.6835 5.90249 13.3165 5.90249 13.707 6.29302L18.707 11.293C19.0975 11.6835 19.0975 12.3166 18.707 12.7071L13.707 17.7071C13.3165 18.0976 12.6835 18.0976 12.293 17.7071C11.9024 17.3166 11.9024 16.6835 12.293 16.293L16.5859 12L12.293 7.70708L12.2246 7.63091C11.9042 7.23813 11.9268 6.65913 12.293 6.29302Z" fill="#475467"/>
</svg>
