<svg width="24" height="24" viewBox="0 0 24 24" fill="none" xmlns="http://www.w3.org/2000/svg">
<path d="M8.29295 6.29302C8.68348 5.90249 9.31649 5.90249 9.70702 6.29302C10.0975 6.68354 10.0975 7.31655 9.70702 7.70708L5.41405 12L9.70702 16.293L9.77538 16.3692C10.0957 16.762 10.0731 17.341 9.70702 17.7071C9.3409 18.0732 8.7619 18.0958 8.36913 17.7754L8.29295 17.7071L3.29295 12.7071C2.90243 12.3166 2.90243 11.6835 3.29295 11.293L8.29295 6.29302ZM14.293 6.29302C14.6835 5.90249 15.3165 5.90249 15.707 6.29302L20.707 11.293C21.0975 11.6835 21.0975 12.3166 20.707 12.7071L15.707 17.7071C15.3165 18.0976 14.6835 18.0976 14.293 17.7071C13.9024 17.3166 13.9024 16.6835 14.293 16.293L18.5859 12L14.293 7.70708L14.2246 7.63091C13.9042 7.23813 13.9268 6.65913 14.293 6.29302Z" fill="#475467"/>
</svg>
