<svg width="24" height="24" viewBox="0 0 24 24" fill="none" xmlns="http://www.w3.org/2000/svg">
<path d="M16.293 12.293C16.6835 11.9025 17.3165 11.9025 17.707 12.293C18.0975 12.6835 18.0975 13.3166 17.707 13.7071L12.707 18.7071C12.3165 19.0976 11.6835 19.0976 11.293 18.7071L6.29295 13.7071C5.90243 13.3166 5.90243 12.6835 6.29295 12.293C6.65907 11.9269 7.23807 11.9043 7.63084 12.2247L7.70702 12.293L12 16.586L16.293 12.293ZM16.293 5.29302C16.6835 4.90249 17.3165 4.90249 17.707 5.29302C18.0975 5.68354 18.0975 6.31655 17.707 6.70708L12.707 11.7071C12.3165 12.0976 11.6835 12.0976 11.293 11.7071L6.29295 6.70708C5.90243 6.31655 5.90243 5.68354 6.29295 5.29302C6.68348 4.90249 7.31649 4.90249 7.70702 5.29302L12 9.58598L16.293 5.29302Z" fill="#475467"/>
</svg>
