<svg width="24" height="24" viewBox="0 0 24 24" fill="none" xmlns="http://www.w3.org/2000/svg">
<path d="M11.3691 12.2246C11.7619 11.9043 12.3409 11.9269 12.707 12.293L17.707 17.293L17.7754 17.3692C18.0957 17.7619 18.0731 18.3409 17.707 18.707C17.3409 19.0732 16.7619 19.0958 16.3691 18.7754L16.293 18.707L12 14.4141L7.70702 18.707C7.31649 19.0976 6.68348 19.0976 6.29295 18.707C5.90243 18.3165 5.90243 17.6835 6.29295 17.293L11.293 12.293L11.3691 12.2246ZM11.3691 5.22462C11.7619 4.90427 12.3409 4.92686 12.707 5.29298L17.707 10.293L17.7754 10.3692C18.0957 10.7619 18.0731 11.3409 17.707 11.707C17.3409 12.0732 16.7619 12.0958 16.3691 11.7754L16.293 11.707L12 7.41407L7.70702 11.707C7.31649 12.0976 6.68348 12.0976 6.29295 11.707C5.90243 11.3165 5.90243 10.6835 6.29295 10.293L11.293 5.29298L11.3691 5.22462Z" fill="#475467"/>
</svg>
