<svg width="24" height="24" viewBox="0 0 24 24" fill="none" xmlns="http://www.w3.org/2000/svg">
<path d="M20.9999 16.2002V7.79981C20.9999 6.94342 20.9995 6.36117 20.9628 5.91113C20.9269 5.47272 20.8618 5.2482 20.7821 5.0918C20.5904 4.71554 20.2843 4.40951 19.9081 4.21778C19.7517 4.13809 19.5271 4.07293 19.0887 4.03711C18.6387 4.00035 18.0564 4 17.2001 4H6.79967C5.94328 4 5.36103 4.00035 4.911 4.03711C4.47258 4.07293 4.24806 4.13809 4.09166 4.21778C3.71541 4.40951 3.40937 4.71555 3.21764 5.0918C3.13795 5.2482 3.07279 5.47272 3.03697 5.91113C3.00021 6.36117 2.99986 6.94342 2.99986 7.79981V8C2.99986 8.55229 2.55215 9 1.99986 9C1.44758 9 0.999862 8.55229 0.999862 8V7.79981C0.999862 6.97632 0.99884 6.29843 1.04381 5.74805C1.08974 5.18599 1.18813 4.6689 1.43541 4.1836C1.81888 3.43109 2.43095 2.81902 3.18346 2.43555C3.66876 2.18827 4.18585 2.08988 4.74791 2.04395C5.29829 1.99898 5.97618 2 6.79967 2H17.2001C18.0235 2 18.7014 1.99898 19.2518 2.04395C19.8139 2.08988 20.331 2.18827 20.8163 2.43555C21.5688 2.81902 22.1808 3.43109 22.5643 4.1836C22.8116 4.6689 22.91 5.18599 22.9559 5.74805C23.0009 6.29843 22.9999 6.97632 22.9999 7.79981V16.2002C22.9999 17.0237 23.0009 17.7016 22.9559 18.252C22.91 18.814 22.8116 19.3311 22.5643 19.8164C22.1808 20.5689 21.5688 21.181 20.8163 21.5645C20.331 21.8117 19.8139 21.9101 19.2518 21.9561C18.7014 22.001 18.0235 22 17.2001 22H13.9999C13.4476 22 12.9999 21.5523 12.9999 21C12.9999 20.4477 13.4476 20 13.9999 20H17.2001C18.0564 20 18.6387 19.9997 19.0887 19.9629C19.5271 19.9271 19.7517 19.8619 19.9081 19.7822C20.2843 19.5905 20.5904 19.2845 20.7821 18.9082C20.8618 18.7518 20.9269 18.5273 20.9628 18.0889C20.9995 17.6388 20.9999 17.0566 20.9999 16.2002ZM2.00963 19C2.56191 19 3.00963 19.4477 3.00963 20C3.00963 20.5523 2.56191 21 2.00963 21H1.99986C1.44758 21 0.999862 20.5523 0.999862 20C0.999862 19.4477 1.44758 19 1.99986 19H2.00963ZM2.0985 15.1045L2.20006 15.1201L2.4149 15.168C3.4843 15.4273 4.46293 15.9767 5.24303 16.7568C6.02312 17.5369 6.57255 18.5156 6.83189 19.585L6.87975 19.7998L6.89537 19.9014C6.94594 20.4057 6.60679 20.876 6.09947 20.9795C5.59212 21.0829 5.09602 20.7828 4.94517 20.2988L4.91978 20.2002L4.85045 19.915C4.66524 19.2573 4.31442 18.6564 3.82896 18.1709C3.34351 17.6854 2.74253 17.3346 2.08482 17.1494L1.79967 17.0801L1.70103 17.0547C1.21709 16.9039 0.916982 16.4077 1.02037 15.9004C1.12383 15.3931 1.59418 15.0539 2.0985 15.1045ZM2.11021 11.0557C4.36665 11.3066 6.47066 12.3185 8.07603 13.9238C9.58095 15.4287 10.5637 17.3717 10.8876 19.4678L10.9442 19.8897L10.9501 19.9912C10.9551 20.4982 10.5752 20.9369 10.0604 20.9941C9.51152 21.0552 9.01696 20.6592 8.95592 20.1104C8.75511 18.3053 7.94623 16.6221 6.66197 15.3379C5.45798 14.1339 3.90337 13.3479 2.22642 13.0889L1.88951 13.0439L1.78795 13.0273C1.29263 12.9206 0.948513 12.4539 1.00572 11.9395C1.06676 11.3906 1.56141 10.9948 2.11021 11.0557Z" fill="#475467"/>
</svg>
