<svg width="24" height="24" viewBox="0 0 24 24" fill="none" xmlns="http://www.w3.org/2000/svg">
<path d="M20.5587 11.899C21.1076 11.9577 21.5048 12.4496 21.4464 12.9986C21.1363 15.9125 19.4845 18.6477 16.7492 20.2271C12.6199 22.6111 7.44531 21.5425 4.56655 17.9175L4.45816 18.3248C4.31521 18.8582 3.76701 19.1747 3.23355 19.0318C2.70008 18.8888 2.38357 18.3406 2.52652 17.8072L3.25894 15.0748C3.40207 14.5416 3.95023 14.2248 4.48355 14.3677L7.21499 15.1001L7.31265 15.1314C7.78651 15.3113 8.05604 15.8246 7.92202 16.3248C7.77906 16.8582 7.23086 17.1747 6.69741 17.0318L6.35562 16.94C8.66531 19.5843 12.5936 20.3175 15.7492 18.4957C17.9076 17.2495 19.2127 15.0924 19.4582 12.7867C19.5168 12.2377 20.0097 11.8405 20.5587 11.899ZM10.9992 7.49956C10.9994 6.94748 11.447 6.49956 11.9992 6.49956C12.5512 6.4997 12.9989 6.94756 12.9992 7.49956V11.4332L15.0138 12.6421C15.4872 12.9263 15.6405 13.5407 15.3566 14.0142C15.0725 14.4877 14.4581 14.6419 13.9845 14.358L11.4845 12.858C11.1833 12.6772 10.9992 12.3508 10.9992 11.9996V7.49956ZM4.54019 11.2134C4.48156 11.7624 3.98864 12.1595 3.4396 12.1011C2.89048 12.0427 2.49258 11.5506 2.55093 11.0015L4.54019 11.2134ZM7.24917 3.77299C11.3777 1.38944 16.5508 2.45717 19.4298 6.08061L19.5392 5.67534C19.6822 5.14187 20.2313 4.82537 20.7648 4.96831C21.2979 5.11146 21.6147 5.65963 21.4718 6.19292L20.7394 8.92534C20.5963 9.45847 20.048 9.77511 19.5148 9.63237L16.7824 8.89995C16.2491 8.75694 15.9325 8.20869 16.0753 7.67534C16.2094 7.17513 16.6999 6.86563 17.2003 6.94682L17.3 6.96831L17.6417 7.05913C15.3321 4.41553 11.4043 3.68302 8.24917 5.50444C6.0907 6.75063 4.78561 8.9077 4.54019 11.2134L2.55093 11.0015C2.86111 8.08745 4.51367 5.35234 7.24917 3.77299Z" fill="#475467"/>
</svg>
