<svg width="24" height="24" viewBox="0 0 24 24" fill="none" xmlns="http://www.w3.org/2000/svg">
<path d="M18 22V20H16C15.4477 20 15 19.5523 15 19C15 18.4477 15.4477 18 16 18H18V16C18 15.4477 18.4477 15 19 15C19.5523 15 20 15.4477 20 16V18H22C22.5523 18 23 18.4477 23 19C23 19.5523 22.5523 20 22 20H20V22C20 22.5523 19.5523 23 19 23C18.4477 23 18 22.5523 18 22ZM11 6C11 5.44772 11.4477 5 12 5C12.5523 5 13 5.44772 13 6V11.3818L16.1855 12.9746C16.6795 13.2216 16.8798 13.8224 16.6328 14.3164C16.4012 14.7796 15.8587 14.9845 15.3848 14.8047L15.291 14.7637L11.5527 12.8945C11.214 12.7251 11 12.3788 11 12V6ZM22.9131 13.3906C22.8438 13.9383 22.3436 14.3258 21.7959 14.2568C21.248 14.1877 20.8595 13.6876 20.9287 13.1396L22.9131 13.3906ZM21 12C21 7.02944 16.9706 3 12 3C7.02944 3 3 7.02944 3 12C3 16.9706 7.02944 21 12 21C12.3928 21 12.7796 20.9753 13.1582 20.9268L13.2598 20.918C13.7665 20.9046 14.2115 21.2774 14.2773 21.791C14.3476 22.3388 13.9599 22.8399 13.4121 22.9102L13.0635 22.9492C12.7133 22.9829 12.3585 23 12 23C5.92487 23 1 18.0751 1 12C1 5.92487 5.92487 1 12 1C18.0751 1 23 5.92487 23 12C23 12.4705 22.9706 12.9349 22.9131 13.3906L20.9287 13.1396C20.9758 12.7668 21 12.3865 21 12Z" fill="#475467"/>
</svg>
