<svg width="24" height="24" viewBox="0 0 24 24" fill="none" xmlns="http://www.w3.org/2000/svg">
<path d="M2 12C2 6.47715 6.47715 2 12 2C17.135 2 21.3627 5.8708 21.9316 10.8535L21.9932 10.793C22.3836 10.4026 23.0167 10.4026 23.4072 10.793C23.7976 11.1834 23.7976 11.8165 23.4072 12.207L21.4082 14.207C21.2208 14.3945 20.9662 14.4998 20.7012 14.5C20.436 14.5 20.1807 14.3945 19.9932 14.207L17.9932 12.207L17.9238 12.1309C17.6038 11.7381 17.6272 11.159 17.9932 10.793C18.3593 10.4269 18.9383 10.4042 19.3311 10.7246L19.4072 10.793L19.9717 11.3574C19.6443 7.23972 16.2019 4 12 4C7.58172 4 4 7.58172 4 12C4 16.4183 7.58172 20 12 20C14.5127 20 16.7544 18.8428 18.2227 17.0283C18.57 16.599 19.1996 16.5326 19.6289 16.8799C20.0582 17.2273 20.1246 17.8568 19.7773 18.2861C17.9457 20.5497 15.1418 22 12 22C6.47715 22 2 17.5228 2 12ZM11 7C11 6.44772 11.4477 6 12 6C12.5523 6 13 6.44772 13 7V11.4648L15.5547 13.168L15.6367 13.2285C16.0282 13.5508 16.1193 14.1238 15.832 14.5547C15.5448 14.9855 14.9812 15.1218 14.5332 14.8848L14.4453 14.832L11.4453 12.832C11.1671 12.6466 11 12.3344 11 12V7Z" fill="#475467"/>
</svg>
