<svg width="24" height="24" viewBox="0 0 24 24" fill="none" xmlns="http://www.w3.org/2000/svg">
<path d="M20.293 15.793C20.6835 15.4024 21.3165 15.4024 21.707 15.793C22.0976 16.1835 22.0976 16.8165 21.707 17.207L17.207 21.707C16.8165 22.0976 16.1835 22.0976 15.793 21.707L13.793 19.707L13.7246 19.6309C13.4043 19.2381 13.4269 18.6591 13.793 18.293C14.1591 17.9269 14.7381 17.9043 15.1309 18.2246L15.207 18.293L16.5 19.5859L20.293 15.793ZM11 6C11 5.44772 11.4477 5 12 5C12.5523 5 13 5.44772 13 6V11.3818L16.1855 12.9746C16.6795 13.2216 16.8798 13.8224 16.6328 14.3164C16.4012 14.7796 15.8587 14.9845 15.3848 14.8047L15.291 14.7637L11.5527 12.8945C11.214 12.7251 11 12.3788 11 12V6ZM21 12C21 7.02944 16.9706 3 12 3C7.02944 3 3 7.02944 3 12C3 16.7389 6.66289 20.6222 11.3115 20.9736L11.7637 20.9971L11.8662 21.0049C12.369 21.069 12.7516 21.5049 12.7383 22.0225C12.7249 22.5399 12.3207 22.9558 11.8154 22.9941L11.7129 22.9961L11.1592 22.9688C5.47662 22.539 1 17.7922 1 12C1 5.92487 5.92487 1 12 1C18.0751 1 23 5.92487 23 12C23 12.2024 22.9942 12.4036 22.9834 12.6035C22.9535 13.155 22.4821 13.5787 21.9307 13.5488C21.3795 13.5188 20.9566 13.0473 20.9863 12.4961C20.9952 12.3321 21 12.1664 21 12Z" fill="#475467"/>
</svg>
