<svg width="24" height="24" viewBox="0 0 24 24" fill="none" xmlns="http://www.w3.org/2000/svg">
<path d="M21 17.5C21 15.567 19.433 14 17.5 14C17.4219 14 17.3442 14.0028 17.2676 14.0078C16.8875 14.0324 16.526 13.8388 16.3359 13.5088C15.471 12.0073 13.8527 11 12 11C9.82024 11 7.96388 12.3954 7.28027 14.3447C7.12961 14.7744 6.70762 15.0483 6.25391 15.0107C6.17054 15.0038 6.08559 15 6 15C4.34315 15 3 16.3431 3 18C3 19.6569 4.34315 21 6 21H17.5C19.433 21 21 19.433 21 17.5ZM2 9.5C2 4.80558 5.80558 1 10.5 1C14.6761 1 18.1474 4.01078 18.8643 7.98047L18.9248 8.36816L18.9336 8.46973C18.9495 8.97629 18.5795 9.42263 18.0664 9.49121C17.519 9.56415 17.0153 9.17928 16.9424 8.63184C16.5187 5.45284 13.7951 3 10.5 3C6.91015 3 4 5.91015 4 9.5C4 9.9464 4.04476 10.3813 4.12988 10.8008C4.23975 11.342 3.88988 11.8706 3.34863 11.9805C2.84126 12.0832 2.34568 11.7819 2.19531 11.2979L2.16992 11.1992L2.09668 10.7832C2.03317 10.3642 2 9.93567 2 9.5ZM23 17.5C23 20.5376 20.5376 23 17.5 23H6C3.23858 23 1 20.7614 1 18C1 15.3498 3.06189 13.1822 5.66895 13.0117C6.78959 10.6416 9.2018 9 12 9C14.3817 9 16.4817 10.1918 17.7451 12.0059C20.6689 12.1341 23 14.5446 23 17.5Z" fill="#475467"/>
</svg>
