<svg width="24" height="24" viewBox="0 0 24 24" fill="none" xmlns="http://www.w3.org/2000/svg">
<path d="M21 17.5005C21 15.5675 19.433 14.0005 17.5 14.0005C17.1721 14.0005 16.8563 14.0452 16.5576 14.1285C16.1071 14.254 15.6296 14.0502 15.4082 13.6382C14.5635 12.0658 12.9055 11.0005 11 11.0005C8.80671 11.0005 6.94072 12.4133 6.26758 14.3814C6.14902 14.7275 5.8509 14.9818 5.49023 15.0435C4.07649 15.2851 3 16.5181 3 18.0005C3.00026 19.6572 4.34331 21.0005 6 21.0005H17.5C19.4328 21.0005 20.9997 19.4333 21 17.5005ZM4 7.00053V6.00053H3C2.44788 6.00053 2.00026 5.55259 2 5.00053C2 4.44824 2.44772 4.00053 3 4.00053H4V3.00053C4 2.44824 4.44772 1.99955 5 1.99955C5.55228 1.99955 6 2.44824 6 3.00053V4.00053H7L7.10254 4.00541C7.60665 4.05676 8 4.48287 8 5.00053C7.99975 5.51797 7.60649 5.94333 7.10254 5.99467L7 6.00053H6V7.00053C5.99974 7.55259 5.55212 8.00053 5 8.00053C4.44788 8.00053 4.00026 7.55259 4 7.00053ZM23 17.5005C22.9997 20.5379 20.5374 23.0005 17.5 23.0005H6C3.23874 23.0005 1.00026 20.7617 1 18.0005C1 15.7319 2.51029 13.8179 4.58008 13.2056C5.55516 10.9686 7.66579 9.33935 10.1855 9.0474C10.0643 8.55117 10 8.03299 10 7.50053C10 4.45418 12.0946 1.89859 14.9209 1.19291C15.2615 1.10787 15.6218 1.20839 15.8701 1.45658C16.1184 1.70485 16.2188 2.06512 16.1338 2.4058C16.0467 2.75492 16 3.12109 16 3.49955C16 5.98483 18.0147 7.99955 20.5 7.99955C20.8787 7.99955 21.2454 7.95297 21.5947 7.86576C21.9353 7.78087 22.2957 7.88034 22.5439 8.12846C22.7922 8.37673 22.8917 8.73797 22.8066 9.07865C22.4303 10.5862 21.5272 11.8846 20.3047 12.7691C21.9181 13.7277 23 15.4876 23 17.5005ZM12 7.50053C12.0001 8.07346 12.1076 8.61943 12.3018 9.12162C14.1328 9.4661 15.7105 10.5237 16.7383 11.9927C18.2017 11.9163 19.4795 11.1405 20.2451 9.99271C16.8583 9.86208 14.1369 7.1421 14.0059 3.75541C12.7969 4.56248 12 5.93884 12 7.50053Z" fill="#475467"/>
</svg>
