<svg width="24" height="24" viewBox="0 0 24 24" fill="none" xmlns="http://www.w3.org/2000/svg">
<path d="M2.29297 2.29302C2.68349 1.90249 3.31651 1.90249 3.70703 2.29302L7.96875 6.55473C7.9813 6.5664 7.99306 6.57869 8.00488 6.59087L19.4648 18.0508C19.5055 18.0859 19.5443 18.1234 19.5791 18.1651L21.707 20.293L21.7754 20.3692C22.0957 20.762 22.0731 21.341 21.707 21.7071C21.3409 22.0732 20.7619 22.0958 20.3691 21.7754L20.293 21.7071L18.4922 19.9063C18.1696 19.9652 17.8384 20 17.5 20H6.5C3.46243 20 1 17.5376 1 14.5C1 11.8916 2.81527 9.70823 5.25195 9.14262C5.42147 8.52556 5.67101 7.94223 5.99219 7.4063L2.29297 3.70708L2.22461 3.63091C1.90426 3.23813 1.92685 2.65913 2.29297 2.29302ZM21 14.5C21 12.6778 19.6068 11.1794 17.8281 11.0147C17.3751 10.9727 17.0074 10.6307 16.9336 10.1817C16.5437 7.80978 14.4822 6.00005 12 6.00005C11.6265 6.00005 11.2634 6.04123 10.915 6.11821C10.376 6.23715 9.8419 5.8965 9.72266 5.35747C9.60351 4.81832 9.94434 4.28442 10.4834 4.16509C10.9725 4.057 11.4804 4.00005 12 4.00005C15.2232 4.00005 17.9337 6.17833 18.748 9.14262C21.1847 9.70823 23 11.8916 23 14.5C23 15.1952 22.8708 15.8626 22.6338 16.4776L22.5918 16.5713C22.3627 17.0234 21.8239 17.237 21.3408 17.0508C20.8576 16.8646 20.6016 16.3445 20.7354 15.8555L20.8672 15.46C20.9537 15.1558 21 14.834 21 14.5ZM3 14.5C3 16.433 4.567 18 6.5 18H16.5859L7.46973 8.88384C7.27959 9.29005 7.14144 9.72529 7.06641 10.1817C6.99257 10.6307 6.62494 10.9727 6.17188 11.0147C4.39322 11.1794 3 12.6778 3 14.5Z" fill="#475467"/>
</svg>
