<svg width="24" height="24" viewBox="0 0 24 24" fill="none" xmlns="http://www.w3.org/2000/svg">
<path d="M21 12C21 7.02944 16.9706 3 12 3C7.02944 3 3 7.02944 3 12C3 16.9706 7.02944 21 12 21C16.9706 21 21 16.9706 21 12ZM8.79297 8.29297C9.18349 7.90244 9.81651 7.90244 10.207 8.29297C10.5976 8.68349 10.5976 9.31651 10.207 9.70703L7.91406 12L10.207 14.293L10.2754 14.3691C10.5957 14.7619 10.5731 15.3409 10.207 15.707C9.84092 16.0731 9.26191 16.0957 8.86914 15.7754L8.79297 15.707L5.79297 12.707C5.40244 12.3165 5.40244 11.6835 5.79297 11.293L8.79297 8.29297ZM13.793 8.29297C14.1591 7.92685 14.7381 7.90426 15.1309 8.22461L15.207 8.29297L18.207 11.293C18.5976 11.6835 18.5976 12.3165 18.207 12.707L15.207 15.707C14.8165 16.0976 14.1835 16.0976 13.793 15.707C13.4024 15.3165 13.4024 14.6835 13.793 14.293L16.0859 12L13.793 9.70703L13.7246 9.63086C13.4043 9.23809 13.4269 8.65908 13.793 8.29297ZM23 12C23 18.0751 18.0751 23 12 23C5.92487 23 1 18.0751 1 12C1 5.92487 5.92487 1 12 1C18.0751 1 23 5.92487 23 12Z" fill="#475467"/>
</svg>
