<svg width="24" height="24" viewBox="0 0 24 24" fill="none" xmlns="http://www.w3.org/2000/svg">
<path d="M12.2298 1.20637L12.4574 1.24544L12.598 1.28548C12.9191 1.39162 13.1974 1.58585 13.4173 1.72884L21.8177 7.1888C22.0307 7.32721 22.3202 7.5024 22.5355 7.76009C22.6634 7.91321 22.7671 8.08463 22.8441 8.2679L22.9125 8.45442L22.9437 8.57551C23.008 8.85907 23.0004 9.14604 23.0004 9.36848V14.6322C23.0004 14.8862 23.0112 15.2242 22.9125 15.5452C22.8343 15.7994 22.706 16.0355 22.5355 16.2396C22.3201 16.4974 22.0307 16.6734 21.8177 16.8118L13.4173 22.2718C13.1659 22.4353 12.8382 22.6648 12.4574 22.7542C12.1568 22.8248 11.8439 22.8248 11.5433 22.7542C11.1625 22.6648 10.8349 22.4353 10.5834 22.2718L2.18297 16.8118C1.96997 16.6734 1.68063 16.4974 1.4652 16.2396C1.29474 16.0355 1.1664 15.7994 1.08825 15.5452C0.989545 15.2242 1.00034 14.8862 1.00036 14.6322V9.36848C1.00036 9.11441 0.989468 8.77565 1.08825 8.45442C1.16644 8.20027 1.29471 7.96414 1.4652 7.76009C1.68053 7.5024 1.96999 7.32721 2.18297 7.1888L10.5834 1.72884C10.8349 1.56536 11.1625 1.33483 11.5433 1.24544C11.7687 1.19253 12.001 1.17993 12.2298 1.20637ZM4.60875 14.9974C4.24895 15.2313 4.03643 15.3705 3.89391 15.4827C3.8795 15.4941 3.86757 15.505 3.8568 15.514L11.0004 20.1575V15.5423L7.38414 13.1917L4.60875 14.9974ZM13.0004 15.5423V20.1575L20.1429 15.514C20.1323 15.5051 20.121 15.4939 20.1068 15.4827C19.9643 15.3705 19.7518 15.2313 19.392 14.9974L16.6156 13.1917L13.0004 15.5423ZM9.2191 11.9993L12.0004 13.807L14.7806 11.9993L12.0004 10.1917L9.2191 11.9993ZM3.00036 13.6624C3.16015 13.5533 3.33559 13.4388 3.51891 13.3197L5.54918 11.9993L3.51891 10.68C3.33541 10.5607 3.16027 10.4455 3.00036 10.3363V13.6624ZM21.0004 10.3363C20.8404 10.4455 20.6653 10.5607 20.4818 10.68L18.4506 11.9993L20.4818 13.3197C20.6651 13.4388 20.8406 13.5533 21.0004 13.6624V10.3363ZM3.85778 8.48567C3.86853 8.49469 3.87955 8.50658 3.89391 8.5179C4.03646 8.63021 4.24878 8.76927 4.60875 9.00325L7.38414 10.807L11.0004 8.45637V3.84212L3.85778 8.48567ZM13.0004 8.45637L16.6156 10.807L19.392 9.00325C19.7519 8.76927 19.9642 8.63021 20.1068 8.5179C20.1209 8.50678 20.1313 8.49457 20.142 8.48567L13.0004 3.84212V8.45637Z" fill="#475467"/>
</svg>
