<svg width="24" height="24" viewBox="0 0 24 24" fill="none" xmlns="http://www.w3.org/2000/svg">
<path d="M21 12C21 7.02944 16.9706 3 12 3C7.02944 3 3 7.02944 3 12C3 16.9706 7.02944 21 12 21C16.9706 21 21 16.9706 21 12ZM13.293 10.293C13.6591 9.92685 14.2381 9.90426 14.6309 10.2246L14.707 10.293L17.707 13.293C18.0976 13.6835 18.0976 14.3165 17.707 14.707L14.707 17.707C14.3165 18.0976 13.6835 18.0976 13.293 17.707C12.9024 17.3165 12.9024 16.6835 13.293 16.293L15.5859 14L13.293 11.707L13.2246 11.6309C12.9043 11.2381 12.9269 10.6591 13.293 10.293ZM9.29297 6.29297C9.68349 5.90244 10.3165 5.90244 10.707 6.29297C11.0976 6.68349 11.0976 7.31651 10.707 7.70703L8.41406 10L10.707 12.293L10.7754 12.3691C11.0957 12.7619 11.0731 13.3409 10.707 13.707C10.3409 14.0731 9.76191 14.0957 9.36914 13.7754L9.29297 13.707L6.29297 10.707C5.90244 10.3165 5.90244 9.68349 6.29297 9.29297L9.29297 6.29297ZM23 12C23 18.0751 18.0751 23 12 23C5.92487 23 1 18.0751 1 12C1 5.92487 5.92487 1 12 1C18.0751 1 23 5.92487 23 12Z" fill="#475467"/>
</svg>
