<svg width="24" height="24" viewBox="0 0 24 24" fill="none" xmlns="http://www.w3.org/2000/svg">
<path d="M13.0234 2.78324C13.1432 2.24417 13.6777 1.9038 14.2167 2.02347C14.7558 2.14326 15.0962 2.67777 14.9765 3.21683L10.9765 21.2168C10.8567 21.7559 10.3222 22.0963 9.78313 21.9766C9.24406 21.8568 8.90369 21.3223 9.02336 20.7832L13.0234 2.78324ZM6.29289 6.293C6.68342 5.90248 7.31643 5.90248 7.70696 6.293C8.09748 6.68353 8.09748 7.31654 7.70696 7.70706L3.41399 12L7.70696 16.293L7.77532 16.3692C8.09567 16.7619 8.07307 17.3409 7.70696 17.7071C7.34084 18.0732 6.76184 18.0958 6.36907 17.7754L6.29289 17.7071L1.29289 12.7071C0.902369 12.3165 0.902369 11.6835 1.29289 11.293L6.29289 6.293ZM16.2929 6.293C16.659 5.92689 17.238 5.90429 17.6308 6.22464L17.707 6.293L22.707 11.293C23.0975 11.6835 23.0975 12.3165 22.707 12.7071L17.707 17.7071C17.3164 18.0976 16.6834 18.0976 16.2929 17.7071C15.9024 17.3165 15.9024 16.6835 16.2929 16.293L20.5859 12L16.2929 7.70706L16.2245 7.63089C15.9042 7.23812 15.9268 6.65912 16.2929 6.293Z" fill="#475467"/>
</svg>
