<svg width="24" height="24" viewBox="0 0 24 24" fill="none" xmlns="http://www.w3.org/2000/svg">
<path d="M13.5003 6.5C13.5003 5.67157 12.8287 5 12.0003 5C11.1719 5 10.5003 5.67157 10.5003 6.5C10.5003 7.32843 11.1719 8 12.0003 8C12.8287 8 13.5003 7.32843 13.5003 6.5ZM12.8196 9.90234C12.5567 9.96543 12.2826 10 12.0003 10C11.7177 10 11.4432 9.96557 11.18 9.90234L7.13605 16.8682C8.60278 17.5926 10.2537 18 12.0003 18C13.7466 18 15.3971 17.5923 16.8636 16.8682L12.8196 9.90234ZM15.5003 6.5C15.5003 7.42797 15.1376 8.27009 14.5482 8.89648L18.5696 15.8223C19.1818 15.3656 19.7455 14.8474 20.2503 14.2754C20.6158 13.8614 21.2484 13.8221 21.6624 14.1875C22.0764 14.553 22.1157 15.1856 21.7503 15.5996C21.104 16.3319 20.3746 16.989 19.5794 17.5605L21.8655 21.498L21.9124 21.5889C22.1212 22.0506 21.95 22.6053 21.5023 22.8652C21.0247 23.1423 20.4123 22.9795 20.1351 22.502L17.8694 18.6006C16.1062 19.4944 14.1123 20 12.0003 20C9.88796 20 7.89361 19.4946 6.13019 18.6006L3.86554 22.502C3.58828 22.9795 2.97592 23.1423 2.49835 22.8652C2.02085 22.588 1.85802 21.9756 2.13507 21.498L4.42023 17.5605C3.71689 17.0549 3.06505 16.4823 2.47687 15.8496L2.25031 15.5996L2.18683 15.5195C1.89133 15.1076 1.95 14.5302 2.3382 14.1875C2.72624 13.845 3.30595 13.8584 3.67804 14.2021L3.75031 14.2754L4.13898 14.6943C4.53896 15.103 4.97097 15.4798 5.42999 15.8223L9.45148 8.89648C8.86235 8.27014 8.50031 7.42773 8.50031 6.5C8.50031 4.91455 9.55464 3.57583 11.0003 3.14551V2C11.0003 1.44772 11.448 1 12.0003 1C12.5526 1 13.0003 1.44772 13.0003 2V3.14551C14.446 3.57583 15.5003 4.91455 15.5003 6.5Z" fill="#475467"/>
</svg>
