<svg width="24" height="24" viewBox="0 0 24 24" fill="none" xmlns="http://www.w3.org/2000/svg">
<path d="M12 1C12.6497 1 13.2871 1.05658 13.9072 1.16504C14.4512 1.26027 14.8149 1.77829 14.7197 2.32227C14.6245 2.86626 14.1065 3.22992 13.5625 3.13477C13.3771 3.10233 13.1893 3.07755 13 3.05664V20.9424C13.1887 20.9215 13.3758 20.8975 13.5605 20.8652C14.1046 20.7702 14.6227 21.1347 14.7178 21.6787C14.8126 22.2225 14.449 22.7408 13.9053 22.8359C13.2859 22.9441 12.6489 23 12 23C5.92487 23 1 18.0751 1 12C1 5.92487 5.92487 1 12 1ZM18.3115 21.0107C17.8594 21.3279 17.2352 21.2177 16.918 20.7656C16.6012 20.3137 16.7104 19.6902 17.1621 19.373L18.3115 21.0107ZM19.4336 17.085C19.7652 16.7019 20.34 16.6246 20.7637 16.9219C21.2156 17.2393 21.3252 17.8635 21.0078 18.3154L20.7236 18.7012C20.0418 19.5876 19.2282 20.3676 18.3115 21.0107L17.7373 20.1914L17.1621 19.373C18.0199 18.7712 18.7689 18.0235 19.3711 17.166L19.4336 17.085ZM21 12C21 11.4665 20.9538 10.9442 20.8652 10.4375L22.835 10.0938C22.9433 10.7136 23 11.3506 23 12C23 12.6494 22.9433 13.2864 22.835 13.9062C22.7398 14.4503 22.2218 14.8149 21.6777 14.7197C21.1339 14.6246 20.7703 14.1064 20.8652 13.5625C20.9538 13.0558 21 12.5335 21 12ZM21.6777 9.28027C22.2218 9.18514 22.7398 9.54972 22.835 10.0938L20.8652 10.4375C20.7703 9.89363 21.1339 9.37543 21.6777 9.28027ZM16.9199 3.23438C17.2372 2.78261 17.8606 2.67312 18.3125 2.99023C19.2304 3.63445 20.0452 4.41559 20.7275 5.30371L21.0117 5.69141L21.0664 5.77832C21.3138 6.22052 21.1913 6.78674 20.7676 7.08398C20.3436 7.3813 19.7689 7.30359 19.4375 6.91992L19.375 6.83984L19.1416 6.52246C18.5827 5.79501 17.9149 5.15555 17.1631 4.62793C16.7111 4.31064 16.6027 3.6864 16.9199 3.23438ZM3 12C3 16.6325 6.50019 20.4448 11 20.9424V3.05664C6.50014 3.55417 3 7.36751 3 12Z" fill="#475467"/>
</svg>
