<svg width="24" height="24" viewBox="0 0 24 24" fill="none" xmlns="http://www.w3.org/2000/svg">
<path d="M6.99999 13.5996C6.99999 11.9363 6.99914 10.6287 7.08495 9.57813C7.17174 8.51589 7.35199 7.6284 7.76268 6.82227C8.43379 5.50513 9.50512 4.43381 10.8223 3.7627C11.6284 3.35201 12.5159 3.17175 13.5781 3.08496C14.6286 2.99915 15.9363 3 17.5996 3H21C21.5523 3 22 3.44772 22 4C22 4.55229 21.5523 5 21 5H17.5996C15.9031 5 14.6905 5.00048 13.7402 5.07813C12.802 5.15481 12.2076 5.30188 11.7305 5.54492C10.7896 6.02429 10.0243 6.78966 9.54491 7.73047C9.30187 8.20761 9.15479 8.80202 9.07811 9.74023C9.00047 10.6905 8.99999 11.9032 8.99999 13.5996V17.5859L12.293 14.293C12.6835 13.9024 13.3165 13.9024 13.707 14.293C14.0975 14.6835 14.0975 15.3165 13.707 15.707L8.70702 20.707C8.51948 20.8946 8.2652 21 7.99999 21C7.73477 21 7.48049 20.8946 7.29295 20.707L2.29295 15.707C1.90243 15.3165 1.90243 14.6835 2.29295 14.293C2.65907 13.9269 3.23807 13.9043 3.63084 14.2246L3.70702 14.293L6.99999 17.5859V13.5996Z" fill="#475467"/>
</svg>
