<svg width="24" height="24" viewBox="0 0 24 24" fill="none" xmlns="http://www.w3.org/2000/svg">
<path d="M19 20V18.5997C19 16.9032 18.9995 15.6906 18.9219 14.7403C18.8452 13.8021 18.6981 13.2077 18.4551 12.7305C17.9757 11.7897 17.2103 11.0243 16.2695 10.545C15.7924 10.3019 15.198 10.1549 14.2598 10.0782C13.3095 10.0005 12.0968 10 10.4004 10H6.41405L9.70702 13.293L9.77538 13.3692C10.0957 13.762 10.0731 14.341 9.70702 14.7071C9.3409 15.0732 8.7619 15.0958 8.36913 14.7754L8.29295 14.7071L3.29295 9.70708C2.90243 9.31655 2.90243 8.68354 3.29295 8.29302L8.29295 3.29302C8.68348 2.90249 9.31649 2.90249 9.70702 3.29302C10.0975 3.68354 10.0975 4.31655 9.70702 4.70708L6.41405 8.00005H10.4004C12.0637 8.00005 13.3713 7.9992 14.4219 8.08501C15.4841 8.1718 16.3716 8.35206 17.1777 8.76274C18.4949 9.43386 19.5662 10.5052 20.2373 11.8223C20.648 12.6284 20.8282 13.5159 20.915 14.5782C21.0008 15.6287 21 16.9364 21 18.5997V20C21 20.5523 20.5523 21 20 21C19.4477 21 19 20.5523 19 20Z" fill="#475467"/>
</svg>
