<svg width="24" height="24" viewBox="0 0 24 24" fill="none" xmlns="http://www.w3.org/2000/svg">
<path d="M6.99999 10.4004V6.41406L3.70702 9.70703C3.31649 10.0976 2.68348 10.0976 2.29295 9.70703C1.90243 9.31651 1.90243 8.68349 2.29295 8.29297L7.29295 3.29297L7.3662 3.22656C7.54415 3.08073 7.76789 3 7.99999 3C8.2652 3 8.51948 3.10543 8.70702 3.29297L13.707 8.29297L13.7754 8.36914C14.0957 8.76191 14.0731 9.34092 13.707 9.70703C13.3409 10.0731 12.7619 10.0957 12.3691 9.77539L12.293 9.70703L8.99999 6.41406V10.4004C8.99999 12.0968 9.00047 13.3095 9.07811 14.2598C9.15479 15.198 9.30187 15.7924 9.54491 16.2695C10.0243 17.2103 10.7896 17.9757 11.7305 18.4551C12.2076 18.6981 12.802 18.8452 13.7402 18.9219C14.6905 18.9995 15.9031 19 17.5996 19H21L21.1025 19.0049C21.6067 19.0562 22 19.4823 22 20C22 20.5177 21.6067 20.9438 21.1025 20.9951L21 21H17.5996C15.9363 21 14.6286 21.0008 13.5781 20.915C12.5159 20.8283 11.6284 20.648 10.8223 20.2373C9.50512 19.5662 8.43379 18.4949 7.76268 17.1777C7.35199 16.3716 7.17174 15.4841 7.08495 14.4219C6.99914 13.3713 6.99999 12.0637 6.99999 10.4004Z" fill="#475467"/>
</svg>
