<svg width="24" height="24" viewBox="0 0 24 24" fill="none" xmlns="http://www.w3.org/2000/svg">
<path d="M19 5.40039V4C19 3.44772 19.4477 3 20 3C20.5523 3 21 3.44772 21 4V5.40039C21 7.06368 21.0008 8.37134 20.915 9.42188C20.8282 10.4841 20.648 11.3716 20.2373 12.1777C19.5662 13.4949 18.4949 14.5662 17.1777 15.2373C16.3716 15.648 15.4841 15.8283 14.4219 15.915C13.3713 16.0008 12.0637 16 10.4004 16H6.41405L9.70702 19.293L9.77538 19.3691C10.0957 19.7619 10.0731 20.3409 9.70702 20.707C9.3409 21.0731 8.7619 21.0957 8.36913 20.7754L8.29295 20.707L3.29295 15.707C2.90243 15.3165 2.90243 14.6835 3.29295 14.293L8.29295 9.29297C8.68348 8.90244 9.31649 8.90244 9.70702 9.29297C10.0975 9.68349 10.0975 10.3165 9.70702 10.707L6.41405 14H10.4004C12.0968 14 13.3095 13.9995 14.2598 13.9219C15.198 13.8452 15.7924 13.6981 16.2695 13.4551C17.2103 12.9757 17.9757 12.2103 18.4551 11.2695C18.6981 10.7924 18.8452 10.198 18.9219 9.25977C18.9995 8.30949 19 7.09684 19 5.40039Z" fill="#475467"/>
</svg>
