<svg width="24" height="24" viewBox="0 0 24 24" fill="none" xmlns="http://www.w3.org/2000/svg">
<path d="M17.3757 19.2249C17.8136 18.9702 18.3819 19.0837 18.6862 19.5022C19.0108 19.949 18.9123 20.5751 18.4655 20.8997L18.1081 21.1477C16.3025 22.3535 14.1774 23.0003 11.9997 23.0003C9.82175 23.0003 7.69606 22.3537 5.89031 21.1477L5.53386 20.8997L5.45476 20.8352C5.07654 20.4975 5.00871 19.9213 5.31316 19.5022C5.6175 19.0837 6.1858 18.9702 6.6237 19.2249L6.70964 19.2815L7.00163 19.4847C8.47898 20.4712 10.2179 21.0003 11.9997 21.0003C13.9002 21.0003 15.7521 20.3986 17.2897 19.2815L17.3757 19.2249ZM11.5358 5.28055C11.7995 5.19489 12.0812 5.18405 12.3493 5.24832L12.4635 5.28055L12.6257 5.345C12.7765 5.41663 12.8919 5.5057 12.9753 5.57645C13.0773 5.66311 13.1849 5.77139 13.2721 5.85867L18.1413 10.7268C18.2285 10.8141 18.3368 10.9217 18.4235 11.0237C18.4943 11.1071 18.5823 11.2234 18.654 11.3743L18.7194 11.5364L18.7516 11.6507C18.8158 11.9185 18.8049 12.1998 18.7194 12.4632C18.6438 12.6958 18.5178 12.8648 18.4235 12.9759C18.3369 13.0779 18.2286 13.1855 18.1413 13.2727L13.2721 18.1419C13.1849 18.2292 13.0773 18.3375 12.9753 18.4241C12.8643 18.5183 12.6958 18.6434 12.4635 18.719C12.1623 18.8169 11.8371 18.8169 11.5358 18.719C11.3035 18.6435 11.1351 18.5183 11.0241 18.4241C10.9221 18.3375 10.8145 18.2291 10.7272 18.1419L5.85808 13.2727C5.7708 13.1855 5.66252 13.0779 5.57585 12.9759C5.48156 12.8648 5.35554 12.6958 5.27995 12.4632C5.1822 12.162 5.18211 11.8375 5.27995 11.5364C5.35554 11.3038 5.48156 11.1348 5.57585 11.0237C5.66251 10.9217 5.77087 10.8141 5.85808 10.7268L10.7272 5.85867C10.8145 5.77138 10.922 5.6631 11.0241 5.57645C11.1351 5.48218 11.3033 5.35614 11.5358 5.28055ZM7.41374 11.9993L11.9997 16.5852L16.5846 11.9993L11.9997 7.41434L7.41374 11.9993ZM7.17741 2.11356C7.67372 1.87149 8.27214 2.07732 8.51433 2.57352C8.75641 3.06986 8.55065 3.66828 8.05437 3.91043C6.34614 4.74359 4.94568 6.09659 4.05339 7.77469C3.21681 9.34807 2.86696 11.1319 3.0446 12.8997L3.08757 13.2522L3.09636 13.3548C3.11567 13.8611 2.74863 14.3101 2.23601 14.3821C1.68917 14.4589 1.18396 14.0774 1.1071 13.5305C0.783898 11.2305 1.19648 8.88707 2.28679 6.83621C3.37731 4.78525 5.08968 3.13189 7.17741 2.11356ZM15.4841 2.57352C15.711 2.1082 16.2516 1.89858 16.7272 2.07352L16.8219 2.11356L17.2087 2.3118C19.1211 3.34001 20.6892 4.91336 21.7116 6.83621C22.8021 8.88715 23.2155 11.2303 22.8923 13.5305C22.8154 14.0774 22.3102 14.4588 21.7634 14.3821C21.2164 14.3052 20.8349 13.7991 20.9118 13.2522C21.1762 11.3702 20.8382 9.45274 19.946 7.77469C19.1095 6.2015 17.8261 4.91475 16.2614 4.07352L15.945 3.91043L15.8551 3.8616C15.4244 3.59452 15.2571 3.03887 15.4841 2.57352Z" fill="#475467"/>
</svg>
