<svg width="24" height="24" viewBox="0 0 24 24" fill="none" xmlns="http://www.w3.org/2000/svg">
<path d="M17.3757 19.2249C17.8136 18.9702 18.3819 19.0837 18.6862 19.5022C19.0108 19.949 18.9123 20.5751 18.4655 20.8997L18.1081 21.1477C16.3025 22.3535 14.1774 23.0003 11.9997 23.0003C9.82175 23.0003 7.69606 22.3537 5.89031 21.1477L5.53386 20.8997L5.45476 20.8352C5.07654 20.4975 5.00871 19.9213 5.31316 19.5022C5.6175 19.0837 6.1858 18.9702 6.6237 19.2249L6.70964 19.2815L7.00163 19.4847C8.47898 20.4712 10.2179 21.0003 11.9997 21.0003C13.9002 21.0003 15.7521 20.3986 17.2897 19.2815L17.3757 19.2249ZM16.4997 12.0003C16.4997 9.51502 14.4849 7.50032 11.9997 7.50028C9.5144 7.50028 7.49968 9.51499 7.49968 12.0003C7.49981 14.4854 9.51448 16.5003 11.9997 16.5003C14.4848 16.5002 16.4995 14.4854 16.4997 12.0003ZM7.17741 2.11356C7.67372 1.87149 8.27214 2.07732 8.51433 2.57352C8.75641 3.06986 8.55065 3.66828 8.05437 3.91043C6.34614 4.74359 4.94568 6.09659 4.05339 7.77469C3.21681 9.34807 2.86696 11.1319 3.0446 12.8997L3.08757 13.2522L3.09636 13.3548C3.11567 13.8611 2.74863 14.3101 2.23601 14.3821C1.68917 14.4589 1.18396 14.0774 1.1071 13.5305C0.783898 11.2305 1.19648 8.88707 2.28679 6.83621C3.37731 4.78525 5.08968 3.13189 7.17741 2.11356ZM15.4841 2.57352C15.711 2.1082 16.2516 1.89858 16.7272 2.07352L16.8219 2.11356L17.2087 2.3118C19.1211 3.34001 20.6892 4.91336 21.7116 6.83621C22.8021 8.88715 23.2155 11.2303 22.8923 13.5305C22.8154 14.0774 22.3102 14.4588 21.7634 14.3821C21.2164 14.3052 20.8349 13.7991 20.9118 13.2522C21.1762 11.3702 20.8382 9.45274 19.946 7.77469C19.1095 6.2015 17.8261 4.91475 16.2614 4.07352L15.945 3.91043L15.8551 3.8616C15.4244 3.59452 15.2571 3.03887 15.4841 2.57352ZM18.4997 12.0003C18.4995 15.59 15.5894 18.5002 11.9997 18.5003C8.40991 18.5003 5.49981 15.59 5.49968 12.0003C5.49968 8.41042 8.40983 5.50028 11.9997 5.50028C15.5895 5.50032 18.4997 8.41045 18.4997 12.0003Z" fill="#475467"/>
</svg>
