<svg width="24" height="24" viewBox="0 0 24 24" fill="none" xmlns="http://www.w3.org/2000/svg">
<path d="M20.2002 2.00004C20.3236 2.00004 20.476 1.99894 20.6094 2.0098C20.7184 2.01871 20.8631 2.03869 21.0205 2.09477L21.1807 2.16312L21.2842 2.22172C21.4856 2.34524 21.6548 2.5145 21.7784 2.71586L21.8369 2.81937L21.9053 2.97953C21.9614 3.13693 21.9814 3.28166 21.9903 3.39066C22.0011 3.52402 22 3.67651 22 3.79984V15.337C22 15.5339 22.0061 15.7958 21.9444 16.0528C21.8954 16.2568 21.8147 16.452 21.7051 16.6309C21.567 16.8561 21.3776 17.0366 21.2383 17.1758L17.1758 21.2383C17.0365 21.3776 16.8561 21.5671 16.6309 21.7051C16.452 21.8147 16.2568 21.8954 16.0528 21.9444C15.7958 22.0061 15.5339 22 15.3369 22H3.79984C3.67651 22 3.52401 22.0011 3.39066 21.9903C3.24553 21.9784 3.03716 21.9478 2.81937 21.837C2.53713 21.6931 2.30693 21.4629 2.16312 21.1807C2.05224 20.9629 2.02165 20.7545 2.0098 20.6094C1.99893 20.4761 2.00003 20.3236 2.00003 20.2002V8.66312L2.00491 8.32719C2.01103 8.20519 2.02488 8.07564 2.0557 7.9473C2.10469 7.74328 2.18532 7.54808 2.29495 7.36918C2.43301 7.14394 2.62248 6.96352 2.76175 6.82426L6.82425 2.76176C6.96352 2.62249 7.14393 2.43302 7.36917 2.29496C7.54807 2.18533 7.74328 2.1047 7.9473 2.0557C8.20424 1.99402 8.46612 2.00004 8.66312 2.00004H20.2002ZM5.41409 20H15V17H8.41409L5.41409 20ZM4.00003 18.586L7.00003 15.586V9.00004H4.00003V18.586ZM17 18.586L18.586 17H17V18.586ZM17 8.4141V15H20V5.4141L17 8.4141ZM9.00003 15H15V9.00004H9.00003V15ZM9.00003 7.00004H15.586L18.586 4.00004H9.00003V7.00004ZM5.41409 7.00004H7.00003V5.4141L5.41409 7.00004Z" fill="#475467"/>
</svg>
