<svg width="24" height="24" viewBox="0 0 24 24" fill="none" xmlns="http://www.w3.org/2000/svg">
<path d="M20 5.4141L17 8.4141V18.586L19.8242 15.7618C19.9169 15.6691 19.9631 15.6221 19.9951 15.587L19.998 15.5811C20.0002 15.5336 20 15.4679 20 15.337V5.4141ZM4 20H15V9.00004H4V20ZM8.41895 4.00199H8.41602C8.41504 4.00287 8.41416 4.00395 8.41309 4.00492C8.37797 4.03697 8.33091 4.08319 8.23828 4.17582L5.41406 7.00004H15.5859L18.5859 4.00004H8.66309C8.53218 4.00004 8.46643 3.99982 8.41895 4.00199ZM22 15.337C22 15.5339 22.006 15.7958 21.9443 16.0528C21.8953 16.2568 21.8147 16.452 21.7051 16.6309C21.567 16.8561 21.3775 17.0366 21.2383 17.1758L17.1758 21.2383C17.0365 21.3776 16.8561 21.5671 16.6309 21.7051C16.452 21.8147 16.2568 21.8954 16.0527 21.9444C15.7958 22.0061 15.5339 22 15.3369 22H3.7998C3.67648 22 3.52398 22.0011 3.39062 21.9903C3.2455 21.9784 3.03713 21.9478 2.81934 21.837C2.53709 21.6931 2.3069 21.4629 2.16309 21.1807C2.05221 20.9629 2.02162 20.7545 2.00977 20.6094C2.00434 20.5428 2.00214 20.4715 2.00098 20.4014L2 20.2002V8.66312L2.00488 8.32719C2.011 8.20519 2.02485 8.07564 2.05566 7.9473C2.10466 7.74328 2.18529 7.54808 2.29492 7.36918C2.43298 7.14394 2.62245 6.96352 2.76172 6.82426L6.82422 2.76176C6.96348 2.62249 7.1439 2.43302 7.36914 2.29496C7.54804 2.18533 7.74325 2.1047 7.94727 2.0557C8.20421 1.99402 8.46609 2.00004 8.66309 2.00004H20.2002C20.3235 2.00004 20.476 1.99894 20.6094 2.0098C20.7184 2.01871 20.8631 2.03869 21.0205 2.09477L21.1807 2.16312L21.2842 2.22172C21.4855 2.34524 21.6548 2.5145 21.7783 2.71586L21.8369 2.81937L21.9053 2.97953C21.9613 3.13693 21.9813 3.28166 21.9902 3.39066C22.0011 3.52402 22 3.67651 22 3.79984V15.337Z" fill="#475467"/>
</svg>
