<svg width="24" height="24" viewBox="0 0 24 24" fill="none" xmlns="http://www.w3.org/2000/svg">
<path d="M18.275 14.0254C18.7028 13.9268 19.1448 14.1191 19.3648 14.499C19.5848 14.8792 19.5309 15.3588 19.232 15.6807L12.733 22.6807C12.5438 22.8844 12.2777 23 11.9996 23C11.7217 23 11.4563 22.8843 11.2672 22.6807L4.76717 15.6807C4.46827 15.3588 4.41434 14.8792 4.63436 14.499C4.85436 14.1191 5.29635 13.9268 5.7242 14.0254L11.9996 15.4727L18.275 14.0254ZM12.2242 17.4746C12.0764 17.5087 11.9228 17.5087 11.775 17.4746L8.44881 16.707L11.9996 20.5303L15.5494 16.707L12.2242 17.4746ZM11.9996 1C12.2852 1 12.5569 1.12245 12.7467 1.33594L20.7467 10.3359C20.979 10.5973 21.0579 10.9607 20.9547 11.2949C20.8514 11.6291 20.5811 11.8849 20.2418 11.9697L12.2418 13.9697C12.0827 14.0095 11.9165 14.0095 11.7574 13.9697L3.7574 11.9707C3.41806 11.8859 3.14775 11.6291 3.04451 11.2949C2.94138 10.9608 3.02019 10.5973 3.25252 10.3359L11.2525 1.33594L11.3267 1.25977C11.5098 1.09331 11.7496 1 11.9996 1ZM8.12264 11L11.9996 11.9697L15.8775 11L11.9996 10.0303L8.12264 11ZM6.89608 9.24512L10.9996 8.21973V4.62891L6.89608 9.24512ZM12.9996 8.21973L17.1021 9.24512L12.9996 4.62891V8.21973Z" fill="#475467"/>
</svg>
