<svg width="24" height="24" viewBox="0 0 24 24" fill="none" xmlns="http://www.w3.org/2000/svg">
<path d="M11.0002 20.5V16.5H7.00022C6.44794 16.5 6.00022 16.0522 6.00022 15.5C6.00022 14.9477 6.44794 14.5 7.00022 14.5H11.0002V12.5H6.00022C5.44794 12.5 5.00022 12.0522 5.00022 11.5C5.00022 10.9477 5.44794 10.5 6.00022 10.5H9.89866L4.72386 4.13082L4.66331 4.04781C4.38528 3.6242 4.46763 3.05004 4.86936 2.72359C5.27122 2.3971 5.85051 2.43385 6.20823 2.79293L6.27659 2.8691L12.0002 9.91305L17.7239 2.8691C18.0721 2.4405 18.7025 2.37533 19.1311 2.72359C19.5597 3.07187 19.6249 3.7022 19.2766 4.13082L14.1018 10.5H18.0002L18.1028 10.5048C18.6068 10.5562 19.0002 10.9823 19.0002 11.5C19.0002 12.0176 18.6068 12.4437 18.1028 12.4951L18.0002 12.5H13.0002V14.5H17.0002L17.1028 14.5048C17.6068 14.5562 18.0002 14.9823 18.0002 15.5C18.0002 16.0176 17.6068 16.4437 17.1028 16.4951L17.0002 16.5H13.0002V20.5C13.0002 21.0522 12.5524 21.4999 12.0002 21.5C11.4479 21.5 11.0002 21.0522 11.0002 20.5Z" fill="#475467"/>
</svg>
