<svg width="24" height="24" viewBox="0 0 24 24" fill="none" xmlns="http://www.w3.org/2000/svg">
<path d="M21.0003 8.79983C21.0003 7.94344 21 7.3612 20.9632 6.91116C20.9274 6.47275 20.8623 6.24822 20.7826 6.09182C20.5908 5.71557 20.2848 5.40954 19.9085 5.2178C19.7521 5.13811 19.5276 5.07296 19.0892 5.03714C18.6392 5.00038 18.0569 5.00003 17.2005 5.00003H9.59995C8.95625 5.00003 8.82884 5.00877 8.72593 5.03811C8.60675 5.07215 8.4946 5.12824 8.39585 5.20315C8.31054 5.26789 8.22697 5.36421 7.84019 5.87991L3.51988 11.6397C3.38244 11.8229 3.31122 11.92 3.26402 11.9932C3.26243 11.9957 3.26056 11.9978 3.25913 12C3.26056 12.0023 3.26243 12.0044 3.26402 12.0069C3.31122 12.08 3.38244 12.1771 3.51988 12.3604L7.84019 18.1201C8.22697 18.6358 8.31054 18.7322 8.39585 18.7969C8.4946 18.8718 8.60675 18.9279 8.72593 18.9619C8.82884 18.9913 8.95625 19 9.59995 19H17.2005C18.0569 19 18.6392 18.9997 19.0892 18.9629C19.5276 18.9271 19.7521 18.8619 19.9085 18.7823C20.2848 18.5905 20.5908 18.2845 20.7826 17.9082C20.8623 17.7518 20.9274 17.5273 20.9632 17.0889C21 16.6389 21.0003 16.0566 21.0003 15.2002V8.79983ZM16.2933 8.293C16.6838 7.90247 17.3169 7.90247 17.7074 8.293C18.0979 8.68352 18.0979 9.31653 17.7074 9.70706L15.4144 12L17.7074 14.293L17.7757 14.3692C18.0961 14.7619 18.0735 15.3409 17.7074 15.7071C17.3413 16.0732 16.7623 16.0958 16.3695 15.7754L16.2933 15.7071L14.0003 13.4141L11.7074 15.7071C11.3169 16.0976 10.6838 16.0976 10.2933 15.7071C9.90279 15.3165 9.90279 14.6835 10.2933 14.293L12.5863 12L10.2933 9.70706L10.225 9.63089C9.9046 9.23811 9.9272 8.65911 10.2933 8.293C10.6594 7.92688 11.2384 7.90429 11.6312 8.22464L11.7074 8.293L14.0003 10.586L16.2933 8.293ZM23.0003 15.2002C23.0003 16.0237 23.0014 16.7016 22.9564 17.252C22.9105 17.814 22.8121 18.3311 22.5648 18.8164C22.1813 19.5689 21.5693 20.181 20.8168 20.5645C20.3314 20.8118 19.8144 20.9102 19.2523 20.9561C18.7019 21.0011 18.024 21 17.2005 21H9.59995C9.07142 21 8.6115 21.0091 8.17613 20.8848C7.81856 20.7826 7.48311 20.6145 7.18687 20.3897C6.82624 20.116 6.55766 19.7431 6.24058 19.3203L1.92027 13.5596C1.71548 13.2866 1.42736 12.9327 1.31578 12.5088C1.22807 12.1754 1.22808 11.8247 1.31578 11.4912C1.42736 11.0673 1.71548 10.7135 1.92027 10.4405L6.24058 4.67972C6.55766 4.25694 6.82624 3.88407 7.18687 3.61038C7.48311 3.38559 7.81856 3.21742 8.17613 3.11526C8.6115 2.99092 9.07142 3.00002 9.59995 3.00003H17.2005C18.024 3.00003 18.7019 2.99901 19.2523 3.04397C19.8144 3.0899 20.3314 3.1883 20.8168 3.43557C21.5693 3.81904 22.1813 4.43112 22.5648 5.18362C22.8121 5.66893 22.9105 6.18602 22.9564 6.74807C23.0014 7.29845 23.0003 7.97634 23.0003 8.79983V15.2002Z" fill="#475467"/>
</svg>
