<svg width="24" height="24" viewBox="0 0 24 24" fill="none" xmlns="http://www.w3.org/2000/svg">
<path d="M21 12C21 7.02944 16.9706 3 12 3C7.02944 3 3 7.02944 3 12C3 16.9706 7.02944 21 12 21C16.9706 21 21 16.9706 21 12ZM4 12C4 11.4477 4.44772 11 5 11C5.55228 11 6 11.4477 6 12C6.00002 14.0449 7.02231 15.8522 8.58789 16.9365L8.9082 17.1436L8.99316 17.2002C9.39883 17.5042 9.51605 18.0721 9.24902 18.5156C8.96399 18.9887 8.34902 19.1415 7.87598 18.8564C5.55551 17.4581 4.00002 14.9111 4 12ZM14 12C14 10.8954 13.1046 10 12 10C10.8954 10 10 10.8954 10 12C10 13.1046 10.8954 14 12 14C13.1046 14 14 13.1046 14 12ZM18 12C18 9.75769 16.7701 7.80079 14.9443 6.77051L14.5713 6.57715L14.4805 6.52832C14.0471 6.26563 13.8746 5.71173 14.0967 5.24414C14.319 4.77652 14.8575 4.56105 15.335 4.73145L15.4287 4.77051L15.6797 4.89453C18.2447 6.22535 20 8.90686 20 12C20 12.5523 19.5523 13 19 13C18.4477 13 18 12.5523 18 12ZM16 12C16 14.2091 14.2091 16 12 16C9.79086 16 8 14.2091 8 12C8 9.79086 9.79086 8 12 8C14.2091 8 16 9.79086 16 12ZM23 12C23 18.0751 18.0751 23 12 23C5.92487 23 1 18.0751 1 12C1 5.92487 5.92487 1 12 1C18.0751 1 23 5.92487 23 12Z" fill="#475467"/>
</svg>
