<svg width="24" height="24" viewBox="0 0 24 24" fill="none" xmlns="http://www.w3.org/2000/svg">
<path d="M11 12C11 11.4477 11.4477 11 12 11C12.5523 11 13 11.4477 13 12V18.5859L15.293 16.293C15.6835 15.9024 16.3165 15.9024 16.707 16.293C17.0976 16.6835 17.0976 17.3165 16.707 17.707L12.707 21.707C12.3165 22.0976 11.6835 22.0976 11.293 21.707L7.29297 17.707L7.22461 17.6309C6.90426 17.2381 6.92685 16.6591 7.29297 16.293C7.65908 15.9269 8.23809 15.9043 8.63086 16.2246L8.70703 16.293L11 18.5859V12ZM1 10.5C1 5.80558 4.80558 2 9.5 2C12.5451 2 15.2139 3.60241 16.7139 6.00488C20.2047 6.11775 23 8.98173 23 12.5C23 14.5188 22.0783 16.3231 20.6367 17.5137C20.2109 17.8654 19.5802 17.8057 19.2285 17.3799C18.8769 16.954 18.9375 16.3233 19.3633 15.9717L19.5469 15.8115C20.4416 14.9879 21 13.8096 21 12.5C21 10.0147 18.9853 8 16.5 8C15.9363 8 15.3997 7.70597 15.1045 7.20508C13.9727 5.28479 11.8858 4 9.5 4C5.91015 4 3 6.91015 3 10.5C3 12.179 3.63518 13.7082 4.68066 14.8623L4.89551 15.0879L4.96387 15.1641C5.28336 15.5574 5.25931 16.1366 4.89258 16.502C4.50133 16.8917 3.86829 16.8902 3.47852 16.499C1.948 14.9628 1 12.8412 1 10.5Z" fill="#475467"/>
</svg>
