<svg width="24" height="24" viewBox="0 0 24 24" fill="none" xmlns="http://www.w3.org/2000/svg">
<path d="M21 20C21.5523 20 22 20.4477 22 21C22 21.5523 21.5523 22 21 22H3C2.44772 22 2 21.5523 2 21C2 20.4477 2.44772 20 3 20H21ZM11 3C11 2.44772 11.4477 2 12 2C12.5523 2 13 2.44772 13 3V14.5859L17.293 10.293C17.6835 9.90244 18.3165 9.90244 18.707 10.293C19.0976 10.6835 19.0976 11.3165 18.707 11.707L12.707 17.707C12.3165 18.0976 11.6835 18.0976 11.293 17.707L5.29297 11.707L5.22461 11.6309C4.90426 11.2381 4.92685 10.6591 5.29297 10.293C5.65908 9.92685 6.23809 9.90426 6.63086 10.2246L6.70703 10.293L11 14.5859V3Z" fill="#475467"/>
</svg>
