<svg width="24" height="24" viewBox="0 0 24 24" fill="none" xmlns="http://www.w3.org/2000/svg">
<path d="M16.2932 2.29268C17.7883 0.797783 20.2122 0.797788 21.7073 2.29268C23.2023 3.78772 23.2022 6.21164 21.7073 7.70674L17.4143 11.9997L18.2073 12.7927C18.5977 13.1832 18.5976 13.8162 18.2073 14.2067C17.8413 14.5728 17.2622 14.5961 16.8694 14.2761L16.7932 14.2067L16.0002 13.4138L9.70727 19.7067C8.28649 21.1275 6.35223 21.9382 4.85376 22.3942C4.09237 22.626 3.41482 22.7748 2.92602 22.8659C2.68109 22.9116 2.48193 22.9433 2.34204 22.9636C2.27225 22.9737 2.21703 22.9811 2.17798 22.986C2.15844 22.9885 2.14233 22.9906 2.1311 22.9919C2.12565 22.9925 2.12082 22.9925 2.11743 22.9929C2.11588 22.9931 2.11462 22.9937 2.11352 22.9939H2.11157C2.1113 22.9939 2.11068 22.9936 2.00024 21.9997L2.1106 22.9939C1.80869 23.0274 1.508 22.9215 1.29321 22.7067C1.07851 22.4919 0.972564 22.1912 1.0061 21.8894V21.8884L1.00708 21.8864C1.0072 21.8853 1.00691 21.884 1.00708 21.8825C1.00748 21.8791 1.00836 21.8745 1.00903 21.8689C1.01036 21.8577 1.01243 21.8423 1.01489 21.823C1.01986 21.7839 1.0272 21.7279 1.03735 21.6579C1.05763 21.5181 1.08845 21.3194 1.13403 21.0749C1.22517 20.5861 1.37392 19.9078 1.60571 19.1462C2.06177 17.6477 2.87244 15.7134 4.29321 14.2927L10.5862 7.99971L9.79321 7.20674L9.72485 7.13155C9.40416 6.73877 9.42697 6.15892 9.79321 5.79268C10.1837 5.40236 10.8168 5.40236 11.2073 5.79268L12.0002 6.58565L16.2932 2.29268ZM5.70727 15.7067C4.62819 16.7858 3.93873 18.3518 3.51977 19.7282C3.40751 20.0971 3.31652 20.4448 3.24438 20.7546C3.55442 20.6824 3.9025 20.5935 4.27173 20.4812C5.64824 20.0622 7.21401 19.3719 8.29321 18.2927L14.5862 11.9997L12.0002 9.41377L5.70727 15.7067ZM20.2932 3.70674C19.5792 2.9929 18.4213 2.9929 17.7073 3.70674L13.4143 7.99971L16.0002 10.5856L20.2932 6.29268C21.0071 5.57862 21.0072 4.42074 20.2932 3.70674Z" fill="#475467"/>
</svg>
