<svg width="24" height="24" viewBox="0 0 24 24" fill="none" xmlns="http://www.w3.org/2000/svg">
<path d="M15.7929 2.79276C17.0119 1.57395 18.9881 1.57397 20.207 2.79276C21.4259 4.01168 21.4259 5.98786 20.207 7.20682L7.64451 19.7703C7.33232 20.0825 7.0654 20.3585 6.73923 20.5584C6.4709 20.7228 6.17805 20.8433 5.87205 20.9168C5.50009 21.0061 5.11625 20.9998 4.67478 20.9998H2.99997C2.44769 20.9998 1.99997 20.5521 1.99997 19.9998V18.326C1.99997 17.8844 1.99367 17.4998 2.08298 17.1277C2.15648 16.8218 2.27794 16.5288 2.44236 16.2605C2.64225 15.9345 2.91834 15.6674 3.23044 15.3553L15.7929 2.79276ZM21 18.9998L21.1025 19.0057C21.6065 19.057 21.9999 19.4823 22 19.9998C22 20.5175 21.6066 20.9436 21.1025 20.9949L21 20.9998H12C11.4477 20.9998 11 20.5521 11 19.9998C11.0001 19.4476 11.4478 18.9998 12 18.9998H21ZM3.99997 18.9998H4.67478C5.21133 18.9998 5.31694 18.9936 5.40525 18.9724C5.50721 18.9479 5.6049 18.9071 5.69431 18.8523C5.77165 18.8049 5.8514 18.7343 6.23044 18.3553L18.7929 5.79276C19.2307 5.35485 19.2308 4.64469 18.7929 4.20682C18.3551 3.76908 17.6449 3.76906 17.207 4.20682L4.64451 16.7703C4.26506 17.1497 4.19489 17.229 4.14744 17.3064C4.09277 17.3957 4.0518 17.4927 4.02732 17.5945C4.00612 17.6828 3.99997 17.7892 3.99997 18.326V18.9998Z" fill="#475467"/>
</svg>
