<svg width="24" height="24" viewBox="0 0 24 24" fill="none" xmlns="http://www.w3.org/2000/svg">
<path d="M15.7929 2.79276C17.0119 1.57395 18.9881 1.57397 20.207 2.79276C21.4259 4.01168 21.4259 5.98786 20.207 7.20682L7.64451 19.7703C7.33232 20.0825 7.0654 20.3585 6.73923 20.5584C6.4709 20.7228 6.17805 20.8433 5.87205 20.9168C5.50009 21.0061 5.11625 20.9998 4.67478 20.9998H2.99997C2.44769 20.9998 1.99997 20.5521 1.99997 19.9998V18.326C1.99997 17.8844 1.99367 17.4998 2.08298 17.1277C2.15648 16.8218 2.27794 16.5288 2.44236 16.2605C2.64225 15.9345 2.91834 15.6674 3.23044 15.3553L15.7929 2.79276ZM20.2617 17.325C20.6343 16.9175 21.2672 16.8891 21.6748 17.2615C22.0823 17.6341 22.1107 18.267 21.7383 18.6746L20.7383 19.7683V19.7693C20.0287 20.5453 19.0456 20.9998 18 20.9998C16.955 20.9998 15.9731 20.5454 15.2636 19.7703L15.1269 19.6355C14.7975 19.3408 14.3981 19.1902 14 19.1902C13.5452 19.1903 13.0892 19.3868 12.7373 19.7703L12.664 19.8416C12.2854 20.1787 11.7058 20.1809 11.3242 19.8308C10.9173 19.4575 10.8894 18.8247 11.2627 18.4178C11.973 17.6436 12.9553 17.1903 14 17.1902C14.9792 17.1902 15.9036 17.5886 16.6006 18.2762L16.7373 18.4178L16.7383 18.4197C17.0894 18.8037 17.5457 18.9998 18 18.9998C18.4543 18.9998 18.9105 18.8036 19.2617 18.4197L20.2617 17.325ZM3.99997 18.9998H4.67478C5.21133 18.9998 5.31694 18.9936 5.40525 18.9724C5.50721 18.9479 5.6049 18.9071 5.69431 18.8523C5.77165 18.8049 5.8514 18.7343 6.23044 18.3553L18.7929 5.79276C19.2307 5.35485 19.2308 4.64469 18.7929 4.20682C18.3551 3.76908 17.6449 3.76906 17.207 4.20682L4.64451 16.7703C4.26506 17.1497 4.19489 17.229 4.14744 17.3064C4.09277 17.3957 4.0518 17.4927 4.02732 17.5945C4.00612 17.6828 3.99997 17.7892 3.99997 18.326V18.9998Z" fill="#475467"/>
</svg>
