<svg width="24" height="24" viewBox="0 0 24 24" fill="none" xmlns="http://www.w3.org/2000/svg">
<path d="M14.764 1.43797C15.5672 1.17708 16.4325 1.1771 17.2357 1.43797C17.7537 1.6063 18.1896 1.90209 18.6195 2.26707C19.0404 2.62445 19.5187 3.10474 20.1009 3.687L20.3129 3.89891C20.8952 4.48125 21.3754 4.96033 21.7328 5.38133C22.0976 5.81115 22.3936 6.24625 22.5619 6.76414C22.8228 7.56732 22.8228 8.43265 22.5619 9.23582C22.3936 9.75387 22.0978 10.1897 21.7328 10.6196C21.3754 11.0406 20.8951 11.5188 20.3129 12.1011L18.7152 13.6977C18.7123 13.7007 18.7103 13.7046 18.7074 13.7075C18.7044 13.7104 18.7006 13.7124 18.6976 13.7153L12.4134 20.0005H21.0004C21.5524 20.0007 22.0004 20.4483 22.0004 21.0005C22.0001 21.5524 21.5523 22.0002 21.0004 22.0005H7.32555C6.8841 22.0005 6.5002 22.0067 6.12828 21.9175C5.82227 21.844 5.52944 21.7225 5.26109 21.5581C4.93494 21.3582 4.66798 21.0822 4.35582 20.77L3.68687 20.1011C3.10462 19.5188 2.62433 19.0406 2.26695 18.6196C1.90196 18.1897 1.60617 17.7539 1.43785 17.2358C1.17697 16.4327 1.17696 15.5673 1.43785 14.7641C1.60612 14.2463 1.90212 13.8111 2.26695 13.3813C2.62435 12.9603 3.10455 12.4812 3.68687 11.8989L11.8988 3.687C12.4811 3.10467 12.9602 2.62447 13.3812 2.26707C13.811 1.90225 14.2461 1.60624 14.764 1.43797ZM5.10094 13.313C4.49538 13.9185 4.08458 14.3311 3.79234 14.6753C3.50766 15.0106 3.39444 15.2154 3.34019 15.3823C3.20984 15.7838 3.20985 16.2162 3.34019 16.6177C3.39444 16.7846 3.50766 16.9894 3.79234 17.3247C4.08458 17.6689 4.49538 18.0814 5.10094 18.687L5.76988 19.3559C6.14926 19.7353 6.22859 19.8056 6.30601 19.853C6.39541 19.9077 6.49315 19.9477 6.59508 19.9722C6.68337 19.9933 6.78904 20.0005 7.32555 20.0005H8.67418C9.21055 20.0005 9.31637 19.9933 9.40465 19.9722C9.50655 19.9477 9.60433 19.9077 9.69371 19.853C9.77114 19.8056 9.8505 19.7353 10.2298 19.3559L16.5853 13.0005L10.9994 7.41454L5.10094 13.313ZM16.6175 3.34032C16.2161 3.20998 15.7836 3.20996 15.3822 3.34032C15.2152 3.39456 15.0105 3.50779 14.6752 3.79246C14.3309 4.0847 13.9184 4.49551 13.3128 5.10106L12.4144 5.9995L18.0004 11.5854L18.8988 10.687C19.5043 10.0814 19.9151 9.66891 20.2074 9.32469C20.4921 8.98936 20.6053 8.7846 20.6595 8.61766C20.7899 8.2162 20.7899 7.78377 20.6595 7.38231C20.6053 7.21537 20.4921 7.01061 20.2074 6.67528C19.9151 6.33106 19.5043 5.91852 18.8988 5.31297L18.6869 5.10106C18.0813 4.4955 17.6688 4.0847 17.3246 3.79246C16.9892 3.50779 16.7845 3.39456 16.6175 3.34032Z" fill="#475467"/>
</svg>
