<svg width="24" height="24" viewBox="0 0 24 24" fill="none" xmlns="http://www.w3.org/2000/svg">
<path d="M8.29297 14.293C8.68349 13.9024 9.31651 13.9024 9.70703 14.293C10.0976 14.6835 10.0976 15.3165 9.70703 15.707L5.41406 20H9C9.55228 20 10 20.4477 10 21C10 21.5523 9.55228 22 9 22H3C2.73478 22 2.48051 21.8946 2.29297 21.707C2.10543 21.5195 2 21.2652 2 21V15C2 14.4477 2.44772 14 3 14C3.55228 14 4 14.4477 4 15V18.5859L8.29297 14.293ZM14.293 14.293C14.6591 13.9269 15.2381 13.9043 15.6309 14.2246L15.707 14.293L20 18.5859V15C20 14.4477 20.4477 14 21 14C21.5523 14 22 14.4477 22 15V21C22 21.5523 21.5523 22 21 22H15C14.4477 22 14 21.5523 14 21C14 20.4477 14.4477 20 15 20H18.5859L14.293 15.707L14.2246 15.6309C13.9043 15.2381 13.9269 14.6591 14.293 14.293ZM2 9V3C2 2.44772 2.44772 2 3 2H9L9.10254 2.00488C9.60667 2.05621 10 2.48232 10 3C10 3.51768 9.60667 3.94379 9.10254 3.99512L9 4H5.41406L9.70703 8.29297L9.77539 8.36914C10.0957 8.76191 10.0731 9.34092 9.70703 9.70703C9.34092 10.0731 8.76191 10.0957 8.36914 9.77539L8.29297 9.70703L4 5.41406V9C4 9.55228 3.55228 10 3 10C2.44772 10 2 9.55228 2 9ZM22 9C22 9.55228 21.5523 10 21 10C20.4477 10 20 9.55228 20 9V5.41406L15.707 9.70703C15.3165 10.0976 14.6835 10.0976 14.293 9.70703C13.9024 9.31651 13.9024 8.68349 14.293 8.29297L18.5859 4H15C14.4477 4 14 3.55228 14 3C14 2.44772 14.4477 2 15 2H21C21.5523 2 22 2.44772 22 3V9Z" fill="#475467"/>
</svg>
