<svg width="24" height="24" viewBox="0 0 24 24" fill="none" xmlns="http://www.w3.org/2000/svg">
<path d="M7.29297 15.293C7.68349 14.9024 8.31651 14.9024 8.70703 15.293C9.09756 15.6835 9.09756 16.3165 8.70703 16.707L5.41406 20H8C8.55228 20 9 20.4477 9 21C9 21.5523 8.55228 22 8 22H3C2.73478 22 2.48051 21.8946 2.29297 21.707C2.10543 21.5195 2 21.2652 2 21V16C2 15.4477 2.44772 15 3 15C3.55228 15 4 15.4477 4 16V18.5859L7.29297 15.293ZM15.293 15.293C15.6591 14.9269 16.2381 14.9043 16.6309 15.2246L16.707 15.293L20 18.5859V16C20 15.4477 20.4477 15 21 15C21.5523 15 22 15.4477 22 16V21C22 21.5523 21.5523 22 21 22H16C15.4477 22 15 21.5523 15 21C15 20.4477 15.4477 20 16 20H18.5859L15.293 16.707L15.2246 16.6309C14.9043 16.2381 14.9269 15.6591 15.293 15.293ZM2 8V3C2 2.44772 2.44772 2 3 2H8L8.10254 2.00488C8.60667 2.05621 9 2.48232 9 3C9 3.51768 8.60667 3.94379 8.10254 3.99512L8 4H5.41406L8.70703 7.29297L8.77539 7.36914C9.09574 7.76191 9.07315 8.34092 8.70703 8.70703C8.34092 9.07315 7.76191 9.09574 7.36914 8.77539L7.29297 8.70703L4 5.41406V8C4 8.55228 3.55228 9 3 9C2.44772 9 2 8.55228 2 8ZM22 8C22 8.55228 21.5523 9 21 9C20.4477 9 20 8.55228 20 8V5.41406L16.707 8.70703C16.3165 9.09756 15.6835 9.09756 15.293 8.70703C14.9024 8.31651 14.9024 7.68349 15.293 7.29297L18.5859 4H16C15.4477 4 15 3.55228 15 3C15 2.44772 15.4477 2 16 2H21C21.5523 2 22 2.44772 22 3V8Z" fill="#475467"/>
</svg>
