<svg width="24" height="24" viewBox="0 0 24 24" fill="none" xmlns="http://www.w3.org/2000/svg">
<path d="M10.0001 7.5628C10.0001 6.97823 9.99922 6.60848 9.97572 6.34698C9.97411 6.32908 9.9696 6.31247 9.96791 6.29717C9.95552 6.30595 9.94112 6.314 9.92689 6.32452C9.71578 6.48069 9.43829 6.72596 9.00111 7.11456L4.0099 11.5521C3.76423 11.7704 3.6271 11.8928 3.53627 11.9886C3.53259 11.9925 3.52878 11.9958 3.52553 11.9993C3.52906 12.0031 3.53222 12.0078 3.53627 12.012C3.6271 12.1078 3.76422 12.2302 4.0099 12.4485L9.00111 16.8851C9.43829 17.2737 9.71578 17.5189 9.92689 17.6751C9.94094 17.6855 9.95565 17.6928 9.96791 17.7015C9.96954 17.6866 9.97416 17.6709 9.97572 17.6536C9.99925 17.3921 10.0001 17.0217 10.0001 16.4368V7.5628ZM21.0001 7.5628C21.0001 6.97823 20.9992 6.60848 20.9757 6.34698C20.9741 6.32907 20.9696 6.31247 20.9679 6.29717C20.9555 6.30595 20.9411 6.314 20.9269 6.32452C20.7158 6.48069 20.4383 6.72596 20.0011 7.11456L15.0099 11.5521C14.7642 11.7704 14.6271 11.8928 14.5363 11.9886C14.5326 11.9925 14.5288 11.9958 14.5255 11.9993C14.5291 12.0031 14.5322 12.0078 14.5363 12.012C14.6271 12.1078 14.7642 12.2302 15.0099 12.4485L20.0011 16.8851C20.4383 17.2737 20.7158 17.5189 20.9269 17.6751C20.9409 17.6855 20.9557 17.6928 20.9679 17.7015C20.9695 17.6866 20.9742 17.6709 20.9757 17.6536C20.9993 17.3921 21.0001 17.0217 21.0001 16.4368V7.5628ZM12.0001 16.4368C12.0001 16.9818 12.0004 17.4596 11.9669 17.8323C11.9356 18.1804 11.8622 18.658 11.5431 19.0452C11.1465 19.5264 10.5481 19.7951 9.92494 19.7718C9.42378 19.753 9.0184 19.4913 8.73744 19.2835C8.43659 19.0609 8.07943 18.7423 7.67201 18.3802L2.6808 13.9437C2.46119 13.7485 2.24834 13.5601 2.0851 13.388C1.9149 13.2085 1.72815 12.9753 1.6183 12.6624C1.46773 12.2335 1.46772 11.7661 1.6183 11.3372C1.72821 11.0244 1.9149 10.7911 2.0851 10.6116C2.24832 10.4396 2.46122 10.2521 2.6808 10.0569L7.67201 5.61944C8.07943 5.25729 8.43659 4.93966 8.73744 4.7171C9.01841 4.50926 9.42361 4.24662 9.92494 4.22784C10.5482 4.20451 11.1465 4.47408 11.5431 4.95538C11.862 5.34252 11.9356 5.81924 11.9669 6.16729C12.0005 6.53997 12.0001 7.01776 12.0001 7.5628V16.4368ZM23.0001 16.4368C23.0001 16.9818 23.0004 17.4596 22.9669 17.8323C22.9356 18.1804 22.8622 18.658 22.5431 19.0452C22.1465 19.5264 21.5481 19.7951 20.9249 19.7718C20.4238 19.753 20.0184 19.4913 19.7374 19.2835C19.4366 19.0609 19.0794 18.7423 18.672 18.3802L13.6808 13.9437C13.4612 13.7485 13.2483 13.5601 13.0851 13.388C12.9149 13.2085 12.7281 12.9753 12.6183 12.6624C12.4677 12.2335 12.4677 11.7661 12.6183 11.3372C12.7282 11.0244 12.9149 10.7911 13.0851 10.6116C13.2483 10.4396 13.4612 10.2521 13.6808 10.0569L18.672 5.61944C19.0794 5.25729 19.4366 4.93966 19.7374 4.7171C20.0184 4.50926 20.4236 4.24662 20.9249 4.22784C21.5482 4.20451 22.1465 4.47408 22.5431 4.95538C22.862 5.34252 22.9356 5.81924 22.9669 6.16729C23.0005 6.53997 23.0001 7.01776 23.0001 7.5628V16.4368Z" fill="#475467"/>
</svg>
