<svg width="24" height="24" viewBox="0 0 24 24" fill="none" xmlns="http://www.w3.org/2000/svg">
<path d="M3.25782 4.24639C3.67537 4.31188 4.01676 4.53516 4.2627 4.7171C4.56348 4.93961 4.91988 5.25742 5.32716 5.61944L10.3193 10.0569C10.5388 10.252 10.7509 10.4397 10.9141 10.6116C11.0843 10.7911 11.2719 11.0243 11.3818 11.3372C11.5324 11.766 11.5324 12.2336 11.3818 12.6624C11.2719 12.9755 11.0844 13.2085 10.9141 13.388C10.7508 13.5601 10.5389 13.7485 10.3193 13.9437L5.32716 18.3802C4.91975 18.7423 4.56355 19.061 4.2627 19.2835C3.98179 19.4913 3.57634 19.7529 3.0752 19.7718C2.45198 19.7951 1.85268 19.5265 1.45606 19.0452C1.13706 18.658 1.06355 18.1804 1.03223 17.8323C0.998725 17.4597 1.00001 16.9818 1.00001 16.4368V7.5628C1.00001 7.01776 0.998702 6.53997 1.03223 6.16729C1.06355 5.81934 1.13733 5.34248 1.45606 4.95538C1.85268 4.47408 2.45198 4.20451 3.0752 4.22784L3.25782 4.24639ZM14.2578 4.24639C14.6754 4.31188 15.0168 4.53516 15.2627 4.7171C15.5635 4.93961 15.9199 5.25742 16.3272 5.61944L21.3193 10.0569C21.5388 10.252 21.7509 10.4397 21.9141 10.6116C22.0843 10.7911 22.2719 11.0243 22.3818 11.3372C22.5324 11.766 22.5324 12.2336 22.3818 12.6624C22.2719 12.9755 22.0844 13.2085 21.9141 13.388C21.7508 13.5601 21.5389 13.7485 21.3193 13.9437L16.3272 18.3802C15.9198 18.7423 15.5635 19.061 15.2627 19.2835C14.9818 19.4913 14.5763 19.7529 14.0752 19.7718C13.452 19.7951 12.8527 19.5265 12.4561 19.0452C12.1371 18.658 12.0635 18.1804 12.0322 17.8323C11.9987 17.4597 12 16.9818 12 16.4368V7.5628C12 7.01776 11.9987 6.53997 12.0322 6.16729C12.0635 5.81934 12.1373 5.34248 12.4561 4.95538C12.8527 4.47408 13.452 4.20451 14.0752 4.22784L14.2578 4.24639ZM3.00001 16.4368C3.00001 17.0217 3.00089 17.3921 3.02442 17.6536C3.02597 17.6709 3.02963 17.6866 3.03126 17.7015C3.04368 17.6927 3.05898 17.6857 3.07325 17.6751C3.28436 17.5189 3.5619 17.2736 3.99903 16.8851L8.99024 12.4485C9.23566 12.2304 9.37206 12.1077 9.4629 12.012C9.46666 12.0081 9.46934 12.0029 9.47266 11.9993C9.46954 11.996 9.4664 11.9923 9.4629 11.9886C9.37209 11.8929 9.23578 11.7703 8.99024 11.5521L3.99903 7.11456C3.56185 6.72596 3.28436 6.48069 3.07325 6.32452C3.05878 6.31381 3.04383 6.30608 3.03126 6.29717C3.02957 6.31245 3.02603 6.3291 3.02442 6.34698C3.00092 6.60848 3.00001 6.97821 3.00001 7.5628V16.4368ZM14 16.4368C14 17.0217 14.0009 17.3921 14.0244 17.6536C14.026 17.6709 14.0296 17.6866 14.0313 17.7015C14.0437 17.6927 14.059 17.6857 14.0732 17.6751C14.2844 17.5189 14.5619 17.2736 14.999 16.8851L19.9902 12.4485C20.2357 12.2304 20.3721 12.1077 20.4629 12.012C20.4667 12.0081 20.4693 12.0029 20.4727 11.9993C20.4695 11.996 20.4664 11.9923 20.4629 11.9886C20.3721 11.8929 20.2358 11.7703 19.9902 11.5521L14.999 7.11456C14.5619 6.72596 14.2844 6.48069 14.0732 6.32452C14.0588 6.31381 14.0438 6.30608 14.0313 6.29717C14.0296 6.31245 14.026 6.3291 14.0244 6.34698C14.0009 6.60848 14 6.97821 14 7.5628V16.4368Z" fill="#475467"/>
</svg>
