<svg width="24" height="24" viewBox="0 0 24 24" fill="none" xmlns="http://www.w3.org/2000/svg">
<path d="M13.5 13.1113C13.5 12.929 13.4945 12.6867 13.5478 12.4473C13.5902 12.2572 13.6597 12.0742 13.7549 11.9043C13.8748 11.6904 14.0405 11.5138 14.1621 11.3779L19.8681 5.00001C20.2596 4.56251 20.5065 4.28475 20.664 4.07325C20.6747 4.059 20.6815 4.04367 20.6904 4.03126C20.6756 4.02963 20.6598 4.02597 20.6426 4.02442C20.3799 4.00081 20.0079 4.00001 19.4209 4.00001H4.57811C3.9914 4.00001 3.62004 4.00084 3.35741 4.02442C3.33955 4.02603 3.32288 4.02957 3.3076 4.03126C3.31655 4.0438 3.3242 4.05882 3.33494 4.07325C3.49247 4.28472 3.73949 4.56262 4.13084 5.00001L9.8369 11.3779C9.95848 11.5138 10.1242 11.6903 10.2441 11.9043C10.3157 12.0319 10.373 12.1668 10.415 12.3066L10.4521 12.4473L10.4814 12.627C10.5023 12.8045 10.5 12.9746 10.5 13.1113V19.5225L13.5 18.3223V13.1113ZM15.5 18.458C15.5 18.5737 15.515 18.8913 15.4053 19.1856C15.3217 19.4096 15.1857 19.6107 15.0088 19.7715C14.7763 19.9828 14.4756 20.0869 14.3681 20.1299L10.9678 21.4893C10.8019 21.5556 10.615 21.6317 10.4512 21.6807C10.2845 21.7304 10.0101 21.7961 9.69432 21.7305C9.30736 21.65 8.96739 21.4193 8.74901 21.0899C8.57119 20.8213 8.53037 20.5433 8.51463 20.3701C8.49916 20.1996 8.49998 19.9972 8.49998 19.8184V13.1113C8.49998 12.9902 8.4999 12.9295 8.49803 12.8857L8.49705 12.8838C8.49635 12.8829 8.49587 12.8818 8.4951 12.8809C8.46731 12.847 8.42745 12.8012 8.34666 12.7109L2.64061 6.33399C2.27579 5.92626 1.95561 5.56948 1.73143 5.26856C1.52226 4.98776 1.25822 4.58159 1.23826 4.07911C1.21356 3.45517 1.4814 2.85563 1.96287 2.45802C2.35056 2.13791 2.82899 2.0636 3.17772 2.03223C3.55146 1.99863 4.03093 2.00001 4.57811 2.00001H19.4209C19.968 2.00001 20.4475 1.99865 20.8213 2.03223C21.17 2.06359 21.6484 2.13793 22.0361 2.45802C22.5177 2.85563 22.7864 3.45512 22.7617 4.07911C22.7417 4.58157 22.4777 4.98776 22.2685 5.26856C22.0444 5.56952 21.7233 5.92616 21.3584 6.33399L15.6523 12.7109C15.5715 12.8012 15.5317 12.847 15.5039 12.8809L15.5019 12.8828C15.5019 12.8838 15.502 12.8847 15.5019 12.8857C15.5001 12.9295 15.5 12.9902 15.5 13.1113V18.458Z" fill="#475467"/>
</svg>
