<svg width="24" height="24" viewBox="0 0 24 24" fill="none" xmlns="http://www.w3.org/2000/svg">
<path d="M3 14V10C3 8.99709 3.1646 8.03045 3.46875 7.12695L4.41602 7.44629L5.36426 7.76465C5.12843 8.46519 5 9.21683 5 10V14C5 17.179 7.11997 19.8653 10.0254 20.7178C10.5553 20.8732 10.8586 21.429 10.7031 21.959C10.5573 22.4559 10.0599 22.7542 9.56152 22.6611L9.46289 22.6367L9.11523 22.5273C5.56042 21.325 3 17.9628 3 14ZM18.7012 16.0293C18.861 15.5007 19.4196 15.2015 19.9482 15.3613C20.4769 15.5212 20.776 16.0797 20.6162 16.6084L20.5352 16.8613C19.6649 19.4582 17.645 21.5248 15.0791 22.459L14.9814 22.4893C14.4899 22.6139 13.974 22.348 13.7969 21.8613C13.6083 21.3425 13.8758 20.769 14.3945 20.5801L14.7754 20.4287C16.6517 19.6174 18.1032 18.0071 18.7012 16.0293ZM15.5 14V11.04C15.5 10.4878 15.9477 10.04 16.5 10.04C17.0523 10.04 17.5 10.4878 17.5 11.04V14C17.5 17.0376 15.0376 19.5 12 19.5C11.0939 19.5 10.2368 19.2802 9.48145 18.8906L9.16406 18.7129L9.0791 18.6562C8.67364 18.3522 8.55626 17.7843 8.82324 17.3408C9.10832 16.8679 9.72332 16.715 10.1963 17C10.7223 17.3171 11.3383 17.5 12 17.5C13.933 17.5 15.5 15.933 15.5 14ZM11 14V10C11 9.44772 11.4477 9 12 9C12.5523 9 13 9.44772 13 10V14C13 14.5523 12.5523 15 12 15C11.4477 15 11 14.5523 11 14ZM6.5 12.9502V10C6.5 6.96243 8.96243 4.5 12 4.5C12.9084 4.5 13.7676 4.72081 14.5244 5.1123L14.8428 5.29102L14.9268 5.34766C15.3321 5.65231 15.4486 6.22084 15.1807 6.66406C14.9127 7.107 14.3554 7.26791 13.8975 7.05078L13.8076 7.00195L13.6055 6.88867C13.1254 6.64028 12.5802 6.5 12 6.5C10.067 6.5 8.5 8.067 8.5 10V12.9502C8.49989 13.5024 8.05222 13.9502 7.5 13.9502C6.94778 13.9502 6.50011 13.5024 6.5 12.9502ZM19 11.2363V10C19 6.13401 15.866 3 12 3C10.5185 3 9.14693 3.45946 8.0166 4.24316L7.44727 3.4209L6.87695 2.59961C8.3312 1.59132 10.0983 1 12 1C16.9706 1 21 5.02944 21 10V11.2363C21 11.7886 20.5523 12.2363 20 12.2363C19.4477 12.2363 19 11.7886 19 11.2363ZM3.46875 7.12695C3.64499 6.60364 4.212 6.32192 4.73535 6.49805C5.25861 6.6742 5.54013 7.24136 5.36426 7.76465L3.46875 7.12695ZM8.0166 4.24316C7.56281 4.55751 6.93962 4.44486 6.625 3.99121C6.31042 3.53749 6.42345 2.91439 6.87695 2.59961L8.0166 4.24316Z" fill="#475467"/>
</svg>
