<svg width="24" height="24" viewBox="0 0 24 24" fill="none" xmlns="http://www.w3.org/2000/svg">
<path d="M8.91895 20.6475C9.23574 21.0997 9.12607 21.7231 8.67383 22.04C8.22157 22.3569 7.59818 22.2471 7.28125 21.7949L8.91895 20.6475ZM17.1055 14.2188C17.1055 11.3963 14.8186 9.10947 11.999 9.10938C9.17939 9.10938 6.89258 11.3962 6.89258 14.2188C6.89259 16.6117 7.64265 18.8261 8.91895 20.6475L8.09961 21.2207L7.28125 21.7949C5.77782 19.6494 4.89259 17.037 4.89258 14.2188C4.89258 10.2925 8.07395 7.10938 11.999 7.10938C15.924 7.10947 19.1055 10.2926 19.1055 14.2188C19.1054 14.7709 18.6576 15.2186 18.1055 15.2188C17.5532 15.2188 17.1055 14.771 17.1055 14.2188Z" fill="#475467"/>
<path d="M8.91895 20.6475C9.23574 21.0997 9.12607 21.7231 8.67383 22.04C8.22157 22.3569 7.59818 22.2471 7.28125 21.7949L8.91895 20.6475ZM17.1055 14.2188C17.1055 11.3963 14.8186 9.10947 11.999 9.10938C9.17939 9.10938 6.89258 11.3962 6.89258 14.2188C6.89259 16.6117 7.64265 18.8261 8.91895 20.6475L8.09961 21.2207L7.28125 21.7949C5.77782 19.6494 4.89259 17.037 4.89258 14.2188C4.89258 10.2925 8.07395 7.10938 11.999 7.10938C15.924 7.10947 19.1055 10.2926 19.1055 14.2188C19.1054 14.7709 18.6576 15.2186 18.1055 15.2188C17.5532 15.2188 17.1055 14.771 17.1055 14.2188Z" fill="#475467"/>
<path d="M11.001 14.2186C11.001 13.6663 11.4487 13.2186 12.001 13.2186C12.5533 13.2186 13.001 13.6663 13.001 14.2186C13.001 17.0412 15.2878 19.328 18.1074 19.328C18.1819 19.328 18.22 19.3223 18.3809 19.3134L18.4834 19.3124C18.9894 19.3357 19.4056 19.7391 19.4346 20.2557C19.4652 20.8072 19.0426 21.2798 18.4912 21.3104L18.1074 21.328C14.1824 21.328 11.001 18.1449 11.001 14.2186Z" fill="#475467"/>
<path d="M11.001 14.2188C11.001 13.6665 11.4487 13.2188 12.001 13.2188C12.5533 13.2188 13.001 13.6665 13.001 14.2188C13.001 17.0413 15.2878 19.3281 18.1074 19.3281C18.1819 19.3281 18.22 19.3224 18.3809 19.3135L18.4834 19.3125C18.9894 19.3358 19.4056 19.7392 19.4346 20.2559C19.4652 20.8073 19.0426 21.2799 18.4912 21.3105L18.1074 21.3281C14.1824 21.3281 11.001 18.145 11.001 14.2188Z" fill="#475467"/>
<path d="M14.0547 14.2188C14.0547 13.0837 13.1345 12.1642 12.001 12.1641C10.8673 12.1641 9.94727 13.0836 9.94727 14.2188C9.94729 17.0514 11.39 19.5474 13.584 21.0127L13.7988 21.1514L13.8828 21.21C14.2834 21.5203 14.3921 22.09 14.1182 22.5293C13.8442 22.9685 13.285 23.1215 12.8301 22.8984L12.7402 22.8486L12.4736 22.6768C9.7474 20.8561 7.94729 17.7484 7.94727 14.2188C7.94727 11.9795 9.7623 10.1641 12.001 10.1641C14.2395 10.1642 16.0547 11.9796 16.0547 14.2188C16.0547 15.3538 16.9747 16.2734 18.1084 16.2734C19.2419 16.2732 20.1621 15.3537 20.1621 14.2188C20.1621 9.70917 16.5077 6.05481 12.002 6.05469C7.49607 6.05469 3.8418 9.70909 3.8418 14.2188C3.8418 15.2719 3.95944 16.2987 4.17676 17.29C4.29503 17.8295 3.95354 18.3632 3.41406 18.4814C2.90837 18.5921 2.40793 18.2989 2.25 17.8174L2.22363 17.7188L2.13574 17.2939C1.94458 16.299 1.8418 15.2713 1.8418 14.2188C1.8418 8.60525 6.39078 4.05469 12.002 4.05469C17.613 4.05481 22.1621 8.60532 22.1621 14.2188C22.1621 16.4578 20.3469 18.2732 18.1084 18.2734C15.8697 18.2734 14.0547 16.458 14.0547 14.2188Z" fill="#475467"/>
<path d="M14.0547 14.2188C14.0547 13.0837 13.1345 12.1642 12.001 12.1641C10.8673 12.1641 9.94727 13.0836 9.94727 14.2188C9.94729 17.0514 11.39 19.5474 13.584 21.0127L13.7988 21.1514L13.8828 21.21C14.2834 21.5203 14.3921 22.09 14.1182 22.5293C13.8442 22.9685 13.285 23.1215 12.8301 22.8984L12.7402 22.8486L12.4736 22.6768C9.7474 20.8561 7.94729 17.7484 7.94727 14.2188C7.94727 11.9795 9.7623 10.1641 12.001 10.1641C14.2395 10.1642 16.0547 11.9796 16.0547 14.2188C16.0547 15.3538 16.9747 16.2734 18.1084 16.2734C19.2419 16.2732 20.1621 15.3537 20.1621 14.2188C20.1621 9.70917 16.5077 6.05481 12.002 6.05469C7.49607 6.05469 3.8418 9.70909 3.8418 14.2188C3.8418 15.2719 3.95944 16.2987 4.17676 17.29C4.29503 17.8295 3.95354 18.3632 3.41406 18.4814C2.90837 18.5921 2.40793 18.2989 2.25 17.8174L2.22363 17.7188L2.13574 17.2939C1.94458 16.299 1.8418 15.2713 1.8418 14.2188C1.8418 8.60525 6.39078 4.05469 12.002 4.05469C17.613 4.05481 22.1621 8.60532 22.1621 14.2188C22.1621 16.4578 20.3469 18.2732 18.1084 18.2734C15.8697 18.2734 14.0547 16.458 14.0547 14.2188Z" fill="#475467"/>
<path d="M12.0002 1C15.5843 1 18.8065 2.53113 21.0617 4.96387L21.2765 5.20215L21.34 5.28223C21.6349 5.69449 21.5752 6.27106 21.1867 6.61328C20.7982 6.95532 20.2185 6.94207 19.8468 6.59766L19.7756 6.52344L19.4084 6.12793C17.5252 4.19842 14.9042 3 12.0002 3C8.90258 3.00005 6.12733 4.36361 4.22576 6.52344L4.15349 6.59766C3.78184 6.9419 3.20212 6.95527 2.81365 6.61328C2.39953 6.24831 2.35906 5.61655 2.7238 5.20215L2.93962 4.96387C5.19475 2.53135 8.41622 1.00005 12.0002 1Z" fill="#475467"/>
<path d="M12.0002 1C15.5843 1 18.8065 2.53113 21.0617 4.96387L21.2765 5.20215L21.34 5.28223C21.6349 5.69449 21.5752 6.27106 21.1867 6.61328C20.7982 6.95532 20.2185 6.94207 19.8468 6.59766L19.7756 6.52344L19.4084 6.12793C17.5252 4.19842 14.9042 3 12.0002 3C8.90258 3.00005 6.12733 4.36361 4.22576 6.52344L4.15349 6.59766C3.78184 6.9419 3.20212 6.95527 2.81365 6.61328C2.39953 6.24831 2.35906 5.61655 2.7238 5.20215L2.93962 4.96387C5.19475 2.53135 8.41622 1.00005 12.0002 1Z" fill="#475467"/>
</svg>
