<svg width="24" height="24" viewBox="0 0 24 24" fill="none" xmlns="http://www.w3.org/2000/svg">
<path d="M13.0927 4.18848C13.0927 3.87674 13.0912 3.70294 13.081 3.57715C13.0788 3.55063 13.0751 3.53125 13.0731 3.51758C13.0596 3.51571 13.0408 3.51282 13.0155 3.51075C12.8897 3.50047 12.7153 3.50001 12.4032 3.50001H4.64443C4.25741 3.50001 4.03245 3.50135 3.87099 3.51563C3.83778 3.51858 3.81294 3.52264 3.79482 3.5254C3.79654 3.54375 3.79834 3.56921 3.80361 3.60255C3.82881 3.76197 3.88041 3.97909 3.97353 4.35157C3.97504 4.35721 3.97797 4.36249 3.97939 4.36817L5.37294 9.94434H12.4032C12.7153 9.94434 12.8897 9.94388 13.0155 9.9336C13.0409 9.93152 13.0596 9.92767 13.0731 9.92579C13.075 9.91218 13.0788 9.89303 13.081 9.86719C13.0912 9.7414 13.0927 9.56759 13.0927 9.25587V4.18848ZM15.0927 9.25587C15.0927 9.53484 15.0926 9.80418 15.0741 10.0303C15.0547 10.2681 15.0094 10.5449 14.8681 10.8223C14.671 11.209 14.3563 11.5237 13.9696 11.7207C13.6924 11.8619 13.4154 11.9073 13.1776 11.9268C12.9515 11.9452 12.6821 11.9443 12.4032 11.9443H11.9257V13.4775C11.9257 13.7896 11.9261 13.964 11.9364 14.0899C11.9385 14.1151 11.9414 14.1339 11.9433 14.1475C11.9569 14.1494 11.9764 14.1531 12.0028 14.1553C12.1286 14.1655 12.3024 14.167 12.6142 14.167H19.7821L18.4892 11.8399C18.4373 11.7466 18.2975 11.5167 18.2431 11.252C18.2013 11.049 18.2013 10.8397 18.2431 10.6367L18.2968 10.4463C18.3616 10.2655 18.4503 10.1187 18.4892 10.0488L19.7811 7.72266H15.0927V9.25587ZM15.0927 5.72266H20.0458C20.2621 5.72266 20.4937 5.7217 20.6854 5.73926C20.8496 5.75432 21.1096 5.7902 21.3661 5.93848L21.4765 6.00977L21.6015 6.10938C21.8395 6.3217 22.0052 6.60379 22.0751 6.91505L22.1015 7.07325L22.1102 7.20313C22.1154 7.49947 22.0216 7.74466 21.955 7.89551C21.8772 8.07168 21.7632 8.27378 21.6581 8.4629L20.2782 10.9443L21.6581 13.4268C21.7632 13.6159 21.8772 13.818 21.955 13.9941C22.0311 14.1667 22.1428 14.4621 22.1015 14.8164C22.0516 15.2427 21.8248 15.6282 21.4765 15.8789C21.1865 16.0874 20.8732 16.1332 20.6854 16.1504C20.4937 16.168 20.2621 16.167 20.0458 16.167H12.6142C12.3352 16.167 12.0658 16.1679 11.8397 16.1494C11.6019 16.13 11.3251 16.0837 11.0477 15.9424C10.6611 15.7453 10.3463 15.4306 10.1493 15.044C10.0082 14.7669 9.9627 14.4906 9.94326 14.2529C9.92478 14.0268 9.92568 13.7566 9.92568 13.4775V11.9443H5.87294L8.20107 21.2578L8.2206 21.3574C8.29353 21.8592 7.97602 22.3441 7.47353 22.4697C6.93775 22.6037 6.39458 22.278 6.26064 21.7422L2.03896 4.85352C2.0379 4.8493 2.03703 4.84505 2.03603 4.84083C1.95112 4.50119 1.87038 4.1829 1.82802 3.91505C1.7845 3.63969 1.75962 3.3023 1.86904 2.94825L1.93251 2.77149C2.09909 2.36769 2.39117 2.02599 2.76747 1.79786L2.88759 1.73145C3.16728 1.59149 3.45231 1.54493 3.69521 1.52344C3.96543 1.49954 4.29415 1.50001 4.64443 1.50001H12.4032C12.6821 1.50001 12.9515 1.49914 13.1776 1.51758C13.356 1.53216 13.5567 1.56144 13.7626 1.63477L13.9696 1.72364L14.1112 1.80372C14.4331 2.00116 14.6956 2.28377 14.8681 2.62208C15.0094 2.89939 15.0547 3.17624 15.0741 3.41407C15.0926 3.64014 15.0927 3.90955 15.0927 4.18848V5.72266Z" fill="#475467"/>
</svg>
