<svg width="24" height="24" viewBox="0 0 24 24" fill="none" xmlns="http://www.w3.org/2000/svg">
<path d="M20 13.5C20 11.5671 18.433 10 16.5 10H5.41405L7.70702 12.293L7.77538 12.3692C8.09573 12.762 8.07313 13.341 7.70702 13.7071C7.3409 14.0732 6.7619 14.0958 6.36913 13.7754L6.29295 13.7071L2.29295 9.70708C1.90243 9.31655 1.90243 8.68354 2.29295 8.29302L6.29295 4.29302C6.68348 3.90249 7.31649 3.90249 7.70702 4.29302C8.09754 4.68354 8.09754 5.31655 7.70702 5.70708L5.41405 8.00005H16.5C19.5376 8.00005 22 10.4625 22 13.5C22 16.5376 19.5376 19 16.5 19H12C11.4477 19 11 18.5523 11 18C11 17.4478 11.4477 17 12 17H16.5C18.433 17 20 15.433 20 13.5Z" fill="#475467"/>
</svg>
