<svg width="24" height="24" viewBox="0 0 24 24" fill="none" xmlns="http://www.w3.org/2000/svg">
<path d="M21 11.7998C21 10.9434 20.9997 10.3612 20.9629 9.91116C20.9271 9.47275 20.8619 9.24822 20.7822 9.09182C20.5905 8.71557 20.2845 8.40954 19.9082 8.2178C19.7518 8.13811 19.5273 8.07296 19.0889 8.03714C18.6388 8.00038 18.0566 8.00003 17.2002 8.00003H3V16.2002C3 17.0566 3.00035 17.6389 3.03711 18.0889C3.07293 18.5273 3.13809 18.7518 3.21778 18.9082C3.40951 19.2845 3.71555 19.5905 4.0918 19.7823C4.2482 19.8619 4.47272 19.9271 4.91114 19.9629C5.36117 19.9997 5.94342 20 6.79981 20H17.2002C18.0566 20 18.6388 19.9997 19.0889 19.9629C19.5273 19.9271 19.7518 19.8619 19.9082 19.7823C20.2845 19.5905 20.5905 19.2845 20.7822 18.9082C20.8619 18.7518 20.9271 18.5273 20.9629 18.0889C20.9997 17.6389 21 17.0566 21 16.2002V11.7998ZM9.29297 10.793C9.6835 10.4025 10.3165 10.4025 10.707 10.793C11.0976 11.1835 11.0976 11.8165 10.707 12.2071L8.91407 14L10.707 15.793L10.7754 15.8692C11.0957 16.2619 11.0732 16.8409 10.707 17.2071C10.3409 17.5732 9.76192 17.5958 9.36915 17.2754L9.29297 17.2071L6.79297 14.7071C6.40245 14.3165 6.40245 13.6835 6.79297 13.293L9.29297 10.793ZM13.293 10.793C13.6591 10.4269 14.2381 10.4043 14.6309 10.7246L14.707 10.793L17.207 13.293C17.5976 13.6835 17.5976 14.3165 17.207 14.7071L14.707 17.2071C14.3165 17.5976 13.6835 17.5976 13.293 17.2071C12.9024 16.8165 12.9024 16.1835 13.293 15.793L15.0859 14L13.293 12.2071L13.2246 12.1309C12.9043 11.7381 12.9269 11.1591 13.293 10.793ZM5.2002 4.00003C4.62365 4.00003 4.25112 4.00129 3.96778 4.02444C3.69619 4.04664 3.59534 4.08421 3.5459 4.1094C3.35793 4.20524 3.20522 4.35796 3.10938 4.54593C3.08419 4.59536 3.04662 4.69621 3.02442 4.9678C3.00406 5.21695 3.00142 5.53492 3.00098 6.00003H11.3818L10.9902 5.21585C10.6368 4.50904 10.555 4.37446 10.4639 4.28518C10.358 4.18152 10.2299 4.10303 10.0898 4.05472C9.96925 4.01315 9.81244 4.00003 9.02247 4.00003H5.2002ZM23 16.2002C23 17.0237 23.001 17.7016 22.9561 18.252C22.9101 18.814 22.8117 19.3311 22.5645 19.8164C22.181 20.5689 21.5689 21.181 20.8164 21.5645C20.3311 21.8118 19.814 21.9102 19.252 21.9561C18.7016 22.0011 18.0237 22 17.2002 22H6.79981C5.97632 22 5.29843 22.0011 4.74805 21.9561C4.186 21.9102 3.6689 21.8118 3.1836 21.5645C2.43109 21.181 1.81902 20.5689 1.43555 19.8164C1.18828 19.3311 1.08988 18.814 1.04395 18.252C0.998982 17.7016 1 17.0237 1 16.2002V6.20022C1 5.65667 0.998931 5.18839 1.03028 4.80472C1.06259 4.40946 1.1344 4.01602 1.32715 3.63772C1.61473 3.0735 2.07348 2.61475 2.6377 2.32718C3.016 2.13442 3.40943 2.06261 3.80469 2.0303C4.18836 1.99895 4.65665 2.00003 5.2002 2.00003H9.02247C9.66782 2.00003 10.229 1.98709 10.7422 2.16409C11.1625 2.30908 11.5456 2.54537 11.8633 2.85647C12.2511 3.23629 12.4907 3.74411 12.7793 4.32132L13.6182 6.00003H17.2002C18.0237 6.00003 18.7016 5.99901 19.252 6.04397C19.814 6.0899 20.3311 6.1883 20.8164 6.43557C21.5689 6.81904 22.181 7.43112 22.5645 8.18362C22.8117 8.66893 22.9101 9.18602 22.9561 9.74807C23.001 10.2985 23 10.9763 23 11.7998V16.2002Z" fill="#475467"/>
</svg>
