<svg width="24" height="24" viewBox="0 0 24 24" fill="none" xmlns="http://www.w3.org/2000/svg">
<path d="M17.999 4.00002C18.2482 4.00002 18.4291 3.99907 18.5928 4.01173C20.4091 4.15233 21.901 5.50263 22.2217 7.29591C22.2506 7.45749 22.2682 7.63781 22.293 7.88576L22.9102 14.0645C23.2079 15.6348 22.7496 17.3197 21.5342 18.5352C19.5816 20.4878 16.4165 20.4878 14.4639 18.5352C13.5316 17.6028 13.0449 16.3943 13.0029 15.1729C12.3545 14.9433 11.6425 14.9431 10.9942 15.1729C10.9522 16.3942 10.4665 17.6028 9.5342 18.5352C7.58158 20.4878 4.41651 20.4878 2.46389 18.5352C1.24846 17.3197 0.790231 15.6348 1.08791 14.0645L1.7051 7.88576C1.72989 7.6378 1.7475 7.45749 1.77639 7.29591C2.09705 5.50263 3.58899 4.15233 5.40529 4.01173C5.56894 3.99907 5.74985 4.00002 5.99904 4.00002C6.55133 4.00002 6.99904 4.44773 6.99904 5.00002C6.99904 5.5523 6.55133 6.00002 5.99904 6.00002C5.71366 6.00002 5.62704 6.00066 5.55959 6.00588C4.65143 6.0762 3.90543 6.75178 3.74514 7.64845C3.73326 7.715 3.72367 7.80156 3.69533 8.08498L3.43264 10.708C5.35331 9.5576 7.87922 9.80989 9.5342 11.4649C10.0398 11.9704 10.4135 12.5575 10.6572 13.1836C11.534 12.9401 12.4631 12.9402 13.3399 13.1836C13.5836 12.5574 13.9582 11.9705 14.4639 11.4649C16.1187 9.81009 18.6439 9.55809 20.5645 10.708L20.3028 8.08498C20.2744 7.80157 20.2648 7.715 20.2529 7.64845C20.0927 6.75178 19.3467 6.0762 18.4385 6.00588C18.371 6.00066 18.2844 6.00002 17.999 6.00002C17.4468 6.00002 16.999 5.5523 16.999 5.00002C16.999 4.44773 17.4468 4.00002 17.999 4.00002ZM8.12014 12.8789C6.94856 11.7074 5.04952 11.7074 3.87795 12.8789C2.70638 14.0505 2.70638 15.9495 3.87795 17.1211C5.04953 18.2927 6.94857 18.2927 8.12014 17.1211C9.29171 15.9495 9.2917 14.0505 8.12014 12.8789ZM20.1201 12.8789C18.9486 11.7074 17.0495 11.7074 15.8779 12.8789C14.7064 14.0505 14.7064 15.9495 15.8779 17.1211C17.0495 18.2927 18.9486 18.2927 20.1201 17.1211C21.2917 15.9495 21.2917 14.0505 20.1201 12.8789Z" fill="#475467"/>
</svg>
