<svg width="24" height="24" viewBox="0 0 24 24" fill="none" xmlns="http://www.w3.org/2000/svg">
<path d="M14.4645 8.46483C16.4171 6.51221 19.5821 6.51221 21.5348 8.46483C23.4874 10.4174 23.4874 13.5825 21.5348 15.5351C19.5822 17.4878 16.4171 17.4878 14.4645 15.5351C13.5321 14.6028 13.0455 13.3942 13.0035 12.1728C12.3551 11.9433 11.6431 11.9431 10.9947 12.1728C10.9527 13.3942 10.4671 14.6028 9.53477 15.5351C7.58216 17.4878 4.41709 17.4878 2.46446 15.5351C0.511843 13.5825 0.511849 10.4175 2.46446 8.46483C4.41708 6.51221 7.58215 6.51221 9.53477 8.46483C10.0403 8.9704 10.4141 9.55745 10.6578 10.1836C11.5345 9.94005 12.4637 9.9402 13.3404 10.1836C13.5842 9.55733 13.9588 8.97049 14.4645 8.46483ZM8.12071 9.87889C6.94913 8.70732 5.05009 8.70732 3.87852 9.87889C2.70695 11.0505 2.70696 12.9495 3.87852 14.1211C5.05011 15.2926 6.94914 15.2926 8.12071 14.1211C9.29228 12.9495 9.29228 11.0505 8.12071 9.87889ZM20.1207 9.87889C18.9491 8.70732 17.0501 8.70732 15.8785 9.87889C14.707 11.0505 14.707 12.9495 15.8785 14.1211C17.0501 15.2926 18.9491 15.2926 20.1207 14.1211C21.2923 12.9495 21.2923 11.0505 20.1207 9.87889Z" fill="#475467"/>
</svg>
