<svg width="24" height="24" viewBox="0 0 24 24" fill="none" xmlns="http://www.w3.org/2000/svg">
<path d="M16.9995 10.5001C16.9995 6.91032 14.0893 4.00018 10.4995 4.00014C6.90965 4.00014 3.9995 6.91029 3.9995 10.5001C3.99956 14.0899 6.90969 17.0001 10.4995 17.0001C14.0893 17.0001 16.9994 14.0899 16.9995 10.5001ZM18.9995 10.5001C18.9994 15.1945 15.1939 19.0001 10.4995 19.0001C8.51249 19.0001 6.6861 18.3164 5.23876 17.174L3.81688 18.5958C7.9411 22.0089 14.0623 21.787 17.9243 17.9249C21.8967 13.9525 22.0206 7.58873 18.2964 3.46694L17.9243 3.07534L17.855 2.99916C17.535 2.6064 17.5583 2.02727 17.9243 1.66127C18.2905 1.29521 18.8695 1.2725 19.2622 1.59291L19.3384 1.66127L19.564 1.89174C24.2191 6.78886 24.1437 14.5337 19.3384 19.339C14.6633 24.0141 7.20753 24.2112 2.29638 19.9318C2.21169 19.858 2.0959 19.7585 2.00145 19.6593C1.89259 19.5449 1.7638 19.3832 1.67821 19.1574C1.56271 18.8525 1.55073 18.5046 1.64501 18.1925L1.70751 18.0246C1.77757 17.8696 1.86647 17.7492 1.94091 17.6603C2.02966 17.5543 2.1403 17.4443 2.22606 17.3585L3.8247 15.7599C2.68271 14.3127 1.99953 12.4867 1.9995 10.5001C1.9995 5.80572 5.80508 2.00014 10.4995 2.00014C15.1939 2.00018 18.9995 5.80575 18.9995 10.5001Z" fill="#475467"/>
</svg>
