<svg width="24" height="24" viewBox="0 0 24 24" fill="none" xmlns="http://www.w3.org/2000/svg">
<path d="M16.5008 9.50027C16.5008 6.73885 14.2622 4.50028 11.5008 4.50027C8.7394 4.50027 6.50083 6.73884 6.50083 9.50027C6.50097 12.2616 8.73949 14.5003 11.5008 14.5003C14.2622 14.5002 16.5007 12.2616 16.5008 9.50027ZM18.5008 9.50027C18.5007 13.3661 15.3667 16.5002 11.5008 16.5003C9.9283 16.5003 8.4771 15.9811 7.30845 15.1057L6.24009 16.1741C9.57629 18.8105 14.4313 18.5903 17.5116 15.51C20.7269 12.2943 20.827 7.14347 17.8124 3.80691L17.5116 3.48952L17.4422 3.41335C17.1222 3.02058 17.1456 2.44147 17.5116 2.07546C17.8777 1.70943 18.4567 1.68665 18.8495 2.0071L18.9256 2.07546L19.2977 2.46706C23.0219 6.58886 22.898 12.9527 18.9256 16.9251C17.258 18.5927 15.1685 19.5807 13.0008 19.8919V21.0003H17.0008L17.1034 21.0051C17.6075 21.0565 18.0008 21.4826 18.0008 22.0003C18.0007 22.5178 17.6074 22.943 17.1034 22.9944L17.0008 23.0003H7.00083C6.44863 23.0003 6.00097 22.5524 6.00083 22.0003C6.00083 21.448 6.44854 21.0003 7.00083 21.0003H11.0008V19.9876C8.79482 19.8831 6.61653 19.0857 4.81723 17.5969L3.36899 19.0462C2.9785 19.4365 2.34542 19.4365 1.95493 19.0462C1.56445 18.6557 1.56455 18.0226 1.95493 17.6321L4.06723 15.5188C4.07009 15.5159 4.07313 15.5129 4.07602 15.51C4.07945 15.5066 4.0833 15.5036 4.08677 15.5003L5.89438 13.6917C5.01937 12.5232 4.50089 11.0724 4.50083 9.50027C4.50083 5.63427 7.63483 2.50027 11.5008 2.50027C15.3668 2.50028 18.5008 5.63428 18.5008 9.50027Z" fill="#475467"/>
</svg>
