<svg width="24" height="24" viewBox="0 0 24 24" fill="none" xmlns="http://www.w3.org/2000/svg">
<path d="M16 14.5004V12.6176L12.8047 14.2153C12.7253 14.255 12.515 14.3707 12.2764 14.4155C12.0937 14.4497 11.9063 14.4497 11.7236 14.4155C11.485 14.3707 11.2747 14.255 11.1953 14.2153L5 11.1176V16.3071C5 16.5048 5.00017 16.6071 5.00488 16.6811C5.005 16.683 5.00476 16.6852 5.00488 16.687C5.00701 16.6881 5.00933 16.6896 5.01172 16.6909C5.07704 16.726 5.16962 16.7695 5.34961 16.852L11.75 19.7856C11.8811 19.8457 11.9472 19.8754 11.9961 19.895C11.9973 19.8955 11.9989 19.8955 12 19.896C12.0011 19.8955 12.0027 19.8955 12.0039 19.895C12.0528 19.8754 12.1189 19.8457 12.25 19.7856L18.6504 16.852C18.8304 16.7695 18.923 16.726 18.9883 16.6909C18.9904 16.6897 18.9922 16.688 18.9941 16.687C18.9943 16.6852 18.995 16.683 18.9951 16.6811C18.9998 16.6071 19 16.5048 19 16.3071V11.1176L18 11.6176V14.5004C17.9998 15.0525 17.5521 15.5004 17 15.5004C16.4479 15.5004 16.0002 15.0525 16 14.5004ZM4.23535 8.49947L12 12.3813L14.7627 10.9995L11.5527 9.394C11.059 9.147 10.8588 8.54702 11.1055 8.05318C11.3525 7.5592 11.9533 7.35893 12.4473 7.60591L17 9.88131L19.7637 8.49947L12 4.61763L4.23535 8.49947ZM21 16.5454C20.9978 16.7987 20.9812 17.0893 20.8838 17.3628C20.7812 17.6505 20.6144 17.9113 20.3955 18.1245C20.1182 18.3945 19.7529 18.5468 19.4834 18.6704L13.083 21.604C12.8859 21.6943 12.6269 21.8211 12.3418 21.8706C12.1156 21.9098 11.8844 21.9098 11.6582 21.8706C11.3731 21.8211 11.1141 21.6943 10.917 21.604L4.5166 18.6704C4.24711 18.5469 3.88182 18.3945 3.60449 18.1245C3.38563 17.9113 3.21876 17.6505 3.11621 17.3628C3.01879 17.0893 3.00218 16.7987 3 16.5454V10.1176L1.55273 9.394C1.2142 9.22463 1.00016 8.87897 1 8.50045C1 8.12174 1.21405 7.77534 1.55273 7.60591L11.1953 2.78463C11.2748 2.74487 11.4851 2.62919 11.7236 2.58443L11.8613 2.56588C11.9536 2.55731 12.0464 2.55731 12.1387 2.56588L12.2764 2.58443L12.4482 2.62935C12.6119 2.68248 12.745 2.75479 12.8047 2.78463L22.4473 7.60591C22.786 7.77534 23 8.12174 23 8.50045C22.9998 8.87897 22.7858 9.22463 22.4473 9.394L21 10.1176V16.5454Z" fill="#475467"/>
</svg>
