<svg width="24" height="24" viewBox="0 0 24 24" fill="none" xmlns="http://www.w3.org/2000/svg">
<path d="M20.999 13H3.00099C3.00092 13.0409 3.00001 13.0851 3.00001 13.1328V15.2002C3.00001 16.0566 3.00036 16.6388 3.03712 17.0889C3.07294 17.5273 3.1381 17.7518 3.21778 17.9082C3.40952 18.2845 3.71556 18.5905 4.09181 18.7822C4.24821 18.8619 4.47273 18.9271 4.91114 18.9629C5.36118 18.9997 5.94343 19 6.79982 19H17.2002C18.0566 19 18.6388 18.9997 19.0889 18.9629C19.5273 18.9271 19.7518 18.8619 19.9082 18.7822C20.2845 18.5905 20.5905 18.2845 20.7822 17.9082C20.8619 17.7518 20.9271 17.5273 20.9629 17.0889C20.9997 16.6388 21 16.0566 21 15.2002V13.1328C21 13.0851 20.9991 13.0409 20.999 13ZM10 15C10.5523 15 11 15.4477 11 16C11 16.5523 10.5523 17 10 17H6.00001C5.44773 17 5.00001 16.5523 5.00001 16C5.00001 15.4477 5.44773 15 6.00001 15H10ZM8.96681 5.00001C7.81764 5.00001 7.48121 5.01317 7.20216 5.10938C6.92198 5.20602 6.66685 5.36394 6.45509 5.5713C6.24418 5.77787 6.08141 6.07257 5.56739 7.10059L3.61818 11H20.3818L18.4326 7.10059C17.9186 6.07257 17.7558 5.77786 17.5449 5.5713C17.3332 5.36394 17.078 5.20602 16.7979 5.10938C16.5188 5.01317 16.1824 5.00001 15.0332 5.00001H8.96681ZM23 15.2002C23 16.0237 23.001 16.7016 22.9561 17.252C22.9101 17.814 22.8117 18.3311 22.5645 18.8164C22.181 19.5689 21.5689 20.181 20.8164 20.5645C20.3311 20.8117 19.814 20.9101 19.252 20.9561C18.7016 21.001 18.0237 21 17.2002 21H6.79982C5.97633 21 5.29844 21.001 4.74806 20.9561C4.186 20.9101 3.66891 20.8117 3.18361 20.5645C2.4311 20.181 1.81903 19.5689 1.43556 18.8164C1.18828 18.3311 1.08989 17.814 1.04396 17.252C0.998989 16.7016 1.00001 16.0237 1.00001 15.2002V13.1328C1.00001 12.7371 0.998244 12.445 1.03907 12.1533C1.07339 11.9084 1.13012 11.6671 1.209 11.4326C1.30293 11.1535 1.43528 10.8931 1.61232 10.5391L3.77931 6.20606C4.22841 5.30785 4.54814 4.63968 5.05568 4.14259C5.47922 3.72778 5.98938 3.41207 6.54982 3.21876C7.22146 2.98709 7.96243 3.00001 8.96681 3.00001H15.0332C16.0376 3.00001 16.7786 2.98709 17.4502 3.21876C18.0106 3.41207 18.5208 3.72778 18.9443 4.14259C19.4519 4.63967 19.7716 5.30786 20.2207 6.20606L22.3877 10.5391C22.5647 10.8931 22.6971 11.1535 22.791 11.4326C22.8699 11.6671 22.9266 11.9084 22.9609 12.1533C23.0018 12.445 23 12.7371 23 13.1328V15.2002Z" fill="#475467"/>
</svg>
