<svg width="24" height="24" viewBox="0 0 24 24" fill="none" xmlns="http://www.w3.org/2000/svg">
<path d="M20.9981 8.27933C20.998 8.27812 20.9972 8.27654 20.9971 8.27543C20.9964 8.27461 20.996 8.27338 20.9952 8.2725C20.9631 8.23739 20.9168 8.19123 20.8243 8.09867L15.9014 3.17582C15.8088 3.08325 15.7627 3.03696 15.7276 3.00492C15.7263 3.00378 15.7248 3.003 15.7237 3.00199H15.7207C15.6733 2.99984 15.608 3.00004 15.4776 3.00004H8.5225C8.3921 3.00004 8.32675 2.99984 8.27933 3.00199C8.27814 3.00204 8.27653 3.00193 8.27543 3.00199C8.27446 3.00286 8.27355 3.00396 8.2725 3.00492C8.23739 3.03696 8.19123 3.08325 8.09867 3.17582L3.17582 8.09867C3.08325 8.19123 3.03696 8.23739 3.00492 8.2725C3.00396 8.27355 3.00286 8.27446 3.00199 8.27543C3.00193 8.27653 3.00204 8.27814 3.00199 8.27933C2.99984 8.32675 3.00004 8.3921 3.00004 8.5225V15.4776C3.00004 15.608 2.99984 15.6733 3.00199 15.7207V15.7237C3.003 15.7248 3.00378 15.7263 3.00492 15.7276C3.03696 15.7627 3.08325 15.8088 3.17582 15.9014L8.09867 20.8243C8.19123 20.9168 8.23739 20.9631 8.2725 20.9952C8.27338 20.996 8.27461 20.9964 8.27543 20.9971C8.27654 20.9972 8.27812 20.998 8.27933 20.9981C8.32675 21.0002 8.3921 21 8.5225 21H15.4776C15.608 21 15.6733 21.0002 15.7207 20.9981L15.7237 20.9971C15.7246 20.9962 15.7265 20.9961 15.7276 20.9952C15.7627 20.9631 15.8088 20.9168 15.9014 20.8243L20.8243 15.9014C20.9168 15.8088 20.9631 15.7627 20.9952 15.7276C20.9961 15.7265 20.9962 15.7246 20.9971 15.7237L20.9981 15.7207C21.0002 15.6733 21 15.608 21 15.4776V8.5225C21 8.3921 21.0002 8.32675 20.9981 8.27933ZM7.42777 7.89457C8.86731 6.66466 10.6787 6.79229 11.9952 7.72465C13.3095 6.79188 15.1047 6.68083 16.5547 7.88578C18.2542 9.29834 18.4566 11.7128 17.1504 13.3936C16.4547 14.2889 14.7648 15.857 13.71 16.8116C13.5427 16.9629 13.3733 17.1175 13.2168 17.2373C13.0476 17.367 12.8406 17.499 12.5762 17.5791C12.2028 17.6922 11.7904 17.6922 11.417 17.5791C11.1527 17.499 10.9456 17.367 10.7764 17.2373C10.62 17.1175 10.4505 16.9629 10.2832 16.8116C9.22839 15.857 7.53854 14.2889 6.84281 13.3936C5.52783 11.7015 5.77352 9.308 7.42777 7.89457ZM11.2364 9.71781C10.531 8.89337 9.48759 8.76487 8.7266 9.41507C7.8759 10.142 7.76971 11.3278 8.42191 12.167C8.98637 12.8932 10.5227 14.3316 11.625 15.3291C11.8159 15.5019 11.9158 15.5908 11.9922 15.6494C11.9934 15.6504 11.995 15.6515 11.9961 15.6524C11.9975 15.6514 11.9996 15.6505 12.001 15.6494C12.0774 15.5908 12.1773 15.5019 12.3682 15.3291C13.4705 14.3316 15.0069 12.8932 15.5713 12.167C16.2324 11.3164 16.125 10.1292 15.2764 9.42386C14.4836 8.76517 13.4546 8.90227 12.7569 9.71781C12.5669 9.93992 12.2884 10.0684 11.9961 10.0684C11.704 10.0683 11.4262 9.9398 11.2364 9.71781ZM23 15.4776C23 15.6745 23.006 15.9357 22.9444 16.1924C22.8954 16.3965 22.8147 16.5916 22.7051 16.7705C22.5671 16.9958 22.3776 17.1762 22.2383 17.3155L17.3155 22.2383C17.1762 22.3776 16.9958 22.5671 16.7705 22.7051C16.5916 22.8147 16.3965 22.8954 16.1924 22.9444C15.9357 23.006 15.6745 23 15.4776 23H8.5225C8.32559 23 8.06442 23.006 7.80765 22.9444C7.60362 22.8954 7.40844 22.8147 7.22953 22.7051C7.00425 22.5671 6.82389 22.3776 6.68461 22.2383L1.76175 17.3155C1.62246 17.1762 1.43301 16.9958 1.29496 16.7705C1.18533 16.5916 1.10468 16.3964 1.0557 16.1924C0.99409 15.9357 1.00003 15.6745 1.00004 15.4776V8.5225C1.00003 8.32558 0.99409 8.06442 1.0557 7.80765C1.10468 7.60362 1.18533 7.40844 1.29496 7.22953C1.43301 7.00425 1.62246 6.82389 1.76175 6.68461L6.68461 1.76175C6.82389 1.62246 7.00425 1.43301 7.22953 1.29496C7.40844 1.18533 7.60362 1.10468 7.80765 1.0557C8.06442 0.99409 8.32558 1.00003 8.5225 1.00004H15.4776C15.6745 1.00003 15.9357 0.99409 16.1924 1.0557C16.3964 1.10468 16.5916 1.18533 16.7705 1.29496C16.9958 1.43301 17.1762 1.62247 17.3155 1.76175L22.2383 6.68461C22.3776 6.82389 22.5671 7.00425 22.7051 7.22953C22.7874 7.36378 22.8538 7.50689 22.9024 7.65629L22.9444 7.80765L22.9795 8.00004C23.0037 8.19102 23 8.37485 23 8.5225V15.4776Z" fill="#475467"/>
</svg>
