<svg width="24" height="24" viewBox="0 0 24 24" fill="none" xmlns="http://www.w3.org/2000/svg">
<path d="M8.29783 3.17868C9.68028 1.273 12.1356 0.359976 14.5957 1.49313C17.3549 2.76437 18.4825 5.89371 17.3447 8.59371C17.1851 8.9725 16.9588 9.42213 16.6982 9.90426C16.8085 10.1107 16.9063 10.325 16.9912 10.5459C19.3162 10.1759 21.6974 11.2659 22.6357 13.8066C23.6882 16.6567 22.2734 19.6667 19.5595 20.7714C18.5838 21.1686 16.9098 21.6127 15.3232 21.9922C13.7122 22.3775 12.1091 22.7153 11.2314 22.8955C11.1278 22.9167 10.9935 22.9449 10.872 22.9599C10.736 22.9768 10.5483 22.9871 10.3349 22.9365C10.0514 22.8692 9.79088 22.7187 9.5908 22.5068C9.44022 22.3473 9.35523 22.18 9.30173 22.0537C9.25402 21.941 9.2111 21.8103 9.17771 21.7099C8.89495 20.8597 8.38589 19.3027 7.91404 17.7148C7.61413 16.7056 7.31957 15.6513 7.10935 14.75C5.61596 13.9446 4.03779 13.0468 3.17283 12.3916C0.82583 10.6134 0.297569 7.35028 1.99607 4.87789C3.53247 2.64172 6.14573 2.22111 8.29783 3.17868ZM14.6933 10.4482C14.0253 9.52137 12.9362 9.0281 11.6982 9.25778C9.78814 9.61218 8.57943 11.3153 8.83396 13.1621C8.95394 14.0321 9.36079 15.563 9.83103 17.1455C10.2625 18.5974 10.728 20.0276 11.0156 20.8964C11.9118 20.7112 13.3837 20.3993 14.8574 20.0468C16.4629 19.6629 17.9922 19.251 18.8056 18.9199C20.5458 18.2116 21.4289 16.3111 20.7597 14.499C20.1155 12.7551 18.3671 12.0786 16.6299 12.6923C16.3543 12.7896 16.0499 12.7623 15.7969 12.6162C15.5438 12.47 15.3679 12.2199 15.3144 11.9326C15.2113 11.3788 15.0008 10.885 14.7099 10.4736C14.7044 10.4651 14.6986 10.4568 14.6933 10.4482ZM13.7588 3.30953C12.07 2.53165 10.355 3.28963 9.56052 4.95211C9.43452 5.21564 9.20007 5.41158 8.91795 5.48727C8.63563 5.56292 8.33375 5.51103 8.09275 5.34567C6.56392 4.2966 4.67777 4.50668 3.64451 6.01071C2.54448 7.61193 2.89398 9.67092 4.37986 10.7968C4.90343 11.1935 5.79799 11.7312 6.81248 12.3027C6.97629 9.85137 8.77123 7.76639 11.333 7.29098C12.8874 7.00256 14.2645 7.40922 15.3105 8.23336C15.3847 8.08053 15.4494 7.94092 15.5019 7.81637C16.2313 6.0852 15.513 4.11773 13.7588 3.30953Z" fill="#475467"/>
</svg>
