<svg width="24" height="24" viewBox="0 0 24 24" fill="none" xmlns="http://www.w3.org/2000/svg">
<path d="M3.50484 3.54984C6.19235 1.25357 9.65223 1.67349 11.9921 3.71879C14.3294 1.67221 17.753 1.28227 20.4707 3.54105C23.4442 6.01251 23.8014 10.2274 21.5117 13.1739C20.6392 14.2966 18.9363 15.9836 17.2998 17.5284C15.644 19.0912 13.9914 20.5676 13.1767 21.2891C13.0978 21.359 12.996 21.4509 12.8984 21.5245C12.7889 21.6069 12.6316 21.7089 12.4218 21.7715C12.1429 21.8547 11.8433 21.8547 11.5644 21.7715C11.3546 21.7089 11.1973 21.6069 11.0878 21.5245C10.9902 21.4509 10.8885 21.359 10.8095 21.2891C9.99486 20.5676 8.34225 19.0912 6.68648 17.5284C5.0499 15.9836 3.34707 14.2966 2.47456 13.1739C0.176086 10.2161 0.598228 6.03345 3.50484 3.54984ZM11.2334 5.78617C9.52835 3.79287 6.81821 3.35011 4.80464 5.07035C2.70133 6.86747 2.41782 9.84231 4.05367 11.9473C4.81684 12.9293 6.40682 14.5143 8.05953 16.0743C9.60212 17.5303 11.1459 18.9132 11.9931 19.6651C12.8403 18.9132 14.3841 17.5303 15.9267 16.0743C17.5794 14.5143 19.1694 12.9293 19.9326 11.9473C21.5772 9.83094 21.315 6.84335 19.1923 5.07914C17.1254 3.3612 14.4504 3.80161 12.7529 5.78617C12.5629 6.00813 12.2853 6.13578 11.9931 6.13578C11.701 6.13578 11.4233 6.00812 11.2334 5.78617Z" fill="#475467"/>
</svg>
