<svg width="24" height="24" viewBox="0 0 24 24" fill="none" xmlns="http://www.w3.org/2000/svg">
<path d="M14 13.5997C14 13.3034 13.9987 13.141 13.9892 13.0245C13.9889 13.02 13.9876 13.0158 13.9873 13.0118C13.9836 13.0114 13.9796 13.0111 13.9755 13.0108C13.859 13.0013 13.6966 13.0001 13.4004 13.0001H10.5996C10.3033 13.0001 10.1409 13.0013 10.0244 13.0108C10.0199 13.0112 10.0157 13.0114 10.0117 13.0118C10.0113 13.0158 10.0111 13.02 10.0107 13.0245C10.0012 13.141 9.99996 13.3034 9.99996 13.5997V20.0001H14V13.5997ZM21 17.7999C21 18.3434 21.001 18.8117 20.9697 19.1954C20.9374 19.5906 20.8656 19.9841 20.6728 20.3624C20.3852 20.9266 19.9265 21.3853 19.3623 21.6729C18.984 21.8657 18.5905 21.9375 18.1953 21.9698C17.8116 22.0011 17.3433 22.0001 16.7998 22.0001H7.20016C6.65661 22.0001 6.18832 22.0011 5.80465 21.9698C5.40939 21.9375 5.01595 21.8657 4.63766 21.6729C4.07344 21.3853 3.61469 20.9266 3.32711 20.3624C3.13436 19.9841 3.06255 19.5906 3.03024 19.1954C2.99889 18.8117 2.99996 18.3434 2.99996 17.7999V9.99908L2.59957 10.2999C2.15775 10.6311 1.53149 10.5414 1.20016 10.0997C0.868925 9.65785 0.958577 9.03159 1.40035 8.70025L10.4404 1.91998C10.7134 1.7152 11.0673 1.42708 11.4912 1.31549C11.7829 1.23876 12.0878 1.22963 12.3828 1.28717L12.5088 1.31549L12.665 1.36529C13.0203 1.49789 13.3207 1.74082 13.5595 1.91998L22.5996 8.70025L22.6787 8.76568C23.0512 9.10917 23.1103 9.6855 22.7998 10.0997C22.4892 10.5137 21.9194 10.6187 21.4853 10.3575L21.4004 10.2999L21 9.99908V17.7999ZM16 20.0001H16.7998C17.3763 20.0001 17.7489 19.9988 18.0322 19.9756C18.3038 19.9534 18.4046 19.9159 18.4541 19.8907C18.642 19.7948 18.7947 19.6421 18.8906 19.4542C18.9158 19.4047 18.9543 19.3039 18.9765 19.0323C18.9997 18.7489 19 18.3764 19 17.7999V8.49908L13.3203 4.24029C12.5612 3.67098 12.3978 3.57099 12.2548 3.53326C12.088 3.48934 11.9119 3.48934 11.7451 3.53326C11.6021 3.571 11.4387 3.67099 10.6796 4.24029L4.99996 8.49908V17.7999C4.99996 18.3764 5.00123 18.7489 5.02438 19.0323C5.04657 19.3039 5.08415 19.4047 5.10934 19.4542C5.20518 19.6421 5.35789 19.7948 5.54586 19.8907C5.5953 19.9159 5.69615 19.9534 5.96774 19.9756C6.25107 19.9988 6.6236 20.0001 7.20016 20.0001H7.99996V13.5997C7.99996 13.3363 7.99885 13.0782 8.01656 12.8614C8.03526 12.6329 8.07952 12.3631 8.21774 12.0919C8.40947 11.7156 8.71551 11.4096 9.09176 11.2178C9.36302 11.0796 9.63279 11.0354 9.86129 11.0167C10.0781 10.9989 10.3362 11.0001 10.5996 11.0001H13.4004C13.6637 11.0001 13.9218 10.9989 14.1386 11.0167C14.3671 11.0354 14.6369 11.0796 14.9082 11.2178C15.2374 11.3856 15.5129 11.6409 15.705 11.9542L15.7822 12.0919L15.8691 12.295C15.9406 12.4958 15.9693 12.6901 15.9834 12.8614C16.0011 13.0782 16 13.3363 16 13.5997V20.0001Z" fill="#475467"/>
</svg>
