<svg width="24" height="24" viewBox="0 0 24 24" fill="none" xmlns="http://www.w3.org/2000/svg">
<path d="M16.3574 19.5107C16.8589 19.4379 17.3438 19.7548 17.4697 20.2568C17.6039 20.7925 17.2788 21.3365 16.7432 21.4707L16.2246 21.5898C14.9852 21.8524 13.5367 22 12 22C10.4633 22 9.01475 21.8524 7.77539 21.5898L7.25684 21.4707L7.15918 21.4404C6.68246 21.2683 6.40452 20.7591 6.53027 20.2568C6.65625 19.7548 7.14109 19.4379 7.64258 19.5107L7.74316 19.5303L8.19238 19.6338C9.27516 19.863 10.5819 20 12 20C13.6203 20 15.0953 19.8211 16.2568 19.5303L16.3574 19.5107ZM17.6465 15.4951C18.1631 15.3 18.7404 15.5605 18.9355 16.0771C19.1307 16.5938 18.8701 17.171 18.3535 17.3662C16.7419 17.9749 14.4692 18.333 12 18.333C9.685 18.333 7.54272 18.0185 5.95605 17.4775L5.64648 17.3662L5.55273 17.3252C5.09914 17.0991 4.88153 16.5615 5.06445 16.0771C5.24741 15.5928 5.76604 15.3336 6.25586 15.4639L6.35352 15.4951L6.60938 15.5869C7.92719 16.035 9.83503 16.333 12 16.333C14.3095 16.333 16.3263 15.9937 17.6465 15.4951ZM18.9707 10.8193C19.4393 10.5273 20.0565 10.6702 20.3486 11.1387C20.6407 11.6073 20.4978 12.2244 20.0293 12.5166C18.3605 13.5565 15.3121 14.167 12 14.167C8.89473 14.167 6.0218 13.63 4.2998 12.7061L3.9707 12.5166L3.88672 12.458C3.48606 12.1478 3.3776 11.578 3.65137 11.1387C3.92528 10.6994 4.48447 10.5463 4.93945 10.7695L5.0293 10.8193L5.26855 10.957C6.54915 11.6365 9.01699 12.167 12 12.167C15.1813 12.167 17.7765 11.5633 18.9707 10.8193ZM19.9971 5.98438C19.9936 5.97318 19.9848 5.95153 19.9648 5.91895C19.9224 5.84984 19.8358 5.74586 19.6738 5.61816C19.3437 5.35796 18.8039 5.07918 18.0479 4.82715C16.5461 4.32656 14.4077 4 12 4C9.59229 4 7.45391 4.32656 5.95215 4.82715C5.19606 5.07918 4.65634 5.35796 4.32617 5.61816C4.16419 5.74586 4.07758 5.84984 4.03516 5.91895C4.01518 5.95153 4.00637 5.97318 4.00293 5.98438C3.99978 5.99473 4 5.99927 4 6C4 6.00073 3.99978 6.00527 4.00293 6.01562C4.00637 6.02682 4.01518 6.04847 4.03516 6.08105C4.07758 6.15016 4.16419 6.25414 4.32617 6.38184C4.65634 6.64204 5.19606 6.92082 5.95215 7.17285C7.45391 7.67344 9.59229 8 12 8C14.4077 8 16.5461 7.67344 18.0479 7.17285C18.8039 6.92082 19.3437 6.64204 19.6738 6.38184C19.8358 6.25414 19.9224 6.15016 19.9648 6.08105C19.9848 6.04847 19.9936 6.02682 19.9971 6.01562C20.0002 6.00527 20 6.00073 20 6C20 5.99927 20.0002 5.99473 19.9971 5.98438ZM22 6C22 6.85182 21.4814 7.5044 20.9121 7.95312C20.3315 8.41069 19.5531 8.77947 18.6807 9.07031C16.9251 9.65551 14.5629 10 12 10C9.43715 10 7.07494 9.65551 5.31934 9.07031C4.4469 8.77947 3.66849 8.41069 3.08789 7.95312C2.51859 7.5044 2 6.85182 2 6C2 5.14818 2.51859 4.4956 3.08789 4.04688C3.66849 3.58931 4.4469 3.22053 5.31934 2.92969C7.07494 2.34449 9.43715 2 12 2C14.5629 2 16.9251 2.34449 18.6807 2.92969C19.5531 3.22053 20.3315 3.58931 20.9121 4.04688C21.4814 4.4956 22 5.14818 22 6Z" fill="#475467"/>
</svg>
