<svg width="24" height="24" viewBox="0 0 24 24" fill="none" xmlns="http://www.w3.org/2000/svg">
<path d="M15.4238 10.4112C15.7843 10.2942 16.1709 10.2819 16.5381 10.376C16.7994 10.443 17.0081 10.5639 17.1777 10.6797C17.337 10.7884 17.513 10.9304 17.6904 11.0723L20.4873 13.3096C20.8284 13.5825 21.1291 13.8148 21.3604 14.1094C21.6297 14.4527 21.8212 14.8506 21.9209 15.2754C22.0065 15.6401 22 16.0193 22 16.4561C22 16.6306 21.9975 16.7975 21.9971 16.9571C21.9977 16.9714 22 16.9856 22 17C22 17.8656 22.0082 18.4945 21.8633 19.0352C21.8311 19.1553 21.7917 19.2725 21.749 19.3877C21.7421 19.4073 21.7349 19.4268 21.7275 19.4463C21.7152 19.4783 21.7036 19.5105 21.6904 19.542C21.6861 19.5524 21.6822 19.5629 21.6777 19.5733C21.6525 19.6323 21.6256 19.6906 21.5977 19.7481C21.5865 19.7712 21.5741 19.7936 21.5625 19.8165C21.5373 19.8658 21.5115 19.9148 21.4844 19.9629C21.4684 19.9913 21.4512 20.019 21.4346 20.0469C21.4093 20.0893 21.3842 20.1316 21.3574 20.1729C21.3435 20.1944 21.3298 20.2161 21.3154 20.2374C21.2709 20.3034 21.2241 20.3676 21.1758 20.4307C21.1666 20.4427 21.1567 20.454 21.1475 20.4659C21.1142 20.5083 21.0799 20.5498 21.0449 20.5909C21.0234 20.6162 21.0017 20.6413 20.9795 20.6661C20.8808 20.7763 20.7763 20.8809 20.666 20.9795C20.643 21.0001 20.6202 21.021 20.5967 21.0411C20.5539 21.0776 20.5101 21.1128 20.4658 21.1475C20.454 21.1568 20.4426 21.1667 20.4307 21.1758C20.3676 21.2241 20.3033 21.2709 20.2373 21.3155C20.2195 21.3275 20.2006 21.3379 20.1826 21.3497C20.1379 21.3788 20.0928 21.4072 20.0469 21.4346C20.0201 21.4506 19.993 21.4661 19.9658 21.4815C19.9227 21.5058 19.879 21.529 19.835 21.5518C19.8079 21.5658 19.7813 21.5804 19.7539 21.5938C19.6944 21.6229 19.6345 21.6516 19.5732 21.6778C19.566 21.6809 19.5581 21.6825 19.5508 21.6856C19.5298 21.6944 19.5085 21.7025 19.4873 21.711C19.4541 21.724 19.4211 21.7373 19.3877 21.7491C19.2724 21.7917 19.1553 21.8311 19.0352 21.8633C18.4944 22.0082 17.8656 22 17 22H7.06934C6.82812 22 6.59233 21.9965 6.38867 21.9864C6.15833 21.9799 5.94494 21.9722 5.74805 21.9561C5.18599 21.9102 4.6689 21.8118 4.1836 21.5645C3.43109 21.181 2.81902 20.569 2.43555 19.8165C2.18827 19.3311 2.08988 18.8141 2.04395 18.252C1.99898 17.7016 2 17.0237 2 16.2002V7.79985C2 6.97636 1.99898 6.29847 2.04395 5.74809C2.08988 5.18604 2.18827 4.66895 2.43555 4.18364C2.81902 3.43113 3.43109 2.81906 4.1836 2.43559C4.6689 2.18832 5.18599 2.08992 5.74805 2.04399C6.29843 1.99902 6.97632 2.00005 7.79981 2.00005H12.5C13.0523 2.00005 13.5 2.44776 13.5 3.00005C13.5 3.55233 13.0523 4.00005 12.5 4.00005H7.79981C6.94342 4.00005 6.36117 4.0004 5.91113 4.03716C5.47272 4.07298 5.2482 4.13813 5.0918 4.21782C4.71555 4.40955 4.40951 4.71559 4.21778 5.09184C4.13809 5.24824 4.07293 5.47276 4.03711 5.91118C4.00035 6.36122 4 6.94346 4 7.79985V16.2002C4 17.0566 4.00035 17.6389 4.03711 18.0889C4.07293 18.5273 4.13809 18.7519 4.21778 18.9082C4.39711 19.2602 4.67726 19.5493 5.02051 19.7422C5.10665 19.6075 5.19812 19.5052 5.25879 19.4395C5.41711 19.2682 5.63505 19.0713 5.8584 18.8682L14.3174 11.1778C14.4854 11.025 14.6527 10.8724 14.8047 10.754C14.9666 10.6278 15.1675 10.4944 15.4238 10.4112ZM16.0342 12.3321C15.9558 12.3932 15.8535 12.4852 15.6631 12.6582L7.58692 19.9991C7.65595 19.9991 7.72688 20 7.79981 20H16.4561C17.1894 20 17.688 19.9999 18.0752 19.9727C18.4528 19.9462 18.6492 19.8974 18.7861 19.8389C18.839 19.8163 18.8901 19.7906 18.9404 19.7637C19.0687 19.6953 19.1884 19.614 19.2979 19.5206C19.3805 19.45 19.4572 19.3731 19.5273 19.2901C19.618 19.1828 19.6969 19.0656 19.7637 18.9405C19.7922 18.8871 19.8191 18.8326 19.8428 18.7764C19.8994 18.6399 19.9468 18.444 19.9727 18.0752C19.9998 17.688 20 17.1894 20 16.4561C20 15.9244 19.9939 15.8188 19.9736 15.7325C19.9404 15.5909 19.8768 15.4582 19.7871 15.3438C19.7324 15.2741 19.6534 15.2033 19.2383 14.8711L16.4414 12.6338C16.2404 12.473 16.1319 12.3871 16.0498 12.3311C16.0472 12.3293 16.0444 12.3278 16.042 12.3262C16.0395 12.3281 16.0369 12.33 16.0342 12.3321ZM9.5 8.50005C9.5 7.94776 9.05229 7.50005 8.5 7.50005C7.94772 7.50005 7.5 7.94776 7.5 8.50005C7.5 9.05233 7.94772 9.50005 8.5 9.50005C9.05229 9.50005 9.5 9.05233 9.5 8.50005ZM18.293 1.29302C18.6835 0.902491 19.3165 0.902491 19.707 1.29302L22.707 4.29302C22.8946 4.48055 23 4.73483 23 5.00005C23 5.26526 22.8946 5.51954 22.707 5.70708L19.707 8.70708C19.3165 9.0976 18.6835 9.0976 18.293 8.70708C17.9024 8.31655 17.9024 7.68354 18.293 7.29302L19.5859 6.00005H16C15.4477 6.00005 15 5.55233 15 5.00005C15 4.44776 15.4477 4.00005 16 4.00005H19.5859L18.293 2.70708L18.2246 2.63091C17.9043 2.23813 17.9269 1.65913 18.293 1.29302ZM11.5 8.50005C11.5 10.1569 10.1569 11.5 8.5 11.5C6.84315 11.5 5.5 10.1569 5.5 8.50005C5.5 6.84319 6.84315 5.50005 8.5 5.50005C10.1569 5.50005 11.5 6.84319 11.5 8.50005Z" fill="#475467"/>
</svg>
