<svg width="24" height="24" viewBox="0 0 24 24" fill="none" xmlns="http://www.w3.org/2000/svg">
<path d="M15.4238 10.4111C15.7843 10.2941 16.1709 10.2819 16.5381 10.376C16.7994 10.443 17.0081 10.5639 17.1777 10.6797C17.337 10.7884 17.513 10.9303 17.6904 11.0723L20.4873 13.3096C20.8284 13.5824 21.1291 13.8147 21.3604 14.1094C21.6297 14.4527 21.8212 14.8506 21.9209 15.2754C22.0065 15.64 22 16.0192 22 16.456C22 16.6306 21.9975 16.7975 21.9971 16.957C21.9977 16.9713 22 16.9856 22 17C22 17.8656 22.0082 18.4944 21.8633 19.0351C21.8311 19.1553 21.7917 19.2724 21.749 19.3877C21.7421 19.4073 21.7349 19.4268 21.7275 19.4463C21.7152 19.4782 21.7036 19.5104 21.6904 19.542C21.6861 19.5523 21.6822 19.5629 21.6777 19.5732C21.6525 19.6323 21.6256 19.6905 21.5977 19.748C21.5865 19.7711 21.5741 19.7936 21.5625 19.8164C21.5373 19.8658 21.5115 19.9147 21.4844 19.9629C21.4684 19.9913 21.4512 20.0189 21.4346 20.0469C21.4093 20.0892 21.3842 20.1315 21.3574 20.1728C21.3435 20.1944 21.3298 20.216 21.3154 20.2373C21.2709 20.3033 21.2241 20.3676 21.1758 20.4306C21.1666 20.4426 21.1567 20.454 21.1475 20.4658C21.1142 20.5083 21.0799 20.5498 21.0449 20.5908C21.0234 20.6161 21.0017 20.6412 20.9795 20.666C20.8808 20.7763 20.7763 20.8808 20.666 20.9795C20.643 21.0001 20.6202 21.0209 20.5967 21.041C20.5539 21.0775 20.5101 21.1127 20.4658 21.1474C20.454 21.1567 20.4426 21.1666 20.4307 21.1758C20.3676 21.2241 20.3033 21.2709 20.2373 21.3154C20.2195 21.3274 20.2006 21.3379 20.1826 21.3496C20.1379 21.3787 20.0928 21.4072 20.0469 21.4346C20.0201 21.4505 19.993 21.4661 19.9658 21.4814C19.9227 21.5058 19.879 21.529 19.835 21.5517C19.8079 21.5657 19.7813 21.5804 19.7539 21.5937C19.6944 21.6228 19.6345 21.6515 19.5732 21.6777C19.566 21.6808 19.5581 21.6825 19.5508 21.6855C19.5298 21.6944 19.5085 21.7024 19.4873 21.7109C19.4541 21.7239 19.4211 21.7372 19.3877 21.749C19.2724 21.7917 19.1553 21.8311 19.0352 21.8633C18.4944 22.0082 17.8656 22 17 22H7.06934C6.82812 22 6.59233 21.9964 6.38867 21.9863C6.15833 21.9798 5.94494 21.9721 5.74805 21.956C5.18599 21.9101 4.6689 21.8117 4.1836 21.5644C3.43109 21.181 2.81902 20.5689 2.43555 19.8164C2.18827 19.3311 2.08988 18.814 2.04395 18.2519C1.99898 17.7016 2 17.0237 2 16.2002V7.79979C2 6.9763 1.99898 6.29841 2.04395 5.74803C2.08988 5.18598 2.18827 4.66888 2.43555 4.18358C2.81902 3.43107 3.43109 2.819 4.1836 2.43553C4.6689 2.18826 5.18599 2.08986 5.74805 2.04393C6.29843 1.99896 6.97632 1.99999 7.79981 1.99999H12.5C13.0523 1.99999 13.5 2.4477 13.5 2.99999C13.5 3.55227 13.0523 3.99999 12.5 3.99999H7.79981C6.94342 3.99999 6.36117 4.00033 5.91113 4.03709C5.47272 4.07291 5.2482 4.13807 5.0918 4.21776C4.71555 4.40949 4.40951 4.71553 4.21778 5.09178C4.13809 5.24818 4.07293 5.4727 4.03711 5.91112C4.00035 6.36116 4 6.9434 4 7.79979V16.2002C4 17.0566 4.00035 17.6388 4.03711 18.0889C4.07293 18.5273 4.13809 18.7518 4.21778 18.9082C4.39711 19.2601 4.67726 19.5492 5.02051 19.7422C5.10665 19.6074 5.19812 19.5051 5.25879 19.4394C5.41711 19.2681 5.63505 19.0712 5.8584 18.8681L14.3174 11.1777C14.4854 11.025 14.6527 10.8724 14.8047 10.7539C14.9666 10.6278 15.1675 10.4944 15.4238 10.4111ZM16.0342 12.332C15.9558 12.3931 15.8535 12.4851 15.6631 12.6582L7.58692 19.999C7.65595 19.999 7.72688 20 7.79981 20H16.4561C17.1894 20 17.688 19.9998 18.0752 19.9726C18.4528 19.9461 18.6492 19.8974 18.7861 19.8389C18.839 19.8163 18.8901 19.7905 18.9404 19.7637C19.0687 19.6953 19.1884 19.6139 19.2979 19.5205C19.3805 19.45 19.4572 19.373 19.5273 19.29C19.618 19.1827 19.6969 19.0656 19.7637 18.9404C19.7922 18.887 19.8191 18.8326 19.8428 18.7764C19.8994 18.6398 19.9468 18.4439 19.9727 18.0752C19.9998 17.688 20 17.1894 20 16.456C20 15.9244 19.9939 15.8187 19.9736 15.7324C19.9404 15.5909 19.8768 15.4581 19.7871 15.3437C19.7324 15.274 19.6534 15.2032 19.2383 14.8711L16.4414 12.6338C16.2404 12.473 16.1319 12.3871 16.0498 12.331C16.0472 12.3292 16.0444 12.3278 16.042 12.3262C16.0395 12.328 16.0369 12.3299 16.0342 12.332ZM9.5 8.49999C9.5 7.9477 9.05229 7.49999 8.5 7.49999C7.94772 7.49999 7.5 7.9477 7.5 8.49999C7.5 9.05227 7.94772 9.49999 8.5 9.49999C9.05229 9.49999 9.5 9.05227 9.5 8.49999ZM18.293 1.29295C18.6835 0.90243 19.3165 0.90243 19.707 1.29295C20.0976 1.68348 20.0976 2.31649 19.707 2.70702L18.4141 3.99999H22C22.5523 3.99999 23 4.4477 23 4.99999C23 5.55227 22.5523 5.99999 22 5.99999H18.4141L19.707 7.29295L19.7754 7.36913C20.0957 7.7619 20.0731 8.3409 19.707 8.70702C19.3409 9.07313 18.7619 9.09573 18.3691 8.77538L18.293 8.70702L15.293 5.70702C15.1054 5.51948 15 5.2652 15 4.99999C15 4.73477 15.1054 4.48049 15.293 4.29295L18.293 1.29295ZM11.5 8.49999C11.5 10.1568 10.1569 11.5 8.5 11.5C6.84315 11.5 5.5 10.1568 5.5 8.49999C5.5 6.84313 6.84315 5.49999 8.5 5.49999C10.1569 5.49999 11.5 6.84313 11.5 8.49999Z" fill="#475467"/>
</svg>
