<svg width="24" height="24" viewBox="0 0 24 24" fill="none" xmlns="http://www.w3.org/2000/svg">
<path d="M19.5 3L19.6025 3.00488C20.1067 3.05621 20.5 3.48232 20.5 4C20.5 4.51768 20.1067 4.94379 19.6025 4.99512L19.5 5H17.4434L12.1934 19H14.5C15.0523 19 15.5 19.4477 15.5 20C15.5 20.5523 15.0523 21 14.5 21H4.5C3.94772 21 3.5 20.5523 3.5 20C3.5 19.4477 3.94772 19 4.5 19H6.55664L11.8066 5H9.5C8.94772 5 8.5 4.55228 8.5 4C8.5 3.44772 8.94772 3 9.5 3H19.5ZM8.69336 19H10.0566L15.3066 5H13.9434L8.69336 19Z" fill="#475467"/>
</svg>
