<svg width="24" height="24" viewBox="0 0 24 24" fill="none" xmlns="http://www.w3.org/2000/svg">
<path d="M14.2503 0.999989C14.5781 1.00014 14.8849 1.16121 15.0716 1.43065C15.2584 1.70021 15.301 2.04449 15.1859 2.35155L13.4427 6.99999H19.1175C19.3938 6.99999 19.6694 6.9989 19.89 7.01854C20.0567 7.0334 20.3735 7.06943 20.6673 7.26171L20.7913 7.35448L20.9193 7.47655C21.2002 7.77737 21.347 8.18275 21.3196 8.59862C21.2917 9.02201 21.0559 9.33153 20.9359 9.48046C20.7968 9.65292 20.6043 9.85085 20.4124 10.0498L8.22003 22.6943C7.89968 23.0265 7.3928 23.0963 6.99445 22.8633C6.59631 22.6302 6.40979 22.1548 6.5423 21.7129L9.15655 13H4.29425C4.09946 13 3.88406 13.0008 3.70441 12.9844C3.52623 12.968 3.22945 12.9251 2.94952 12.7295C2.61153 12.4931 2.38492 12.1277 2.32452 11.7197C2.27454 11.3814 2.36976 11.0954 2.43488 10.9287C2.50051 10.7608 2.59687 10.5686 2.6839 10.3945L6.88409 1.99511C6.93192 1.89946 7.05104 1.63259 7.25909 1.4287C7.41791 1.27315 7.60949 1.15452 7.81964 1.08202C8.09515 0.986991 8.38746 0.999989 8.49445 0.999989H14.2503ZM4.61749 11H10.5003C10.8162 11.0001 11.1135 11.1498 11.3021 11.4033C11.4907 11.6569 11.5481 11.9844 11.4573 12.2871L9.64191 18.3369L18.6458 8.99999H12.0003C11.6723 8.99999 11.3649 8.8389 11.178 8.56933C10.9913 8.29977 10.9486 7.95548 11.0638 7.64843L12.8069 2.99999H8.61749L4.61749 11Z" fill="#475467"/>
</svg>
