<svg width="24" height="24" viewBox="0 0 24 24" fill="none" xmlns="http://www.w3.org/2000/svg">
<path d="M12.2306 1.35938C12.5148 1.01848 12.9905 0.906275 13.3976 1.08302C13.8046 1.25989 14.0464 1.68369 13.9914 2.12403L13.132 9.00001H19.2912C19.5434 9.00001 19.8017 8.99868 20.0109 9.01759C20.1995 9.03466 20.561 9.08007 20.8742 9.33302C21.2327 9.62274 21.4387 10.0616 21.4318 10.5225C21.4257 10.9251 21.2289 11.2319 21.1213 11.3877C21.0019 11.5605 20.8356 11.7583 20.674 11.9522L11.7677 22.6406C11.4835 22.9816 11.008 23.0938 10.6008 22.917C10.1937 22.7402 9.95195 22.3164 10.007 21.876L10.8664 15H4.7072C4.45471 15 4.19581 15.0014 3.9865 14.9824C3.7979 14.9653 3.43718 14.9197 3.12419 14.667C2.76566 14.3773 2.55967 13.9385 2.56657 13.4775L2.57732 13.3311C2.62046 13.0005 2.78294 12.7487 2.87712 12.6123C2.99654 12.4395 3.16283 12.2417 3.32439 12.0479L12.2306 1.35938ZM5.13396 13H11.9992C12.286 13 12.5594 13.1229 12.7492 13.3379C12.939 13.5529 13.0269 13.8394 12.9914 14.124L12.4142 18.7383L18.8644 11H11.9992C11.7124 11 11.439 10.8771 11.2492 10.6621C11.0594 10.4471 10.9714 10.1606 11.007 9.87598L11.5832 5.26075L5.13396 13Z" fill="#475467"/>
</svg>
