<svg width="24" height="24" viewBox="0 0 24 24" fill="none" xmlns="http://www.w3.org/2000/svg">
<path d="M2.00001 19.4004V3C2.00001 2.44772 2.44773 2 3.00001 2C3.5523 2 4.00001 2.44772 4.00001 3V19.4004C4.00001 19.6967 4.00124 19.8591 4.01076 19.9756C4.01109 19.9797 4.01139 19.9836 4.01173 19.9873C4.01576 19.9877 4.01994 19.9889 4.02443 19.9893C4.14096 19.9988 4.30334 20 4.59962 20H21C21.5523 20 22 20.4477 22 21C22 21.5523 21.5523 22 21 22H4.59962C4.33623 22 4.07815 22.0011 3.86134 21.9834C3.63284 21.9647 3.36307 21.9204 3.09181 21.7822C2.71556 21.5905 2.40952 21.2845 2.21779 20.9082C2.07957 20.6369 2.03531 20.3672 2.01662 20.1387C1.9989 19.9219 2.00001 19.6638 2.00001 19.4004ZM6.31642 7.27051C6.69428 6.91648 7.27412 6.9121 7.65626 7.24512L7.72951 7.31641L11.544 11.3877L14.668 9.7666C14.781 9.70789 15.084 9.52994 15.4258 9.49902C15.6855 9.47562 15.9474 9.52048 16.1846 9.62891C16.4969 9.77172 16.7235 10.0409 16.8106 10.1338L20.7295 14.3164L20.7959 14.3945C21.1032 14.7975 21.0614 15.3755 20.6836 15.7295C20.3057 16.0835 19.7259 16.0879 19.3438 15.7549L19.2705 15.6836L15.4551 11.6113L12.332 13.2334C12.219 13.2921 11.916 13.4701 11.5742 13.501C11.3145 13.5244 11.0526 13.4795 10.8154 13.3711C10.5031 13.2283 10.2765 12.9591 10.1895 12.8662L6.27052 8.68359L6.20412 8.60547C5.8968 8.2025 5.93866 7.6245 6.31642 7.27051Z" fill="#475467"/>
</svg>
