<svg width="24" height="24" viewBox="0 0 24 24" fill="none" xmlns="http://www.w3.org/2000/svg">
<path d="M21 12C21 7.02944 16.9706 3 12 3C7.02944 3 3 7.02944 3 12C3 16.9706 7.02944 21 12 21C16.9706 21 21 16.9706 21 12ZM5.29297 9.29297C5.65908 8.92685 6.23809 8.90426 6.63086 9.22461L6.70703 9.29297L10 12.5859L12.7275 9.8584C12.8148 9.77111 12.9224 9.6628 13.0244 9.57617C13.1355 9.48191 13.3036 9.35586 13.5361 9.28027C13.7997 9.19463 14.0816 9.18382 14.3496 9.24805L14.4639 9.28027L14.626 9.3457C14.7767 9.41731 14.8923 9.50546 14.9756 9.57617C15.0776 9.6628 15.1852 9.77111 15.2725 9.8584L18.707 13.293L18.7754 13.3691C19.0957 13.7619 19.0731 14.3409 18.707 14.707C18.3409 15.0731 17.7619 15.0957 17.3691 14.7754L17.293 14.707L14 11.4141L11.2725 14.1416C11.1852 14.2289 11.0776 14.3372 10.9756 14.4238C10.8645 14.5181 10.6964 14.6441 10.4639 14.7197C10.1626 14.8176 9.8374 14.8176 9.53613 14.7197C9.30364 14.6441 9.13545 14.5181 9.02441 14.4238C8.92237 14.3372 8.81483 14.2289 8.72754 14.1416L5.29297 10.707L5.22461 10.6309C4.90426 10.2381 4.92685 9.65908 5.29297 9.29297ZM23 12C23 18.0751 18.0751 23 12 23C5.92487 23 1 18.0751 1 12C1 5.92487 5.92487 1 12 1C18.0751 1 23 5.92487 23 12Z" fill="#475467"/>
</svg>
