<svg width="24" height="24" viewBox="0 0 24 24" fill="none" xmlns="http://www.w3.org/2000/svg">
<path d="M10.4247 8.00975C11.2828 8.07121 12.1179 8.31698 12.8729 8.72947C13.5337 9.09048 14.12 9.57199 14.6014 10.1484L14.8006 10.4014L14.8583 10.4863C15.1189 10.9206 15.0137 11.4907 14.5995 11.8008C14.1572 12.1316 13.5299 12.0409 13.1991 11.5986C12.8555 11.1394 12.4172 10.7593 11.9139 10.4844C11.4106 10.2094 10.8541 10.0458 10.2821 10.0049C9.71006 9.9639 9.13582 10.0467 8.59849 10.2471C8.12817 10.4225 7.69556 10.6849 7.3231 11.0195L7.16685 11.167L4.17955 14.1543L4.04673 14.2988C3.40197 15.0353 3.04795 15.9854 3.0565 16.9687C3.06573 18.0174 3.48685 19.0202 4.22837 19.7617C4.96991 20.5032 5.97272 20.9244 7.02134 20.9336C8.07013 20.9427 9.08139 20.5392 9.8358 19.8105L11.5331 18.1133C11.9236 17.7227 12.5566 17.7227 12.9471 18.1133C13.3375 18.5038 13.3376 19.1369 12.9471 19.5273L11.2372 21.2373L11.0086 21.4482C9.904 22.4153 8.47962 22.9463 7.00474 22.9336C5.43158 22.9199 3.92676 22.2882 2.81431 21.1758C1.70186 20.0633 1.07017 18.5585 1.0565 16.9853C1.04376 15.5104 1.57477 14.0861 2.54185 12.9814L2.75279 12.7529L5.75279 9.75291L5.98619 9.53123C6.54485 9.02933 7.19384 8.63618 7.89927 8.37303C8.70528 8.07238 9.5666 7.94833 10.4247 8.00975ZM16.996 1.06639C18.5691 1.08011 20.074 1.7118 21.1864 2.8242C22.2987 3.93662 22.9295 5.44159 22.9432 7.01463C22.9568 8.58754 22.3523 10.1029 21.2596 11.2344L18.2469 14.2471C17.6387 14.8554 16.9064 15.3263 16.1004 15.6269C15.2945 15.9275 14.433 16.0507 13.5751 15.9892C12.717 15.9278 11.8818 15.683 11.1268 15.2705C10.3719 14.858 9.71436 14.2875 9.19908 13.5986C8.86854 13.1564 8.95908 12.5299 9.40123 12.1992C9.8158 11.8892 10.3922 11.9492 10.7352 12.3222L10.8006 12.4014L10.9344 12.5693C11.2553 12.9534 11.6454 13.275 12.0858 13.5156C12.5891 13.7906 13.1465 13.9541 13.7186 13.9951C14.2906 14.036 14.8649 13.9533 15.4022 13.7529C15.9395 13.5524 16.4274 13.2386 16.8329 12.833L19.8329 9.83299C20.554 9.07993 20.9523 8.07428 20.9432 7.03123C20.934 5.98273 20.5137 4.97977 19.7723 4.23826C19.0307 3.49663 18.0272 3.0755 16.9784 3.06639C15.9296 3.05728 14.9193 3.4608 14.1649 4.18944L14.1639 4.18846L12.4549 5.88865C12.0633 6.27804 11.4303 6.27641 11.0409 5.88475C10.6516 5.4931 10.6532 4.86003 11.0448 4.47069L12.7655 2.76072L12.7752 2.75096C13.9069 1.65801 15.4228 1.05272 16.996 1.06639Z" fill="#475467"/>
</svg>
