<svg width="24" height="24" viewBox="0 0 24 24" fill="none" xmlns="http://www.w3.org/2000/svg">
<path d="M4.92972 10.5855C5.32025 10.1953 5.95336 10.1951 6.34379 10.5855C6.73421 10.9759 6.73401 11.609 6.34379 11.9995L4.92972 13.4146C3.36766 14.9767 3.36764 17.5088 4.92972 19.0708C6.49181 20.6329 9.02388 20.6329 10.586 19.0708L12 17.6568C12.3906 17.2662 13.0245 17.2662 13.4151 17.6568C13.8054 18.0472 13.8052 18.6803 13.4151 19.0708L12 20.4849C9.6569 22.828 5.8588 22.828 3.51566 20.4849C1.17251 18.1418 1.17251 14.3427 3.51566 11.9995L4.92972 10.5855ZM14.793 7.79252C15.1835 7.40199 15.8175 7.40199 16.208 7.79252C16.5985 8.18304 16.5986 8.81705 16.208 9.20755L9.20804 16.2076C8.81753 16.5981 8.18353 16.598 7.793 16.2076C7.40248 15.817 7.40249 15.183 7.793 14.7925L14.793 7.79252ZM12 3.51517C14.3432 1.17203 18.1422 1.17203 20.4854 3.51517C22.8285 5.85831 22.8285 9.65641 20.4854 11.9995L19.0713 13.4146L18.9952 13.4829C18.6024 13.803 18.0233 13.7805 17.6573 13.4146C17.2667 13.0241 17.2667 12.3901 17.6573 11.9995L19.0713 10.5855C20.6334 9.0234 20.6334 6.49132 19.0713 4.92923C17.5092 3.36715 14.9772 3.36717 13.4151 4.92923L12 6.3433C11.6095 6.73352 10.9764 6.73372 10.586 6.3433C10.1956 5.95287 10.1958 5.31976 10.586 4.92923L12 3.51517Z" fill="#475467"/>
</svg>
