<svg width="24" height="24" viewBox="0 0 24 24" fill="none" xmlns="http://www.w3.org/2000/svg">
<path d="M14 22V20C14 19.4477 14.4477 19 15 19C15.5523 19 16 19.4477 16 20V22C16 22.5523 15.5523 23 15 23C14.4477 23 14 22.5523 14 22ZM5.63574 11.293C6.0262 10.9025 6.65927 10.9026 7.0498 11.293C7.44033 11.6835 7.44033 12.3165 7.0498 12.707L4.92871 14.8281C3.75714 15.9997 3.75714 17.8997 4.92871 19.0713C6.10028 20.2429 8.0003 20.2429 9.17188 19.0713L11.293 16.9502C11.6835 16.5597 12.3165 16.5597 12.707 16.9502C13.0974 17.3407 13.0975 17.9738 12.707 18.3643L10.5859 20.4854C8.63332 22.438 5.46727 22.438 3.51465 20.4854C1.56203 18.5327 1.56203 15.3667 3.51465 13.4141L5.63574 11.293ZM18.3789 18.3789C18.7449 18.0129 19.324 17.9895 19.7168 18.3096L19.793 18.3789L21.207 19.793L21.2754 19.8691C21.5957 20.2619 21.5731 20.8409 21.207 21.207C20.8409 21.5731 20.2619 21.5957 19.8691 21.2754L19.793 21.207L18.3789 19.793L18.3096 19.7168C17.9895 19.324 18.0129 18.7449 18.3789 18.3789ZM22 14C22.5523 14 23 14.4477 23 15C23 15.5523 22.5523 16 22 16H20C19.4477 16 19 15.5523 19 15C19 14.4477 19.4477 14 20 14H22ZM13.4141 3.51465C15.3667 1.56203 18.5327 1.56203 20.4854 3.51465C22.438 5.46727 22.438 8.63332 20.4854 10.5859L18.3643 12.707C17.9738 13.0975 17.3407 13.0974 16.9502 12.707C16.5597 12.3165 16.5597 11.6835 16.9502 11.293L19.0713 9.17188C20.2429 8.0003 20.2429 6.10028 19.0713 4.92871C17.8997 3.75714 15.9997 3.75714 14.8281 4.92871L12.707 7.0498C12.3165 7.44033 11.6835 7.44033 11.293 7.0498C10.9026 6.65927 10.9025 6.0262 11.293 5.63574L13.4141 3.51465ZM4 8C4.55228 8 5 8.44772 5 9C5 9.55228 4.55228 10 4 10H2C1.44772 10 1 9.55228 1 9C1 8.44772 1.44772 8 2 8H4ZM2.79297 2.79297C3.15908 2.42685 3.73809 2.40426 4.13086 2.72461L4.20703 2.79297L5.62109 4.20703C6.01162 4.59756 6.01162 5.23057 5.62109 5.62109C5.23057 6.01162 4.59756 6.01162 4.20703 5.62109L2.79297 4.20703L2.72461 4.13086C2.40426 3.73809 2.42685 3.15908 2.79297 2.79297ZM8 4V2C8 1.44772 8.44772 1 9 1C9.55228 1 10 1.44772 10 2V4C10 4.55228 9.55228 5 9 5C8.44772 5 8 4.55228 8 4Z" fill="#475467"/>
</svg>
