<svg width="24" height="24" viewBox="0 0 24 24" fill="none" xmlns="http://www.w3.org/2000/svg">
<path d="M11 22V18C11 17.4477 11.4477 17 12 17C12.5523 17 13 17.4477 13 18V22C13 22.5523 12.5523 23 12 23C11.4477 23 11 22.5523 11 22ZM7.04297 15.543C7.43349 15.1524 8.06651 15.1524 8.45703 15.543C8.84756 15.9335 8.84756 16.5665 8.45703 16.957L5.62891 19.7852C5.23838 20.1757 4.60537 20.1757 4.21484 19.7852C3.82432 19.3946 3.82432 18.7616 4.21484 18.3711L7.04297 15.543ZM17.043 17.043C17.4091 16.6769 17.9881 16.6543 18.3809 16.9746L18.457 17.043L19.1641 17.75C19.5546 18.1405 19.5546 18.7735 19.1641 19.1641C18.7735 19.5546 18.1405 19.5546 17.75 19.1641L17.043 18.457L16.9746 18.3809C16.6543 17.9881 16.6769 17.4091 17.043 17.043ZM5.75 11C6.30228 11 6.75 11.4477 6.75 12C6.75 12.5523 6.30228 13 5.75 13H2.25C1.69772 13 1.25 12.5523 1.25 12C1.25 11.4477 1.69772 11 2.25 11H5.75ZM21.25 11C21.8023 11 22.25 11.4477 22.25 12C22.25 12.5523 21.8023 13 21.25 13H19.75C19.1977 13 18.75 12.5523 18.75 12C18.75 11.4477 19.1977 11 19.75 11H21.25ZM4.42188 4.50195C4.78793 4.1359 5.367 4.11243 5.75977 4.43262L5.83594 4.50195L7.95703 6.62305L8.02539 6.69922C8.3457 7.09199 8.32313 7.67101 7.95703 8.03711C7.59093 8.40318 7.0119 8.42577 6.61914 8.10547L6.54297 8.03711L4.42188 5.91602L4.35254 5.83984C4.03236 5.44709 4.05585 4.86801 4.42188 4.50195ZM17.957 4.70898C18.3476 4.31846 18.9806 4.31846 19.3711 4.70898C19.7616 5.09951 19.7616 5.73254 19.3711 6.12305L17.957 7.53711C17.5665 7.92758 16.9335 7.92758 16.543 7.53711C16.1525 7.1466 16.1525 6.51357 16.543 6.12305L17.957 4.70898ZM11 4.75V2.25C11 1.69772 11.4477 1.25 12 1.25C12.5523 1.25 13 1.69772 13 2.25V4.75C13 5.30228 12.5523 5.75 12 5.75C11.4477 5.75 11 5.30228 11 4.75Z" fill="#475467"/>
</svg>
