<svg width="24" height="24" viewBox="0 0 24 24" fill="none" xmlns="http://www.w3.org/2000/svg">
<path d="M1 12C1 6.51306 5.293 2 10.667 2C12.4334 2.00006 14.0903 2.49114 15.5146 3.34668C15.988 3.63102 16.1416 4.24536 15.8574 4.71875C15.5908 5.16265 15.0339 5.32527 14.5752 5.10938L14.4854 5.06152L14.2725 4.9375C13.1973 4.33829 11.9705 4.00006 10.667 4C6.46804 4 3 7.54581 3 12C3 16.4542 6.46804 20 10.667 20C12.0574 19.9999 13.3604 19.6143 14.4854 18.9385C14.9587 18.6544 15.5731 18.8079 15.8574 19.2812C16.1416 19.7546 15.988 20.369 15.5146 20.6533C14.0903 21.5089 12.4334 21.9999 10.667 22C5.293 22 1 17.4869 1 12ZM17.293 7.29297C17.6591 6.92685 18.2381 6.90426 18.6309 7.22461L18.707 7.29297L22.707 11.293C23.0976 11.6835 23.0976 12.3165 22.707 12.707L18.707 16.707C18.3165 17.0976 17.6835 17.0976 17.293 16.707C16.9024 16.3165 16.9024 15.6835 17.293 15.293L19.5859 13H9C8.44772 13 8 12.5523 8 12C8 11.4477 8.44772 11 9 11H19.5859L17.293 8.70703L17.2246 8.63086C16.9043 8.23809 16.9269 7.65908 17.293 7.29297Z" fill="#475467"/>
</svg>
