<svg width="24" height="24" viewBox="0 0 24 24" fill="none" xmlns="http://www.w3.org/2000/svg">
<path d="M21.0001 9.84243L14.2892 14.2047C13.7221 14.5733 13.2365 14.9055 12.6857 15.0348C12.2348 15.1406 11.7655 15.1406 11.3146 15.0348C10.7637 14.9055 10.2781 14.5733 9.71105 14.2047L3.00011 9.84243V16.1998C3.00011 17.0561 3.00049 17.6385 3.03722 18.0885C3.07302 18.5267 3.13824 18.7515 3.21788 18.9079C3.40959 19.2841 3.71569 19.5901 4.09191 19.7819C4.24831 19.8616 4.47283 19.9267 4.91124 19.9625C5.36129 19.9993 5.94351 19.9997 6.79992 19.9997H17.2003C18.0567 19.9997 18.6389 19.9993 19.089 19.9625C19.5274 19.9267 19.7519 19.8616 19.9083 19.7819C20.2845 19.5901 20.5906 19.2841 20.7823 18.9079C20.862 18.7515 20.9272 18.5267 20.963 18.0885C20.9997 17.6385 21.0001 17.0561 21.0001 16.1998V9.84243ZM12.2286 2.91176C12.0783 2.87649 11.9219 2.87649 11.7716 2.91176C11.6423 2.9421 11.4963 3.02032 10.8009 3.47231L3.8341 7.99965L10.8009 12.528C11.4963 12.98 11.6423 13.0582 11.7716 13.0885C11.9218 13.1238 12.0784 13.1238 12.2286 13.0885C12.3579 13.0582 12.504 12.98 13.1993 12.528L20.1651 7.99965L13.1993 3.47231C12.504 3.02032 12.3579 2.9421 12.2286 2.91176ZM23.0001 16.1998C23.0001 17.0233 23.0011 17.7012 22.9562 18.2516C22.9102 18.8137 22.8118 19.3308 22.5646 19.8161C22.1811 20.5686 21.569 21.1806 20.8165 21.5641C20.3312 21.8114 19.8141 21.9098 19.2521 21.9557C18.7017 22.0007 18.0238 21.9997 17.2003 21.9997H6.79992C5.97643 21.9997 5.29854 22.0007 4.74816 21.9557C4.18611 21.9098 3.669 21.8114 3.1837 21.5641C2.43121 21.1806 1.8191 20.5686 1.43566 19.8161C1.18841 19.3308 1.08998 18.8137 1.04406 18.2516C0.999107 17.7012 1.00011 17.0233 1.00011 16.1998V8.86879C1.00011 8.61472 0.989224 8.27596 1.088 7.95473C1.16616 7.70055 1.29448 7.46448 1.46495 7.2604C1.68039 7.00258 1.96972 6.82658 2.18273 6.68813L9.71105 1.79555C10.2782 1.42692 10.7637 1.0938 11.3146 0.964497C11.7654 0.858677 12.2348 0.858677 12.6857 0.964497C13.0989 1.06149 13.4754 1.27284 13.8771 1.52797L21.8175 6.68813C22.0305 6.82658 22.3198 7.00258 22.5353 7.2604C22.6632 7.41354 22.7669 7.58492 22.8439 7.76821L22.9122 7.95473L22.9435 8.07582C23.0077 8.35928 23.0001 8.64643 23.0001 8.86879V16.1998Z" fill="#475467"/>
</svg>
