<svg width="24" height="24" viewBox="0 0 24 24" fill="none" xmlns="http://www.w3.org/2000/svg">
<path d="M1 17.5C1 16.095 1.93556 14.9731 3.11621 14.1768C4.31895 13.3656 5.95664 12.7573 7.80664 12.3936L7.9082 12.3789C8.41295 12.3317 8.88154 12.6735 8.98145 13.1816C9.08786 13.7233 8.73496 14.2487 8.19336 14.3555L7.57715 14.4893C6.17754 14.821 5.03422 15.2955 4.23438 15.835C3.29837 16.4664 3 17.0598 3 17.5C3 18.104 3.59197 18.9844 5.33887 19.7705C6.99205 20.5144 9.34649 21 12 21C14.6535 21 17.008 20.5144 18.6611 19.7705C20.408 18.9844 21 18.104 21 17.5C21 17.0598 20.7016 16.4664 19.7656 15.835C18.8514 15.2184 17.4883 14.6861 15.8066 14.3555C15.265 14.2487 14.9121 13.7233 15.0186 13.1816C15.1185 12.6735 15.587 12.3317 16.0918 12.3789L16.1934 12.3936L16.876 12.541C18.4455 12.9122 19.8312 13.4668 20.8838 14.1768C22.0644 14.9731 23 16.095 23 17.5C23 19.3812 21.3537 20.7512 19.4814 21.5938C17.5153 22.4785 14.8693 23 12 23C9.13066 23 6.48466 22.4785 4.51855 21.5938C2.64634 20.7512 1 19.3812 1 17.5ZM14 6C14 4.89543 13.1046 4 12 4C10.8954 4 10 4.89543 10 6C10 7.10457 10.8954 8 12 8C13.1046 8 14 7.10457 14 6ZM16 6C16 7.86384 14.7252 9.42998 13 9.87402V17C13 17.5523 12.5523 18 12 18C11.4477 18 11 17.5523 11 17V9.87402C9.27477 9.42998 8 7.86384 8 6C8 3.79086 9.79086 2 12 2C14.2091 2 16 3.79086 16 6Z" fill="#475467"/>
</svg>
