<svg width="24" height="24" viewBox="0 0 24 24" fill="none" xmlns="http://www.w3.org/2000/svg">
<path d="M1.29289 1.29302C1.68342 0.902491 2.31643 0.902491 2.70696 1.29302L18.7753 17.3614C18.7766 17.3624 18.778 17.3633 18.7792 17.3643C18.8232 17.4011 18.8624 17.4422 18.8984 17.4844L22.707 21.293L22.7753 21.3692C23.0957 21.762 23.0731 22.341 22.707 22.7071C22.3408 23.0732 21.7618 23.0958 21.3691 22.7754L21.2929 22.7071L18.1513 19.5655C16.5427 21.073 14.38 22 11.9999 22C7.02936 22 2.99992 17.9706 2.99992 13V12C2.99992 11.4478 3.44764 11 3.99992 11C4.55221 11 4.99992 11.4478 4.99992 12V13C4.99992 16.866 8.13393 20 11.9999 20C13.8274 20 15.4888 19.2984 16.7363 18.1504L15.3212 16.7354C14.4386 17.5206 13.2757 18 11.9999 18C9.2385 18 6.99992 15.7615 6.99992 13V8.41411L1.29289 2.70708C0.902369 2.31655 0.902369 1.68354 1.29289 1.29302ZM14.9999 10.4004V7.00005C14.9999 5.34319 13.6568 4.00005 11.9999 4.00005C11.2795 4.00005 10.6206 4.25238 10.1034 4.67485C9.67576 5.02429 9.04566 4.96093 8.69621 4.53325C8.34718 4.1057 8.41058 3.47641 8.83782 3.127L9.00188 2.99809C9.83706 2.37166 10.8763 2.00005 11.9999 2.00005C14.7613 2.00005 16.9999 4.23862 16.9999 7.00005V10.4004C16.9997 10.9525 16.5521 11.4004 15.9999 11.4004C15.4478 11.4004 15.0001 10.9525 14.9999 10.4004ZM8.99992 13C8.99992 14.6569 10.3431 16 11.9999 16C12.721 16 13.3813 15.7443 13.8993 15.3194L8.99992 10.4151V13Z" fill="#475467"/>
</svg>
