<svg width="24" height="24" viewBox="0 0 24 24" fill="none" xmlns="http://www.w3.org/2000/svg">
<path d="M7 20.9999V20.7997C7 19.9433 6.99965 19.361 6.96289 18.911C6.92707 18.4726 6.86192 18.2481 6.78223 18.0917C6.59049 17.7154 6.28446 17.4094 5.9082 17.2177C5.7518 17.138 5.52728 17.0728 5.08887 17.037C4.63883 17.0002 4.05659 16.9999 3.2002 16.9999H3C2.44772 16.9999 2 16.5522 2 15.9999C2 15.4476 2.44772 14.9999 3 14.9999H3.2002C4.02369 14.9999 4.70157 14.9989 5.25195 15.0438C5.81401 15.0898 6.3311 15.1881 6.81641 15.4354C7.56891 15.8189 8.18098 16.431 8.56445 17.1835C8.81173 17.6688 8.91013 18.1859 8.95605 18.7479C9.00102 19.2983 9 19.9762 9 20.7997V20.9999C9 21.5522 8.55228 21.9999 8 21.9999C7.44772 21.9999 7 21.5522 7 20.9999ZM15 20.9999V20.7997C15 19.9762 14.999 19.2983 15.0439 18.7479C15.0899 18.1859 15.1883 17.6688 15.4355 17.1835C15.819 16.431 16.4311 15.8189 17.1836 15.4354C17.6689 15.1881 18.186 15.0898 18.748 15.0438C19.2984 14.9989 19.9763 14.9999 20.7998 14.9999H21C21.5523 14.9999 22 15.4476 22 15.9999C22 16.5522 21.5523 16.9999 21 16.9999H20.7998C19.9434 16.9999 19.3612 17.0002 18.9111 17.037C18.4727 17.0728 18.2482 17.138 18.0918 17.2177C17.7155 17.4094 17.4095 17.7154 17.2178 18.0917C17.1381 18.2481 17.0729 18.4726 17.0371 18.911C17.0003 19.361 17 19.9433 17 20.7997V20.9999C17 21.5522 16.5523 21.9999 16 21.9999C15.4477 21.9999 15 21.5522 15 20.9999ZM7 3.20007V2.99988C7 2.44759 7.44772 1.99988 8 1.99988C8.55228 1.99988 9 2.44759 9 2.99988V3.20007C9 4.02356 9.00102 4.70145 8.95605 5.25183C8.91013 5.81389 8.81173 6.33098 8.56445 6.81628C8.18098 7.56879 7.56891 8.18086 6.81641 8.56433C6.3311 8.81161 5.81401 8.91 5.25195 8.95593C4.70157 9.0009 4.02369 8.99988 3.2002 8.99988H3C2.44772 8.99988 2 8.55216 2 7.99988C2 7.44759 2.44772 6.99988 3 6.99988H3.2002C4.05659 6.99988 4.63883 6.99953 5.08887 6.96277C5.52728 6.92695 5.7518 6.86179 5.9082 6.7821C6.28446 6.59037 6.59049 6.28433 6.78223 5.90808C6.86192 5.75168 6.92707 5.52716 6.96289 5.08875C6.99965 4.63871 7 4.05646 7 3.20007ZM15 3.20007V2.99988C15 2.44759 15.4477 1.99988 16 1.99988C16.5523 1.99988 17 2.44759 17 2.99988V3.20007C17 4.05646 17.0003 4.63871 17.0371 5.08875C17.0729 5.52716 17.1381 5.75168 17.2178 5.90808C17.4095 6.28433 17.7155 6.59037 18.0918 6.7821C18.2482 6.86179 18.4727 6.92695 18.9111 6.96277C19.3612 6.99953 19.9434 6.99988 20.7998 6.99988H21C21.5523 6.99988 22 7.44759 22 7.99988C22 8.55216 21.5523 8.99988 21 8.99988H20.7998C19.9763 8.99988 19.2984 9.0009 18.748 8.95593C18.186 8.91 17.6689 8.81161 17.1836 8.56433C16.4311 8.18086 15.819 7.56879 15.4355 6.81628C15.1883 6.33098 15.0899 5.81389 15.0439 5.25183C14.999 4.70145 15 4.02356 15 3.20007Z" fill="#475467"/>
</svg>
