<svg width="24" height="24" viewBox="0 0 24 24" fill="none" xmlns="http://www.w3.org/2000/svg">
<path d="M20.2929 2.29302C20.6834 1.90249 21.3164 1.90249 21.707 2.29302C22.0975 2.68354 22.0975 3.31655 21.707 3.70708L16.414 9.00005H19.9999C20.5522 9.00005 20.9999 9.44776 20.9999 10C20.9999 10.5523 20.5522 11 19.9999 11H13.9999C13.4476 11 12.9999 10.5523 12.9999 10V4.00005C12.9999 3.44776 13.4476 3.00005 13.9999 3.00005C14.5522 3.00005 14.9999 3.44776 14.9999 4.00005V7.58598L20.2929 2.29302ZM10.9999 20C10.9999 20.5523 10.5522 21 9.99992 21C9.44764 21 8.99992 20.5523 8.99992 20V16.4141L3.70696 21.7071C3.31643 22.0976 2.68342 22.0976 2.29289 21.7071C1.90237 21.3166 1.90237 20.6835 2.29289 20.293L7.58586 15H3.99992C3.44764 15 2.99992 14.5523 2.99992 14C2.99992 13.4478 3.44764 13 3.99992 13H9.99992C10.5522 13 10.9999 13.4478 10.9999 14V20Z" fill="#475467"/>
</svg>
