<svg width="24" height="24" viewBox="0 0 24 24" fill="none" xmlns="http://www.w3.org/2000/svg">
<path d="M21 19.0002C21 18.5207 20.9996 18.2108 20.9834 17.9739C20.9678 17.7459 20.9411 17.659 20.9238 17.6174C20.8223 17.3724 20.6278 17.1779 20.3828 17.0764C20.3412 17.0592 20.2544 17.0324 20.0264 17.0168C19.7894 17.0007 19.4796 17.0002 19 17.0002H5C4.5205 17.0002 4.21058 17.0007 3.97363 17.0168C3.7459 17.0324 3.65878 17.0592 3.61719 17.0764C3.37235 17.1779 3.17761 17.3725 3.07617 17.6174C3.05893 17.6591 3.03214 17.7462 3.0166 17.9739C3.00044 18.2108 3 18.5207 3 19.0002C3 19.4797 3.00044 19.7897 3.0166 20.0266C3.03216 20.2543 3.05894 20.3415 3.07617 20.383C3.17766 20.6279 3.37236 20.8226 3.61719 20.9241C3.65878 20.9413 3.74588 20.9681 3.97363 20.9836C4.21058 20.9998 4.5205 21.0002 5 21.0002H19C19.4795 21.0002 19.7894 20.9998 20.0264 20.9836C20.2541 20.9681 20.3411 20.9413 20.3828 20.9241C20.6277 20.8226 20.8223 20.6279 20.9238 20.383C20.9411 20.3415 20.9678 20.2543 20.9834 20.0266C20.9996 19.7897 21 19.4797 21 19.0002ZM7.05078 4.05004C7.44132 3.65976 8.0744 3.6596 8.46484 4.05004C8.85529 4.44049 8.85513 5.07356 8.46484 5.4641C6.57329 7.35565 6.51389 10.3861 8.28711 12.3489L8.46484 12.5354L8.5332 12.6116C8.85349 13.0043 8.83076 13.5833 8.46484 13.9495C8.09871 14.3156 7.51875 14.3392 7.12598 14.0188L7.05078 13.9495L6.80176 13.6887C4.31915 10.9408 4.40258 6.69824 7.05078 4.05004ZM15.5361 4.05004C15.9023 3.68416 16.4813 3.66137 16.874 3.98168L16.9502 4.05004L17.1982 4.31176C19.6807 7.05956 19.5982 11.3013 16.9502 13.9495C16.5597 14.34 15.9267 14.3399 15.5361 13.9495C15.1456 13.5589 15.1456 12.9259 15.5361 12.5354C17.4276 10.6437 17.4865 7.6133 15.7129 5.65063L15.5361 5.4641L15.4668 5.38891C15.1464 4.99613 15.17 4.41618 15.5361 4.05004ZM23 19.0002C23 19.4524 23.0004 19.8416 22.9785 20.1623C22.956 20.4921 22.9064 20.8218 22.7715 21.1477C22.467 21.8827 21.8835 22.4672 21.1484 22.7717C20.8227 22.9067 20.4928 22.9562 20.1631 22.9788C19.8422 23.0006 19.4523 23.0002 19 23.0002H5C4.54786 23.0002 4.15867 23.0006 3.83789 22.9788C3.50818 22.9563 3.17836 22.9066 2.85254 22.7717C2.11745 22.4672 1.533 21.8828 1.22852 21.1477C1.09361 20.8219 1.04398 20.4921 1.02148 20.1623C0.9996 19.8416 1 19.4524 1 19.0002C1 18.548 0.999594 18.158 1.02148 17.8371C1.044 17.5075 1.09357 17.1776 1.22852 16.8518C1.53301 16.1168 2.11749 15.5332 2.85254 15.2288C2.87445 15.2197 2.897 15.2127 2.91895 15.2043C-0.0145175 10.9211 0.417621 5.02608 4.22168 1.22192C4.61217 0.831428 5.24521 0.831501 5.63574 1.22192C6.02627 1.61244 6.02627 2.24545 5.63574 2.63598C2.23973 6.03211 2.12609 11.4667 5.29297 15.0002H11V9.00024C11 8.44802 11.4478 8.00036 12 8.00024C12.5523 8.00024 13 8.44795 13 9.00024V15.0002H18.707C21.8741 11.4667 21.7605 6.03217 18.3643 2.63598C17.9739 2.24548 17.9739 1.61241 18.3643 1.22192C18.7547 0.831428 19.3878 0.831501 19.7783 1.22192C23.5825 5.02614 24.0147 10.921 21.0811 15.2043C21.1032 15.2127 21.1263 15.2196 21.1484 15.2288C21.8833 15.5332 22.467 16.1169 22.7715 16.8518C22.9064 17.1776 22.956 17.5075 22.9785 17.8371C23.0004 18.158 23 18.548 23 19.0002Z" fill="#475467"/>
</svg>
