<svg width="24" height="24" viewBox="0 0 24 24" fill="none" xmlns="http://www.w3.org/2000/svg">
<path d="M20.9996 18.1998C20.9996 17.6234 20.9993 17.2507 20.9761 16.9674C20.954 16.697 20.9163 16.5961 20.8912 16.5465C20.7953 16.3583 20.6418 16.2048 20.4537 16.109C20.4042 16.0838 20.3033 16.0462 20.0318 16.024C19.7485 16.0009 19.3758 15.9996 18.7994 15.9996H5.19975C4.62321 15.9996 4.25066 16.0009 3.96733 16.024C3.69588 16.0462 3.59488 16.0838 3.54546 16.109C3.35741 16.2048 3.20476 16.3584 3.10893 16.5465C3.08375 16.596 3.04613 16.6966 3.02397 16.9674C3.00082 17.2507 2.99956 17.6234 2.99956 18.1998V18.8004C2.99956 19.3765 3.00085 19.7486 3.02397 20.0318C3.04614 20.3032 3.08374 20.4042 3.10893 20.4537C3.20477 20.6418 3.35738 20.7953 3.54546 20.8912C3.59488 20.9164 3.69587 20.954 3.96733 20.9762C4.25066 20.9993 4.62321 20.9996 5.19975 20.9996H18.7994C19.3758 20.9996 19.7485 20.9993 20.0318 20.9762C20.3031 20.954 20.4042 20.9164 20.4537 20.8912C20.6418 20.7953 20.7953 20.6419 20.8912 20.4537C20.9164 20.4041 20.954 20.3028 20.9761 20.0318C20.9992 19.7486 20.9996 19.3765 20.9996 18.8004V18.1998ZM9.49956 17.4996C10.0517 17.4996 10.4993 17.9475 10.4996 18.4996C10.4996 19.0519 10.0518 19.4996 9.49956 19.4996H5.49956C4.94737 19.4995 4.49956 19.0518 4.49956 18.4996C4.49978 17.9476 4.94751 17.4997 5.49956 17.4996H9.49956ZM3.69194 1.78963C4.05425 1.37314 4.68538 1.32898 5.1021 1.691C5.51886 2.05338 5.56312 2.68536 5.20073 3.10213C3.18571 5.41963 2.55241 8.52554 3.30717 11.3404C3.45017 11.8737 3.13422 12.4217 2.60112 12.565C2.06776 12.708 1.51868 12.3923 1.37553 11.859C0.454518 8.42449 1.22498 4.62679 3.69194 1.78963ZM22.6207 11.859C22.4775 12.3923 21.9284 12.709 21.3951 12.566C20.8618 12.4228 20.546 11.8738 20.689 11.3404L22.6207 11.859ZM18.8941 1.691C19.2848 1.35165 19.8636 1.36963 20.233 1.71639L20.3042 1.78963L20.5308 2.05818C22.818 4.86359 23.5129 8.53175 22.6207 11.859L20.689 11.3404C21.4202 8.61352 20.8484 5.61362 18.98 3.32186L18.7955 3.10213L18.732 3.02108C18.44 2.60697 18.5035 2.03065 18.8941 1.691ZM6.50444 4.66365C6.84703 4.2305 7.47556 4.15703 7.90874 4.49959C8.34182 4.84217 8.41528 5.47073 8.0728 5.90389C7.13576 7.0888 6.81137 8.60336 7.10405 10.0181L7.17046 10.2994L7.19194 10.399C7.27306 10.8994 6.96357 11.39 6.46342 11.524C5.96318 11.658 5.44989 11.3877 5.27006 10.9137L5.23881 10.817L5.14506 10.4234C4.73657 8.44794 5.1885 6.3277 6.50444 4.66365ZM18.7613 10.817C18.6183 11.3501 18.0699 11.6666 17.5367 11.524C17.0033 11.3812 16.686 10.8328 16.8287 10.2994L18.7613 10.817ZM16.0904 4.49959C16.5236 4.15701 17.1531 4.23046 17.4957 4.66365C18.8992 6.43867 19.3193 8.7333 18.7613 10.817L16.8287 10.2994C17.2285 8.80664 16.9257 7.16765 15.9263 5.90389C15.5841 5.47083 15.6576 4.84217 16.0904 4.49959ZM22.9996 18.8004C22.9996 19.3437 23.0006 19.8113 22.9693 20.1949C22.937 20.5902 22.8652 20.9835 22.6724 21.3619C22.3848 21.9263 21.9263 22.3858 21.3619 22.6734C20.9835 22.8662 20.5902 22.937 20.1949 22.9693C19.8112 23.0007 19.3429 22.9996 18.7994 22.9996H5.19975C4.65643 22.9996 4.1888 23.0006 3.80522 22.9693C3.41005 22.937 3.01646 22.866 2.63823 22.6734C2.07374 22.3858 1.61432 21.9264 1.32671 21.3619C1.13394 20.9835 1.06311 20.5902 1.03081 20.1949C0.999474 19.8113 0.999557 19.3437 0.999557 18.8004V18.1998C0.999557 17.6564 0.999484 17.1888 1.03081 16.8053C1.0631 16.41 1.13399 16.0166 1.32671 15.6383C1.61433 15.0738 2.07374 14.6144 2.63823 14.3267C3.01648 14.1341 3.41003 14.0631 3.80522 14.0308C4.1888 13.9995 4.65642 13.9996 5.19975 13.9996H10.9996V8.99959C10.9998 8.44757 11.4475 7.99971 11.9996 7.99959C12.5517 7.99959 12.9993 8.44749 12.9996 8.99959V13.9996H18.7994C19.3429 13.9996 19.8112 13.9995 20.1949 14.0308C20.5902 14.0631 20.9835 14.134 21.3619 14.3267C21.9263 14.6144 22.3848 15.0738 22.6724 15.6383C22.8652 16.0166 22.937 16.4099 22.9693 16.8053C23.0006 17.1888 22.9996 17.6565 22.9996 18.1998V18.8004Z" fill="#475467"/>
</svg>
