<svg width="24" height="24" viewBox="0 0 24 24" fill="none" xmlns="http://www.w3.org/2000/svg">
<path d="M6 9.00021C6.00002 7.28352 6.48183 5.68009 7.31543 4.31564C4.72807 5.8965 3 8.74629 3 12.0002C3.00008 16.9707 7.02949 21.0002 12 21.0002C15.2535 21.0002 18.1016 19.2716 19.6826 16.6848C18.3185 17.5179 16.7161 18.0002 15 18.0002C10.0294 18.0002 6 13.9708 6 9.00021ZM8 9.00021C8 12.8662 11.134 16.0002 15 16.0002C17.6055 16.0002 19.8797 14.5771 21.0859 12.4611C21.3194 12.0518 21.8075 11.861 22.2568 12.0031C22.706 12.1454 22.9947 12.582 22.9502 13.051C22.4204 18.6336 17.7208 23.0002 12 23.0002C5.92492 23.0002 1.00008 18.0753 1 12.0002C1 6.27911 5.36715 1.57937 10.9502 1.05001C11.4192 1.00567 11.8559 1.29418 11.998 1.74337C12.1402 2.19273 11.9485 2.6809 11.5391 2.91427C9.42308 4.12053 8.00003 6.39477 8 9.00021Z" fill="#475467"/>
</svg>
