<svg width="24" height="24" viewBox="0 0 24 24" fill="none" xmlns="http://www.w3.org/2000/svg">
<path d="M6.23145 6.30664C6.23145 5.60912 6.29347 4.92558 6.41309 4.26172C4.32697 5.99807 3 8.61376 3 11.5381C3.00021 16.7637 7.23634 20.9998 12.4619 21C15.3863 21 18.001 19.6721 19.7373 17.5859C19.0737 17.7055 18.3906 17.7686 17.6934 17.7686C11.363 17.7685 6.2315 12.637 6.23145 6.30664ZM8.23145 6.30664C8.2315 11.5324 12.4676 15.7685 17.6934 15.7686C19.0836 15.7686 20.4014 15.4692 21.5879 14.9326C21.9669 14.7613 22.4128 14.8427 22.707 15.1367C23.0012 15.4309 23.0824 15.8768 22.9111 16.2559C21.1136 20.2306 17.112 23 12.4619 23C6.13177 22.9998 1.00021 17.8682 1 11.5381C1 6.88801 3.76936 2.88642 7.74414 1.08887C8.12324 0.917597 8.56911 0.9988 8.86328 1.29297C9.15731 1.5872 9.23874 2.03307 9.06738 2.41211C8.53081 3.59859 8.23145 4.91635 8.23145 6.30664Z" fill="#475467"/>
</svg>
