<svg width="24" height="24" viewBox="0 0 24 24" fill="none" xmlns="http://www.w3.org/2000/svg">
<path d="M6 12C6 8.04852 8.29215 4.63286 11.6191 3.00879C6.82524 3.20838 3 7.15704 3 12C3 16.8429 6.82526 20.7906 11.6191 20.9902C8.29236 19.3661 6 15.9513 6 12ZM20.7988 18.6035C20.4668 19.0445 19.8397 19.1327 19.3984 18.8008C18.9576 18.4687 18.8694 17.8425 19.2012 17.4014L20.7988 18.6035ZM19.4004 5.20117C19.8141 4.89012 20.3914 4.94827 20.7354 5.32031L20.8008 5.39941L21.0674 5.76953C23.7306 9.63655 23.6409 14.8252 20.7988 18.6035L19.2012 17.4014C21.5246 14.3126 21.5973 10.0649 19.4199 6.90332L19.2021 6.60156L19.1455 6.5166C18.8832 6.08287 18.9868 5.51247 19.4004 5.20117ZM8 12C8 16.4183 11.5817 20 16 20C16.1135 20 16.2266 19.9978 16.3389 19.9932C16.8118 19.9735 17.2335 20.2882 17.3496 20.7471C17.4656 21.2058 17.2444 21.6829 16.8193 21.8906C15.3629 22.6014 13.7264 23 12 23C5.92487 23 1 18.0751 1 12C1 5.92487 5.92487 1 12 1C13.7264 1 15.3629 1.39857 16.8193 2.10938C17.2444 2.31707 17.4656 2.79423 17.3496 3.25293C17.2335 3.71181 16.8118 4.02647 16.3389 4.00684C16.2266 4.00217 16.1136 4 16 4C11.5817 4 8 7.58172 8 12Z" fill="#475467"/>
</svg>
