<svg width="24" height="24" viewBox="0 0 24 24" fill="none" xmlns="http://www.w3.org/2000/svg">
<path d="M11.3691 1.22462C11.7618 0.904269 12.3408 0.926863 12.707 1.29298L15.707 4.29298L15.7753 4.36915C16.0957 4.76192 16.0731 5.34092 15.707 5.70704C15.3408 6.07316 14.7618 6.09575 14.3691 5.7754L14.2929 5.70704L12.9999 4.41407V11H19.5859L18.2929 9.70704L18.2245 9.63087C17.9042 9.2381 17.9268 8.65909 18.2929 8.29298C18.659 7.92686 19.238 7.90427 19.6308 8.22462L19.707 8.29298L22.707 11.293C23.0975 11.6835 23.0975 12.3165 22.707 12.707L19.707 15.707C19.3164 16.0976 18.6834 16.0976 18.2929 15.707C17.9024 15.3165 17.9024 14.6835 18.2929 14.293L19.5859 13H12.9999V19.5859L14.2929 18.293C14.6834 17.9025 15.3164 17.9025 15.707 18.293C16.0975 18.6835 16.0975 19.3165 15.707 19.707L12.707 22.707C12.3164 23.0976 11.6834 23.0976 11.2929 22.707L8.29289 19.707L8.22453 19.6309C7.90418 19.2381 7.92678 18.6591 8.29289 18.293C8.65901 17.9269 9.23801 17.9043 9.63078 18.2246L9.70696 18.293L10.9999 19.5859V13H4.41399L5.70696 14.293L5.77532 14.3692C6.09567 14.7619 6.07307 15.3409 5.70696 15.707C5.34084 16.0732 4.76184 16.0958 4.36907 15.7754L4.29289 15.707L1.29289 12.707C0.902369 12.3165 0.902369 11.6835 1.29289 11.293L4.29289 8.29298C4.68342 7.90245 5.31643 7.90245 5.70696 8.29298C6.09748 8.6835 6.09748 9.31652 5.70696 9.70704L4.41399 11H10.9999V4.41407L9.70696 5.70704C9.31643 6.09757 8.68342 6.09757 8.29289 5.70704C7.90237 5.31652 7.90237 4.6835 8.29289 4.29298L11.2929 1.29298L11.3691 1.22462Z" fill="#475467"/>
</svg>
