<svg width="24" height="24" viewBox="0 0 24 24" fill="none" xmlns="http://www.w3.org/2000/svg">
<path d="M8 18.0001C8 16.8955 7.10457 16.0001 6 16.0001C4.89543 16.0001 4 16.8955 4 18.0001C4.00002 19.1046 4.89544 20.0001 6 20.0001C7.10456 20.0001 7.99998 19.1046 8 18.0001ZM20 16.0001C20 14.8955 19.1046 14.0001 18 14.0001C16.8954 14.0001 16 14.8955 16 16.0001C16 17.1046 16.8954 18.0001 18 18.0001C19.1046 18.0001 20 17.1046 20 16.0001ZM21.9951 16.2061C21.8879 18.3195 20.14 20.0001 18 20.0001C15.7909 20.0001 14 18.2092 14 16.0001C14 13.7909 15.7909 12.0001 18 12.0001C18.7288 12.0001 19.4116 12.1957 20 12.5362V4.88876C20 4.54607 19.9993 4.35305 19.9873 4.21493C19.9868 4.20902 19.9849 4.20358 19.9844 4.19833C19.9792 4.19867 19.9735 4.19885 19.9678 4.1993C19.8296 4.21022 19.6394 4.24069 19.3018 4.29696L10.501 5.76376C10.2489 5.80577 10.1143 5.82912 10.0186 5.85262C10.0152 5.85345 10.0118 5.8538 10.0088 5.85458C10.0085 5.85767 10.0081 5.86092 10.0078 5.86434C10.0004 5.96272 10 6.09975 10 6.35555V18.0001L9.99512 18.2061C9.88787 20.3195 8.14002 22.0001 6 22.0001C3.79087 22.0001 2.00002 20.2092 2 18.0001C2 15.7909 3.79086 14.0001 6 14.0001C6.72876 14.0001 7.41155 14.1957 8 14.5362V6.35555C8 6.12984 7.99922 5.90514 8.01367 5.71395C8.02908 5.51021 8.06501 5.27316 8.1748 5.0284C8.32925 4.68413 8.57838 4.39066 8.89258 4.18172C9.1159 4.03323 9.3436 3.95893 9.54199 3.91024C9.72822 3.86454 9.95019 3.82821 10.1729 3.7911L18.9727 2.3243C19.2755 2.27382 19.5659 2.22448 19.8105 2.20516C20.0646 2.18511 20.3746 2.18627 20.6963 2.30575C21.1346 2.46856 21.5017 2.78001 21.7344 3.18563C21.9051 3.48332 21.9575 3.78916 21.9795 4.04305C22.0006 4.28751 22 4.58185 22 4.88876V16.0001L21.9951 16.2061Z" fill="#475467"/>
</svg>
