<svg width="24" height="24" viewBox="0 0 24 24" fill="none" xmlns="http://www.w3.org/2000/svg">
<path d="M13.5 17.9999C13.5 16.8954 12.6046 15.9999 11.5 15.9999C10.3954 15.9999 9.50001 16.8954 9.5 17.9999C9.5 19.1045 10.3954 19.9999 11.5 19.9999C12.6046 19.9999 13.5 19.1045 13.5 17.9999ZM5.5 9.99994V7.99994H3.5C2.94772 7.99994 2.5 7.55223 2.5 6.99994C2.50001 6.44767 2.94772 5.99994 3.5 5.99994H5.5V3.99994C5.50001 3.44767 5.94772 2.99994 6.5 2.99994C7.05228 2.99994 7.49999 3.44767 7.5 3.99994V5.99994H9.5C10.0523 5.99994 10.5 6.44767 10.5 6.99994C10.5 7.55223 10.0523 7.99994 9.5 7.99994H7.5V9.99994C7.5 10.5522 7.05228 10.9999 6.5 10.9999C5.94772 10.9999 5.5 10.5522 5.5 9.99994ZM15.5 17.9999C15.5 20.2091 13.7091 21.9999 11.5 21.9999C9.29086 21.9999 7.5 20.2091 7.5 17.9999C7.50001 15.7908 9.29087 13.9999 11.5 13.9999C12.2287 13.9999 12.9116 14.1956 13.5 14.5361V5.58881C13.5 5.17971 13.4986 4.80385 13.5264 4.50092C13.554 4.19943 13.6202 3.81637 13.8613 3.47162C14.1766 3.02091 14.6639 2.71999 15.208 2.63959C15.6241 2.57819 15.9964 2.6906 16.2783 2.80072C16.5616 2.9114 16.897 3.08074 17.2627 3.26361L20.9473 5.10541L21.0361 5.15619C21.4643 5.4275 21.6261 5.9841 21.3945 6.44721C21.163 6.91033 20.6204 7.11523 20.1465 6.93549L20.0527 6.89447L16.3682 5.0517C15.9675 4.85139 15.7277 4.73348 15.5498 4.664C15.5402 4.66024 15.5309 4.65739 15.5225 4.65424C15.5215 4.66331 15.5195 4.67312 15.5186 4.68353C15.5012 4.87372 15.5 5.14085 15.5 5.58881V17.9999Z" fill="#475467"/>
</svg>
