<svg width="24" height="24" viewBox="0 0 24 24" fill="none" xmlns="http://www.w3.org/2000/svg">
<path d="M11 17.9999C11 16.8954 10.1046 15.9999 9 15.9999C7.89544 15.9999 7.00001 16.8954 7 17.9999C7 19.1045 7.89543 19.9999 9 19.9999C10.1046 19.9999 11 19.1045 11 17.9999ZM13 17.9999C13 20.2091 11.2091 21.9999 9 21.9999C6.79086 21.9999 5 20.2091 5 17.9999C5.00001 15.7908 6.79087 13.9999 9 13.9999C9.72875 13.9999 10.4116 14.1956 11 14.5361V5.58881C11 5.17971 10.9986 4.80385 11.0264 4.50092C11.054 4.19943 11.1202 3.81637 11.3613 3.47162C11.6766 3.02091 12.1639 2.71999 12.708 2.63959C13.1241 2.57819 13.4964 2.6906 13.7783 2.80072C14.0616 2.9114 14.397 3.08074 14.7627 3.26361L18.4473 5.10541L18.5361 5.15619C18.9643 5.4275 19.1261 5.9841 18.8945 6.44721C18.663 6.91033 18.1204 7.11523 17.6465 6.93549L17.5527 6.89447L13.8682 5.0517C13.4675 4.85139 13.2277 4.73348 13.0498 4.664C13.0402 4.66024 13.0309 4.65739 13.0225 4.65424C13.0215 4.66331 13.0195 4.67312 13.0186 4.68353C13.0012 4.87372 13 5.14085 13 5.58881V17.9999Z" fill="#475467"/>
</svg>
