<svg width="24" height="24" viewBox="0 0 24 24" fill="none" xmlns="http://www.w3.org/2000/svg">
<path d="M19.0001 13.2002V13C19.0001 12.4477 19.4478 12 20.0001 12C20.5524 12 21.0001 12.4477 21.0001 13V13.2002C21.0001 14.0237 21.0011 14.7016 20.9561 15.252C20.9102 15.814 20.8118 16.3311 20.5645 16.8164C20.1811 17.5689 19.569 18.181 18.8165 18.5645C18.3312 18.8117 17.8141 18.9101 17.252 18.9561C16.7017 19.001 16.0238 19 15.2003 19H13.6837C13.0198 19 12.8264 19.0049 12.6505 19.041C12.474 19.0772 12.3031 19.1368 12.1427 19.2188C11.9827 19.3005 11.8282 19.4181 11.3097 19.833L8.92489 21.7412C8.73242 21.8952 8.53429 22.0547 8.36141 22.1689C8.20402 22.273 7.89886 22.4594 7.50204 22.46C7.04533 22.4605 6.61319 22.2524 6.32821 21.8955C6.08074 21.5855 6.03476 21.231 6.01766 21.043C5.99893 20.8367 6.00008 20.5823 6.00008 20.3359V18.9893C5.60831 18.9763 5.27237 18.9457 4.96493 18.8633C3.58456 18.4934 2.50667 17.4155 2.1368 16.0352C1.99192 15.4944 2.00008 14.8656 2.00008 14V8.79981C2.00008 7.97632 1.99906 7.29843 2.04403 6.74805C2.08996 6.18599 2.18836 5.6689 2.43563 5.1836C2.8191 4.43109 3.43117 3.81902 4.18368 3.43555C4.66898 3.18827 5.18607 3.08988 5.74813 3.04395C6.29851 2.99898 6.9764 3 7.79989 3H11.0001C11.5524 3 12.0001 3.44772 12.0001 4C12.0001 4.55229 11.5524 5 11.0001 5H7.79989C6.9435 5 6.36125 5.00035 5.91122 5.03711C5.4728 5.07293 5.24828 5.13809 5.09188 5.21778C4.71563 5.40951 4.40959 5.71555 4.21786 6.0918C4.13817 6.2482 4.07301 6.47272 4.03719 6.91114C4.00043 7.36117 4.00008 7.94342 4.00008 8.79981V14C4.00008 14.9944 4.00888 15.2953 4.06844 15.5176C4.25338 16.2078 4.79232 16.7467 5.48251 16.9316C5.70478 16.9912 6.00574 17 7.00008 17C7.55237 17 8.00008 17.4477 8.00008 18V19.9189L10.0606 18.2705C10.5165 17.9058 10.8499 17.633 11.2325 17.4375C11.5534 17.2736 11.8952 17.1545 12.2481 17.082C12.669 16.9957 13.0998 17 13.6837 17H15.2003C16.0567 17 16.6389 16.9997 17.089 16.9629C17.5274 16.9271 17.7519 16.8619 17.9083 16.7822C18.2845 16.5905 18.5906 16.2845 18.7823 15.9082C18.862 15.7518 18.9272 15.5273 18.963 15.0889C18.9997 14.6388 19.0001 14.0566 19.0001 13.2002ZM15.172 3.17188C16.7341 1.60978 19.2661 1.60978 20.8282 3.17188C22.3903 4.73397 22.3903 7.26603 20.8282 8.82813C19.2661 10.3902 16.7341 10.3902 15.172 8.82813C13.6099 7.26603 13.6099 4.73397 15.172 3.17188ZM19.4141 4.58594C18.6331 3.80489 17.3671 3.80489 16.586 4.58594C15.805 5.36699 15.805 6.63302 16.586 7.41407C17.3671 8.19511 18.6331 8.19511 19.4141 7.41407C20.1952 6.63302 20.1952 5.36699 19.4141 4.58594Z" fill="#475467"/>
</svg>
