<svg width="24" height="24" viewBox="0 0 24 24" fill="none" xmlns="http://www.w3.org/2000/svg">
<path d="M2 16.2002V8.79981C2 7.97632 1.99898 7.29843 2.04395 6.74805C2.08988 6.18599 2.18827 5.6689 2.43555 5.1836C2.81902 4.43109 3.43109 3.81902 4.1836 3.43555C4.6689 3.18827 5.18599 3.08988 5.74805 3.04395C6.29843 2.99898 6.97632 3 7.79981 3H11C11.5523 3 12 3.44772 12 4C12 4.55229 11.5523 5 11 5H7.79981C6.94342 5 6.36117 5.00035 5.91113 5.03711C5.47272 5.07293 5.2482 5.13809 5.0918 5.21778C4.71555 5.40951 4.40951 5.71555 4.21778 6.0918C4.13809 6.2482 4.07293 6.47272 4.03711 6.91114C4.00035 7.36117 4 7.94342 4 8.79981V16.2002C4 17.0566 4.00035 17.6388 4.03711 18.0889C4.07293 18.5273 4.13809 18.7518 4.21778 18.9082C4.40951 19.2845 4.71554 19.5905 5.0918 19.7822C5.2482 19.8619 5.47272 19.9271 5.91113 19.9629C6.36117 19.9997 6.94342 20 7.79981 20H15.2002C16.0566 20 16.6388 19.9997 17.0889 19.9629C17.5273 19.9271 17.7518 19.8619 17.9082 19.7822C18.2845 19.5905 18.5905 19.2845 18.7822 18.9082C18.8619 18.7518 18.9271 18.5273 18.9629 18.0889C18.9997 17.6388 19 17.0566 19 16.2002V13C19 12.4477 19.4477 12 20 12C20.5523 12 21 12.4477 21 13V16.2002C21 17.0237 21.001 17.7016 20.9561 18.252C20.9101 18.814 20.8117 19.3311 20.5645 19.8164C20.181 20.5689 19.5689 21.181 18.8164 21.5645C18.3311 21.8117 17.814 21.9101 17.252 21.9561C16.7016 22.001 16.0237 22 15.2002 22H7.79981C6.97632 22 6.29843 22.001 5.74805 21.9561C5.18599 21.9101 4.6689 21.8117 4.1836 21.5645C3.43109 21.181 2.81902 20.5689 2.43555 19.8164C2.18827 19.3311 2.08988 18.814 2.04395 18.252C1.99898 17.7016 2 17.0237 2 16.2002ZM15.1719 3.17188C16.734 1.60978 19.266 1.60978 20.8281 3.17188C22.3902 4.73397 22.3902 7.26603 20.8281 8.82813C19.266 10.3902 16.734 10.3902 15.1719 8.82813C13.6098 7.26603 13.6098 4.73397 15.1719 3.17188ZM19.4141 4.58594C18.633 3.80489 17.367 3.80489 16.5859 4.58594C15.8049 5.36699 15.8049 6.63302 16.5859 7.41407C17.367 8.19511 18.633 8.19511 19.4141 7.41407C20.1951 6.63302 20.1951 5.36699 19.4141 4.58594Z" fill="#475467"/>
</svg>
