<svg width="24" height="24" viewBox="0 0 24 24" fill="none" xmlns="http://www.w3.org/2000/svg">
<path d="M21.0757 11.1612C21.2619 11.3474 21.4446 11.5295 21.5854 11.6954C21.7338 11.8702 21.8936 12.0922 21.9878 12.3819C22.1183 12.7836 22.1183 13.2165 21.9878 13.6182C21.8936 13.9079 21.7338 14.1299 21.5854 14.3047C21.4446 14.4706 21.2619 14.6527 21.0757 14.8389L15.601 20.3135C15.019 20.8956 14.5404 21.3752 14.1196 21.7325C13.6897 22.0975 13.2539 22.3932 12.7358 22.5616C11.9326 22.8225 11.0674 22.8225 10.2641 22.5616C9.74615 22.3933 9.31121 22.0974 8.88132 21.7325C8.46038 21.3751 7.98112 20.8957 7.3989 20.3135L4.18698 17.1016C3.60463 16.5193 3.12447 16.0402 2.76706 15.6192C2.40216 15.1893 2.10627 14.7543 1.93796 14.2364C1.67693 13.433 1.67693 12.5671 1.93796 11.7637C2.10627 11.2458 2.40216 10.8108 2.76706 10.3809C3.12447 9.9599 3.60463 9.48084 4.18698 8.89848L10.0854 3.00005L9.79245 2.70708L11.2075 1.29302L21.0757 11.1612ZM4.04245 14C4.10647 14.0931 4.18698 14.201 4.29245 14.3252C4.58464 14.6694 4.99579 15.0813 5.60105 15.6866L8.81296 18.8985C9.41865 19.5042 9.831 19.9158 10.1753 20.2081C10.5106 20.4927 10.7154 20.605 10.8823 20.6592C11.2838 20.7896 11.7161 20.7896 12.1176 20.6592C12.2846 20.605 12.4894 20.4927 12.8247 20.2081C13.1689 19.9158 13.5813 19.5042 14.187 18.8985L19.0854 14H4.04245ZM5.60105 10.3135C4.99579 10.9188 4.58464 11.3307 4.29245 11.6749C4.18698 11.7991 4.10647 11.907 4.04245 12H19.0854L11.4995 4.41411L5.60105 10.3135ZM9.79245 1.29302C10.183 0.902491 10.817 0.902491 11.2075 1.29302L9.79245 2.70708C9.40228 2.31662 9.40228 1.68347 9.79245 1.29302Z" fill="#475467"/>
</svg>
