<svg width="24" height="24" viewBox="0 0 24 24" fill="none" xmlns="http://www.w3.org/2000/svg">
<path d="M14.0002 21L14.1018 21.0049C14.6062 21.0559 15.0002 21.4821 15.0002 22C15.0002 22.5179 14.6062 22.9441 14.1018 22.9951L14.0002 23H2.00023C1.44794 23 1.00023 22.5523 1.00023 22C1.00023 21.4477 1.44794 21 2.00023 21H14.0002ZM7.2932 1.29299C7.65938 0.926964 8.23836 0.904171 8.63109 1.22463L8.70726 1.29299L16.5754 9.16116C16.7618 9.3475 16.9453 9.52942 17.0862 9.69534C17.2345 9.87012 17.3934 10.0923 17.4875 10.3819C17.618 10.7835 17.618 11.2165 17.4875 11.6182C17.3934 11.9077 17.2345 12.1299 17.0862 12.3047C16.9453 12.4706 16.7618 12.6525 16.5754 12.8389L11.97 17.4444C11.5857 17.8286 11.2555 18.1601 10.9621 18.4092C10.6598 18.6659 10.3308 18.8932 9.92698 19.0244C9.32445 19.2202 8.67502 19.2202 8.07249 19.0244C7.66886 18.8932 7.34056 18.6658 7.03831 18.4092C6.7449 18.1601 6.41476 17.8286 6.0305 17.4444L2.55589 13.9697C2.17164 13.5855 1.84016 13.2553 1.59105 12.9619C1.33434 12.6595 1.10606 12.3307 0.974836 11.9268C0.779221 11.3245 0.779221 10.6756 0.974836 10.0733C1.10607 9.66938 1.33434 9.3405 1.59105 9.03811C1.84016 8.7447 2.17164 8.41455 2.55589 8.0303L7.58616 3.00002L7.2932 2.70705L7.22386 2.63088C6.90379 2.23811 6.92718 1.65901 7.2932 1.29299ZM20.969 15.8819C20.9391 15.7958 20.8892 15.6863 20.8157 15.5557C20.6673 15.2923 20.4568 15.0014 20.2258 14.7188C20.1508 14.627 20.0737 14.5393 20.0002 14.4551C19.9266 14.5394 19.8497 14.6269 19.7746 14.7188C19.5436 15.0016 19.3322 15.2922 19.1838 15.5557C19.1102 15.6864 19.0604 15.7958 19.0305 15.8819C19.0046 15.9565 19.0008 15.994 19.0002 16C19.0002 16.5523 19.4479 17 20.0002 17C20.5524 16.9999 21.0002 16.5522 21.0002 16C21.0002 16.0071 21 15.9711 20.969 15.8819ZM3.42015 12C3.56722 12.1527 3.74699 12.3327 3.96995 12.5557L7.44456 16.0303C7.85214 16.4379 8.11557 16.7008 8.33226 16.8848C8.53991 17.0611 8.63786 17.1059 8.69066 17.1231C8.89142 17.1883 9.10804 17.1883 9.30882 17.1231C9.36158 17.1059 9.45958 17.061 9.66722 16.8848C9.88394 16.7008 10.1482 16.438 10.5559 16.0303L14.5852 12H3.42015ZM3.96995 9.44436C3.74698 9.66733 3.56722 9.8473 3.42015 10H14.5852L9.00023 4.41409L3.96995 9.44436ZM23.0002 16C23.0002 17.6568 21.6569 18.9999 20.0002 19C18.3434 19 17.0002 17.6569 17.0002 16C17.0002 15.4609 17.2291 14.9499 17.4407 14.5742C17.6673 14.1718 17.957 13.7822 18.2258 13.4531C18.4977 13.1203 18.7671 12.828 18.967 12.6201C19.0673 12.5159 19.1512 12.4313 19.2112 12.3721C19.241 12.3426 19.2654 12.3192 19.2825 12.3028C19.2909 12.2946 19.298 12.2879 19.303 12.2832L19.3118 12.2744L19.3869 12.21C19.7726 11.9101 20.3261 11.9317 20.6877 12.2744L20.6887 12.2754L20.6965 12.2832C20.7015 12.288 20.7085 12.2945 20.717 12.3028C20.7341 12.3193 20.7583 12.3425 20.7883 12.3721C20.8483 12.4314 20.933 12.5157 21.0334 12.6201C21.2333 12.828 21.5027 13.1203 21.7746 13.4531C22.0434 13.7821 22.3323 14.1719 22.5588 14.5742C22.7703 14.9499 23.0002 15.4609 23.0002 16Z" fill="#475467"/>
</svg>
