<svg width="24" height="24" viewBox="0 0 24 24" fill="none" xmlns="http://www.w3.org/2000/svg">
<path d="M13.021 2.76812C14.7784 1.01083 17.627 1.01078 19.3843 2.76812C21.1416 4.52546 21.1416 7.37406 19.3843 9.1314L10.7222 17.7935C9.64824 18.8674 7.90745 18.8675 6.83351 17.7935C5.75963 16.7196 5.75959 14.9788 6.83351 13.9048L14.4351 6.30327C14.8256 5.91294 15.4587 5.91281 15.8491 6.30327C16.2395 6.69374 16.2395 7.32682 15.8491 7.71734L8.24757 15.3189C7.9547 15.6118 7.95474 16.0865 8.24757 16.3794C8.54047 16.6723 9.01523 16.6723 9.30812 16.3794L17.9702 7.71734C18.9464 6.74104 18.9464 5.15847 17.9702 4.18218C16.9939 3.20589 15.4114 3.20594 14.4351 4.18218L5.41945 13.1978C3.75974 14.8575 3.75978 17.5478 5.41945 19.2076C7.07918 20.8673 9.76949 20.8673 11.4292 19.2076L20.4448 10.1919C20.8352 9.80165 21.4684 9.8019 21.8589 10.1919C22.2494 10.5825 22.2494 11.2165 21.8589 11.607L12.8433 20.6226C10.4026 23.0628 6.44606 23.0628 4.00539 20.6226C1.56461 18.1818 1.56461 14.2245 4.00539 11.7837L13.021 2.76812Z" fill="#475467"/>
</svg>
