<svg width="24" height="24" viewBox="0 0 24 24" fill="none" xmlns="http://www.w3.org/2000/svg">
<path d="M16.3818 2.51187C16.7332 2.3977 17.1085 2.38333 17.4658 2.4689L17.6182 2.51187L17.8232 2.5939C18.0159 2.68543 18.1736 2.80295 18.3047 2.91421C18.4706 3.05505 18.6526 3.23768 18.8389 3.42398L22.5762 7.16128C22.7625 7.34759 22.9451 7.52957 23.0859 7.69546C23.2344 7.8703 23.3942 8.0923 23.4883 8.38198C23.6188 8.78363 23.6188 9.21667 23.4883 9.61831C23.3941 9.90796 23.2343 10.13 23.0859 10.3048C22.9452 10.4706 22.7623 10.6519 22.5762 10.838L21.8389 11.5753C21.6525 11.7617 21.4706 11.9452 21.3047 12.0861C21.1299 12.2345 20.9077 12.3933 20.6182 12.4875C20.2877 12.5948 19.9365 12.6124 19.5986 12.5431L18.2002 17.4406C18.1304 17.6847 18.0473 18.0126 17.8643 18.2941C17.7193 18.517 17.5315 18.7091 17.3115 18.8585C17.0337 19.0472 16.7075 19.1364 16.4648 19.2111L4.29395 22.9562C3.94002 23.065 3.55483 22.969 3.29297 22.7072C3.03113 22.4453 2.93518 22.0601 3.04395 21.7062L6.78906 9.53531C6.86373 9.29262 6.95291 8.96644 7.1416 8.68863C7.29102 8.46866 7.48313 8.28085 7.70605 8.13589C7.98763 7.95282 8.3154 7.86971 8.55957 7.79995L13.4561 6.40054C13.387 6.06298 13.4045 5.71209 13.5117 5.38198C13.6058 5.0923 13.7656 4.8703 13.9141 4.69546C14.0549 4.52957 14.2375 4.34759 14.4238 4.16128L15.1611 3.42398C15.3474 3.23767 15.5294 3.05505 15.6953 2.91421C15.8701 2.76579 16.0921 2.606 16.3818 2.51187ZM13 14.0001C13 13.4479 12.5523 13.0001 12 13.0001C11.4477 13.0001 11 13.4479 11 14.0001C11.0001 14.5524 11.4478 15.0001 12 15.0001C12.5522 15.0001 12.9999 14.5524 13 14.0001ZM16.9902 4.43863C16.9011 4.51428 16.7856 4.62864 16.5762 4.83804L15.8389 5.57534C15.6292 5.78498 15.5142 5.90024 15.4385 5.98941C15.4355 5.99291 15.4323 5.99601 15.4297 5.99917C15.4325 6.00252 15.4353 6.00618 15.4385 6.00991C15.5142 6.09909 15.6292 6.2143 15.8389 6.42398L19.5762 10.1613C19.7858 10.3709 19.9011 10.485 19.9902 10.5607C19.9934 10.5634 19.9971 10.5651 20 10.5675C20.0029 10.5651 20.0066 10.5634 20.0098 10.5607C20.0989 10.485 20.2142 10.3709 20.4238 10.1613L21.1611 9.42398C21.3708 9.2143 21.4858 9.09909 21.5615 9.00991C21.5645 9.00636 21.5667 9.00238 21.5693 8.99917C21.5668 8.99615 21.5643 8.99273 21.5615 8.98941C21.4858 8.90024 21.3708 8.78498 21.1611 8.57534L17.4238 4.83804C17.2144 4.62864 17.0989 4.51428 17.0098 4.43863C17.0064 4.43579 17.003 4.43334 17 4.43081C16.997 4.43334 16.9936 4.43579 16.9902 4.43863ZM8 4.00015C8.55228 4.00015 9 4.44786 9 5.00015C8.99992 5.55236 8.55223 6.00015 8 6.00015H2C1.44777 6.00015 1.00008 5.55236 1 5.00015C1 4.44786 1.44772 4.00015 2 4.00015H8ZM15 14.0001C14.9999 15.6569 13.6568 17.0001 12 17.0001C11.5371 17.0001 11.1005 16.8915 10.709 16.7043L7.55371 19.8595L15.876 17.299C16.038 17.2491 16.1211 17.224 16.1797 17.2023C16.1808 17.2019 16.1816 17.2007 16.1826 17.2003C16.1832 17.1987 16.1849 17.1973 16.1855 17.1955C16.2061 17.1364 16.2308 17.0537 16.2773 16.8908L17.876 11.2902L14.708 8.12222L9.10938 9.72281C8.9465 9.76934 8.86373 9.79405 8.80469 9.8146C8.80279 9.81526 8.80055 9.81497 8.79883 9.81558C8.79827 9.81705 8.79845 9.81886 8.79785 9.82046C8.77612 9.87905 8.74999 9.96136 8.7002 10.1232L6.13965 18.4455L9.29492 15.2902C9.10801 14.899 9.00002 14.4626 9 14.0001C9 12.3433 10.3431 11.0001 12 11.0001C13.6569 11.0001 15 12.3433 15 14.0001Z" fill="#475467"/>
</svg>
