<svg width="24" height="24" viewBox="0 0 24 24" fill="none" xmlns="http://www.w3.org/2000/svg">
<path d="M1.2926 1.29296C1.53889 1.04667 1.89541 0.946644 2.234 1.02831L15.7408 4.28808C16.0277 4.35733 16.414 4.43592 16.7369 4.64648C16.9282 4.7712 17.0961 4.92779 17.234 5.10839L17.361 5.29687L17.4293 5.42285C17.5748 5.72298 17.6296 6.05232 17.6803 6.30566L18.7057 11.4355C18.9582 11.398 19.2161 11.41 19.4654 11.4697L19.6178 11.5117L19.8229 11.5937C20.0156 11.6853 20.1732 11.8028 20.3043 11.9141C20.4702 12.0549 20.6522 12.2375 20.8385 12.4238L21.5758 13.1611C21.7621 13.3474 21.9447 13.5294 22.0856 13.6953C22.234 13.8702 22.3938 14.0921 22.4879 14.3818C22.6184 14.7835 22.6184 15.2165 22.4879 15.6182C22.3938 15.9079 22.234 16.1298 22.0856 16.3047C21.9447 16.4706 21.7621 16.6525 21.5758 16.8389L16.8385 21.5762C16.6522 21.7625 16.4702 21.9451 16.3043 22.0859C16.1295 22.2344 15.9075 22.3941 15.6178 22.4883C15.2161 22.6188 14.7832 22.6188 14.3815 22.4883C14.0918 22.3941 13.8698 22.2344 13.6949 22.0859C13.529 21.9451 13.3471 21.7625 13.1608 21.5762L12.4235 20.8389C12.2371 20.6525 12.0545 20.4706 11.9137 20.3047C11.7653 20.1298 11.6055 19.9079 11.5113 19.6182C11.4154 19.3227 11.39 19.0103 11.4352 18.706L6.30529 17.6807C6.01589 17.6228 5.62746 17.559 5.2965 17.3613C5.03522 17.2053 4.81234 16.9922 4.64611 16.7373C4.43555 16.4144 4.35696 16.0281 4.28771 15.7412L1.02795 2.23437C0.946278 1.89578 1.0463 1.53926 1.2926 1.29296ZM18.9899 13.4385C18.9007 13.5142 18.7855 13.6292 18.5758 13.8389L13.8385 18.5762C13.6288 18.7858 13.5138 18.9011 13.4381 18.9902C13.4353 18.9936 13.4328 18.997 13.4303 19C13.4328 19.003 13.4353 19.0064 13.4381 19.0098C13.5138 19.0989 13.6288 19.2142 13.8385 19.4238L14.5758 20.1611C14.7855 20.3708 14.9007 20.4858 14.9899 20.5615C14.993 20.5642 14.9967 20.5659 14.9996 20.5684C15.0025 20.5659 15.0062 20.5642 15.0094 20.5615C15.0986 20.4858 15.2138 20.3708 15.4235 20.1611L20.1608 15.4238C20.3704 15.2142 20.4855 15.0989 20.5612 15.0098C20.5638 15.0066 20.5656 15.0029 20.568 15C20.5656 14.9971 20.5638 14.9934 20.5612 14.9902C20.4855 14.9011 20.3704 14.7858 20.1608 14.5762L19.4235 13.8389C19.2138 13.6292 19.0986 13.5142 19.0094 13.4385C19.006 13.4356 19.0027 13.4332 18.9996 13.4307C18.9966 13.4332 18.9932 13.4356 18.9899 13.4385ZM11.9996 11C11.9996 10.4477 11.5519 9.99999 10.9996 9.99999C10.4473 9.99999 9.99963 10.4477 9.99963 11C9.99963 11.5523 10.4473 12 10.9996 12C11.5519 12 11.9996 11.5523 11.9996 11ZM13.9996 11C13.9996 12.6568 12.6565 14 10.9996 14C9.34277 14 7.99963 12.6568 7.99963 11C7.99963 10.5372 8.10742 10.1004 8.29455 9.70898L3.80432 5.21874L6.23205 15.2725C6.27835 15.4643 6.30297 15.5633 6.32482 15.6338C6.32546 15.6358 6.32618 15.6378 6.32678 15.6396C6.32867 15.6402 6.33056 15.641 6.33264 15.6416C6.40399 15.6607 6.50421 15.681 6.69787 15.7197L12.6695 16.9141L16.9137 12.6699L15.7194 6.69824C15.6806 6.50457 15.6603 6.40435 15.6412 6.333C15.6407 6.33093 15.6398 6.32904 15.6393 6.32714C15.6374 6.32655 15.6355 6.32583 15.6334 6.32519C15.5629 6.30334 15.4639 6.27872 15.2721 6.23242L5.21838 3.80468L9.70861 8.29492C10.1 8.10779 10.5369 7.99999 10.9996 7.99999C12.6565 7.99999 13.9996 9.34314 13.9996 11Z" fill="#475467"/>
</svg>
