<svg width="24" height="24" viewBox="0 0 24 24" fill="none" xmlns="http://www.w3.org/2000/svg">
<path d="M14.3814 1.51187C14.7328 1.3977 15.1081 1.38333 15.4654 1.4689L15.6178 1.51187L15.8228 1.5939C16.0155 1.68543 16.1732 1.80295 16.3043 1.91421C16.4702 2.05505 16.6522 2.23768 16.8385 2.42398L21.5758 7.16128C21.7621 7.34759 21.9447 7.52957 22.0855 7.69546C22.234 7.8703 22.3938 8.0923 22.4879 8.38199C22.6184 8.78364 22.6184 9.21667 22.4879 9.61831C22.3937 9.90796 22.2339 10.13 22.0855 10.3048C21.9448 10.4706 21.7619 10.6519 21.5758 10.838L20.8385 11.5753C20.6521 11.7617 20.4702 11.9452 20.3043 12.0861C20.1295 12.2345 19.9073 12.3933 19.6178 12.4875C19.3223 12.5835 19.01 12.6089 18.7057 12.5636L17.6803 17.6945C17.6224 17.9839 17.5585 18.3724 17.3609 18.7033C17.2049 18.9644 16.9916 19.1865 16.7369 19.3527C16.414 19.5633 16.0277 19.6428 15.7408 19.7121L2.23397 22.9718C1.89543 23.0535 1.53885 22.9534 1.29257 22.7072C1.04631 22.4609 0.946311 22.1043 1.02792 21.7658L4.28768 8.25894C4.35693 7.97207 4.43557 7.58576 4.64608 7.26284C4.81234 7.00787 5.03514 6.79392 5.29647 6.63784C5.62737 6.44032 6.01594 6.37735 6.30526 6.31949L11.4351 5.29312C11.3901 4.98912 11.4154 4.67711 11.5113 4.38199C11.6054 4.0923 11.7652 3.8703 11.9137 3.69546C12.0545 3.52957 12.2371 3.34759 12.4234 3.16128L13.1607 2.42398C13.347 2.23767 13.529 2.05505 13.6949 1.91421C13.8697 1.76579 14.0917 1.606 14.3814 1.51187ZM11.9996 13.0001C11.9996 12.4479 11.5519 12.0001 10.9996 12.0001C10.4473 12.0001 9.9996 12.4479 9.9996 13.0001C9.99968 13.5524 10.4474 14.0001 10.9996 14.0001C11.5518 14.0001 11.9995 13.5524 11.9996 13.0001ZM14.9898 3.43863C14.9007 3.51428 14.7852 3.62864 14.5758 3.83804L13.8385 4.57534C13.6288 4.78498 13.5138 4.90024 13.4381 4.98941C13.4351 4.99291 13.4319 4.99601 13.4293 4.99917C13.4321 5.00252 13.4349 5.00618 13.4381 5.00991C13.5138 5.09909 13.6288 5.2143 13.8385 5.42398L18.5758 10.1613C18.7854 10.3709 18.9007 10.485 18.9898 10.5607C18.993 10.5634 18.9967 10.5651 18.9996 10.5675C19.0025 10.5651 19.0062 10.5634 19.0094 10.5607C19.0985 10.485 19.2138 10.3709 19.4234 10.1613L20.1607 9.42398C20.3704 9.2143 20.4854 9.09909 20.5611 9.00991C20.5641 9.00636 20.5663 9.00238 20.5689 8.99917C20.5664 8.99615 20.5639 8.99273 20.5611 8.98941C20.4854 8.90024 20.3704 8.78498 20.1607 8.57534L15.4234 3.83804C15.214 3.62864 15.0985 3.51428 15.0094 3.43863C15.006 3.43579 15.0026 3.43334 14.9996 3.43081C14.9966 3.43334 14.9932 3.43579 14.9898 3.43863ZM13.9996 13.0001C13.9995 14.6569 12.6564 16.0001 10.9996 16.0001C10.5367 16.0001 10.1001 15.8915 9.70858 15.7043L5.21933 20.1935L15.2721 17.7677C15.4639 17.7214 15.5629 17.6968 15.6334 17.675C15.6355 17.6743 15.6373 17.6726 15.6392 17.672C15.6397 17.6704 15.6407 17.6689 15.6412 17.6671C15.6603 17.5958 15.6806 17.4956 15.7193 17.3019L16.9137 11.3283L12.6705 7.08511L6.69784 8.28042C6.50418 8.31916 6.40396 8.33948 6.33261 8.35855C6.33062 8.35908 6.32857 8.35903 6.32675 8.35952C6.32607 8.36167 6.32553 8.36398 6.32479 8.36636C6.30293 8.43689 6.27835 8.53577 6.23202 8.72769L3.80429 18.7804L8.29452 14.2902C8.10761 13.899 7.99962 13.4626 7.9996 13.0001C7.9996 11.3433 9.34274 10.0001 10.9996 10.0001C12.6565 10.0001 13.9996 11.3433 13.9996 13.0001Z" fill="#475467"/>
</svg>
