<svg width="24" height="24" viewBox="0 0 24 24" fill="none" xmlns="http://www.w3.org/2000/svg">
<path d="M16.293 2.29268C17.7881 0.797777 20.212 0.797794 21.7071 2.29268C23.2021 3.78773 23.2021 6.21164 21.7071 7.70674L10.4278 18.987C10.1759 19.2389 9.9911 19.4258 9.78132 19.5886C9.60501 19.7254 9.4174 19.8473 9.22077 19.9528C8.98678 20.0784 8.7408 20.1706 8.40827 20.2985L8.31941 20.3317C8.28226 20.3461 8.2459 20.3619 8.21003 20.3757L2.85944 22.4333C2.4906 22.5752 2.07248 22.4862 1.79304 22.2067C1.5138 21.9274 1.42481 21.51 1.56648 21.1413L3.70124 15.5915L3.87507 15.1481C3.92986 15.016 3.9842 14.8959 4.04694 14.779C4.15248 14.5824 4.27441 14.3947 4.4112 14.2185C4.57392 14.0088 4.76107 13.8246 5.01276 13.573L16.293 2.29268ZM21.0001 19.9997C21.5523 19.9997 21.9999 20.4476 22.0001 20.9997C22.0001 21.552 21.5524 21.9997 21.0001 21.9997H13.0001C12.4478 21.9997 12.0001 21.552 12.0001 20.9997C12.0002 20.4476 12.4479 19.9997 13.0001 19.9997H21.0001ZM4.2403 19.7585L7.20417 18.6189L5.37995 16.7946L4.2403 19.7585ZM20.293 3.70674C19.579 2.9929 18.4211 2.99289 17.7071 3.70674L6.4278 14.987C6.42306 14.9918 6.41779 14.996 6.41316 15.0007C6.4691 15.0554 6.52436 15.1109 6.57722 15.1638L8.83698 17.4226C8.88953 17.4751 8.94368 17.531 8.99812 17.5866C9.00278 17.582 9.00799 17.5777 9.01276 17.573L20.293 6.29268C21.0069 5.57862 21.007 4.42074 20.293 3.70674Z" fill="#475467"/>
</svg>
