<svg width="24" height="24" viewBox="0 0 24 24" fill="none" xmlns="http://www.w3.org/2000/svg">
<path d="M14.5361 4.28032C14.7997 4.19467 15.0815 4.18386 15.3496 4.24809L15.4639 4.28032L15.626 4.34575C15.7767 4.41735 15.8923 4.50551 15.9756 4.57622C16.0776 4.66285 16.1852 4.77115 16.2724 4.85844L19.1416 7.72759C19.2289 7.81488 19.3372 7.92242 19.4238 8.02446C19.4945 8.10775 19.5827 8.22335 19.6543 8.37407L19.7197 8.53618L19.7519 8.65044C19.8162 8.91849 19.8054 9.20032 19.7197 9.46391C19.6441 9.6964 19.5181 9.8646 19.4238 9.97563C19.3372 10.0777 19.2289 10.1852 19.1416 10.2725L8.8076 20.6065C8.60522 20.8089 8.43107 20.9865 8.22752 21.1348C8.05965 21.2571 7.87989 21.3622 7.69041 21.4473C7.46056 21.5505 7.21961 21.6132 6.94334 21.6885L2.26268 22.9649C1.91659 23.0591 1.5466 22.9607 1.29295 22.7071C1.0393 22.4534 0.940909 22.0834 1.03514 21.7374L2.31151 17.0567C2.38685 16.7804 2.44952 16.5395 2.55272 16.3096C2.6378 16.1201 2.74293 15.9404 2.86522 15.7725C3.01352 15.569 3.19116 15.3948 3.39354 15.1924L13.7275 4.85844C13.8148 4.77115 13.9224 4.66285 14.0244 4.57622C14.1354 4.48196 14.3036 4.35591 14.5361 4.28032ZM4.8076 16.6065C4.56281 16.8513 4.51683 16.9017 4.48143 16.9502C4.44079 17.0061 4.40621 17.066 4.37791 17.129C4.35328 17.1838 4.33239 17.2487 4.24119 17.5831L3.42479 20.5743L6.41698 19.7588C6.75135 19.6676 6.81621 19.6467 6.87108 19.6221C6.93405 19.5938 6.99396 19.5592 7.04979 19.5186C7.09838 19.4832 7.14874 19.4372 7.39354 19.1924L17.5859 9.00005L15 6.41411L4.8076 16.6065ZM17.293 1.29302C17.6835 0.902491 18.3165 0.902491 18.707 1.29302L22.707 5.29302L22.7754 5.36919C23.0957 5.76196 23.0731 6.34096 22.707 6.70708C22.3409 7.07319 21.7619 7.09579 21.3691 6.77544L21.293 6.70708L17.293 2.70708L17.2246 2.63091C16.9042 2.23813 16.9268 1.65913 17.293 1.29302Z" fill="#475467"/>
</svg>
