<svg width="24" height="24" viewBox="0 0 24 24" fill="none" xmlns="http://www.w3.org/2000/svg">
<path d="M4.09962 2.87791C4.95096 2.44731 5.95629 2.44731 6.80763 2.87791C7.27163 3.11263 7.67067 3.52806 8.1465 4.00389L8.34083 4.1992C8.65433 4.5127 8.92551 4.77569 9.11134 5.0615C9.75758 6.05575 9.75768 7.33781 9.11134 8.33201C8.92551 8.61784 8.65434 8.88081 8.34083 9.19432C8.28339 9.25176 8.25386 9.28109 8.23341 9.30272L8.23146 9.31443C8.23475 9.32173 8.23902 9.33172 8.24513 9.34471C8.2547 9.36503 8.26692 9.38799 8.28224 9.4199C8.93006 10.7692 9.81293 12.0355 10.9336 13.1562C12.0542 14.2768 13.3199 15.1598 14.669 15.8076C14.7011 15.823 14.7247 15.8351 14.7451 15.8447C14.7575 15.8505 14.7673 15.8542 14.7744 15.8574C14.7764 15.8572 14.7788 15.8578 14.7813 15.8574C14.783 15.8571 14.7846 15.8558 14.7861 15.8554C14.8078 15.835 14.8381 15.8065 14.8955 15.749C15.209 15.4355 15.472 15.1643 15.7578 14.9785C16.7521 14.3321 18.0341 14.3322 19.0283 14.9785C19.3142 15.1643 19.5771 15.4355 19.8906 15.749L20.4297 16.2881C20.7585 16.6226 21.0359 16.9342 21.2119 17.2822C21.6425 18.1335 21.6425 19.1389 21.2119 19.9902C20.9772 20.4542 20.5608 20.8523 20.085 21.3281L19.9277 21.4863C19.4288 21.9852 19.0608 22.3637 18.5557 22.6474C18.0057 22.9563 17.2156 23.162 16.585 23.1601C16.0135 23.1584 15.6021 23.0359 15.0557 22.8808C11.8625 21.9745 8.84953 20.2635 6.3379 17.7519C3.82627 15.2403 2.11533 12.2274 1.209 9.03416C1.05389 8.4877 0.93143 8.07636 0.9297 7.50486C0.927823 6.87421 1.13356 6.08409 1.4424 5.53416C1.72614 5.02905 2.10459 4.66102 2.60353 4.16209L3.10548 3.66014C3.44001 3.33135 3.75164 3.05396 4.09962 2.87791ZM5.90529 4.66209C5.62151 4.51856 5.28575 4.51855 5.00197 4.66209C4.89529 4.71612 4.76236 4.83236 4.17579 5.41893L4.01759 5.57615C3.45753 6.13622 3.30626 6.29879 3.18556 6.51365C3.04577 6.76282 2.92885 7.21353 2.9297 7.499C2.93048 7.75302 2.96765 7.90632 3.13283 8.48826C3.94843 11.3618 5.48764 14.0735 7.75197 16.3379C10.0163 18.6022 12.728 20.1404 15.6016 20.956C16.1837 21.1213 16.3367 21.1594 16.5908 21.1601C16.8765 21.161 17.3271 21.0432 17.5762 20.9033C17.791 20.7826 17.9536 20.6323 18.5137 20.0722L18.6709 19.914C19.2579 19.327 19.3738 19.1936 19.4277 19.0869C19.571 18.8032 19.5712 18.4682 19.4277 18.1846C19.3738 18.0778 19.2579 17.9444 18.6709 17.3574L18.4766 17.1631C18.091 16.7775 18.0042 16.698 17.9385 16.6553C17.607 16.4398 17.1791 16.4398 16.8477 16.6553C16.7819 16.698 16.6951 16.7775 16.3096 17.1631C16.2165 17.2561 16.0948 17.3819 15.9463 17.4883C15.4594 17.8368 14.7976 17.9498 14.2227 17.7822C14.0497 17.7318 13.9095 17.6621 13.8037 17.6113C12.2538 16.8671 10.802 15.8527 9.51954 14.5703C8.23707 13.2878 7.2227 11.8361 6.47853 10.2861C6.42774 10.1803 6.35807 10.0402 6.30763 9.86717C6.14003 9.29223 6.25301 8.6305 6.60158 8.14354C6.70792 7.99503 6.8337 7.87332 6.92677 7.78025C7.31224 7.39478 7.39183 7.30789 7.43458 7.24217C7.65006 6.91076 7.65001 6.48278 7.43458 6.15135C7.39184 6.08561 7.31247 5.99896 6.92677 5.61326L6.73146 5.41893C6.14473 4.8322 6.01198 4.7161 5.90529 4.66209ZM14.1397 5.00389L14.2412 5.01854L14.46 5.06541C15.5471 5.31992 16.5434 5.87343 17.335 6.66502C18.1266 7.45668 18.6801 8.45281 18.9346 9.54002L18.9815 9.75877L18.9961 9.85936C19.0426 10.3642 18.6996 10.8324 18.1914 10.9316C17.6834 11.0307 17.1899 10.7261 17.043 10.2412L17.0186 10.1416L16.9502 9.85154C16.7672 9.18304 16.4134 8.57161 15.9209 8.07908C15.4285 7.58663 14.8169 7.2328 14.1484 7.04979L13.8584 6.98143L13.7588 6.95701C13.2737 6.81021 12.9692 6.31676 13.0684 5.80857C13.1675 5.30045 13.635 4.95768 14.1397 5.00389ZM14.1602 1.00584L14.5811 1.0615C16.6758 1.3847 18.6182 2.36618 20.1231 3.86912C21.7281 5.4722 22.7398 7.5738 22.9932 9.82811C23.0548 10.3769 22.6602 10.8719 22.1113 10.9336C21.5967 10.9914 21.1295 10.6479 21.0225 10.1523L21.0059 10.0517L20.961 9.71482C20.7003 8.03942 19.9128 6.48649 18.709 5.28416C17.5052 4.08206 15.9519 3.29665 14.2764 3.03807L13.9395 2.99412L13.8379 2.97752C13.3426 2.87084 12.9986 2.40411 13.0557 1.88963C13.1128 1.37512 13.5509 0.995337 14.0576 0.999981L14.1602 1.00584Z" fill="#475467"/>
</svg>
