<svg width="24" height="24" viewBox="0 0 24 24" fill="none" xmlns="http://www.w3.org/2000/svg">
<path d="M5.09962 1.87776C5.95096 1.44716 6.95629 1.44716 7.80763 1.87776C8.27165 2.11248 8.67065 2.5279 9.1465 3.00374L9.34083 3.19905C9.65434 3.51256 9.92551 3.77554 10.1113 4.06136C10.7576 5.05559 10.7576 6.33764 10.1113 7.33186C9.92551 7.61769 9.65433 7.88067 9.34083 8.19417C9.28341 8.25159 9.25387 8.28094 9.23341 8.30257L9.23146 8.31429C9.23476 8.3216 9.23899 8.33152 9.24513 8.34456C9.25473 8.36495 9.26684 8.38866 9.28224 8.42073C9.93004 9.76983 10.8131 11.0355 11.9336 12.1561C13.0542 13.2766 14.3199 14.1597 15.669 14.8075C15.701 14.8229 15.7247 14.835 15.7451 14.8446C15.7575 14.8504 15.7673 14.854 15.7744 14.8573C15.7764 14.8571 15.7788 14.8577 15.7813 14.8573C15.783 14.857 15.7846 14.8556 15.7861 14.8553C15.8078 14.8348 15.8381 14.8063 15.8955 14.7489C16.209 14.4354 16.472 14.1642 16.7578 13.9783C17.7521 13.332 19.0341 13.3321 20.0283 13.9783C20.3142 14.1642 20.5771 14.4354 20.8906 14.7489L21.4297 15.2879C21.7585 15.6224 22.0359 15.9341 22.2119 16.2821C22.6425 17.1334 22.6425 18.1387 22.2119 18.9901C21.9772 19.454 21.5608 19.8521 21.085 20.328L20.9277 20.4862C20.4288 20.9851 20.0608 21.3635 19.5557 21.6473C19.0057 21.9562 18.2157 22.1619 17.585 22.16C17.0135 22.1583 16.6021 22.0358 16.0557 21.8807C12.8625 20.9744 9.84954 19.2634 7.3379 16.7518C4.82627 14.2402 3.11533 11.2272 2.209 8.03401C2.0539 7.48757 1.93141 7.07624 1.9297 6.50472C1.92782 5.87402 2.13353 5.08395 2.4424 4.53401C2.72615 4.02888 3.10456 3.66091 3.60353 3.16194L4.10548 2.65999C4.44 2.33122 4.75164 2.0538 5.09962 1.87776ZM6.90529 3.66194C6.62151 3.51841 6.28575 3.51841 6.00197 3.66194C5.89528 3.71597 5.76245 3.83213 5.17579 4.41878L5.01759 4.57601C4.45748 5.13612 4.30626 5.29864 4.18556 5.51351C4.04575 5.76266 3.92885 6.21335 3.9297 6.49886C3.93047 6.75293 3.96765 6.90617 4.13283 7.48811C4.94843 10.3617 6.48764 13.0734 8.75197 15.3377C11.0163 17.602 13.728 19.1413 16.6016 19.9569C17.1835 20.122 17.3368 20.1592 17.5908 20.16C17.8763 20.1608 18.327 20.0439 18.5762 19.9041C18.7911 19.7834 18.9536 19.6322 19.5137 19.0721L19.6709 18.9139C20.2576 18.3273 20.3737 18.1944 20.4277 18.0877C20.5713 17.8039 20.5713 17.4682 20.4277 17.1844C20.3737 17.0777 20.2577 16.9451 19.6709 16.3582L19.4766 16.1629C19.0909 15.7772 19.0042 15.6978 18.9385 15.6551C18.607 15.4396 18.1791 15.4396 17.8477 15.6551C17.7819 15.6979 17.6952 15.7773 17.3096 16.1629C17.2165 16.256 17.0948 16.3818 16.9463 16.4881C16.4593 16.8367 15.7976 16.9496 15.2227 16.7821C15.0497 16.7316 14.9095 16.662 14.8037 16.6112C13.2538 15.867 11.802 14.8526 10.5195 13.5701C9.23707 12.2877 8.2227 10.8359 7.47853 9.28597C7.42773 9.18018 7.35806 9.04 7.30763 8.86702C7.14004 8.29206 7.25297 7.63035 7.60158 7.14339C7.70794 6.99485 7.83369 6.87318 7.92677 6.78011C8.31241 6.39446 8.39184 6.30775 8.43458 6.24202C8.65008 5.91058 8.65007 5.48264 8.43458 5.1512C8.39184 5.08546 8.31248 4.99882 7.92677 4.61311L7.73146 4.41878C7.14465 3.83197 7.01199 3.71595 6.90529 3.66194Z" fill="#475467"/>
</svg>
