<svg width="24" height="24" viewBox="0 0 24 24" fill="none" xmlns="http://www.w3.org/2000/svg">
<path d="M4.09962 2.87796C4.95096 2.44735 5.95629 2.44735 6.80763 2.87796C7.27163 3.11267 7.67067 3.5281 8.1465 4.00393L8.34083 4.19925C8.65433 4.51275 8.92551 4.77573 9.11134 5.06155C9.75758 6.0558 9.75768 7.33785 9.11134 8.33206C8.92551 8.61788 8.65434 8.88086 8.34083 9.19436C8.28339 9.2518 8.25386 9.28113 8.23341 9.30276L8.23146 9.31448C8.23475 9.32178 8.23902 9.33177 8.24513 9.34475C8.2547 9.36508 8.26692 9.38803 8.28224 9.41995C8.93006 10.7692 9.81293 12.0356 10.9336 13.1563C12.0542 14.2768 13.3199 15.1599 14.669 15.8076C14.7011 15.8231 14.7247 15.8351 14.7451 15.8448C14.7575 15.8506 14.7673 15.8542 14.7744 15.8574C14.7764 15.8573 14.7788 15.8579 14.7813 15.8574C14.783 15.8571 14.7846 15.8558 14.7861 15.8555C14.8078 15.835 14.8381 15.8065 14.8955 15.7491C15.209 15.4355 15.472 15.1644 15.7578 14.9785C16.7521 14.3322 18.0341 14.3322 19.0283 14.9785C19.3142 15.1644 19.5771 15.4355 19.8906 15.7491L20.4297 16.2881C20.7585 16.6226 21.0359 16.9343 21.2119 17.2823C21.6425 18.1336 21.6425 19.1389 21.2119 19.9903C20.9772 20.4542 20.5608 20.8524 20.085 21.3282L19.9277 21.4864C19.4288 21.9853 19.0608 22.3637 18.5557 22.6475C18.0057 22.9563 17.2156 23.1621 16.585 23.1602C16.0135 23.1585 15.6021 23.036 15.0557 22.8809C11.8625 21.9746 8.84953 20.2636 6.3379 17.752C3.82627 15.2403 2.11533 12.2274 1.209 9.03421C1.05389 8.48775 0.93143 8.07641 0.9297 7.50491C0.927823 6.87425 1.13356 6.08414 1.4424 5.53421C1.72614 5.02909 2.10459 4.66107 2.60353 4.16214L3.10548 3.66018C3.44001 3.3314 3.75164 3.05401 4.09962 2.87796ZM5.90529 4.66214C5.62151 4.5186 5.28575 4.5186 5.00197 4.66214C4.89529 4.71617 4.76236 4.83241 4.17579 5.41897L4.01759 5.5762C3.45753 6.13626 3.30626 6.29884 3.18556 6.5137C3.04577 6.76287 2.92885 7.21357 2.9297 7.49905C2.93048 7.75306 2.96765 7.90637 3.13283 8.48831C3.94843 11.3619 5.48764 14.0736 7.75197 16.3379C10.0163 18.6022 12.728 20.1405 15.6016 20.9561C16.1837 21.1213 16.3367 21.1594 16.5908 21.1602C16.8765 21.161 17.3271 21.0432 17.5762 20.9033C17.791 20.7827 17.9536 20.6324 18.5137 20.0723L18.6709 19.9141C19.2579 19.3271 19.3738 19.1937 19.4277 19.0869C19.571 18.8033 19.5712 18.4682 19.4277 18.1846C19.3738 18.0779 19.2579 17.9445 18.6709 17.3574L18.4766 17.1631C18.091 16.7775 18.0042 16.698 17.9385 16.6553C17.607 16.4398 17.1791 16.4398 16.8477 16.6553C16.7819 16.6981 16.6951 16.7776 16.3096 17.1631C16.2165 17.2562 16.0948 17.382 15.9463 17.4883C15.4594 17.8369 14.7976 17.9498 14.2227 17.7823C14.0497 17.7318 13.9095 17.6621 13.8037 17.6114C12.2538 16.8672 10.802 15.8528 9.51954 14.5703C8.23707 13.2879 7.2227 11.8361 6.47853 10.2862C6.42774 10.1804 6.35807 10.0402 6.30763 9.86721C6.14003 9.29228 6.25301 8.63055 6.60158 8.14358C6.70792 7.99507 6.8337 7.87337 6.92677 7.7803C7.31224 7.39483 7.39183 7.30793 7.43458 7.24221C7.65006 6.91081 7.65001 6.48282 7.43458 6.15139C7.39184 6.08566 7.31247 5.99901 6.92677 5.61331L6.73146 5.41897C6.14473 4.83224 6.01198 4.71615 5.90529 4.66214ZM16.793 2.293C17.1592 1.92699 17.7382 1.90414 18.1309 2.22464L18.207 2.293L21.707 5.793C22.0973 6.18347 22.0973 6.81658 21.707 7.20706L18.207 10.7071C17.8166 11.0975 17.1835 11.0974 16.793 10.7071C16.4025 10.3165 16.4025 9.68352 16.793 9.293L18.586 7.50003H13C12.4477 7.50003 12 7.05231 12 6.50003C12 5.94774 12.4477 5.50003 13 5.50003H18.586L16.793 3.70706L16.7236 3.63089C16.4035 3.23812 16.427 2.65902 16.793 2.293Z" fill="#475467"/>
</svg>
