<svg width="24" height="24" viewBox="0 0 24 24" fill="none" xmlns="http://www.w3.org/2000/svg">
<path d="M7.60059 1.91353C8.10675 1.69272 8.69612 1.92398 8.917 2.43013C9.13783 2.93629 8.90654 3.52565 8.40039 3.74654C7.05306 4.33449 5.86996 5.24334 4.95508 6.394C4.04019 7.54474 3.42148 8.90283 3.15235 10.3481C2.8833 11.7932 2.97185 13.2822 3.41114 14.685C3.8505 16.0879 4.62741 17.3624 5.67286 18.396C6.71813 19.4292 8.00069 20.1904 9.40821 20.6137C10.8161 21.037 12.3069 21.1093 13.749 20.8237C15.1908 20.5381 16.5407 19.9037 17.6807 18.976C18.8209 18.0481 19.7165 16.8545 20.2891 15.5004C20.5041 14.9918 21.091 14.7542 21.5996 14.9692C22.1083 15.1843 22.3469 15.7711 22.1318 16.2797C21.432 17.9346 20.3369 19.3926 18.9434 20.5268C17.5498 21.661 15.8993 22.4365 14.1367 22.7856C12.3744 23.1346 10.5535 23.047 8.83301 22.5297C7.11237 22.0124 5.54435 21.081 4.26661 19.8178C2.98884 18.5546 2.03993 16.9974 1.50293 15.2827C0.965999 13.5681 0.856698 11.7482 1.18555 9.98189C1.51448 8.21549 2.27149 6.55629 3.38965 5.14986C4.50786 3.7434 5.95376 2.63218 7.60059 1.91353ZM12.0459 1.0815C12.3991 0.975134 12.7468 1.02493 12.8799 1.0356C14.0232 1.1273 15.147 1.39706 16.21 1.83736C17.5445 2.39016 18.7569 3.20069 19.7783 4.22212C20.7998 5.24356 21.6103 6.45591 22.1631 7.79048C22.6034 8.85346 22.8731 9.97728 22.9648 11.1206C22.977 11.2726 23.0398 11.7043 22.8633 12.1049C22.7311 12.4047 22.4923 12.664 22.2041 12.8198C21.9841 12.9386 21.7719 12.9747 21.6162 12.9887C21.4778 13.0012 21.3211 13.0004 21.2002 13.0004H12.8008C12.6773 13.0004 12.5242 13.0006 12.3906 12.9897C12.2454 12.9778 12.0373 12.9474 11.8193 12.8364C11.5372 12.6926 11.3079 12.4632 11.1641 12.1811C11.053 11.9632 11.0226 11.755 11.0107 11.6098C10.9998 11.4763 11 11.3232 11 11.1997V2.80025C11 2.67938 10.9993 2.52268 11.0117 2.38423C11.0258 2.2285 11.0618 2.01638 11.1807 1.79634L11.2441 1.69087C11.4022 1.45027 11.6332 1.25279 11.8955 1.13716L12.0459 1.0815ZM13 11.0004H20.9434C20.8496 10.1618 20.6396 9.33876 20.3154 8.55611C19.8631 7.46418 19.2 6.47191 18.3643 5.63619C17.5285 4.80046 16.5363 4.13731 15.4443 3.68501C14.6617 3.36084 13.8386 3.14984 13 3.05611V11.0004Z" fill="#475467"/>
</svg>
