<svg width="24" height="24" viewBox="0 0 24 24" fill="none" xmlns="http://www.w3.org/2000/svg">
<path d="M14.5734 1.2366L14.7687 1.26589L14.9103 1.30105C15.2313 1.39668 15.4836 1.57767 15.6779 1.73953C15.8978 1.92288 16.1459 2.17237 16.4122 2.43875L21.5548 7.58132C21.8211 7.84761 22.0697 8.09483 22.2531 8.31472C22.4382 8.53677 22.6486 8.83492 22.7277 9.22488C22.8324 9.74139 22.7286 10.2783 22.4396 10.719C22.2214 11.0517 21.9156 11.2505 21.6613 11.388C21.4094 11.5241 21.0866 11.6615 20.7404 11.8098L18.2462 12.8792C18.1895 12.9035 18.1607 12.915 18.1408 12.9241L18.1398 12.9261C18.1239 12.9412 18.1024 12.9625 18.0587 13.0061L16.4972 14.5667C16.429 14.6349 16.3958 14.6693 16.3722 14.6946L16.3702 14.6956V14.6985C16.3623 14.7322 16.3521 14.7787 16.3331 14.8733L15.6007 18.5384C15.5094 18.9949 15.4283 19.4056 15.3331 19.7259C15.2409 20.0363 15.0889 20.4371 14.7472 20.7405C14.3098 21.1286 13.7239 21.3062 13.1447 21.2259C12.6919 21.163 12.3429 20.9135 12.0939 20.7063C11.8371 20.4926 11.5413 20.1957 11.212 19.8665L8.37611 17.0305L3.42689 21.9807C3.03641 22.371 2.4033 22.371 2.01283 21.9807C1.62237 21.5903 1.6225 20.9572 2.01283 20.5667L6.96204 15.6165L4.12708 12.7805C3.79777 12.4512 3.50097 12.1556 3.28724 11.8987C3.08 11.6497 2.82951 11.3007 2.76673 10.8479C2.68661 10.2689 2.86413 9.68364 3.25208 9.24636C3.55552 8.90439 3.95712 8.75269 4.26771 8.66043C4.58796 8.5653 4.99868 8.48415 5.45521 8.39285L9.12025 7.65945C9.21462 7.64057 9.2614 7.63127 9.29505 7.62332L9.29896 7.62136C9.32428 7.59774 9.35859 7.56368 9.42689 7.49539L10.9874 5.93484C11.0311 5.89118 11.0523 5.86966 11.0675 5.85379C11.0684 5.85287 11.0687 5.85161 11.0695 5.85086C11.0785 5.83095 11.0904 5.80331 11.1144 5.74734L12.1837 3.25222C12.3321 2.90611 12.4695 2.58316 12.6056 2.33132C12.7429 2.07724 12.9414 1.77204 13.2736 1.55398C13.6591 1.30113 14.1186 1.1903 14.5734 1.2366ZM14.3644 3.2825C14.2816 3.43573 14.185 3.65898 14.0216 4.04031L12.9533 6.53445C12.9165 6.62024 12.8689 6.73454 12.8058 6.845C12.7554 6.93315 12.698 7.01746 12.6349 7.09695C12.5558 7.19659 12.4675 7.28286 12.4015 7.3489L10.841 8.91043C10.738 9.01336 10.6041 9.15216 10.4425 9.26492C10.3139 9.35465 10.1745 9.42832 10.0285 9.48562C9.84487 9.55763 9.65466 9.5928 9.51185 9.62136L5.84779 10.3538C5.35218 10.4529 5.04857 10.5146 4.83704 10.5774C4.82437 10.5812 4.81282 10.5857 4.80189 10.5891C4.80917 10.5982 4.81573 10.609 4.82435 10.6194C4.9655 10.789 5.18374 11.0091 5.54115 11.3665L12.6271 18.4524C12.9843 18.8097 13.2036 19.0281 13.3732 19.1692C13.3831 19.1775 13.3937 19.1836 13.4025 19.1907C13.4059 19.1799 13.4124 19.1691 13.4161 19.1565C13.479 18.945 13.5407 18.6414 13.6398 18.1458L14.3722 14.4807C14.4007 14.338 14.4351 14.1485 14.507 13.9651C14.5643 13.819 14.6388 13.6798 14.7286 13.5511C14.8414 13.3894 14.9802 13.2556 15.0831 13.1526L16.6437 11.5921C16.7097 11.526 16.7969 11.4369 16.8966 11.3577C16.9759 11.2948 17.0597 11.238 17.1476 11.1878C17.258 11.1247 17.3723 11.0771 17.4581 11.0403L19.9533 9.97097C20.3344 9.80764 20.5579 9.71097 20.7111 9.6282C20.7186 9.62414 20.725 9.61918 20.7316 9.6155C20.7268 9.60958 20.7225 9.60262 20.7169 9.59597C20.6054 9.46218 20.4342 9.28883 20.1408 8.99539L14.9972 3.85281C14.7039 3.5595 14.5314 3.38817 14.3976 3.27664C14.3906 3.27081 14.3833 3.26602 14.3771 3.26101C14.3733 3.26777 14.3686 3.27475 14.3644 3.2825Z" fill="#475467"/>
</svg>
