<svg width="24" height="24" viewBox="0 0 24 24" fill="none" xmlns="http://www.w3.org/2000/svg">
<path d="M17.6534 5.93262C18.0195 5.56678 18.5986 5.54403 18.9913 5.86426L19.0674 5.93262L19.3243 6.19922C20.5824 7.55444 21.4412 9.23434 21.8028 11.0527C22.1884 12.9924 21.9903 15.0031 21.2335 16.8301C20.4765 18.657 19.1951 20.2187 17.5508 21.3174C15.9064 22.4161 13.9728 23.0029 11.9952 23.0029C10.0175 23.0029 8.08393 22.4161 6.43951 21.3174C4.79529 20.2187 3.5138 18.657 2.75689 16.8301C2.00002 15.0031 1.80199 12.9923 2.18756 11.0527C2.57322 9.11323 3.52484 7.33114 4.92291 5.93262C5.31332 5.54226 5.94643 5.54239 6.33697 5.93262C6.72756 6.32308 6.72743 6.95609 6.33697 7.34668C5.21844 8.46559 4.45696 9.89161 4.14849 11.4434C3.84009 12.9951 3.999 14.6038 4.60455 16.0654C5.21015 17.5269 6.23543 18.7764 7.55084 19.6553C8.86634 20.5341 10.4131 21.0029 11.9952 21.0029C13.5772 21.0029 15.124 20.5341 16.4395 19.6553C17.7549 18.7764 18.7802 17.5269 19.3858 16.0654C19.9913 14.6038 20.1503 12.9951 19.8419 11.4434C19.5527 9.98861 18.8649 8.64478 17.8585 7.56055L17.6534 7.34668L17.584 7.27148C17.2636 6.87866 17.2872 6.29872 17.6534 5.93262ZM11.0001 12V2C11.0001 1.44776 11.4478 1.00007 12.0001 1C12.5523 1 13.0001 1.44772 13.0001 2V12C13.0001 12.5523 12.5523 13 12.0001 13C11.4478 12.9999 11.0001 12.5522 11.0001 12Z" fill="#475467"/>
</svg>
