<svg width="24" height="24" viewBox="0 0 24 24" fill="none" xmlns="http://www.w3.org/2000/svg">
<path d="M9.77831 2.24805C10.3168 2.12587 10.8532 2.46354 10.9756 3.00195C11.0978 3.54045 10.7601 4.07688 10.2217 4.19922C8.80097 4.52157 7.45076 5.23478 6.34276 6.34277C3.2188 9.46685 3.21899 14.5321 6.34276 17.6562C7.52036 18.8339 8.38314 19.6111 8.99999 20.123V16C8.99999 15.4477 9.44771 15 9.99999 15C10.5523 15 11 15.4477 11 16V22C10.9999 22.5522 10.5522 23 9.99999 23H3.99999C3.44772 23 3.00001 22.5523 2.99999 22C2.99999 21.4477 3.44772 21 3.99999 21H6.95507C6.39641 20.5001 5.72709 19.8697 4.9287 19.0713C1.02349 15.1661 1.02355 8.83396 4.9287 4.92871C6.31118 3.54624 8.00056 2.65147 9.77831 2.24805ZM13 8V2C13 1.73478 13.1054 1.48051 13.293 1.29297C13.4805 1.10543 13.7348 1 14 1H20L20.1025 1.00488C20.6067 1.05621 21 1.48232 21 2C21 2.55228 20.5523 3 20 3H17.0449C17.6036 3.49987 18.2729 4.13033 19.0713 4.92871C22.9765 8.83395 22.9765 15.166 19.0713 19.0713C17.6888 20.4537 15.9994 21.3475 14.2217 21.751L14.1201 21.7686C13.6171 21.8301 13.139 21.5019 13.0244 20.9971C12.9025 20.4587 13.2401 19.9231 13.7783 19.8008C15.199 19.4784 16.5492 18.7652 17.6572 17.6572C20.7814 14.533 20.7814 9.46697 17.6572 6.34277C16.4794 5.16493 15.6169 4.38796 15 3.87598V8C15 8.55228 14.5523 9 14 9C13.4477 9 13 8.55228 13 8Z" fill="#475467"/>
</svg>
