<svg width="24" height="24" viewBox="0 0 24 24" fill="none" xmlns="http://www.w3.org/2000/svg">
<path d="M20.5586 11.8989C21.1076 11.9573 21.5055 12.4495 21.4473 12.9985C21.1371 15.9125 19.4845 18.6486 16.749 20.228C12.6203 22.6114 7.44622 21.5433 4.5674 17.9194L4.45901 18.3246C4.31606 18.8581 3.76786 19.1746 3.2344 19.0317C2.70097 18.8887 2.38443 18.3405 2.52737 17.8071L3.25979 15.0756L3.29104 14.978C3.471 14.5041 3.98426 14.2346 4.4844 14.3686L7.21584 15.1C7.74924 15.243 8.06569 15.7912 7.92287 16.3246C7.77993 16.8581 7.23173 17.1746 6.69826 17.0317L6.35549 16.9399C8.66505 19.5845 12.5934 20.3173 15.749 18.4955C17.9074 17.2494 19.2135 15.0932 19.459 12.7875C19.5175 12.2384 20.0095 11.8405 20.5586 11.8989ZM4.54006 11.2133C4.48139 11.7622 3.98944 12.1594 3.44045 12.101C2.89133 12.0426 2.49343 11.5505 2.55178 11.0014L4.54006 11.2133ZM7.25002 3.77289C11.3787 1.38924 16.5527 2.45667 19.4317 6.0805L19.541 5.67523C19.684 5.14184 20.2322 4.82527 20.7656 4.9682C21.2989 5.11126 21.6155 5.65949 21.4727 6.19281L20.7403 8.92523C20.6716 9.18121 20.5039 9.39911 20.2744 9.53168C20.0448 9.66427 19.7718 9.70088 19.5156 9.63226L16.7832 8.89984C16.25 8.75674 15.9333 8.20855 16.0762 7.67523C16.2102 7.17508 16.7008 6.86563 17.2012 6.94671L17.3008 6.9682L17.6436 7.06C15.334 4.41554 11.4056 3.68269 8.25002 5.50433C6.09155 6.75053 4.78549 8.90759 4.54006 11.2133L2.55178 11.0014C2.86196 8.08734 4.51452 5.35223 7.25002 3.77289Z" fill="#475467"/>
</svg>
