<svg width="24" height="24" viewBox="0 0 24 24" fill="none" xmlns="http://www.w3.org/2000/svg">
<path d="M17.8401 6.57788C18.0199 6.10393 18.5332 5.83359 19.0334 5.96753L21.7658 6.69995L21.8625 6.7312C22.3365 6.911 22.6068 7.42434 22.4729 7.92456C22.3388 8.42473 21.8482 8.7342 21.3479 8.65307L21.2483 8.63159L20.841 8.52221C22.541 12.8277 20.8794 17.8433 16.7502 20.2273C14.0147 21.8066 10.8196 21.8698 8.14083 20.6814C7.63625 20.4574 7.40829 19.8668 7.63204 19.3621C7.84205 18.8887 8.37489 18.6593 8.85665 18.8171L8.95236 18.8533L9.35372 19.0183C11.385 19.7829 13.7266 19.6632 15.7502 18.4949C18.9056 16.673 20.235 12.9051 19.0998 9.58276L19.009 9.92456L18.9768 10.0222C18.7967 10.4959 18.2835 10.7656 17.7834 10.6316C17.2502 10.4885 16.9335 9.94031 17.0764 9.40698L17.8088 6.67456L17.8401 6.57788ZM7.24923 3.77319C9.98473 2.19385 13.1799 2.13068 15.8586 3.31909C16.3634 3.54306 16.5914 4.13359 16.3674 4.63843C16.1574 5.11153 15.6253 5.34079 15.1438 5.18335L15.0481 5.14721L14.6457 4.98218C12.6145 4.21773 10.2728 4.33635 8.24923 5.50464C5.09405 7.32639 3.76489 11.0946 4.89962 14.4167L4.99142 14.0749C5.13435 13.5416 5.68265 13.2251 6.21603 13.3679C6.74948 13.5109 7.06597 14.0591 6.92306 14.5925L6.19161 17.3249C6.12295 17.581 5.95539 17.7998 5.72579 17.9324C5.49623 18.0649 5.22306 18.1005 4.967 18.032L2.23458 17.2996C1.70113 17.1566 1.38461 16.6084 1.52755 16.0749C1.67053 15.5416 2.21874 15.225 2.75216 15.3679L3.15743 15.4763C1.45885 11.1714 3.12093 6.15696 7.24923 3.77319Z" fill="#475467"/>
</svg>
