<svg width="24" height="24" viewBox="0 0 24 24" fill="none" xmlns="http://www.w3.org/2000/svg">
<path d="M4.92871 4.92869C8.83395 1.02345 15.166 1.02345 19.0713 4.92869C20.4537 6.31112 21.3475 8.0006 21.751 9.7783C21.8732 10.3169 21.5357 10.8534 20.9971 10.9756C20.4925 11.0898 19.9908 10.8002 19.8291 10.3203L19.8008 10.2217L19.7363 9.95603C19.3883 8.63297 18.6961 7.38159 17.6572 6.34275C14.533 3.21856 9.46697 3.21856 6.34277 6.34275C5.16493 7.5206 4.38796 8.3831 3.87598 8.99998H8C8.55228 8.99998 9 9.44769 9 9.99998C9 10.5523 8.55228 11 8 11H2C1.44772 11 1 10.5523 1 9.99998V3.99998C1 3.44769 1.44772 2.99998 2 2.99998C2.55228 2.99998 3 3.44769 3 3.99998V6.95506C3.49987 6.39639 4.13033 5.72707 4.92871 4.92869ZM23 20C23 20.5523 22.5523 21 22 21C21.4477 21 21 20.5523 21 20V17.0439C20.5001 17.6027 19.8699 18.2726 19.0713 19.0713C15.166 22.9765 8.83395 22.9765 4.92871 19.0713C3.63261 17.7752 2.7658 16.2092 2.33008 14.5537L2.24902 14.2217L2.23145 14.1201C2.16995 13.6171 2.49808 13.1389 3.00293 13.0244C3.50752 12.9101 4.00922 13.1997 4.1709 13.6797L4.19922 13.7783L4.26367 14.0439C4.61172 15.367 5.30393 16.6184 6.34277 17.6572C9.46697 20.7814 14.533 20.7814 17.6572 17.6572C18.8351 16.4794 19.612 15.6169 20.124 15H16C15.4477 15 15 14.5523 15 14C15 13.4477 15.4477 13 16 13H22C22.5523 13 23 13.4477 23 14V20Z" fill="#475467"/>
</svg>
