<svg width="24" height="24" viewBox="0 0 24 24" fill="none" xmlns="http://www.w3.org/2000/svg">
<path d="M14.1201 2.23145L14.2217 2.24902L14.5537 2.33008C16.2092 2.7658 17.7752 3.63262 19.0713 4.92871C22.9765 8.83395 22.9765 15.166 19.0713 19.0713C18.2729 19.8697 17.6036 20.5001 17.0449 21H20C20.5523 21 21 21.4477 21 22C21 22.5523 20.5523 23 20 23H14C13.7348 23 13.4805 22.8946 13.293 22.707C13.1054 22.5195 13 22.2652 13 22V16C13 15.4477 13.4477 15 14 15C14.5523 15 15 15.4477 15 16V20.123C15.6168 19.6111 16.4797 18.8348 17.6572 17.6572C20.7814 14.533 20.7814 9.46697 17.6572 6.34277C16.6184 5.30393 15.367 4.61172 14.0439 4.26367L13.7783 4.19922L13.6797 4.1709C13.1997 4.00922 12.9101 3.50752 13.0244 3.00293C13.139 2.49808 13.6171 2.16995 14.1201 2.23145ZM11 8C11 8.55228 10.5523 9 9.99999 9C9.4477 9 8.99999 8.55228 8.99999 8V3.87598C8.3831 4.38796 7.52067 5.16584 6.34276 6.34375C3.21899 9.46794 3.2188 14.5332 6.34276 17.6572C7.38159 18.6961 8.633 19.3883 9.95604 19.7363L10.2217 19.8008L10.3203 19.8291C10.8004 19.9908 11.0901 20.4933 10.9756 20.998C10.8609 21.5027 10.3827 21.831 9.87987 21.7695L9.77831 21.752L9.44628 21.6699C7.79078 21.2342 6.22478 20.3674 4.9287 19.0713C1.02355 15.166 1.02349 8.83392 4.9287 4.92871C5.72709 4.13033 6.39641 3.49986 6.95507 3H3.99999C3.44772 2.99998 2.99999 2.55227 2.99999 2C3.00001 1.44773 3.44772 0.999999 3.99999 1H9.99999C10.5522 1.00002 10.9999 1.44782 11 2V8Z" fill="#475467"/>
</svg>
