<svg width="24" height="24" viewBox="0 0 24 24" fill="none" xmlns="http://www.w3.org/2000/svg">
<path d="M6.29297 13.293C6.68349 12.9025 7.31651 12.9025 7.70703 13.293C8.09756 13.6835 8.09756 14.3166 7.70703 14.7071L5.41406 17H16.2002C17.0566 17 17.6388 16.9997 18.0889 16.9629C18.5273 16.9271 18.7518 16.862 18.9082 16.7823C19.2845 16.5905 19.5905 16.2845 19.7822 15.9082C19.8619 15.7519 19.9271 15.5273 19.9629 15.0889C19.9997 14.6389 20 14.0566 20 13.2002V13C20 12.4478 20.4477 12 21 12C21.5523 12 22 12.4478 22 13V13.2002C22 14.0237 22.001 14.7016 21.9561 15.252C21.9101 15.8141 21.8117 16.3311 21.5645 16.8165C21.181 17.569 20.5689 18.181 19.8164 18.5645C19.3311 18.8118 18.814 18.9102 18.252 18.9561C17.7016 19.0011 17.0237 19 16.2002 19H5.41406L7.70703 21.293L7.77539 21.3692C8.09574 21.762 8.07315 22.341 7.70703 22.7071C7.34092 23.0732 6.76192 23.0958 6.36914 22.7754L6.29297 22.7071L2.29297 18.7071C1.90245 18.3166 1.90245 17.6835 2.29297 17.293L6.29297 13.293ZM2 11V10.7999C2 9.97636 1.99898 9.29847 2.04395 8.74809C2.08988 8.18604 2.18827 7.66895 2.43555 7.18364C2.81902 6.43113 3.43109 5.81906 4.1836 5.43559C4.6689 5.18832 5.18599 5.08992 5.74805 5.04399C6.29843 4.99902 6.97632 5.00005 7.79981 5.00005H18.5859L16.293 2.70708L16.2246 2.63091C15.9043 2.23813 15.9269 1.65913 16.293 1.29302C16.6835 0.902491 17.3165 0.902491 17.707 1.29302L21.707 5.29302C22.0976 5.68354 22.0976 6.31655 21.707 6.70708L17.707 10.7071C17.3165 11.0976 16.6835 11.0976 16.293 10.7071C15.9024 10.3166 15.9024 9.68354 16.293 9.29302L18.5859 7.00005H7.79981C6.94342 7.00005 6.36117 7.0004 5.91113 7.03716C5.47272 7.07298 5.2482 7.13813 5.0918 7.21782C4.71555 7.40955 4.40951 7.71559 4.21778 8.09184C4.13809 8.24824 4.07293 8.47276 4.03711 8.91118C4.00035 9.36122 4 9.94346 4 10.7999V11C4 11.5523 3.55229 12 3 12C2.44772 12 2 11.5523 2 11Z" fill="#475467"/>
</svg>
