<svg width="24" height="24" viewBox="0 0 24 24" fill="none" xmlns="http://www.w3.org/2000/svg">
<path d="M21 12C21 9.75774 19.7701 7.80084 17.9443 6.77055L17.5713 6.5772L17.4805 6.52837C17.0471 6.26568 16.8746 5.71178 17.0967 5.24419C17.319 4.77656 17.8575 4.5611 18.335 4.73149L18.4287 4.77055L18.6797 4.89458C21.2447 6.22539 23 8.90691 23 12C23 16.4183 19.4183 20 15 20H12.4141L13.707 21.293L13.7754 21.3692C14.0957 21.762 14.0731 22.341 13.707 22.7071C13.3409 23.0732 12.7619 23.0958 12.3691 22.7754L12.293 22.7071L9.29297 19.7071C8.90244 19.3166 8.90244 18.6835 9.29297 18.293L12.293 15.293C12.6835 14.9025 13.3165 14.9025 13.707 15.293C14.0976 15.6835 14.0976 16.3166 13.707 16.7071L12.4141 18H15C18.3137 18 21 15.3138 21 12ZM1 12C1 7.58177 4.58172 4.00005 9 4.00005H11.5859L10.293 2.70708L10.2246 2.63091C9.90426 2.23813 9.92685 1.65913 10.293 1.29302C10.6835 0.902491 11.3165 0.902491 11.707 1.29302L14.707 4.29302C15.0976 4.68354 15.0976 5.31655 14.707 5.70708L11.707 8.70708C11.3165 9.0976 10.6835 9.0976 10.293 8.70708C9.90244 8.31655 9.90244 7.68354 10.293 7.29302L11.5859 6.00005H9C5.68629 6.00005 3 8.68634 3 12C3 14.3919 4.39951 16.4587 6.42871 17.4229C6.92757 17.6599 7.1403 18.257 6.90332 18.7559C6.68099 19.2235 6.1425 19.439 5.66504 19.2686L5.57129 19.2295L5.32031 19.1055C2.75534 17.7747 1 15.0932 1 12Z" fill="#475467"/>
</svg>
