<svg width="24" height="24" viewBox="0 0 24 24" fill="none" xmlns="http://www.w3.org/2000/svg">
<path d="M21 14.2002V8.50005C21 8.0042 20.9974 7.85286 20.9824 7.7393C20.8643 6.84184 20.1582 6.13578 19.2608 6.01762C19.1472 6.0027 18.9959 6.00005 18.5 6.00005C17.9477 6.00005 17.5 5.55233 17.5 5.00005C17.5 4.44776 17.9477 4.00005 18.5 4.00005C18.9327 4.00005 19.2462 3.99785 19.5225 4.03423C21.3171 4.27065 22.7294 5.68293 22.9658 7.47759C23.0022 7.7539 23 8.06741 23 8.50005V14.2002C23 15.0237 23.001 15.7016 22.9561 16.252C22.9102 16.8141 22.8118 17.3311 22.5645 17.8165C22.181 18.569 21.5689 19.181 20.8164 19.5645C20.3311 19.8118 19.814 19.9102 19.252 19.9561C18.7016 20.0011 18.0237 20 17.2002 20H12.4141L13.7071 21.293L13.7754 21.3692C14.0958 21.762 14.0732 22.341 13.7071 22.7071C13.3409 23.0732 12.7619 23.0958 12.3692 22.7754L12.293 22.7071L9.29299 19.7071C8.90247 19.3166 8.90247 18.6835 9.29299 18.293L12.293 15.293C12.6835 14.9025 13.3165 14.9025 13.7071 15.293C14.0976 15.6835 14.0976 16.3166 13.7071 16.7071L12.4141 18H17.2002C18.0566 18 18.6389 17.9997 19.0889 17.9629C19.5273 17.9271 19.7518 17.862 19.9082 17.7823C20.2845 17.5905 20.5905 17.2845 20.7823 16.9082C20.8619 16.7519 20.9271 16.5273 20.9629 16.0889C20.9997 15.6389 21 15.0566 21 14.2002ZM1.00003 15.5V9.79985C1.00003 8.97636 0.999003 8.29847 1.04397 7.74809C1.0899 7.18604 1.1883 6.66895 1.43557 6.18364C1.81904 5.43113 2.43111 4.81906 3.18362 4.43559C3.66892 4.18832 4.18602 4.08992 4.74807 4.04399C5.29845 3.99902 5.97634 4.00005 6.79983 4.00005H11.586L10.293 2.70708L10.2246 2.63091C9.90428 2.23813 9.92688 1.65913 10.293 1.29302C10.6835 0.902491 11.3165 0.902491 11.7071 1.29302L14.7071 4.29302C15.0976 4.68354 15.0976 5.31655 14.7071 5.70708L11.7071 8.70708C11.3165 9.0976 10.6835 9.0976 10.293 8.70708C9.90247 8.31655 9.90247 7.68354 10.293 7.29302L11.586 6.00005H6.79983C5.94344 6.00005 5.3612 6.0004 4.91116 6.03716C4.47274 6.07298 4.24822 6.13813 4.09182 6.21782C3.71557 6.40955 3.40953 6.71559 3.2178 7.09184C3.13811 7.24824 3.07295 7.47276 3.03713 7.91118C3.00037 8.36122 3.00003 8.94346 3.00003 9.79985V15.5C3.00003 15.9959 3.00268 16.1472 3.0176 16.2608C3.13576 17.1583 3.84182 17.8643 4.73928 17.9825C4.85284 17.9974 5.00418 18 5.50003 18C6.05231 18 6.50003 18.4478 6.50003 19C6.50003 19.5523 6.05231 20 5.50003 20C5.06739 20 4.75388 20.0022 4.47756 19.9659C2.68291 19.7294 1.27063 18.3172 1.03421 16.5225C0.997828 16.2462 1.00003 15.9327 1.00003 15.5Z" fill="#475467"/>
</svg>
