<svg width="24" height="24" viewBox="0 0 24 24" fill="none" xmlns="http://www.w3.org/2000/svg">
<path d="M19 13C19 10.2386 16.7614 8.00005 14 8.00005H6.41406L8.70703 10.293L8.77539 10.3692C9.09574 10.762 9.07315 11.341 8.70703 11.7071C8.34092 12.0732 7.76191 12.0958 7.36914 11.7754L7.29297 11.7071L3.29297 7.70708C2.90244 7.31655 2.90244 6.68354 3.29297 6.29302L7.29297 2.29302C7.68349 1.90249 8.31651 1.90249 8.70703 2.29302C9.09756 2.68354 9.09756 3.31655 8.70703 3.70708L6.41406 6.00005H14C17.866 6.00005 21 9.13405 21 13C21 16.866 17.866 20 14 20H4C3.44772 20 3 19.5523 3 19C3 18.4478 3.44772 18 4 18H14C16.7614 18 19 15.7615 19 13Z" fill="#475467"/>
</svg>
