<svg width="24" height="24" viewBox="0 0 24 24" fill="none" xmlns="http://www.w3.org/2000/svg">
<path d="M19.1832 1.28468C21.2137 0.946269 22.9738 2.70636 22.6354 4.73683L21.818 9.64308C21.6936 10.3896 21.3267 11.0742 20.774 11.5913L17.1744 14.9575L17.9313 17.2241C18.152 17.8863 18.011 18.6161 17.5602 19.1489L15.1432 22.0054C14.1533 23.1752 12.2688 22.8436 11.7389 21.4058L11.0719 19.5942C9.57459 19.9263 7.97171 19.6424 6.6627 18.7495L4.20664 21.2066C3.81612 21.5971 3.18311 21.5971 2.79258 21.2066C2.40208 20.816 2.40206 20.183 2.79258 19.7925L5.23496 17.3491C4.29171 16.0238 3.98496 14.3807 4.32481 12.8482L2.51426 12.1812C1.0764 11.6513 0.743891 9.76672 1.91368 8.77687L4.7711 6.35987C5.30393 5.90902 6.03373 5.76806 6.6959 5.98878L8.96153 6.74464L12.3287 3.14601C12.8458 2.59338 13.5304 2.22649 14.277 2.10206L19.1832 1.28468ZM13.7047 18.2046C13.4571 18.4362 13.1926 18.6392 12.9176 18.8179L13.6158 20.7144L16.0338 17.8569L15.568 16.4605L13.7047 18.2046ZM7.17637 11.5816C6.05371 12.7816 5.89376 14.5438 6.68028 15.9038L12.2926 10.2925C12.6831 9.90235 13.3162 9.90211 13.7066 10.2925C14.097 10.6829 14.0968 11.316 13.7066 11.7066L8.11582 17.2964C9.4612 18.0187 11.1676 17.8398 12.3385 16.7446L15.3414 13.9351C15.3503 13.9268 15.3586 13.9177 15.3678 13.9097L19.3531 10.1812C18.6186 9.10786 17.7657 8.07228 16.7936 7.10011C15.8305 6.13703 14.8053 5.29097 13.7428 4.56105L7.17637 11.5816ZM3.20567 10.3042L5.10118 11.0015C5.27986 10.7266 5.48388 10.4629 5.71543 10.2153L7.4586 8.35109L6.06309 7.88624L3.20567 10.3042ZM19.5123 3.25734L16.1109 3.82374C16.8336 4.39388 17.5354 5.01383 18.2076 5.68605C18.8893 6.36771 19.5177 7.07961 20.0943 7.813L20.6627 4.40773C20.7755 3.73093 20.1891 3.14455 19.5123 3.25734Z" fill="#475467"/>
</svg>
