<svg width="24" height="24" viewBox="0 0 24 24" fill="none" xmlns="http://www.w3.org/2000/svg">
<path d="M13.0001 16.5996C13.0001 16.3034 12.9989 16.141 12.9893 16.0244C12.989 16.0199 12.9878 16.0158 12.9874 16.0117C12.9837 16.0114 12.9798 16.0111 12.9757 16.0108C12.8591 16.0012 12.6968 16 12.4005 16H11.5997C11.3034 16 11.141 16.0012 11.0245 16.0108C11.02 16.0111 11.0158 16.0114 11.0118 16.0117C11.0114 16.0157 11.0112 16.02 11.0108 16.0244C11.0013 16.141 11.0001 16.3034 11.0001 16.5996V20.4004C11.0001 20.6967 11.0013 20.8591 11.0108 20.9756C11.0112 20.9797 11.0115 20.9836 11.0118 20.9873C11.0158 20.9877 11.02 20.9889 11.0245 20.9893C11.141 20.9988 11.3034 21 11.5997 21H12.4005C12.6968 21 12.8591 20.9988 12.9757 20.9893C12.9798 20.9889 12.9836 20.9877 12.9874 20.9873C12.9877 20.9836 12.989 20.9797 12.9893 20.9756C12.9989 20.8591 13.0001 20.6967 13.0001 20.4004V16.5996ZM15.0001 20.4004C15.0001 20.6638 15.0012 20.9219 14.9835 21.1387C14.9648 21.3672 14.9205 21.637 14.7823 21.9082C14.5906 22.2845 14.2845 22.5905 13.9083 22.7823C13.637 22.9205 13.3673 22.9647 13.1388 22.9834C12.9219 23.0011 12.6639 23 12.4005 23H11.5997C11.3363 23 11.0782 23.0011 10.8614 22.9834C10.6329 22.9647 10.3631 22.9205 10.0919 22.7823C9.71563 22.5905 9.40959 22.2845 9.21786 21.9082C9.07964 21.637 9.03538 21.3672 9.01669 21.1387C8.99897 20.9219 9.00009 20.6638 9.00009 20.4004V16.5996C9.00009 16.3362 8.99897 16.0782 9.01669 15.8614C9.03538 15.6328 9.07964 15.3631 9.21786 15.0918C9.40959 14.7156 9.71563 14.4095 10.0919 14.2178C10.3631 14.0796 10.6329 14.0353 10.8614 14.0166C10.9058 14.013 10.9525 14.013 11.0001 14.0108C11.0003 13.5472 11.0027 13.1431 11.0304 12.8047C11.0627 12.4095 11.1345 12.016 11.3272 11.6377C11.6148 11.0735 12.0736 10.6147 12.6378 10.3272C13.0161 10.1344 13.4095 10.0626 13.8048 10.0303C14.1884 9.99895 14.6567 10 15.2003 10H18.7999C19.3764 10 19.749 9.99876 20.0323 9.97561C20.3039 9.95341 20.4048 9.91584 20.4542 9.89065C20.6422 9.79481 20.7949 9.6421 20.8907 9.45413C20.9159 9.40469 20.9535 9.30384 20.9757 9.03225C20.9988 8.74891 21.0001 8.37638 21.0001 7.79983V7.50002C21.0001 7.0204 20.9997 6.71064 20.9835 6.47366C20.9679 6.24575 20.9411 6.15882 20.9239 6.11721C20.8224 5.87229 20.6278 5.67769 20.3829 5.5762C20.3413 5.55896 20.2544 5.53218 20.0265 5.51663C20.0026 5.515 19.9777 5.51502 19.9522 5.5137C19.9483 5.53752 19.9471 5.56162 19.9425 5.58499C19.7057 6.77506 18.7751 7.70569 17.585 7.94241C17.271 8.00483 16.9167 8.00002 16.5001 8.00002H5.50009C5.0835 8.00002 4.7292 8.00483 4.41512 7.94241C3.22505 7.70569 2.29442 6.77506 2.0577 5.58499C1.99528 5.27091 2.00009 4.91661 2.00009 4.50002C2.00009 4.08343 1.99528 3.72914 2.0577 3.41506C2.29442 2.22499 3.22505 1.29436 4.41512 1.05764C4.7292 0.995218 5.0835 1.00002 5.50009 1.00002H16.5001C16.9167 1.00002 17.271 0.995218 17.585 1.05764C18.7751 1.29436 19.7057 2.22499 19.9425 3.41506C19.9489 3.44733 19.9511 3.48056 19.9561 3.5137C20.0276 3.51649 20.0964 3.51702 20.1622 3.52151C20.492 3.54401 20.8226 3.59354 21.1485 3.72854C21.8833 4.03301 22.4671 4.61681 22.7716 5.35159C22.9066 5.67752 22.9561 6.00809 22.9786 6.33792C23.0005 6.65871 23.0001 7.04789 23.0001 7.50002V7.79983C23.0001 8.34338 23.0012 8.81167 22.9698 9.19534C22.9375 9.5906 22.8657 9.98403 22.6729 10.3623C22.3854 10.9266 21.9266 11.3853 21.3624 11.6729C20.9841 11.8656 20.5907 11.9374 20.1954 11.9698C19.8117 12.0011 19.3434 12 18.7999 12H15.2003C14.6237 12 14.2512 12.0013 13.9679 12.0244C13.6963 12.0466 13.5954 12.0842 13.546 12.1094C13.358 12.2052 13.2053 12.358 13.1095 12.5459C13.0843 12.5954 13.0467 12.6962 13.0245 12.9678C13.004 13.2189 13.0005 13.5398 13.0001 14.0108C13.0476 14.013 13.0943 14.013 13.1388 14.0166C13.3673 14.0353 13.637 14.0796 13.9083 14.2178C14.2375 14.3856 14.513 14.6409 14.7052 14.9541L14.7823 15.0918L14.8692 15.2949C14.9407 15.4958 14.9695 15.6901 14.9835 15.8614C15.0012 16.0782 15.0001 16.3362 15.0001 16.5996V20.4004ZM4.00009 4.50002C4.00009 5.01261 4.00525 5.12309 4.01962 5.19534C4.09859 5.59181 4.40831 5.90152 4.80477 5.98049C4.87702 5.99486 4.9875 6.00002 5.50009 6.00002H16.5001C17.0127 6.00002 17.1231 5.99486 17.1954 5.98049C17.5919 5.90152 17.9016 5.5918 17.9806 5.19534C17.9949 5.12309 18.0001 5.01261 18.0001 4.50002C18.0001 3.98744 17.9949 3.87696 17.9806 3.80471C17.9016 3.40824 17.5919 3.09853 17.1954 3.01956C17.1231 3.00518 17.0127 3.00002 16.5001 3.00002H5.50009C4.9875 3.00002 4.87702 3.00518 4.80477 3.01956C4.40831 3.09853 4.09859 3.40824 4.01962 3.80471C4.00525 3.87696 4.00009 3.98744 4.00009 4.50002Z" fill="#475467"/>
</svg>
