<svg width="24" height="24" viewBox="0 0 24 24" fill="none" xmlns="http://www.w3.org/2000/svg">
<path d="M6 19C6 18.4479 5.55206 18 5 18C4.44794 18 4 18.4479 4 19C4 19.5521 4.44794 20 5 20C5.55206 20 6 19.5521 6 19ZM2.90234 7.04297C7.14366 6.62641 10.8822 7.96818 13.457 10.543C16.0318 13.1178 17.3736 16.8564 16.957 21.0977C16.9029 21.6472 16.4138 22.0491 15.8643 21.9951C15.3148 21.9411 14.913 21.4518 14.9668 20.9023C15.3298 17.2059 14.1596 14.0736 12.043 11.957C9.92636 9.84043 6.79411 8.67016 3.09766 9.03321C2.5482 9.08698 2.05892 8.6852 2.00488 8.13575C1.95091 7.58617 2.3528 7.09705 2.90234 7.04297ZM2.85156 12.0332C5.70476 11.6042 8.22932 12.3639 9.93262 14.0674C11.6357 15.7708 12.3942 18.2955 11.9658 21.1484C11.8836 21.6943 11.3751 22.0702 10.8291 21.9883C10.2831 21.9063 9.90656 21.3976 9.98828 20.8516C10.3384 18.5197 9.70127 16.6653 8.51758 15.4814C7.334 14.2979 5.48086 13.6613 3.14941 14.0117L3.04688 14.0215C2.54068 14.0457 2.08869 13.6829 2.01172 13.1709C1.92972 12.6248 2.30548 12.1153 2.85156 12.0332ZM3.45508 2.02344C14.4921 1.49985 22.7551 9.94883 21.9453 21.0723C21.9052 21.6231 21.4258 22.0372 20.875 21.9971C20.3244 21.9568 19.9101 21.4775 19.9502 20.9268C20.6841 10.8437 13.1563 3.31584 3.07324 4.04981L2.9707 4.05176C2.46406 4.0374 2.04066 3.64134 2.00293 3.125C1.96282 2.57418 2.37691 2.0948 2.92773 2.05469L3.45508 2.02344ZM8 19C8 20.6566 6.65663 22 5 22C3.34337 22 2 20.6566 2 19C2 17.3434 3.34337 16 5 16C6.65663 16 8 17.3434 8 19Z" fill="#475467"/>
</svg>
