<svg width="24" height="24" viewBox="0 0 24 24" fill="none" xmlns="http://www.w3.org/2000/svg">
<path d="M16.6506 1.2482C16.8803 1.19316 17.12 1.19313 17.3498 1.2482L17.464 1.28043L17.6262 1.34586C17.7768 1.41747 17.8925 1.50563 17.9758 1.57633C18.0778 1.66298 18.1853 1.77126 18.2726 1.85855L22.1418 5.72769C22.2291 5.81497 22.3374 5.92255 22.424 6.02457C22.4947 6.10787 22.5829 6.22346 22.6545 6.37418L22.7199 6.53629L22.7521 6.65055C22.8163 6.91857 22.8055 7.20045 22.7199 7.46402C22.6443 7.69649 22.5183 7.86471 22.424 7.97574C22.3374 8.07779 22.2291 8.18533 22.1418 8.27262L8.27263 22.1418C8.18534 22.2291 8.0778 22.3374 7.97576 22.424C7.86473 22.5182 7.69651 22.6443 7.46404 22.7199C7.16278 22.8178 6.83757 22.8178 6.53631 22.7199C6.30383 22.6443 6.13564 22.5182 6.02459 22.424C5.92257 22.3374 5.81499 22.229 5.72771 22.1418L1.85857 18.2726C1.77128 18.1853 1.66299 18.0778 1.57634 17.9757C1.48209 17.8647 1.35605 17.6965 1.28045 17.464C1.18256 17.1628 1.18256 16.8376 1.28045 16.5363L1.34588 16.3742C1.41748 16.2234 1.50563 16.1079 1.57634 16.0246C1.66297 15.9225 1.77128 15.815 1.85857 15.7277L15.7277 1.85855C15.815 1.77126 15.9225 1.66296 16.0246 1.57633C16.1356 1.48206 16.3038 1.35601 16.5363 1.28043L16.6506 1.2482ZM15.4142 5.00016L16.7072 6.29312L16.7756 6.3693C17.0958 6.76207 17.0733 7.3411 16.7072 7.70719C16.3411 8.07324 15.7621 8.09582 15.3693 7.77555L15.2931 7.70719L14.0002 6.41422L12.4142 8.00016L13.7072 9.29313L13.7756 9.3693C14.0958 9.76207 14.0733 10.3411 13.7072 10.7072C13.3411 11.0732 12.7621 11.0958 12.3693 10.7755L12.2931 10.7072L11.0002 9.41422L9.41424 11.0002L10.7072 12.2931L10.7756 12.3693C11.0958 12.7621 11.0733 13.3411 10.7072 13.7072C10.3411 14.0732 9.76207 14.0958 9.36931 13.7755L9.29314 13.7072L8.00017 12.4142L6.41424 14.0002L7.7072 15.2931L7.77556 15.3693C8.09584 15.7621 8.07329 16.3411 7.7072 16.7072C7.34111 17.0732 6.76207 17.0958 6.36931 16.7755L6.29314 16.7072L5.00017 15.4142L3.41424 17.0002L7.00017 20.5861L20.5861 7.00016L17.0002 3.41422L15.4142 5.00016Z" fill="#475467"/>
</svg>
