<svg width="24" height="24" viewBox="0 0 24 24" fill="none" xmlns="http://www.w3.org/2000/svg">
<path d="M8.86604 2.15431C10.672 0.615475 13.3277 0.615475 15.1336 2.15431C15.5872 2.54085 16.1519 2.77487 16.7459 2.82228C19.111 3.01118 20.9887 4.88886 21.1776 7.25392C21.225 7.84798 21.459 8.41263 21.8455 8.86622C23.3844 10.6722 23.3844 13.3279 21.8455 15.1338C21.459 15.5874 21.225 16.152 21.1776 16.7461C20.9887 19.1112 19.111 20.9888 16.7459 21.1777C16.1519 21.2252 15.5872 21.4592 15.1336 21.8457C13.3277 23.3845 10.672 23.3845 8.86604 21.8457C8.41245 21.4592 7.8478 21.2252 7.25373 21.1777C4.88868 20.9888 3.01099 19.1112 2.82209 16.7461C2.77469 16.152 2.54067 15.5874 2.15412 15.1338C0.615292 13.3279 0.615292 10.6722 2.15412 8.86622C2.54067 8.41263 2.77469 7.84798 2.82209 7.25392C3.01099 4.88886 4.88868 3.01118 7.25373 2.82228C7.8478 2.77487 8.41245 2.54085 8.86604 2.15431ZM13.8367 3.67677C12.8445 2.83116 11.4141 2.77778 10.367 3.51759L10.1629 3.67677C9.38901 4.33624 8.42646 4.73456 7.41291 4.81544C6.02678 4.92616 4.92598 6.02696 4.81526 7.4131C4.74448 8.30006 4.43025 9.14773 3.91096 9.86427L3.67658 10.1631C2.77454 11.2216 2.77454 12.7784 3.67658 13.8369C4.33606 14.6108 4.73437 15.5734 4.81526 16.5869C4.92598 17.9731 6.02678 19.0739 7.41291 19.1846C8.42646 19.2655 9.38901 19.6638 10.1629 20.3233L10.367 20.4824C11.4141 21.2222 12.8445 21.1689 13.8367 20.3233C14.6106 19.6638 15.5732 19.2655 16.5867 19.1846C17.9729 19.0739 19.0737 17.9731 19.1844 16.5869C19.2653 15.5734 19.6636 14.6108 20.3231 13.8369C21.1687 12.8446 21.2221 11.4143 20.4822 10.3672L20.3231 10.1631C19.6636 9.3892 19.2653 8.42665 19.1844 7.4131C19.0737 6.02696 17.9729 4.92616 16.5867 4.81544C15.5732 4.73456 14.6106 4.33624 13.8367 3.67677ZM15.2928 7.29298C15.6833 6.90245 16.3163 6.90245 16.7069 7.29298C17.0974 7.6835 17.0974 8.31652 16.7069 8.70704L8.70686 16.707C8.31633 17.0976 7.68332 17.0976 7.2928 16.707C6.90227 16.3165 6.90227 15.6835 7.2928 15.293L15.2928 7.29298ZM14.9998 13.5C15.8283 13.5 16.4998 14.1716 16.4998 15C16.4998 15.8284 15.8283 16.5 14.9998 16.5C14.1714 16.5 13.4998 15.8284 13.4998 15C13.4998 14.1716 14.1714 13.5 14.9998 13.5ZM8.99983 7.50001C9.82825 7.50001 10.4998 8.17158 10.4998 9.00001C10.4998 9.82844 9.82825 10.5 8.99983 10.5C8.1714 10.5 7.49983 9.82844 7.49983 9.00001C7.49983 8.17158 8.1714 7.50001 8.99983 7.50001Z" fill="#475467"/>
</svg>
