<svg width="24" height="24" viewBox="0 0 24 24" fill="none" xmlns="http://www.w3.org/2000/svg">
<path d="M21 15.2998C21 15.198 20.9846 15.097 20.9551 15L20.9209 14.9043L20.2002 13.1631L20.0986 12.8799C19.8953 12.2109 19.9299 11.489 20.1992 10.8389L20.9219 9.09473C21.0265 8.84186 21.0266 8.55753 20.9219 8.30469C20.8171 8.05165 20.6153 7.85091 20.3623 7.7461L18.6172 7.02247H18.6162C17.9079 6.72823 17.342 6.17567 17.0244 5.48047C17.0075 5.4494 16.9913 5.41713 16.9775 5.3838L16.2549 3.63868C16.1501 3.3857 15.9483 3.18487 15.6953 3.08008C15.4424 2.9754 15.1582 2.97537 14.9053 3.08008H14.9043L13.1582 3.80079L13.1572 3.79981C12.4153 4.10684 11.582 4.10842 10.8398 3.80176L10.8389 3.80079L9.0957 3.07813C8.84269 2.97333 8.5577 2.97333 8.30469 3.07813C8.05169 3.18294 7.8509 3.38467 7.74609 3.6377L7.02344 5.38282L7.02246 5.3838C6.75247 6.03279 6.26686 6.56504 5.65234 6.89356L5.38184 7.02149L3.6377 7.74415C3.51245 7.79599 3.39862 7.87196 3.30273 7.96778C3.20683 8.06366 3.13004 8.17745 3.07812 8.30274C3.02624 8.42801 3.00001 8.56265 3 8.69825C3.00002 8.79998 3.01549 8.90106 3.04492 8.99805L3.0791 9.09376V9.09473L3.7998 10.8399C4.10792 11.5824 4.10869 12.4171 3.80176 13.1602V13.1611L3.0791 14.9053C2.97478 15.1581 2.97537 15.4417 3.08008 15.6943C3.18493 15.9472 3.38577 16.1482 3.63867 16.2529L5.38379 16.9766H5.38477C6.12701 17.2849 6.71622 17.8755 7.02344 18.6182L7.74707 20.3633H7.74609C7.85096 20.616 8.05196 20.8171 8.30469 20.9219C8.55745 21.0266 8.84189 21.0264 9.09473 20.9219L10.8389 20.2002L11.1211 20.0986C11.6933 19.9251 12.3045 19.925 12.877 20.0977L13.1592 20.1982L13.1602 20.1992L14.9043 20.9209C15.1573 21.0256 15.4414 21.0257 15.6943 20.9209C15.9472 20.8161 16.1481 20.6153 16.2529 20.3623L16.9756 18.6172L16.9766 18.6162C17.2848 17.874 17.8746 17.2839 18.6172 16.9766L20.3613 16.2549H20.3623C20.4876 16.203 20.6014 16.1261 20.6973 16.0303C20.7931 15.9344 20.869 15.8205 20.9209 15.6953C20.9728 15.57 21 15.4355 21 15.2998ZM15.293 7.29297C15.6835 6.90245 16.3165 6.90245 16.707 7.29297C17.0976 7.6835 17.0976 8.31651 16.707 8.70704L8.70703 16.707C8.31651 17.0976 7.68349 17.0976 7.29297 16.707C6.90244 16.3165 6.90244 15.6835 7.29297 15.293L15.293 7.29297ZM15 13.5C15.8284 13.5 16.5 14.1716 16.5 15C16.5 15.8284 15.8284 16.5 15 16.5C14.1716 16.5 13.5 15.8284 13.5 15C13.5 14.1716 14.1716 13.5 15 13.5ZM9 7.50001C9.82843 7.50001 10.5 8.17158 10.5 9.00001C10.5 9.82843 9.82843 10.5 9 10.5C8.17157 10.5 7.5 9.82843 7.5 9.00001C7.5 8.17158 8.17157 7.50001 9 7.50001ZM23 15.2998C23.0001 15.6982 22.921 16.0929 22.7686 16.4609C22.6161 16.829 22.393 17.1637 22.1113 17.4453C21.9001 17.6565 21.6589 17.8343 21.3965 17.9746L21.127 18.1025L19.3828 18.8252C19.1614 18.9167 18.9795 19.0817 18.8672 19.291L18.8232 19.3828L18.1006 21.1279C17.7928 21.8707 17.2027 22.4607 16.46 22.7686C15.7169 23.0764 14.8818 23.0764 14.1387 22.7686L12.3945 22.0469V22.0459C12.1418 21.9418 11.858 21.9431 11.6055 22.0479H11.6045L9.85938 22.7695C9.11685 23.0766 8.2824 23.0769 7.54004 22.7695C6.79767 22.462 6.20745 21.872 5.89941 21.1299V21.1289L5.17578 19.3828C5.07125 19.13 4.87072 18.9283 4.61816 18.8232V18.8242L2.87305 18.1006C2.13044 17.793 1.54035 17.2034 1.23242 16.4609C0.924523 15.7183 0.924289 14.8826 1.23145 14.1397L1.95313 12.3955C2.05726 12.1427 2.05788 11.859 1.95313 11.6065L1.95215 11.6055L1.23047 9.85841L1.23145 9.85743C1.07944 9.49006 1.00012 9.09681 1 8.69922C0.999936 8.30096 1.07812 7.90607 1.23047 7.53809C1.38293 7.17001 1.60692 6.83539 1.88867 6.55372C2.17042 6.27205 2.50494 6.04884 2.87305 5.89649L4.61621 5.17383H4.61719C4.86986 5.06935 5.07067 4.86865 5.17578 4.61622L5.89844 2.87208C6.2062 2.12913 6.79614 1.5383 7.53906 1.23048C8.28202 0.922719 9.11736 0.922817 9.86035 1.23048L11.6045 1.95313L11.6035 1.95411C11.8564 2.05854 12.1408 2.05699 12.3936 1.95215L12.3955 1.95118L14.1406 1.23243V1.23145C14.8835 0.923962 15.7181 0.924731 16.4609 1.23243C17.2039 1.54017 17.7947 2.13016 18.1025 2.87305L18.8135 4.5918C18.8171 4.60003 18.8217 4.60786 18.8252 4.61622C18.9296 4.86866 19.1298 5.06962 19.3818 5.17481L21.1279 5.89844C21.8709 6.20624 22.4617 6.79609 22.7695 7.53907C23.0773 8.28207 23.0772 9.11733 22.7695 9.86036L22.0469 11.6045C21.955 11.8264 21.944 12.0715 22.0127 12.2979L22.0469 12.3936L22.0479 12.3965L22.7686 14.1387L22.8691 14.4199C22.9555 14.7047 23 15.0012 23 15.2998Z" fill="#475467"/>
</svg>
