<svg width="24" height="24" viewBox="0 0 24 24" fill="none" xmlns="http://www.w3.org/2000/svg">
<path d="M10.7164 1.43558C11.4731 0.853622 12.5258 0.855991 13.2819 1.43656L14.5299 2.39359C14.5518 2.41034 14.5793 2.41752 14.6041 2.4141L14.609 2.41312H14.61L16.1715 2.20804L16.3483 2.19242C17.2281 2.15083 18.0524 2.66371 18.3942 3.49125L18.9948 4.94437L18.9957 4.94535C19.0011 4.95833 19.0086 4.96996 19.0182 4.97953L19.0524 5.00199L19.0534 5.00297L20.5065 5.60355L20.5075 5.60453C21.3325 5.94698 21.847 6.76852 21.8053 7.64945L21.7897 7.82621L21.5846 9.38871L21.5836 9.39066C21.5802 9.4171 21.5876 9.44477 21.6051 9.46781L22.5631 10.7159L22.6657 10.8604C23.1436 11.6023 23.1075 12.5721 22.5631 13.2813L21.6403 14.4854L21.6393 14.4864C21.6105 14.5237 21.5937 14.5696 21.5905 14.6172L21.5924 14.6661L21.7897 16.1709C21.9144 17.1158 21.3889 18.0301 20.5055 18.3946L20.5045 18.3936L19.0534 18.9952H19.0524C19.0266 19.0058 19.0065 19.026 18.9957 19.0518L18.9948 19.0528L18.3942 20.5069L18.3932 20.5078C18.0508 21.3328 17.2292 21.8474 16.3483 21.8057L16.1715 21.7901L14.61 21.585L14.6071 21.584C14.5938 21.5823 14.5802 21.5834 14.567 21.587L14.5299 21.6055L13.2819 22.5645C12.5252 23.1466 11.4716 23.1443 10.7155 22.5635L9.51235 21.6407L9.51137 21.6397C9.46152 21.6013 9.39719 21.5833 9.33266 21.5918L7.82875 21.7911H7.82778C6.88334 21.9156 5.96973 21.3905 5.60512 20.5078L5.00454 19.0547L5.00356 19.0528C4.99281 19.0271 4.97267 19.0067 4.94692 18.9961H4.94594L3.49282 18.3955L3.49184 18.3946C2.61183 18.0293 2.08497 17.1189 2.20961 16.1729L2.41469 14.6104L2.41567 14.6084C2.41913 14.582 2.41166 14.5544 2.39418 14.5313L1.4352 13.2823L1.43618 13.2813C0.854615 12.5248 0.854927 11.4727 1.4352 10.7168L2.39223 9.46879C2.40855 9.44747 2.41797 9.41895 2.41469 9.38969L2.20961 7.82719C2.08497 6.88115 2.61184 5.97075 3.49184 5.60551L3.49379 5.60453L4.94399 5.0059C4.97187 4.99388 4.99376 4.97146 5.00551 4.9434L5.60414 3.49418L5.60512 3.49222C5.97042 2.61226 6.88069 2.08519 7.8268 2.21L9.38735 2.4141C9.41665 2.41783 9.44722 2.41099 9.47133 2.39262L10.7164 1.43558ZM12.0641 3.0225C12.0251 2.99254 11.9726 2.99343 11.9362 3.02152L11.9352 3.0225L10.6862 3.98148L10.6832 3.98344C10.2408 4.32055 9.68232 4.47021 9.12953 4.39847H9.12758L7.56606 4.19242H7.56508C7.51882 4.18641 7.47142 4.21166 7.4518 4.25687L6.85317 5.71097L6.85121 5.71488C6.63651 6.22848 6.22807 6.63682 5.7145 6.8516L5.71059 6.85355L4.25746 7.45219L4.25844 7.45316C4.21231 7.47243 4.18584 7.51952 4.19203 7.56644L4.39809 9.12894V9.12992C4.46974 9.6821 4.32081 10.242 3.98207 10.6846L3.9811 10.6856L3.02211 11.9346C2.99958 11.9639 2.99467 12.0011 3.00551 12.0332L3.02114 12.0635L3.02211 12.0645L3.9811 13.3135C4.32093 13.7568 4.47215 14.3177 4.39809 14.8731L4.19203 16.4336C4.18584 16.4806 4.21231 16.5276 4.25844 16.5469H4.25746L5.70864 17.1475H5.70961C6.2281 17.3613 6.63944 17.7726 6.85317 18.2911H6.85219L7.45375 19.7432V19.7442C7.47155 19.7873 7.51784 19.8148 7.56606 19.8086L9.07094 19.6094C9.66074 19.5316 10.2573 19.6913 10.7291 20.0537H10.7301L11.9332 20.9776H11.9342C11.9732 21.0075 12.0257 21.0066 12.0622 20.9786L12.0631 20.9776L13.3122 20.0186H13.3131C13.7565 19.6787 14.3173 19.5274 14.8727 19.6016H14.8717L16.4323 19.8077H16.4332C16.4796 19.8136 16.5261 19.7877 16.5456 19.7422L17.1461 18.2901L17.236 18.1006C17.4648 17.672 17.8355 17.3336 18.2887 17.1465L19.7418 16.5459L19.7428 16.545C19.7749 16.5316 19.7982 16.5028 19.8053 16.4688L19.8073 16.4327L19.609 14.9278L19.5914 14.7061C19.5747 14.1893 19.737 13.6799 20.0553 13.2666L20.9772 12.0645L20.9938 12.0332C21.0051 12.0001 20.9994 11.9631 20.9782 11.9356L20.9772 11.9346L20.0182 10.6856C19.6783 10.2422 19.527 9.68052 19.6012 9.12504L19.8073 7.56547V7.56449C19.8132 7.51788 19.7875 7.47055 19.7418 7.45121V7.45219L18.2897 6.85062V6.8516C17.7712 6.63784 17.3599 6.22652 17.1461 5.70805V5.70707L16.5456 4.2559V4.25492C16.5278 4.21178 16.4815 4.18425 16.4332 4.19047H16.4323L14.8707 4.39652L14.8698 4.39555C14.3145 4.47014 13.755 4.31998 13.3141 3.98246L13.3131 3.98148L12.0641 3.0225ZM15.2926 7.29301C15.6831 6.90248 16.3162 6.90248 16.7067 7.29301C17.0972 7.68353 17.0972 8.31654 16.7067 8.70707L8.70668 16.7071C8.31616 17.0976 7.68315 17.0976 7.29262 16.7071C6.9021 16.3165 6.9021 15.6835 7.29262 15.293L15.2926 7.29301ZM14.9997 13.5C15.8281 13.5 16.4997 14.1716 16.4997 15C16.4997 15.8285 15.8281 16.5 14.9997 16.5C14.1712 16.5 13.4997 15.8285 13.4997 15C13.4997 14.1716 14.1712 13.5 14.9997 13.5ZM8.99965 7.50004C9.82808 7.50004 10.4997 8.17161 10.4997 9.00004C10.4997 9.82846 9.82808 10.5 8.99965 10.5C8.17123 10.5 7.49965 9.82846 7.49965 9.00004C7.49965 8.17161 8.17123 7.50004 8.99965 7.50004Z" fill="#475467"/>
</svg>
