<svg width="24" height="24" viewBox="0 0 24 24" fill="none" xmlns="http://www.w3.org/2000/svg">
<path d="M11.0001 16.7998C11.0001 15.9434 10.9997 15.3611 10.963 14.9111C10.9272 14.4727 10.862 14.2482 10.7823 14.0918C10.5906 13.7155 10.2845 13.4095 9.90829 13.2177C9.75189 13.138 9.52737 13.0729 9.08895 13.0371C8.63891 13.0003 8.05667 13 7.20028 13H6.79989C5.9435 13 5.36125 13.0003 4.91122 13.0371C4.4728 13.0729 4.24828 13.138 4.09188 13.2177C3.71563 13.4095 3.40959 13.7155 3.21786 14.0918C3.13817 14.2482 3.07301 14.4727 3.03719 14.9111C3.00043 15.3611 3.00008 15.9434 3.00008 16.7998V17.2002L3.00497 18.2968C3.00976 18.6057 3.01881 18.8638 3.03719 19.0888C3.07301 19.5272 3.13817 19.7518 3.21786 19.9082C3.40959 20.2844 3.71563 20.5905 4.09188 20.7822C4.24828 20.8619 4.4728 20.927 4.91122 20.9629C5.36125 20.9996 5.9435 21 6.79989 21H7.20028C8.05667 21 8.63891 20.9996 9.08895 20.9629C9.52737 20.927 9.75189 20.8619 9.90829 20.7822C10.2845 20.5905 10.5906 20.2844 10.7823 19.9082C10.862 19.7518 10.9272 19.5272 10.963 19.0888C10.9997 18.6388 11.0001 18.0565 11.0001 17.2002V16.7998ZM21.0001 18C21.0001 17.4477 21.4478 17 22.0001 17C22.5524 17 23.0001 17.4477 23.0001 18C23.0001 18.8655 23.0082 19.4944 22.8634 20.0351C22.4935 21.4155 21.4156 22.4934 20.0352 22.8632C19.4945 23.0081 18.8657 23 18.0001 23C17.4478 23 17.0001 22.5522 17.0001 22C17.0001 21.4477 17.4478 21 18.0001 21C18.9944 21 19.2954 20.9912 19.5177 20.9316C20.2078 20.7467 20.7468 20.2077 20.9317 19.5175C20.9913 19.2953 21.0001 18.9943 21.0001 18ZM21.0001 14V9.99996C21.0001 9.44768 21.4478 8.99996 22.0001 8.99996C22.5524 8.99996 23.0001 9.44768 23.0001 9.99996V14C23.0001 14.5522 22.5524 15 22.0001 15C21.4478 15 21.0001 14.5522 21.0001 14ZM1.00008 5.99996C1.00008 5.13437 0.991918 4.50553 1.1368 3.96481C1.50667 2.58444 2.58456 1.50655 3.96493 1.13668C4.50565 0.991796 5.1345 0.999962 6.00008 0.999962C6.55237 0.999962 7.00008 1.44768 7.00008 1.99996C7.00008 2.55225 6.55237 2.99996 6.00008 2.99996C5.00574 2.99996 4.70478 3.00876 4.48251 3.06832C3.79232 3.25326 3.25338 3.7922 3.06844 4.48238C3.00888 4.70466 3.00008 5.00561 3.00008 5.99996C3.00008 6.55225 2.55237 6.99996 2.00008 6.99996C1.4478 6.99996 1.00008 6.55225 1.00008 5.99996ZM21.0001 5.99996C21.0001 5.00561 20.9913 4.70466 20.9317 4.48238C20.7468 3.7922 20.2078 3.25326 19.5177 3.06832C19.2954 3.00876 18.9944 2.99996 18.0001 2.99996C17.4478 2.99996 17.0001 2.55225 17.0001 1.99996C17.0001 1.44768 17.4478 0.999962 18.0001 0.999962C18.8657 0.999962 19.4945 0.991796 20.0352 1.13668C21.4156 1.50655 22.4935 2.58444 22.8634 3.96481C23.0082 4.50553 23.0001 5.13437 23.0001 5.99996C23.0001 6.55225 22.5524 6.99996 22.0001 6.99996C21.4478 6.99996 21.0001 6.55225 21.0001 5.99996ZM14.0001 0.999962C14.5524 0.999962 15.0001 1.44768 15.0001 1.99996C15.0001 2.55225 14.5524 2.99996 14.0001 2.99996H10.0001C9.4478 2.99996 9.00008 2.55225 9.00008 1.99996C9.00008 1.44768 9.4478 0.999962 10.0001 0.999962H14.0001ZM13.0001 17.2002C13.0001 18.0236 13.0011 18.7015 12.9561 19.2519C12.9102 19.814 12.8118 20.3311 12.5645 20.8164C12.5326 20.879 12.497 20.9394 12.462 21H14.0001C14.5524 21 15.0001 21.4477 15.0001 22C15.0001 22.5522 14.5524 23 14.0001 23H6.79989C5.9764 23 5.29851 23.001 4.74813 22.956C4.18607 22.9101 3.66898 22.8117 3.18368 22.5644C2.43117 22.1809 1.8191 21.5689 1.43563 20.8164C1.18836 20.3311 1.08996 19.814 1.04403 19.2519C1.02154 18.9766 1.01039 18.6694 1.00497 18.3281L1.00008 17.2002V9.99996C1.00008 9.44768 1.4478 8.99996 2.00008 8.99996C2.55237 8.99996 3.00008 9.44768 3.00008 9.99996V11.538C3.06068 11.503 3.12109 11.4674 3.18368 11.4355C3.66898 11.1882 4.18607 11.0898 4.74813 11.0439C5.29851 10.9989 5.9764 11 6.79989 11H7.20028C8.02377 11 8.70166 10.9989 9.25204 11.0439C9.81409 11.0898 10.3312 11.1882 10.8165 11.4355C11.569 11.819 12.1811 12.431 12.5645 13.1836C12.8118 13.6689 12.9102 14.186 12.9561 14.748C13.0011 15.2984 13.0001 15.9763 13.0001 16.7998V17.2002Z" fill="#475467"/>
</svg>
