<svg width="24" height="24" viewBox="0 0 24 24" fill="none" xmlns="http://www.w3.org/2000/svg">
<path d="M16 10C16 6.68629 13.3137 4 10 4C6.68629 4 4 6.68629 4 10C4 13.3137 6.68629 16 10 16C13.3137 16 16 13.3137 16 10ZM18 10C18 11.8486 17.3703 13.5487 16.3174 14.9033L21.707 20.293L21.7754 20.3691C22.0957 20.7619 22.0731 21.3409 21.707 21.707C21.3409 22.0731 20.7619 22.0957 20.3691 21.7754L20.293 21.707L14.9033 16.3174C13.5487 17.3703 11.8486 18 10 18C5.58172 18 2 14.4183 2 10C2 5.58172 5.58172 2 10 2C14.4183 2 18 5.58172 18 10Z" fill="#475467"/>
</svg>
