<svg width="24" height="24" viewBox="0 0 24 24" fill="none" xmlns="http://www.w3.org/2000/svg">
<path d="M11.5354 1.80524C11.8616 1.68932 12.2183 1.68922 12.5442 1.80621L12.7043 1.87457L12.8342 1.94879C13.1196 2.13502 13.2772 2.39921 13.3586 2.5445C13.4636 2.73183 13.5718 2.9743 13.6789 3.21344L21.1672 19.9263C21.2769 20.1711 21.3882 20.4168 21.4592 20.6226C21.5214 20.803 21.6353 21.1671 21.5227 21.5689C21.3954 22.0228 21.0615 22.39 20.6223 22.5611C20.2335 22.7125 19.8606 22.6355 19.675 22.5914C19.4632 22.5409 19.2078 22.4539 18.9533 22.3687L12.0373 20.0533L5.04904 22.3736C4.79402 22.4582 4.53753 22.5444 4.32541 22.5943C4.13974 22.638 3.76668 22.7146 3.37814 22.5621C2.93918 22.3897 2.60659 22.0205 2.48068 21.566C2.36937 21.1638 2.48437 20.8008 2.54709 20.6207C2.61872 20.415 2.73042 20.1691 2.84103 19.9244L10.3957 3.20856C10.5037 2.96972 10.6123 2.72662 10.718 2.53961C10.8116 2.37392 11.0055 2.05436 11.3742 1.87262L11.5354 1.80524ZM4.85178 20.3306L11.0002 18.2896V11.9996C11.0004 11.4476 11.4482 10.9998 12.0002 10.9996C12.5524 10.9996 13 11.4474 13.0002 11.9996V18.2662L19.1555 20.3267L12.0344 4.43512L4.85178 20.3306ZM11.9065 20.0093H11.9045C11.902 20.0085 11.9003 20.0086 11.8996 20.0084C11.9005 20.0086 11.903 20.0085 11.9065 20.0093Z" fill="#475467"/>
</svg>
