<svg width="24" height="24" viewBox="0 0 24 24" fill="none" xmlns="http://www.w3.org/2000/svg">
<path d="M2.58023 2.44652C2.92109 2.39432 3.21832 2.48855 3.37613 2.5432C3.5818 2.61444 3.82788 2.72612 4.07242 2.83617L20.7902 10.3586C21.0291 10.4661 21.2711 10.5746 21.4582 10.6799C21.6033 10.7616 21.8671 10.9196 22.0529 11.2053L22.1271 11.3352L22.1945 11.4953C22.3305 11.8759 22.3084 12.2986 22.1271 12.6653C21.9447 13.0341 21.6239 13.2272 21.4582 13.3205C21.2711 13.4258 21.029 13.5343 20.7902 13.6418L4.07828 21.1614C3.83305 21.2717 3.58701 21.3839 3.38101 21.4553C3.20078 21.5177 2.837 21.6319 2.43472 21.5198C1.98027 21.3929 1.61108 21.0599 1.43961 20.6203C1.28781 20.2312 1.36613 19.8577 1.41031 19.6721C1.46081 19.46 1.54757 19.2035 1.63296 18.9485L3.94644 12.0364L1.62515 5.04417C1.54075 4.78988 1.45527 4.53424 1.40543 4.32249C1.36174 4.13683 1.28539 3.76346 1.43765 3.37523L1.51089 3.21605C1.70288 2.85689 2.0346 2.58829 2.43179 2.47777L2.58023 2.44652ZM5.70914 11.0002H10.5002L10.6027 11.0051C11.107 11.0563 11.5002 11.4824 11.5002 12.0002C11.5 12.5179 11.1069 12.9432 10.6027 12.9944L10.5002 13.0002H5.73355L3.67398 19.1506L19.5627 11.9993L3.66617 4.84593L5.70914 11.0002Z" fill="#475467"/>
</svg>
