<svg width="24" height="24" viewBox="0 0 24 24" fill="none" xmlns="http://www.w3.org/2000/svg">
<path d="M19.0003 7.21738C19.0003 6.33619 18.9844 6.16024 18.9348 6.02988C18.8771 5.87826 18.7831 5.74263 18.6614 5.63535C18.5567 5.54321 18.3972 5.46707 17.5725 5.15781L12.2112 3.14707C12.0998 3.10529 12.044 3.08429 12.0032 3.0709C12.0022 3.07056 12.0012 3.07022 12.0003 3.06992C11.9993 3.07022 11.9983 3.07056 11.9973 3.0709C11.9565 3.08429 11.9007 3.10529 11.7893 3.14707L6.42799 5.15781C5.60331 5.46707 5.44377 5.54321 5.33913 5.63535C5.21739 5.74263 5.12346 5.87826 5.06569 6.02988C5.01608 6.16024 5.00026 6.33619 5.00026 7.21738V11.9996C5.00026 14.0814 6.13963 15.9649 7.64186 17.5299C9.13293 19.0832 10.87 20.2055 11.8059 20.7516C11.8631 20.7849 11.9048 20.8085 11.9407 20.8287C11.9687 20.8445 11.9874 20.8544 12.0003 20.8609C12.0131 20.8544 12.0318 20.8445 12.0598 20.8287C12.0957 20.8085 12.1374 20.7849 12.1946 20.7516C13.1305 20.2055 14.8676 19.0832 16.3587 17.5299C17.8609 15.9649 19.0003 14.0814 19.0003 11.9996V7.21738ZM11.0003 14.4996V12.4996H9.00026C8.44797 12.4996 8.00026 12.0519 8.00026 11.4996C8.00045 10.9475 8.44809 10.4996 9.00026 10.4996H11.0003V8.49961C11.0005 7.94749 11.4481 7.49961 12.0003 7.49961C12.5524 7.49961 13.0001 7.94749 13.0003 8.49961V10.4996H15.0003C15.5524 10.4996 16.0001 10.9475 16.0003 11.4996C16.0003 12.0519 15.5525 12.4996 15.0003 12.4996H13.0003V14.4996C13.0003 15.0519 12.5525 15.4996 12.0003 15.4996C11.448 15.4996 11.0003 15.0519 11.0003 14.4996ZM21.0003 11.9996C21.0003 14.8262 19.4628 17.1834 17.801 18.9146C16.1284 20.6571 14.2146 21.8876 13.2024 22.4781C13.0126 22.5889 12.7603 22.7468 12.4192 22.8199C12.16 22.8754 11.8406 22.8754 11.5813 22.8199C11.2402 22.7468 10.988 22.5889 10.7981 22.4781C9.78594 21.8876 7.87211 20.6571 6.19948 18.9146C4.53771 17.1834 3.00026 14.8262 3.00026 11.9996V7.21738C3.00026 6.49979 2.98465 5.87579 3.19655 5.31894C3.36982 4.86365 3.65138 4.45744 4.01686 4.13535C4.46389 3.7414 5.05388 3.53675 5.72584 3.28476L11.0872 1.27402C11.2549 1.21114 11.4755 1.12297 11.7141 1.08847C11.8565 1.0679 12.0006 1.06255 12.1438 1.07285L12.2864 1.08847L12.4612 1.12363C12.6318 1.16599 12.7876 1.22685 12.9133 1.27402L18.2747 3.28476C18.9466 3.53675 19.5366 3.7414 19.9837 4.13535C20.3491 4.45744 20.6307 4.86365 20.804 5.31894C21.0159 5.87579 21.0003 6.49979 21.0003 7.21738V11.9996Z" fill="#475467"/>
</svg>
