<svg width="24" height="24" viewBox="0 0 24 24" fill="none" xmlns="http://www.w3.org/2000/svg">
<path d="M2.2928 2.29258C2.68328 1.90229 3.31639 1.90229 3.70687 2.29258L21.7069 20.2926C22.0973 20.683 22.0972 21.3161 21.7069 21.7066C21.3408 22.0727 20.7617 22.0961 20.369 21.776L20.2928 21.7066L17.6512 19.065C16.0128 20.7292 14.1823 21.9062 13.2039 22.4771C13.0136 22.5882 12.7609 22.7467 12.4198 22.8199C12.1604 22.8756 11.8403 22.8755 11.5809 22.8199C11.2397 22.7468 10.9875 22.5889 10.7977 22.4781C9.78552 21.8876 7.87169 20.6571 6.19905 18.9146C4.53729 17.1834 2.99983 14.8262 2.99983 11.9996V5.77597C2.99989 5.39033 3.1034 5.02179 3.28987 4.70371L2.2928 3.70664C1.90246 3.3161 1.90234 2.68304 2.2928 2.29258ZM18.9998 11.9996V7.21738C18.9998 6.33619 18.984 6.16024 18.9344 6.02988C18.8766 5.87826 18.7827 5.74263 18.661 5.63535C18.5563 5.54321 18.3968 5.46707 17.5721 5.15781L12.2108 3.14707C12.0994 3.10529 12.0436 3.08429 12.0028 3.0709C12.0017 3.07056 12.0008 3.07022 11.9998 3.06992C11.9989 3.07022 11.9979 3.07056 11.9969 3.0709C11.9561 3.08429 11.9003 3.10529 11.7889 3.14707L9.15999 4.1334L9.06233 4.16367C8.57211 4.29298 8.05375 4.03237 7.8719 3.54746C7.67829 3.03045 7.94086 2.45422 8.45784 2.26035L11.0867 1.27402C11.2544 1.21114 11.4751 1.12297 11.7137 1.08847C11.8561 1.0679 12.0002 1.06255 12.1434 1.07285L12.286 1.08847L12.4608 1.12363C12.6314 1.16599 12.7871 1.22685 12.9129 1.27402L18.2742 3.28476C18.9462 3.53675 19.5362 3.7414 19.9832 4.13535C20.3487 4.45744 20.6303 4.86365 20.8035 5.31894C21.0154 5.87579 20.9998 6.49979 20.9998 7.21738V11.9996C20.9998 12.8279 20.8671 13.6188 20.6375 14.3648C20.4751 14.8926 19.9153 15.1893 19.3875 15.027C18.8598 14.8645 18.5632 14.3047 18.7254 13.777C18.9016 13.2047 18.9998 12.6118 18.9998 11.9996ZM4.99983 11.9996C4.99983 14.0814 6.13921 15.9649 7.64144 17.5299C9.13251 19.0832 10.8696 20.2055 11.8055 20.7516C11.8627 20.7849 11.9044 20.8085 11.9403 20.8287C11.9675 20.844 11.9861 20.8534 11.9989 20.86C12.0119 20.8534 12.0317 20.8449 12.0604 20.8287C12.0964 20.8084 12.1379 20.784 12.1951 20.7506C13.1112 20.216 14.7787 19.1377 16.2381 17.652L4.99983 6.41367V11.9996Z" fill="#475467"/>
</svg>
