<svg width="24" height="24" viewBox="0 0 24 24" fill="none" xmlns="http://www.w3.org/2000/svg">
<path d="M19.0003 7.21744C19.0003 6.33625 18.9844 6.1603 18.9348 6.02994C18.8771 5.87832 18.7831 5.74269 18.6614 5.63541C18.5567 5.54327 18.3972 5.46713 17.5725 5.15787L13.0003 3.44303V20.2546C13.957 19.6357 15.2288 18.707 16.3587 17.5299C17.8609 15.9649 19.0003 14.0815 19.0003 11.9997V7.21744ZM5.00026 11.9997C5.00026 14.0815 6.13963 15.9649 7.64186 17.5299C8.77176 18.707 10.0435 19.6357 11.0003 20.2546V3.44303L6.42799 5.15787C5.60331 5.46713 5.44377 5.54327 5.33913 5.63541C5.21739 5.74269 5.12346 5.87832 5.06569 6.02994C5.01608 6.1603 5.00026 6.33625 5.00026 7.21744V11.9997ZM21.0003 11.9997C21.0003 14.8263 19.4628 17.1835 17.801 18.9147C16.1284 20.6572 14.2146 21.8877 13.2024 22.4782C13.0126 22.5889 12.7603 22.7468 12.4192 22.82C12.16 22.8755 11.8406 22.8755 11.5813 22.82C11.2402 22.7468 10.988 22.5889 10.7981 22.4782C9.78594 21.8877 7.87211 20.6572 6.19948 18.9147C4.53771 17.1835 3.00026 14.8263 3.00026 11.9997V7.21744C3.00026 6.49985 2.98465 5.87585 3.19655 5.319C3.36982 4.86371 3.65138 4.4575 4.01686 4.13541C4.46389 3.74146 5.05388 3.53681 5.72584 3.28482L11.0872 1.27408C11.2549 1.2112 11.4755 1.12303 11.7141 1.08853C11.8565 1.06796 12.0006 1.06261 12.1438 1.07291L12.2864 1.08853L12.4612 1.12369C12.6318 1.16605 12.7876 1.22691 12.9133 1.27408L18.2747 3.28482C18.9466 3.53681 19.5366 3.74146 19.9837 4.13541C20.3491 4.4575 20.6307 4.86371 20.804 5.319C21.0159 5.87585 21.0003 6.49985 21.0003 7.21744V11.9997Z" fill="#475467"/>
</svg>
