<svg width="24" height="24" viewBox="0 0 24 24" fill="none" xmlns="http://www.w3.org/2000/svg">
<path d="M19 8.19958C19 7.64935 18.9995 7.28489 18.9814 7.00916C18.9635 6.73601 18.932 6.64037 18.917 6.60583C18.8559 6.46525 18.8147 6.40413 18.7842 6.36658C18.7536 6.32902 18.7023 6.27626 18.5772 6.18787C18.5771 6.18789 18.5496 6.16921 18.4697 6.13806C18.3873 6.10596 18.2699 6.06829 18.1016 6.0238C17.7585 5.93314 17.2908 5.8354 16.6143 5.6947C14.9953 5.35798 13.7291 4.74125 12.582 3.85388C12.3262 3.656 12.1661 3.53263 12.0459 3.44958C12.0284 3.43751 12.0127 3.42857 12 3.42029C11.9873 3.42857 11.9716 3.43751 11.9541 3.44958C11.8339 3.53263 11.6738 3.656 11.418 3.85388C10.2709 4.74125 9.00475 5.35798 7.38575 5.6947C6.70925 5.8354 6.24154 5.93314 5.89844 6.0238C5.73012 6.06829 5.61267 6.10596 5.53028 6.13806C5.45036 6.16921 5.42286 6.18789 5.42286 6.18787C5.2977 6.27625 5.24639 6.32902 5.21582 6.36658C5.18528 6.40413 5.1441 6.46525 5.08301 6.60583C5.06801 6.64037 5.03646 6.73601 5.01856 7.00916C5.00051 7.28489 5 7.64935 5 8.19958V12.0004C5.00016 14.082 6.13949 15.9648 7.64161 17.5297C9.13266 19.083 10.8697 20.2053 11.8057 20.7513C11.8629 20.7847 11.9046 20.8083 11.9404 20.8285C11.9685 20.8443 11.9872 20.8542 12 20.8607C12.0128 20.8542 12.0315 20.8443 12.0596 20.8285C12.0955 20.8083 12.1371 20.7847 12.1943 20.7513C13.1303 20.2053 14.8673 19.083 16.3584 17.5297C17.8605 15.9648 18.9998 14.082 19 12.0004V8.19958ZM21 12.0004C20.9999 14.8268 19.4625 17.1833 17.8008 18.9144C16.1279 20.6571 14.2142 21.8884 13.2022 22.4789C13.0123 22.5896 12.7601 22.7465 12.4189 22.8197C12.1597 22.8752 11.8403 22.8752 11.5811 22.8197C11.2399 22.7465 10.9877 22.5896 10.7979 22.4789C9.78576 21.8884 7.87207 20.6571 6.19922 18.9144C4.53754 17.1833 3.00016 14.8268 3 12.0004V8.19958C3 7.67651 2.99917 7.23556 3.02246 6.87927C3.04594 6.52057 3.09765 6.15643 3.24805 5.80994C3.35507 5.56353 3.48259 5.32801 3.66407 5.10486C3.84558 4.88171 4.05008 4.70904 4.26954 4.55408C4.59548 4.32394 4.99707 4.19321 5.38672 4.09021C5.79388 3.98259 6.32445 3.87273 6.97852 3.73669C8.2933 3.46325 9.28064 2.97791 10.1934 2.27185C10.4311 2.08795 10.6414 1.92502 10.8164 1.80408C10.9806 1.69058 11.2087 1.54604 11.4795 1.47302L11.7188 1.42029C11.8055 1.40627 11.8992 1.39685 12 1.39685C12.2017 1.39685 12.3752 1.43385 12.5205 1.47302C12.7913 1.54604 13.0194 1.69058 13.1836 1.80408C13.3586 1.92502 13.5689 2.08795 13.8066 2.27185C14.7194 2.97791 15.7067 3.46325 17.0215 3.73669C17.6756 3.87273 18.2061 3.98259 18.6133 4.09021C19.0029 4.19321 19.4045 4.32394 19.7305 4.55408C19.9499 4.70904 20.1544 4.88171 20.3359 5.10486C20.5174 5.32801 20.6449 5.56353 20.752 5.80994C20.9024 6.15643 20.9541 6.52057 20.9775 6.87927C21.0008 7.23556 21 7.67651 21 8.19958V12.0004Z" fill="#475467"/>
</svg>
