<svg width="24" height="24" viewBox="0 0 24 24" fill="none" xmlns="http://www.w3.org/2000/svg">
<path d="M12.0003 1C14.423 1 16.4425 2.72326 16.9017 5.01074C17.1244 5.01649 17.3308 5.02416 17.5209 5.03906C18.0432 5.08004 18.524 5.16853 18.9837 5.38672C19.7007 5.72707 20.3006 6.27297 20.7064 6.95508C20.9667 7.39258 21.0993 7.86344 21.1888 8.37988C21.2763 8.88419 21.3341 9.50615 21.4046 10.2588L22.0043 16.6582C22.0879 17.5509 22.1571 18.283 22.1625 18.8779C22.1679 19.4835 22.1106 20.0452 21.8812 20.5791C21.5275 21.4022 20.9079 22.0828 20.1214 22.5117C19.6114 22.7899 19.0577 22.8991 18.4544 22.9502C17.8616 23.0004 17.1263 23 16.2298 23H7.77183C6.87525 23 6.14007 23.0004 5.54722 22.9502C4.94395 22.8991 4.39029 22.7898 3.88023 22.5117C3.09377 22.0828 2.47414 21.4021 2.12046 20.5791C1.89106 20.0452 1.83276 19.4835 1.83823 18.8779C1.84361 18.283 1.91373 17.5509 1.99741 16.6582L2.59702 10.2588C2.66759 9.50613 2.72539 8.88419 2.81284 8.37988C2.90241 7.8634 3.03497 7.39261 3.29527 6.95508C3.70099 6.2731 4.30011 5.72709 5.01695 5.38672C5.47681 5.16842 5.95829 5.08004 6.48081 5.03906C6.67041 5.0242 6.87599 5.01649 7.098 5.01074C7.55705 2.72321 9.57772 1.00018 12.0003 1ZM15.0003 9V7H9.00034V9C9.00034 9.55228 8.55263 10 8.00034 10C7.44823 9.9998 7.00035 9.55216 7.00034 9V7.01367C6.86895 7.01841 6.74856 7.02446 6.63706 7.0332C6.23572 7.06468 6.02597 7.12191 5.87534 7.19336C5.51685 7.36353 5.21691 7.6365 5.01402 7.97754C4.92874 8.12088 4.8524 8.32464 4.78355 8.72168C4.71259 9.13087 4.66172 9.66145 4.58823 10.4453L3.98863 16.8457C3.90174 17.7725 3.84267 18.406 3.83823 18.8965C3.83394 19.3757 3.88496 19.6203 3.95738 19.7891C4.13418 20.2006 4.44409 20.5414 4.83726 20.7559C4.9986 20.8438 5.23787 20.9175 5.71616 20.958C6.20501 20.9994 6.84083 21 7.77183 21H16.2298C17.1608 21 17.7967 20.9994 18.2855 20.958C18.7634 20.9176 19.0021 20.8438 19.1634 20.7559C19.5567 20.5414 19.8675 20.2006 20.0443 19.7891C20.1167 19.6203 20.1668 19.3757 20.1625 18.8965C20.158 18.406 20.0999 17.7725 20.013 16.8457L19.4134 10.4453C19.3399 9.66147 19.2891 9.13087 19.2181 8.72168C19.1493 8.32471 19.0729 8.12088 18.9876 7.97754C18.7848 7.63649 18.4848 7.36354 18.1263 7.19336C17.9757 7.12188 17.766 7.0647 17.3646 7.0332C17.2529 7.02445 17.132 7.01842 17.0003 7.01367V9C17.0003 9.55228 16.5526 10 16.0003 10C15.4482 9.9998 15.0003 9.55216 15.0003 9ZM12.0003 3C10.6947 3.00016 9.58728 3.83553 9.17515 5H14.8265C14.4144 3.83538 13.3062 3 12.0003 3Z" fill="#475467"/>
</svg>
