<svg width="24" height="24" viewBox="0 0 24 24" fill="none" xmlns="http://www.w3.org/2000/svg">
<path d="M14.2929 14.293C14.659 13.9269 15.238 13.9043 15.6308 14.2246L15.707 14.293L19.9999 18.5859V16C19.9999 15.4477 20.4476 15 20.9999 15C21.5522 15 21.9999 15.4477 21.9999 16V21C21.9999 21.5523 21.5522 22 20.9999 22H15.9999C15.4476 22 14.9999 21.5523 14.9999 21C14.9999 20.4477 15.4476 20 15.9999 20H18.5859L14.2929 15.707L14.2245 15.6309C13.9042 15.2381 13.9268 14.6591 14.2929 14.293ZM2.29289 2.29297C2.68342 1.90244 3.31643 1.90244 3.70696 2.29297L9.70696 8.29297L9.77532 8.36914C10.0957 8.76191 10.0731 9.34092 9.70696 9.70703C9.34084 10.0731 8.76184 10.0957 8.36907 9.77539L8.29289 9.70703L2.29289 3.70703C1.90237 3.31651 1.90237 2.68349 2.29289 2.29297ZM21.9999 8C21.9999 8.55228 21.5522 9 20.9999 9C20.4476 9 19.9999 8.55228 19.9999 8V5.41406L3.70696 21.707C3.31643 22.0976 2.68342 22.0976 2.29289 21.707C1.90237 21.3165 1.90237 20.6835 2.29289 20.293L18.5859 4H15.9999C15.4476 4 14.9999 3.55228 14.9999 3C14.9999 2.44772 15.4476 2 15.9999 2H20.9999C21.5522 2 21.9999 2.44772 21.9999 3V8Z" fill="#475467"/>
</svg>
