<svg width="24" height="24" viewBox="0 0 24 24" fill="none" xmlns="http://www.w3.org/2000/svg">
<path d="M17.293 14.293C17.6591 13.9269 18.2381 13.9043 18.6309 14.2247L18.707 14.293L21.707 17.293C22.0976 17.6835 22.0976 18.3166 21.707 18.7071L18.707 21.7071C18.3165 22.0976 17.6835 22.0976 17.293 21.7071C16.9024 21.3166 16.9024 20.6835 17.293 20.293L18.5859 19H18.5693C17.6924 19 17.0452 19.01 16.4434 18.8272C15.9402 18.6744 15.4717 18.4238 15.0654 18.0899C14.5796 17.6905 14.2295 17.1465 13.7432 16.417L13.501 16.0547C13.1948 15.5953 13.319 14.9744 13.7783 14.668C14.2092 14.3808 14.7822 14.472 15.1045 14.8633L15.165 14.9454L15.4072 15.3077C15.9627 16.1409 16.1336 16.3787 16.3359 16.545C16.539 16.7119 16.7729 16.8377 17.0244 16.9141C17.275 16.9902 17.568 17 18.5693 17H18.5859L17.293 15.7071L17.2246 15.6309C16.9043 15.2381 16.9269 14.6591 17.293 14.293ZM17.293 2.29302C17.6835 1.90249 18.3165 1.90249 18.707 2.29302L21.707 5.29302C22.0976 5.68354 22.0976 6.31655 21.707 6.70708L18.707 9.70708C18.3165 10.0976 17.6835 10.0976 17.293 9.70708C16.9024 9.31655 16.9024 8.68354 17.293 8.29302L18.5859 7.00005H18.5693C17.568 7.00005 17.275 7.00991 17.0244 7.08598C16.7729 7.16237 16.539 7.28822 16.3359 7.45512C16.1336 7.62144 15.9627 7.85915 15.4072 8.69243L10.2568 16.417C9.77051 17.1465 9.42036 17.6905 8.93457 18.0899C8.52833 18.4238 8.0598 18.6744 7.55664 18.8272C6.95476 19.01 6.30758 19 5.43066 19H3C2.44772 19 2 18.5523 2 18C2 17.4478 2.44772 17 3 17H5.43066C6.43197 17 6.72498 16.9902 6.97559 16.9141C7.22712 16.8377 7.46096 16.7119 7.66406 16.545C7.86642 16.3786 8.03725 16.1409 8.59277 15.3077L13.7432 7.58305C14.2295 6.85356 14.5796 6.30959 15.0654 5.9102C15.4717 5.57631 15.9402 5.3257 16.4434 5.1729C17.0452 4.99013 17.6924 5.00005 18.5693 5.00005H18.5859L17.293 3.70708L17.2246 3.63091C16.9043 3.23813 16.9269 2.65913 17.293 2.29302ZM5.43066 5.00005C6.30758 5.00005 6.95476 4.99013 7.55664 5.1729C8.0598 5.3257 8.52833 5.57631 8.93457 5.9102C9.42036 6.30959 9.77051 6.85356 10.2568 7.58305L10.499 7.94536L10.5508 8.03325C10.788 8.48117 10.6524 9.04479 10.2217 9.33208C9.79081 9.61933 9.2178 9.52807 8.89551 9.13677L8.83496 9.05473L8.59277 8.69243C8.03725 7.85915 7.86642 7.62144 7.66406 7.45512C7.46096 7.28822 7.22713 7.16237 6.97559 7.08598C6.72498 7.00991 6.43197 7.00005 5.43066 7.00005H3C2.44772 7.00005 2 6.55233 2 6.00005C2 5.44776 2.44772 5.00005 3 5.00005H5.43066Z" fill="#475467"/>
</svg>
