<svg width="24" height="24" viewBox="0 0 24 24" fill="none" xmlns="http://www.w3.org/2000/svg">
<path d="M4.2215 4.22192C4.61198 3.83143 5.24503 3.8315 5.63556 4.22192C6.02608 4.61244 6.02608 5.24545 5.63556 5.63598C2.12108 9.15058 2.12125 14.8488 5.63556 18.3635C6.02608 18.754 6.02608 19.388 5.63556 19.7786C5.26945 20.1443 4.69032 20.1671 4.29767 19.8469L4.2215 19.7786L3.83185 19.3674C-0.0695131 15.0494 0.0600917 8.38344 4.2215 4.22192ZM18.3641 4.22192C18.7302 3.85589 19.3092 3.83315 19.702 4.15356L19.7781 4.22192L20.1678 4.63207C24.0695 8.95014 23.9398 15.6169 19.7781 19.7786C19.3877 20.1689 18.7546 20.1687 18.3641 19.7786C17.9736 19.3881 17.9736 18.755 18.3641 18.3645C21.7689 14.9597 21.8753 9.50489 18.6834 5.97192L18.3641 5.63598L18.2947 5.55981C17.9747 5.16704 17.9981 4.58791 18.3641 4.22192ZM7.04962 7.05004C7.44015 6.65952 8.07414 6.65952 8.46466 7.05004C8.85497 7.44045 8.85479 8.07358 8.46466 8.4641L8.28693 8.65063C6.57061 10.55 6.57076 13.4494 8.28693 15.3489L8.46466 15.5354L8.53302 15.6116C8.85319 16.0042 8.83043 16.5834 8.46466 16.9495C8.07414 17.34 7.44015 17.34 7.04962 16.9495C4.31635 14.2158 4.3162 9.7836 7.04962 7.05004ZM15.535 7.05004C15.9011 6.68387 16.4811 6.66119 16.8738 6.98168L16.95 7.05004L17.1981 7.31176C19.6804 10.0595 19.5978 14.3013 16.95 16.9495L16.8738 17.0188C16.4811 17.3391 15.9011 17.3156 15.535 16.9495C15.1448 16.5589 15.1447 15.9258 15.535 15.5354C17.4876 13.5828 17.4876 10.4167 15.535 8.4641C15.1449 8.07357 15.1447 7.44044 15.535 7.05004ZM12.9998 12.0002C12.9998 11.448 12.5521 11.0002 11.9998 11.0002C11.4475 11.0002 10.9998 11.448 10.9998 12.0002C10.9999 12.5524 11.4476 13.0002 11.9998 13.0002C12.552 13.0002 12.9997 12.5524 12.9998 12.0002ZM14.9998 12.0002C14.9997 13.657 13.6566 15.0002 11.9998 15.0002C10.343 15.0002 8.99994 13.657 8.99982 12.0002C8.99982 10.3434 10.343 9.00024 11.9998 9.00024C13.6567 9.00024 14.9998 10.3434 14.9998 12.0002Z" fill="#475467"/>
</svg>
