<svg width="24" height="24" viewBox="0 0 24 24" fill="none" xmlns="http://www.w3.org/2000/svg">
<path d="M4.22175 4.2217C8.51751 -0.0740638 15.4826 -0.0740638 19.7784 4.2217C24.0742 8.51747 24.0742 15.4826 19.7784 19.7783C19.3879 20.1688 18.7549 20.1686 18.3643 19.7783C17.9738 19.3878 17.9738 18.7548 18.3643 18.3643C21.879 14.8496 21.879 9.15049 18.3643 5.63577C14.8496 2.12105 9.15053 2.12105 5.63581 5.63577C2.23097 9.04061 2.12452 14.4954 5.31647 18.0283L5.63581 18.3643L5.70514 18.4395C6.02557 18.8323 6.00195 19.4122 5.63581 19.7783C5.26967 20.1443 4.69061 20.167 4.29792 19.8467L4.22175 19.7783L3.8321 19.3682C-0.0696819 15.0501 0.0600994 8.38335 4.22175 4.2217ZM7.04987 7.04983C9.78354 4.31616 14.2166 4.31616 16.9503 7.04983C19.6839 9.7835 19.6839 14.2165 16.9503 16.9502C16.5597 17.3407 15.9258 17.3407 15.5352 16.9502C15.1447 16.5597 15.1447 15.9257 15.5352 15.5352C17.4878 13.5826 17.4878 10.4175 15.5352 8.46487C13.5826 6.51225 10.4175 6.51225 8.46491 8.46487C6.57338 10.3564 6.51399 13.3859 8.28718 15.3487L8.46491 15.5352L8.53327 15.6114C8.85366 16.0041 8.83104 16.5841 8.46491 16.9502C8.09877 17.3163 7.51881 17.339 7.12604 17.0186L7.04987 16.9502L6.80182 16.6885C4.31926 13.9406 4.40168 9.69801 7.04987 7.04983ZM9.87897 9.87893C11.0505 8.70736 12.9496 8.70736 14.1212 9.87893C15.2927 11.0505 15.2927 12.9495 14.1212 14.1211C13.7306 14.5116 13.0976 14.5116 12.7071 14.1211C12.3411 13.755 12.3184 13.1759 12.6387 12.7832L12.7755 12.6309C13.0958 12.2381 13.0732 11.6591 12.7071 11.293C12.3166 10.9025 11.6836 10.9025 11.293 11.293C10.9269 11.6591 10.9043 12.2381 11.2247 12.6309L11.3614 12.7832C11.6817 13.1759 11.659 13.755 11.293 14.1211C10.9271 14.4871 10.3479 14.5104 9.95514 14.1905L9.87897 14.1211L9.77253 14.0098C8.70823 12.8321 8.74392 11.014 9.87897 9.87893Z" fill="#475467"/>
</svg>
