<svg width="24" height="24" viewBox="0 0 24 24" fill="none" xmlns="http://www.w3.org/2000/svg">
<path d="M12.9998 10.0002C12.9998 9.44795 12.5521 9.00024 11.9998 9.00024C11.4476 9.00036 10.9998 9.44802 10.9998 10.0002C10.9999 10.5523 11.4477 11.0001 11.9998 11.0002C12.552 11.0002 12.9997 10.5524 12.9998 10.0002ZM4.2215 2.22192C4.61198 1.83143 5.24503 1.8315 5.63556 2.22192C6.02608 2.61244 6.02608 3.24545 5.63556 3.63598C2.12108 7.15058 2.12125 12.8488 5.63556 16.3635C6.02608 16.754 6.02608 17.388 5.63556 17.7786C5.26945 18.1443 4.69032 18.1671 4.29767 17.8469L4.2215 17.7786L3.83185 17.3674C-0.0695131 13.0494 0.0600917 6.38344 4.2215 2.22192ZM18.3641 2.22192C18.7546 1.83143 19.3876 1.8315 19.7781 2.22192C24.0739 6.51768 24.0739 13.4828 19.7781 17.7786L19.7029 17.8469C19.3102 18.1674 18.7303 18.1446 18.3641 17.7786C17.9736 17.388 17.9736 16.754 18.3641 16.3635C21.8786 12.8488 21.8787 7.15064 18.3641 3.63598C17.9737 3.24548 17.9737 2.61241 18.3641 2.22192ZM7.0506 5.05004C7.44114 4.65976 8.07422 4.6596 8.46466 5.05004C8.85511 5.44048 8.85495 6.07356 8.46466 6.4641C6.57311 8.35565 6.5137 11.3861 8.28693 13.3489L8.46466 13.5354L8.53302 13.6116C8.8533 14.0043 8.83058 14.5833 8.46466 14.9495C8.09853 15.3156 7.51857 15.3392 7.12579 15.0188L7.0506 14.9495L6.80157 14.6887C4.31897 11.9408 4.4024 7.69824 7.0506 5.05004ZM15.5359 5.05004C15.9021 4.68416 16.4812 4.66137 16.8738 4.98168L16.95 5.05004L17.1981 5.31176C19.6805 8.05956 19.598 12.3013 16.95 14.9495C16.5595 15.34 15.9265 15.3399 15.5359 14.9495C15.1454 14.5589 15.1454 13.9259 15.5359 13.5354C17.4274 11.6437 17.4863 8.6133 15.7127 6.65063L15.5359 6.4641L15.4666 6.38891C15.1462 5.99613 15.1698 5.41618 15.5359 5.05004ZM14.9998 10.0002C14.9997 11.306 14.1644 12.4133 12.9998 12.8254V21.0002C12.9997 21.5524 12.552 22.0002 11.9998 22.0002C11.4477 22.0001 10.9999 21.5523 10.9998 21.0002V12.8254C9.83543 12.4132 8.99992 11.3058 8.99982 10.0002C8.99982 8.34345 10.3431 7.00036 11.9998 7.00024C13.6567 7.00024 14.9998 8.34338 14.9998 10.0002Z" fill="#475467"/>
</svg>
