<svg width="24" height="24" viewBox="0 0 24 24" fill="none" xmlns="http://www.w3.org/2000/svg">
<path d="M20.998 8.27933C20.998 8.27812 20.9971 8.27654 20.997 8.27543C20.9963 8.27461 20.9959 8.27338 20.9951 8.2725C20.9631 8.23739 20.9168 8.19123 20.8242 8.09867L15.9013 3.17582C15.8088 3.08325 15.7626 3.03696 15.7275 3.00492C15.7263 3.00378 15.7247 3.003 15.7236 3.00199H15.7207C15.6733 2.99984 15.6079 3.00004 15.4775 3.00004H8.52244C8.39203 3.00004 8.32669 2.99984 8.27927 3.00199C8.27808 3.00204 8.27647 3.00193 8.27537 3.00199C8.2744 3.00286 8.27349 3.00396 8.27244 3.00492C8.23733 3.03696 8.19117 3.08325 8.09861 3.17582L6.34372 4.92972L19.0693 17.6553L20.8242 15.9014C20.9168 15.8088 20.9631 15.7627 20.9951 15.7276C20.9961 15.7265 20.9962 15.7246 20.997 15.7237L20.998 15.7207C21.0002 15.6733 21 15.608 21 15.4776V8.5225C21 8.3921 21.0002 8.32675 20.998 8.27933ZM2.99997 15.4776C2.99997 15.608 2.99978 15.6733 3.00193 15.7207V15.7237C3.00294 15.7248 3.00371 15.7263 3.00486 15.7276C3.0369 15.7627 3.08319 15.8088 3.17576 15.9014L8.09861 20.8243C8.19117 20.9168 8.23733 20.9631 8.27244 20.9952C8.27331 20.996 8.27455 20.9964 8.27537 20.9971C8.27648 20.9972 8.27806 20.998 8.27927 20.9981C8.32669 21.0002 8.39203 21 8.52244 21H15.4775C15.6079 21 15.6733 21.0002 15.7207 20.9981L15.7236 20.9971C15.7246 20.9962 15.7264 20.9961 15.7275 20.9952C15.7626 20.9631 15.8088 20.9168 15.9013 20.8243L17.6552 19.0694L4.92966 6.34379L3.17576 8.09867C3.08319 8.19123 3.0369 8.23739 3.00486 8.2725C3.00389 8.27355 3.0028 8.27446 3.00193 8.27543C3.00187 8.27653 3.00198 8.27814 3.00193 8.27933C2.99978 8.32675 2.99997 8.3921 2.99997 8.5225V15.4776ZM23 15.4776C23 15.6745 23.0059 15.9357 22.9443 16.1924C22.8953 16.3965 22.8147 16.5916 22.7051 16.7705C22.567 16.9958 22.3775 17.1762 22.2383 17.3155L19.7851 19.7676C19.7822 19.7706 19.7803 19.7744 19.7773 19.7774C19.7744 19.7803 19.7705 19.7823 19.7676 19.7852L17.3154 22.2383C17.1761 22.3776 16.9958 22.5671 16.7705 22.7051C16.5916 22.8147 16.3964 22.8954 16.1924 22.9444C15.9356 23.006 15.6744 23 15.4775 23H8.52244C8.32552 23 8.06435 23.006 7.80759 22.9444C7.60356 22.8954 7.40838 22.8147 7.22947 22.7051C7.00419 22.5671 6.82383 22.3776 6.68455 22.2383L1.76169 17.3155C1.6224 17.1762 1.43295 16.9958 1.2949 16.7705C1.18527 16.5916 1.10462 16.3964 1.05564 16.1924C0.994029 15.9357 0.999968 15.6745 0.999975 15.4776V8.5225C0.999969 8.32558 0.994029 8.06442 1.05564 7.80765C1.10462 7.60362 1.18527 7.40844 1.2949 7.22953C1.43295 7.00425 1.6224 6.82389 1.76169 6.68461L6.68455 1.76175C6.82383 1.62246 7.00419 1.43301 7.22947 1.29496C7.40838 1.18533 7.60356 1.10468 7.80759 1.0557C8.06435 0.99409 8.32552 1.00003 8.52244 1.00004H15.4775C15.6744 1.00003 15.9356 0.99409 16.1924 1.0557C16.3964 1.10468 16.5916 1.18533 16.7705 1.29496C16.9958 1.43301 17.1761 1.62247 17.3154 1.76175L22.2383 6.68461C22.3775 6.82389 22.567 7.00425 22.7051 7.22953C22.7873 7.36378 22.8538 7.50689 22.9023 7.65629L22.9443 7.80765L22.9795 8.00004C23.0036 8.19102 23 8.37485 23 8.5225V15.4776Z" fill="#475467"/>
</svg>
