<svg width="24" height="24" viewBox="0 0 24 24" fill="none" xmlns="http://www.w3.org/2000/svg">
<path d="M11 22V18.4141L7.70703 21.707C7.31651 22.0976 6.68349 22.0976 6.29297 21.707C5.90244 21.3165 5.90244 20.6835 6.29297 20.293L11 15.5859V13H8.41406L3.70703 17.707C3.31651 18.0976 2.68349 18.0976 2.29297 17.707C1.90244 17.3165 1.90244 16.6835 2.29297 16.293L5.58594 13H2C1.44772 13 1 12.5523 1 12C1 11.4477 1.44772 11 2 11H5.58594L2.29297 7.70703L2.22461 7.63086C1.90426 7.23809 1.92685 6.65908 2.29297 6.29297C2.65908 5.92685 3.23809 5.90426 3.63086 6.22461L3.70703 6.29297L8.41406 11H11V8.41406L6.29297 3.70703L6.22461 3.63086C5.90426 3.23809 5.92685 2.65908 6.29297 2.29297C6.65908 1.92685 7.23809 1.90426 7.63086 2.22461L7.70703 2.29297L11 5.58594V2C11 1.44772 11.4477 1 12 1C12.5523 1 13 1.44772 13 2V5.58594L16.293 2.29297C16.6835 1.90244 17.3165 1.90244 17.707 2.29297C18.0976 2.68349 18.0976 3.31651 17.707 3.70703L13 8.41406V11H15.5859L20.293 6.29297C20.6835 5.90244 21.3165 5.90244 21.707 6.29297C22.0976 6.68349 22.0976 7.31651 21.707 7.70703L18.4141 11H22C22.5523 11 23 11.4477 23 12C23 12.5523 22.5523 13 22 13H18.4141L21.707 16.293L21.7754 16.3691C22.0957 16.7619 22.0731 17.3409 21.707 17.707C21.3409 18.0731 20.7619 18.0957 20.3691 17.7754L20.293 17.707L15.5859 13H13V15.5859L17.707 20.293L17.7754 20.3691C18.0957 20.7619 18.0731 21.3409 17.707 21.707C17.3409 22.0731 16.7619 22.0957 16.3691 21.7754L16.293 21.707L13 18.4141V22C13 22.5523 12.5523 23 12 23C11.4477 23 11 22.5523 11 22Z" fill="#475467"/>
</svg>
