<svg width="24" height="24" viewBox="0 0 24 24" fill="none" xmlns="http://www.w3.org/2000/svg">
<path d="M14.2931 1.29299C14.6836 0.902483 15.3167 0.902515 15.7072 1.29299C16.0977 1.68352 16.0977 2.31653 15.7072 2.70705L13.0002 5.41408V10.2676L17.2033 7.83987L18.1945 4.14358C18.3374 3.61022 18.8857 3.29284 19.4191 3.43557C19.9526 3.57851 20.2691 4.12769 20.1261 4.66115L19.2863 7.79201L22.4191 8.63186C22.9525 8.77477 23.2688 9.32311 23.1261 9.85647C22.9832 10.3899 22.435 10.7074 21.9015 10.5645L18.2033 9.57229L14.0002 12L18.2033 14.4268L21.9015 13.4356C22.4348 13.2927 22.983 13.6094 23.1261 14.1426C23.2691 14.6761 22.9526 15.2253 22.4191 15.3682L19.2863 16.2071L20.1261 19.3389C20.2691 19.8724 19.9526 20.4205 19.4191 20.5635C18.8857 20.7064 18.3374 20.3899 18.1945 19.8565L17.2033 16.1592L13.0002 13.7315V18.586L15.7072 21.293L15.7756 21.3692C16.0959 21.7619 16.0733 22.3409 15.7072 22.7071C15.3167 23.0975 14.6836 23.0976 14.2931 22.7071L12.0002 20.4141L9.70719 22.7071C9.31666 23.0975 8.68364 23.0976 8.29313 22.7071C7.90267 22.3165 7.90267 21.6835 8.29313 21.293L11.0002 18.586V13.7315L6.79704 16.1582L5.80582 19.8565C5.6629 20.3899 5.11464 20.7073 4.58122 20.5645C4.04775 20.4215 3.73124 19.8724 3.87418 19.3389L4.71305 16.2071L1.58122 15.3682C1.04788 15.2253 0.731503 14.6769 0.874184 14.1436C1.01711 13.6102 1.56537 13.2927 2.09879 13.4356L5.79606 14.4268L9.99918 12L5.79606 9.57229L2.09879 10.5645L1.99918 10.586C1.4989 10.6671 1.00836 10.3574 0.874184 9.85744C0.731204 9.32399 1.04776 8.77484 1.58122 8.63186L4.71305 7.79201L3.87418 4.66115L3.8527 4.56057C3.77179 4.06038 4.08129 3.57061 4.58122 3.43655C5.08136 3.30255 5.59463 3.57207 5.77457 4.04592L5.80582 4.14358L6.79606 7.83987L11.0002 10.2676V5.41408L8.29313 2.70705C7.90267 2.31654 7.90267 1.6835 8.29313 1.29299C8.68364 0.902483 9.31666 0.902516 9.70719 1.29299L12.0002 3.58596L14.2931 1.29299Z" fill="#475467"/>
</svg>
