<svg width="24" height="24" viewBox="0 0 24 24" fill="none" xmlns="http://www.w3.org/2000/svg">
<path d="M21 20C21.5523 20 22 20.4477 22 21C22 21.5523 21.5523 22 21 22H3C2.44772 22 2 21.5523 2 21C2 20.4477 2.44772 20 3 20H21ZM11.5752 5.09473C11.8887 4.94753 12.2606 4.97193 12.5547 5.16797L15.5547 7.16797L15.6367 7.22852C16.0282 7.55079 16.1193 8.12376 15.832 8.55469C15.5448 8.98546 14.9812 9.1218 14.5332 8.88477L14.4453 8.83203L13 7.86816V16.1309L14.4453 15.168C14.9048 14.8616 15.5257 14.9858 15.832 15.4453C16.1384 15.9048 16.0142 16.5257 15.5547 16.832L12.5547 18.832C12.2188 19.056 11.7812 19.056 11.4453 18.832L8.44531 16.832L8.36328 16.7715C7.97184 16.4492 7.88068 15.8762 8.16797 15.4453C8.45515 15.0145 9.01884 14.8782 9.4668 15.1152L9.55469 15.168L11 16.1309V7.86816L9.55469 8.83203C9.09516 9.13838 8.47432 9.01422 8.16797 8.55469C7.86162 8.09516 7.98578 7.47432 8.44531 7.16797L11.4453 5.16797L11.5752 5.09473ZM21 2C21.5523 2 22 2.44772 22 3C22 3.55228 21.5523 4 21 4H3C2.44772 4 2 3.55228 2 3C2 2.44772 2.44772 2 3 2H21Z" fill="#475467"/>
</svg>
