<svg width="24" height="24" viewBox="0 0 24 24" fill="none" xmlns="http://www.w3.org/2000/svg">
<path d="M21 12C21 7.02944 16.9706 3 12 3C7.02944 3 3 7.02944 3 12C3 16.9706 7.02944 21 12 21C16.9706 21 21 16.9706 21 12ZM4 12C4 7.58172 7.58172 4 12 4C12.3608 4 12.7165 4.02382 13.0654 4.07031L13.4131 4.12402L13.5127 4.14746C13.9999 4.28646 14.3124 4.77467 14.2217 5.28418C14.1308 5.79391 13.6685 6.14456 13.1631 6.10645L13.0615 6.09375L12.8018 6.05273C12.5399 6.01782 12.2723 6 12 6C8.68629 6 6 8.68629 6 12C6 13.1963 6.34923 14.3084 6.95117 15.2432L7.0752 15.4277L7.12891 15.5146C7.37546 15.9575 7.25171 16.524 6.82715 16.8203C6.40252 17.1165 5.82757 17.0375 5.49707 16.6533L5.43457 16.5723L5.26953 16.3262C4.46615 15.0785 4 13.5924 4 12ZM18 12C18 11.6679 17.9734 11.3427 17.9219 11.0264L17.8623 10.7129L17.8447 10.6123C17.7872 10.1087 18.1201 9.63388 18.626 9.52344C19.1316 9.41318 19.6314 9.70605 19.7891 10.1875L19.8154 10.2871L19.8955 10.7051C19.9643 11.1271 20 11.5597 20 12C20 13.6984 19.4695 15.2761 18.5654 16.5723C18.2494 17.0251 17.6258 17.1362 17.1729 16.8203C16.7201 16.5043 16.609 15.8806 16.9248 15.4277C17.6024 14.4563 18 13.2761 18 12ZM15.793 6.79297C16.1835 6.40249 16.8165 6.40246 17.207 6.79297C17.5975 7.18348 17.5975 7.81652 17.207 8.20703L13.9297 11.4834C13.9738 11.6484 14 11.8211 14 12C14 13.1046 13.1046 14 12 14C10.8954 14 10 13.1046 10 12C10 10.8954 10.8954 10 12 10C12.1785 10 12.351 10.0255 12.5156 10.0693L15.793 6.79297ZM23 12C23 18.0751 18.0751 23 12 23C5.92487 23 1 18.0751 1 12C1 5.92487 5.92487 1 12 1C18.0751 1 23 5.92487 23 12Z" fill="#475467"/>
</svg>
