<svg width="24" height="24" viewBox="0 0 24 24" fill="none" xmlns="http://www.w3.org/2000/svg">
<path d="M11.5373 1.57675C11.8381 1.47912 12.1623 1.47915 12.4631 1.57675L12.6115 1.63339L12.7277 1.69296C12.9852 1.84038 13.1456 2.04776 13.2375 2.17831C13.3455 2.33189 13.4569 2.52794 13.5607 2.70858L15.4572 6.00936L19.2668 6.00253C19.4752 6.0021 19.7008 6.00137 19.8879 6.01815C20.0469 6.03242 20.3063 6.06717 20.5627 6.21639L20.6721 6.28768L20.7951 6.38729C21.0302 6.59902 21.193 6.87961 21.259 7.18905L21.2834 7.34628L21.2902 7.47616C21.2913 7.77299 21.1923 8.01587 21.1252 8.16073C21.0462 8.33104 20.9319 8.52543 20.8273 8.70565L18.9162 11.9996L20.8273 15.2935C20.932 15.4739 21.0461 15.669 21.1252 15.8394C21.2019 16.0049 21.3205 16.2981 21.2834 16.6539C21.2392 17.0775 21.0168 17.4624 20.6721 17.7125C20.3825 17.9225 20.0696 17.9657 19.8879 17.982C19.7008 17.9988 19.4752 17.9981 19.2668 17.9976L15.4582 17.9889L13.5607 21.2916C13.4569 21.4722 13.3455 21.6683 13.2375 21.8219C13.1325 21.971 12.9381 22.22 12.6115 22.3658C12.2225 22.5394 11.7778 22.5394 11.3888 22.3658C11.0624 22.22 10.8678 21.971 10.7629 21.8219C10.6549 21.6683 10.5434 21.4722 10.4396 21.2916L8.54119 17.9889L4.73455 17.9976C4.526 17.9981 4.29964 17.9988 4.11248 17.982C3.93076 17.9657 3.61777 17.9224 3.3283 17.7125C2.98353 17.4624 2.76117 17.0775 2.71697 16.6539C2.67987 16.2981 2.79845 16.0049 2.87518 15.8394C2.95422 15.669 3.06839 15.4739 3.17303 15.2935L5.08416 11.9996L3.17303 8.70565C3.06849 8.52543 2.95415 8.33104 2.87518 8.16073C2.79846 7.99526 2.67991 7.70202 2.71697 7.34628L2.74236 7.18905C2.81925 6.82832 3.02675 6.50645 3.3283 6.28768L3.43768 6.21639C3.69398 6.06716 3.95346 6.03243 4.11248 6.01815C4.29964 6.00136 4.52599 6.00211 4.73455 6.00253L8.54217 6.00936L10.4396 2.70858C10.5434 2.52795 10.6549 2.3319 10.7629 2.17831C10.8678 2.02912 11.0622 1.77916 11.3888 1.63339L11.5373 1.57675ZM10.2189 7.108C10.1685 7.19581 10.041 7.43969 9.83611 7.6246C9.6794 7.76593 9.4939 7.87303 9.29314 7.93807C9.0307 8.023 8.75587 8.01057 8.65447 8.01034L5.07732 8.00253L6.87225 11.0973C6.91039 11.163 7.00314 11.3097 7.07147 11.4928L7.12908 11.6871L7.1535 11.8424C7.17008 11.9993 7.16215 12.1581 7.12908 12.3131C7.07143 12.5832 6.92308 12.8153 6.87225 12.9029L5.07732 15.9967L8.65447 15.9889C8.7305 15.9887 8.90412 15.9819 9.09686 16.0142L9.29314 16.0621L9.44061 16.1187C9.53671 16.1615 9.628 16.2141 9.71307 16.276L9.83611 16.3746L9.97479 16.5211C10.0996 16.6722 10.1811 16.8263 10.2189 16.8922L12.0002 19.9928L13.7824 16.8922C13.833 16.8041 13.9594 16.5594 14.1642 16.3746C14.3209 16.2333 14.5065 16.1271 14.7072 16.0621L14.9035 16.0142C15.0962 15.9819 15.2697 15.9887 15.3459 15.9889L18.9221 15.9967L17.1281 12.9029C17.0772 12.8152 16.9289 12.5831 16.8713 12.3131C16.8272 12.1068 16.8273 11.8934 16.8713 11.6871L16.9289 11.4928C16.9972 11.3098 17.0899 11.163 17.1281 11.0973L18.9221 8.00253L15.3459 8.01034C15.2443 8.01058 14.9696 8.02301 14.7072 7.93807C14.5065 7.87303 14.3209 7.76593 14.1642 7.6246C13.9597 7.43995 13.833 7.1961 13.7824 7.108L12.0002 4.00643L10.2189 7.108Z" fill="#475467"/>
</svg>
