<svg width="24" height="24" viewBox="0 0 24 24" fill="none" xmlns="http://www.w3.org/2000/svg">
<path d="M21.0005 12.1172C21.0005 7.08204 16.9184 3.00017 11.8833 3C8.04484 3 4.75747 5.37257 3.41358 8.7334C3.66509 8.71638 3.91879 8.70801 4.17432 8.70801C10.3141 8.70801 15.2914 13.6855 15.2915 19.8252C15.2915 20.0807 15.2822 20.3345 15.2651 20.5859C18.6266 19.2423 21.0005 15.9561 21.0005 12.1172ZM13.2905 19.8164C13.2857 14.7875 9.21035 10.7116 4.18116 10.708L13.2905 19.8164ZM23.0005 12.1172C23.0005 17.1017 19.7204 21.3175 15.2036 22.7295C14.9813 22.799 14.683 22.903 14.3218 22.8945C14.0423 22.8879 13.7336 22.8123 13.4829 22.6885C13.2369 22.5669 13.0411 22.3929 12.8814 22.2363L12.437 21.792C12.3959 21.7513 12.3548 21.7117 12.3159 21.6729L2.32667 11.6836C2.27795 11.6349 2.22746 11.5833 2.17628 11.5312L1.76417 11.1191C1.60757 10.9594 1.43362 10.7636 1.31202 10.5176C1.18815 10.2669 1.11256 9.95826 1.10596 9.67871C1.09745 9.31753 1.20054 9.01921 1.27003 8.79688C2.68184 4.27987 6.89856 1 11.8833 1C18.023 1.00017 23.0005 5.97747 23.0005 12.1172Z" fill="#475467"/>
</svg>
