<svg width="24" height="24" viewBox="0 0 24 24" fill="none" xmlns="http://www.w3.org/2000/svg">
<path d="M19.9999 14C19.9999 13.7739 19.9191 13.5494 19.7704 13.3721L19.704 13.3038C19.544 13.1512 19.3415 13.0486 19.122 13.0118C18.8726 12.97 18.616 13.0142 18.3954 13.1377C18.1798 13.261 18.0208 13.4542 17.9423 13.6749C17.7573 14.1952 17.1853 14.4673 16.665 14.2823C16.1446 14.0973 15.8725 13.5253 16.0575 13.0049C16.299 12.3258 16.7801 11.7581 17.4042 11.4014L17.4081 11.3995C18.0285 11.0488 18.7503 10.9222 19.453 11.0401C20.156 11.1581 20.7976 11.5137 21.2695 12.0479L21.2773 12.0577C21.7434 12.5989 21.9999 13.2903 21.9999 14C21.9999 15.0823 21.3962 15.8406 20.7743 16.3409C20.1722 16.8253 19.4321 17.1659 18.9267 17.4043C18.4475 17.6304 18.2805 17.7817 18.1923 17.918C18.1775 17.9408 18.1652 17.9688 18.1503 18H20.9999C21.5522 18 21.9999 18.4478 21.9999 19C21.9999 19.5523 21.5522 20 20.9999 20H16.9999C16.4476 20 15.9999 19.5523 15.9999 19C15.9999 18.1709 16.1174 17.4432 16.5126 16.8321C16.9094 16.2185 17.4926 15.8696 18.0732 15.5957C18.6276 15.3342 19.1377 15.0902 19.5204 14.7823C19.8836 14.4901 19.9999 14.2478 19.9999 14ZM12.2929 4.29302C12.6834 3.90249 13.3164 3.90249 13.707 4.29302C14.0975 4.68354 14.0975 5.31655 13.707 5.70708L9.41399 10L13.707 14.293L13.7753 14.3692C14.0957 14.762 14.0731 15.341 13.707 15.7071C13.3408 16.0732 12.7618 16.0958 12.3691 15.7754L12.2929 15.7071L7.99992 11.4141L3.70696 15.7071C3.31643 16.0976 2.68342 16.0976 2.29289 15.7071C1.90237 15.3166 1.90237 14.6835 2.29289 14.293L6.58586 10L2.29289 5.70708C1.90237 5.31655 1.90237 4.68354 2.29289 4.29302C2.68342 3.90249 3.31643 3.90249 3.70696 4.29302L7.99992 8.58598L12.2929 4.29302Z" fill="#475467"/>
</svg>
