<svg width="24" height="24" viewBox="0 0 24 24" fill="none" xmlns="http://www.w3.org/2000/svg">
<path d="M9.60645 20.002C11.0792 19.3326 12.9208 19.3326 14.3936 20.002C15.3406 20.4324 16.5793 20.4324 17.5264 20.002L17.6211 19.9648C18.1015 19.8025 18.6363 20.0275 18.8506 20.499C19.0789 21.0017 18.8562 21.5948 18.3535 21.8232L18.0732 21.9404C16.652 22.4895 14.9472 22.4508 13.5664 21.8232C12.6193 21.3928 11.3807 21.3928 10.4336 21.8232C8.96084 22.4925 7.11923 22.4925 5.64648 21.8232C5.14383 21.5948 4.92116 21.0017 5.14941 20.499C5.37791 19.9963 5.97091 19.7736 6.47363 20.002C7.42071 20.4324 8.65937 20.4324 9.60645 20.002ZM17.5264 16.502C18.9991 15.8326 20.8407 15.8327 22.3135 16.502C22.8162 16.7305 23.039 17.3234 22.8105 17.8262C22.5962 18.2977 22.0614 18.5227 21.5811 18.3604L21.4863 18.3232L21.3057 18.2471C20.3858 17.8939 19.2414 17.9196 18.3535 18.3232C16.8807 18.9925 15.0391 18.9926 13.5664 18.3232C12.6193 17.8928 11.3807 17.8928 10.4336 18.3232C8.96083 18.9925 7.11923 18.9926 5.64648 18.3232C4.69941 17.8928 3.46075 17.8928 2.51367 18.3232L2.10059 17.4121L1.68652 16.502C3.15931 15.8326 5.00084 15.8326 6.47363 16.502C7.42071 16.9324 8.65937 16.9324 9.60645 16.502C11.0792 15.8326 12.9208 15.8326 14.3936 16.502C15.3406 16.9324 16.5793 16.9324 17.5264 16.502ZM2.51367 18.3232C2.01096 18.5515 1.41794 18.3288 1.18945 17.8262C0.961076 17.3234 1.18381 16.7305 1.68652 16.502L2.51367 18.3232ZM4 12C4.55228 12 5 12.4477 5 13C5 13.5523 4.55228 14 4 14H2C1.44772 14 1 13.5523 1 13C1 12.4477 1.44772 12 2 12H4ZM16 13C16 10.7909 14.2091 9 12 9C9.79086 9 8 10.7909 8 13C8 13.5523 7.55228 14 7 14C6.44772 14 6 13.5523 6 13C6 9.68629 8.68629 7 12 7C15.3137 7 18 9.68629 18 13C18 13.5523 17.5523 14 17 14C16.4477 14 16 13.5523 16 13ZM22 12C22.5523 12 23 12.4477 23 13C23 13.5523 22.5523 14 22 14H20C19.4477 14 19 13.5523 19 13C19 12.4477 19.4477 12 20 12H22ZM7.02148 6.60742L7.08984 6.68262C7.41038 7.07539 7.38767 7.6553 7.02148 8.02148C6.6553 8.38767 6.07539 8.41038 5.68262 8.08984L5.60742 8.02148L4.19238 6.60742L4.90039 5.90039L5.60742 5.19238L7.02148 6.60742ZM18.3926 5.19238C18.783 4.80213 19.4161 4.80223 19.8066 5.19238C20.1972 5.58291 20.1972 6.2169 19.8066 6.60742L18.3926 8.02148C18.0021 8.41178 17.369 8.41178 16.9785 8.02148C16.588 7.63102 16.5882 6.99796 16.9785 6.60742L18.3926 5.19238ZM4.19238 5.19238C4.58291 4.80186 5.2169 4.80186 5.60742 5.19238L4.19238 6.60742C3.80186 6.2169 3.80186 5.58291 4.19238 5.19238ZM11 5V3C11 2.44772 11.4477 2 12 2C12.5523 2 13 2.44772 13 3V5C13 5.55228 12.5523 6 12 6C11.4477 6 11 5.55228 11 5Z" fill="#475467"/>
</svg>
