<svg width="24" height="24" viewBox="0 0 24 24" fill="none" xmlns="http://www.w3.org/2000/svg">
<path d="M5.99999 4C5.99999 3.44772 6.4477 3 6.99999 3C7.55227 3 7.99999 3.44772 7.99999 4V17.5859L10.293 15.293C10.6835 14.9024 11.3165 14.9024 11.707 15.293C12.0975 15.6835 12.0975 16.3165 11.707 16.707L7.70702 20.707C7.31649 21.0976 6.68348 21.0976 6.29295 20.707L2.29295 16.707C1.90243 16.3165 1.90243 15.6835 2.29295 15.293C2.65907 14.9269 3.23807 14.9043 3.63084 15.2246L3.70702 15.293L5.99999 17.5859V4ZM16 20V6.41406L13.707 8.70703C13.3165 9.09756 12.6835 9.09756 12.293 8.70703C11.9024 8.31651 11.9024 7.68349 12.293 7.29297L16.293 3.29297L16.3691 3.22461C16.7619 2.90426 17.3409 2.92685 17.707 3.29297L21.707 7.29297L21.7754 7.36914C22.0957 7.76191 22.0731 8.34092 21.707 8.70703C21.3409 9.07315 20.7619 9.09574 20.3691 8.77539L20.293 8.70703L18 6.41406V20C18 20.5523 17.5523 21 17 21C16.4477 21 16 20.5523 16 20Z" fill="#475467"/>
</svg>
