<svg width="24" height="24" viewBox="0 0 24 24" fill="none" xmlns="http://www.w3.org/2000/svg">
<path d="M5.99999 20V6.41406L3.70702 8.70703C3.31649 9.09756 2.68348 9.09756 2.29295 8.70703C1.90243 8.31651 1.90243 7.68349 2.29295 7.29297L6.29295 3.29297L6.36913 3.22461C6.7619 2.90426 7.3409 2.92685 7.70702 3.29297L11.707 7.29297L11.7754 7.36914C12.0957 7.76191 12.0731 8.34092 11.707 8.70703C11.3409 9.07315 10.7619 9.09574 10.3691 8.77539L10.293 8.70703L7.99999 6.41406V20C7.99999 20.5523 7.55227 21 6.99999 21C6.4477 21 5.99999 20.5523 5.99999 20ZM16 4C16 3.44772 16.4477 3 17 3C17.5523 3 18 3.44772 18 4V17.5859L20.293 15.293C20.6835 14.9024 21.3165 14.9024 21.707 15.293C22.0975 15.6835 22.0975 16.3165 21.707 16.707L17.707 20.707C17.3165 21.0976 16.6835 21.0976 16.293 20.707L12.293 16.707L12.2246 16.6309C11.9042 16.2381 11.9268 15.6591 12.293 15.293C12.6591 14.9269 13.2381 14.9043 13.6308 15.2246L13.707 15.293L16 17.5859V4Z" fill="#475467"/>
</svg>
