<svg width="24" height="24" viewBox="0 0 24 24" fill="none" xmlns="http://www.w3.org/2000/svg">
<path d="M13.0003 13.2001C13.0003 12.6479 12.5526 12.2001 12.0003 12.2001C11.4482 12.2004 11.0003 12.648 11.0003 13.2001C11.0003 13.508 11.1399 13.7834 11.3587 13.9667C11.3872 13.9824 11.4152 13.9998 11.4427 14.0185C11.4701 14.0372 11.4968 14.0563 11.5218 14.0771C11.664 14.1549 11.8268 14.2001 12.0003 14.2001C12.1737 14.2001 12.3366 14.1548 12.4788 14.0771C12.5039 14.0561 12.5313 14.0373 12.5589 14.0185C12.5859 14.0001 12.6129 13.9822 12.6409 13.9667C12.8603 13.7834 13.0002 13.5085 13.0003 13.2001ZM5.81669 8.60346L6.59208 11.5009L17.2181 8.65425L16.7522 6.91596C16.7461 6.89302 16.7398 6.87027 16.7337 6.8476L16.4417 5.75678L5.81669 8.60346ZM3.17802 10.3457L3.43583 11.3115L4.40165 11.0537L4.14384 10.0878L3.17802 10.3457ZM20.0472 3.75581C19.5979 3.87663 19.2914 3.96169 19.0559 4.04585C18.8 4.13735 18.7125 4.2001 18.6712 4.23725C18.5143 4.37853 18.4055 4.5659 18.3616 4.77241C18.3501 4.82669 18.3401 4.93395 18.389 5.2021C18.4399 5.48176 18.5356 5.84154 18.6849 6.39839L18.8401 6.97749L19.0306 7.67866C19.0854 7.87152 19.1341 8.02824 19.1819 8.16206C19.2737 8.41863 19.3362 8.50657 19.3733 8.5478C19.5146 8.70457 19.7021 8.81251 19.9085 8.85639C19.9628 8.86793 20.0701 8.8779 20.3382 8.82905C20.5839 8.78423 20.8912 8.70375 21.3401 8.58393L20.0472 3.75581ZM15.0003 13.2001C15.0002 13.8633 14.7826 14.474 14.4183 14.9707L18.8265 21.4365C19.1376 21.8928 19.0201 22.515 18.5638 22.8261C18.136 23.1176 17.5629 23.0322 17.2366 22.6445L17.1741 22.5634L12.7659 16.0976C12.5213 16.162 12.2651 16.2001 12.0003 16.2001C11.7353 16.2001 11.4793 16.1621 11.2347 16.0976L6.82645 22.5634C6.51532 23.0193 5.89394 23.1369 5.43778 22.8261C4.98151 22.515 4.8631 21.8928 5.17411 21.4365L9.58231 14.9697C9.21842 14.4733 9.00033 13.8628 9.00028 13.2001C9.00028 13.1071 9.00468 13.0147 9.01298 12.9238L6.91825 13.4853C6.79907 13.5172 6.65153 13.5579 6.51981 13.582C6.37647 13.6081 6.16727 13.6319 5.92802 13.581C5.61829 13.5152 5.33721 13.3534 5.12528 13.1181C5.07898 13.0667 5.03964 13.0136 5.00516 12.9619L3.76102 13.2958C3.64175 13.3278 3.49434 13.3685 3.36259 13.3925C3.21932 13.4186 3.01077 13.4423 2.77177 13.3916C2.46192 13.3257 2.18001 13.1641 1.96805 12.9287C1.8044 12.7469 1.7212 12.5532 1.67216 12.416C1.62716 12.29 1.58883 12.1425 1.55692 12.0234L1.19462 10.6708C1.16266 10.5516 1.12196 10.4042 1.09794 10.2724C1.07181 10.1291 1.04708 9.91987 1.09794 9.68061L1.12723 9.56635C1.20561 9.30198 1.35576 9.06341 1.5618 8.87788L1.6995 8.76948C1.8367 8.67491 1.97072 8.61874 2.07352 8.58198C2.19969 8.53688 2.34778 8.49774 2.46708 8.46577L3.71122 8.13178C3.71527 8.07029 3.72333 8.00548 3.73759 7.93843L3.76688 7.82417C3.84523 7.55989 3.99453 7.32119 4.20048 7.13569L4.33817 7.02729C4.4756 6.93251 4.61026 6.87658 4.71317 6.83979C4.8392 6.79476 4.98657 6.75551 5.10575 6.72358L16.6643 3.62593C16.8305 3.29765 17.0556 3.00009 17.3323 2.75093C17.6479 2.46677 18.0096 2.29656 18.3831 2.16303C18.7456 2.03346 19.1979 1.91309 19.7229 1.77241C19.8422 1.74046 19.9897 1.69973 20.1214 1.67573C20.2289 1.65616 20.3731 1.63795 20.5393 1.65132L20.7122 1.67573L20.8274 1.70503C21.0539 1.77224 21.2615 1.89209 21.4329 2.05464L21.5149 2.1396L21.6233 2.27729C21.718 2.4145 21.774 2.54848 21.8108 2.65132C21.8559 2.77747 21.8951 2.92558 21.927 3.04487L23.3245 8.26069C23.3564 8.37992 23.3972 8.52737 23.4212 8.65913C23.4473 8.80247 23.4711 9.01166 23.4202 9.25093C23.3543 9.56065 23.1926 9.84176 22.9573 10.0537C22.7757 10.2172 22.5828 10.3005 22.4456 10.3496C22.3194 10.3947 22.1713 10.4338 22.052 10.4658C21.5271 10.6064 21.0753 10.7278 20.6966 10.7968C20.3063 10.8679 19.9079 10.9007 19.4925 10.8124C19.1281 10.735 18.785 10.589 18.4768 10.3876L14.4475 11.4677C14.7947 11.9573 15.0003 12.5543 15.0003 13.2001Z" fill="#475467"/>
</svg>
