<svg width="24" height="24" viewBox="0 0 24 24" fill="none" xmlns="http://www.w3.org/2000/svg">
<path d="M19 4C19 3.44772 18.5523 3 18 3C17.4477 3 17 3.44772 17 4V14.5352C17 14.892 16.8098 15.2216 16.501 15.4004C15.6017 15.9206 15 16.8908 15 18C15 19.6569 16.3431 21 18 21C19.6569 21 21 19.6569 21 18C21 16.8908 20.3983 15.9206 19.499 15.4004C19.1902 15.2216 19 14.892 19 14.5352V4ZM8 20V17.4141L6.70703 18.707C6.31651 19.0976 5.68349 19.0976 5.29297 18.707C4.90244 18.3165 4.90244 17.6835 5.29297 17.293L8 14.5859V13H6.41406L3.70703 15.707C3.31651 16.0976 2.68349 16.0976 2.29297 15.707C1.90244 15.3165 1.90244 14.6835 2.29297 14.293L3.58594 13H2C1.44772 13 1 12.5523 1 12C1 11.4477 1.44772 11 2 11H3.58594L2.29297 9.70703L2.22461 9.63086C1.90426 9.23809 1.92685 8.65908 2.29297 8.29297C2.65908 7.92685 3.23809 7.90426 3.63086 8.22461L3.70703 8.29297L6.41406 11H8V9.41406L5.29297 6.70703L5.22461 6.63086C4.90426 6.23809 4.92685 5.65908 5.29297 5.29297C5.65908 4.92685 6.23809 4.90426 6.63086 5.22461L6.70703 5.29297L8 6.58594V4C8 3.44772 8.44772 3 9 3C9.55228 3 10 3.44772 10 4V6.58594L11.293 5.29297C11.6835 4.90244 12.3165 4.90244 12.707 5.29297C13.0976 5.68349 13.0976 6.31651 12.707 6.70703L10 9.41406V11H12C12.5523 11 13 11.4477 13 12C13 12.5523 12.5523 13 12 13H10V14.5859L11.207 15.793L11.2754 15.8691C11.5957 16.2619 11.5731 16.8409 11.207 17.207C10.8796 17.5345 10.3825 17.5859 10 17.3643V20C10 20.5523 9.55228 21 9 21C8.44772 21 8 20.5523 8 20ZM21 14.001C22.2127 14.9121 23 16.3633 23 18C23 20.7614 20.7614 23 18 23C15.2386 23 13 20.7614 13 18C13 16.3633 13.7873 14.9121 15 14.001V4C15 2.34315 16.3431 1 18 1C19.6569 1 21 2.34315 21 4V14.001Z" fill="#475467"/>
</svg>
