<svg width="24" height="24" viewBox="0 0 24 24" fill="none" xmlns="http://www.w3.org/2000/svg">
<path d="M16.0049 9.24316C16.3254 9.13105 16.6746 9.13105 16.9951 9.24316L17.1523 9.30859L17.2793 9.37891C17.5578 9.55481 17.7173 9.80334 17.8018 9.94531C17.9079 10.1238 18.0173 10.3539 18.124 10.5771L22.9023 20.5684L22.9414 20.6631C23.1128 21.1401 22.8987 21.6789 22.4316 21.9023C21.9645 22.1257 21.4102 21.9543 21.1465 21.5215L21.0977 21.4316L19.4561 18H13.5439L11.9023 21.4316C11.664 21.9298 11.0666 22.1406 10.5684 21.9023C10.0702 21.664 9.85938 21.0666 10.0977 20.5684L14.876 10.5771C14.9827 10.3539 15.0921 10.1238 15.1982 9.94531C15.2948 9.78304 15.4893 9.48172 15.8477 9.30859L16.0049 9.24316ZM14.5 16H18.5L16.5 11.8174L14.5 16ZM14 4C14.5523 4 15 4.44772 15 5C15 5.55228 14.5523 6 14 6H12.5352L10.832 8.55469C10.7955 8.60948 10.7536 8.66047 10.707 8.70703L8.91406 10.5L10.707 12.293L10.7754 12.3691C11.0957 12.7619 11.0731 13.3409 10.707 13.707C10.3409 14.0731 9.76191 14.0957 9.36914 13.7754L9.29297 13.707L7.5 11.9141L4.70703 14.707C4.31651 15.0976 3.68349 15.0976 3.29297 14.707C2.90244 14.3165 2.90244 13.6835 3.29297 13.293L6.08594 10.5L4.29297 8.70703L4.22461 8.63086C3.90426 8.23809 3.92685 7.65908 4.29297 7.29297C4.65908 6.92685 5.23809 6.90426 5.63086 7.22461L5.70703 7.29297L7.5 9.08594L9.22266 7.36328L10.1318 6H2C1.44772 6 1 5.55228 1 5C1 4.44772 1.44772 4 2 4H14ZM8 1C8.55228 1 9 1.44772 9 2C9 2.55228 8.55228 3 8 3H7C6.44772 3 6 2.55228 6 2C6 1.44772 6.44772 1 7 1H8Z" fill="#475467"/>
</svg>
