<svg width="24" height="24" viewBox="0 0 24 24" fill="none" xmlns="http://www.w3.org/2000/svg">
<path d="M16.0049 9.24316C16.3254 9.13105 16.6746 9.13105 16.9951 9.24316L17.1523 9.30859L17.2793 9.37891C17.5578 9.55481 17.7173 9.80334 17.8017 9.94531C17.9079 10.1238 18.0172 10.3539 18.124 10.5771L22.9023 20.5684L22.9414 20.6631C23.1127 21.1401 22.8987 21.6789 22.4316 21.9023C21.9645 22.1257 21.4102 21.9543 21.1465 21.5215L21.0976 21.4316L19.456 18H13.5439L11.9023 21.4316C11.664 21.9298 11.0666 22.1406 10.5683 21.9023C10.0702 21.664 9.85936 21.0666 10.0976 20.5684L14.876 10.5771C14.9827 10.3539 15.0921 10.1238 15.1982 9.94531C15.2948 9.78304 15.4893 9.48172 15.8476 9.30859L16.0049 9.24316ZM6.99998 3C6.99998 2.44772 7.4477 2 7.99998 2C8.55227 2 8.99998 2.44772 8.99998 3V4H14C14.5523 4 15 4.44772 15 5C15 5.55228 14.5523 6 14 6H12.3262C11.8139 8.42627 10.8742 10.6655 9.56444 12.6348C9.71296 12.7262 9.86004 12.8127 10.0068 12.8906L10.4101 13.0879L10.501 13.1348C10.9398 13.3882 11.1243 13.9379 10.9121 14.4102C10.6857 14.9137 10.0935 15.1384 9.58983 14.9121C9.17664 14.7265 8.76504 14.4996 8.36229 14.2422C6.75523 16.1622 4.75778 17.7463 2.44529 18.8955C1.95079 19.1413 1.35033 18.9397 1.10447 18.4453C0.858727 17.9508 1.06026 17.3503 1.55467 17.1045C3.59388 16.0911 5.35438 14.7037 6.7744 13.0254C5.72261 12.0731 4.7925 10.9099 4.21483 9.69238L4.07908 9.38965L4.04393 9.29297C3.89489 8.8087 4.13371 8.28077 4.61033 8.0791C5.11891 7.86422 5.70577 8.10194 5.92088 8.61035C6.32578 9.56868 7.07337 10.5643 7.97557 11.4111C9.02932 9.79721 9.8115 7.97631 10.2773 6H1.99998C1.4477 6 0.999982 5.55228 0.999982 5C0.999982 4.44772 1.4477 4 1.99998 4H6.99998V3ZM14.5 16H18.5L16.5 11.8174L14.5 16Z" fill="#475467"/>
</svg>
