<svg width="24" height="24" viewBox="0 0 24 24" fill="none" xmlns="http://www.w3.org/2000/svg">
<path d="M23 14C23 14.5523 22.5523 15 22 15C21.4478 15 21 14.5523 21 14V9.41406L14.8389 15.5762C14.6526 15.7625 14.4706 15.9451 14.3047 16.0859C14.1299 16.2344 13.9079 16.3941 13.6182 16.4883C13.2165 16.6188 12.7836 16.6188 12.3819 16.4883C12.0922 16.3941 11.8702 16.2344 11.6954 16.0859C11.5295 15.9451 11.3475 15.7625 11.1612 15.5762L8.42387 12.8389C8.21421 12.6292 8.09898 12.5142 8.00981 12.4385C8.00647 12.4356 8.00308 12.4332 8.00005 12.4307C7.99701 12.4332 7.99363 12.4356 7.99028 12.4385C7.90111 12.5142 7.78588 12.6292 7.57622 12.8389L2.70708 17.707C2.31655 18.0976 1.68354 18.0976 1.29302 17.707C0.902491 17.3165 0.902491 16.6835 1.29302 16.293L6.16118 11.4238C6.3475 11.2375 6.52946 11.0549 6.69536 10.9141C6.8702 10.7656 7.09217 10.6059 7.38188 10.5117C7.73331 10.3975 8.1085 10.3841 8.46587 10.4697L8.61821 10.5117L8.82329 10.5938C9.016 10.6853 9.17366 10.8028 9.30473 10.9141C9.47064 11.0549 9.65259 11.2375 9.83891 11.4238L12.5762 14.1611C12.7859 14.3708 12.9011 14.4858 12.9903 14.5615C12.9935 14.5642 12.9972 14.566 13 14.5684C13.0029 14.566 13.0066 14.5642 13.0098 14.5615C13.099 14.4858 13.2142 14.3708 13.4239 14.1611L19.586 8H15C14.4478 8 14 7.55228 14 7C14 6.44772 14.4478 6 15 6H22C22.5523 6 23 6.44772 23 7V14Z" fill="#475467"/>
</svg>
