<svg width="24" height="24" viewBox="0 0 24 24" fill="none" xmlns="http://www.w3.org/2000/svg">
<path d="M1.29302 6.29302C1.68354 5.90249 2.31655 5.90249 2.70708 6.29302L7.57622 11.1612C7.78588 11.3708 7.90111 11.4859 7.99028 11.5616C7.99345 11.5643 7.99715 11.566 8.00005 11.5684C8.00294 11.566 8.00664 11.5643 8.00981 11.5616C8.09898 11.4859 8.21421 11.3708 8.42387 11.1612L11.1612 8.42387C11.3475 8.23755 11.5295 8.05495 11.6954 7.91411C11.8702 7.76568 12.0922 7.6059 12.3819 7.51177C12.7333 7.39758 13.1085 7.38416 13.4659 7.46977L13.6182 7.51177L13.8233 7.5938C14.016 7.68533 14.1737 7.80283 14.3047 7.91411C14.4706 8.05495 14.6526 8.23755 14.8389 8.42387L21 14.585V10C21 9.44776 21.4478 9.00005 22 9.00005C22.5523 9.00005 23 9.44776 23 10V17C23 17.5523 22.5523 18 22 18H15C14.4478 18 14 17.5523 14 17C14 16.4478 14.4478 16 15 16H19.586L13.4239 9.83891C13.2142 9.62925 13.099 9.51422 13.0098 9.43852C13.0065 9.43568 13.0031 9.43324 13 9.43071C12.997 9.43324 12.9936 9.43568 12.9903 9.43852C12.9011 9.51422 12.7859 9.62925 12.5762 9.83891L9.83891 12.5762C9.65259 12.7625 9.47064 12.9451 9.30473 13.086C9.12989 13.2344 8.90792 13.3942 8.61821 13.4883C8.21652 13.6188 7.78357 13.6188 7.38188 13.4883C7.09217 13.3942 6.8702 13.2344 6.69536 13.086C6.52946 12.9451 6.3475 12.7625 6.16118 12.5762L1.29302 7.70708C0.902491 7.31655 0.902491 6.68354 1.29302 6.29302Z" fill="#475467"/>
</svg>
