<svg width="24" height="24" viewBox="0 0 24 24" fill="none" xmlns="http://www.w3.org/2000/svg">
<path d="M21 11.7998C21 10.9434 20.9997 10.3612 20.9629 9.91115C20.9271 9.47274 20.8619 9.24822 20.7822 9.09182C20.5905 8.71557 20.2845 8.40953 19.9082 8.2178C19.7518 8.13811 19.5273 8.07295 19.0889 8.03713C18.6388 8.00037 18.0566 8.00002 17.2002 8.00002H6.79981C5.94342 8.00002 5.36117 8.00037 4.91113 8.03713C4.47272 8.07295 4.2482 8.13811 4.0918 8.2178C3.71555 8.40953 3.40951 8.71557 3.21778 9.09182C3.13809 9.24822 3.07293 9.47274 3.03711 9.91115C3.00035 10.3612 3 10.9434 3 11.7998V16.2002C3 17.0566 3.00035 17.6389 3.03711 18.0889C3.07293 18.5273 3.13809 18.7518 3.21778 18.9082C3.40951 19.2845 3.71555 19.5905 4.0918 19.7822C4.2482 19.8619 4.47272 19.9271 4.91113 19.9629C5.36117 19.9997 5.94342 20 6.79981 20H17.2002C18.0566 20 18.6388 19.9997 19.0889 19.9629C19.5273 19.9271 19.7518 19.8619 19.9082 19.7822C20.2845 19.5905 20.5905 19.2845 20.7822 18.9082C20.8619 18.7518 20.9271 18.5273 20.9629 18.0889C20.9997 17.6389 21 17.0566 21 16.2002V11.7998ZM23 16.2002C23 17.0237 23.001 17.7016 22.9561 18.252C22.9101 18.814 22.8117 19.3311 22.5645 19.8164C22.181 20.5689 21.5689 21.181 20.8164 21.5645C20.3311 21.8117 19.814 21.9101 19.252 21.9561C18.7016 22.001 18.0237 22 17.2002 22H6.79981C5.97632 22 5.29843 22.001 4.74805 21.9561C4.18599 21.9101 3.6689 21.8117 3.1836 21.5645C2.43109 21.181 1.81902 20.5689 1.43555 19.8164C1.18827 19.3311 1.08988 18.814 1.04395 18.252C0.998979 17.7016 1 17.0237 1 16.2002V11.7998C1 10.9763 0.998979 10.2984 1.04395 9.74807C1.08988 9.18601 1.18827 8.66892 1.43555 8.18362C1.81902 7.43111 2.43109 6.81904 3.1836 6.43557C3.6689 6.18829 4.18599 6.0899 4.74805 6.04397C5.29843 5.999 5.97632 6.00002 6.79981 6.00002H9.14844L6.375 3.78127L6.29883 3.71291C5.93703 3.35792 5.8953 2.77934 6.21875 2.37502C6.54225 1.97065 7.11622 1.88402 7.54199 2.1592L7.625 2.21877L12 5.71877L16.375 2.21877C16.8063 1.87376 17.4362 1.94376 17.7813 2.37502C18.1263 2.80628 18.0563 3.43626 17.625 3.78127L14.8516 6.00002H17.2002C18.0237 6.00002 18.7016 5.999 19.252 6.04397C19.814 6.0899 20.3311 6.18829 20.8164 6.43557C21.5689 6.81904 22.181 7.43111 22.5645 8.18362C22.8117 8.66892 22.9101 9.18601 22.9561 9.74807C23.001 10.2984 23 10.9763 23 11.7998V16.2002Z" fill="#475467"/>
</svg>
