<svg width="24" height="24" viewBox="0 0 24 24" fill="none" xmlns="http://www.w3.org/2000/svg">
<path d="M11.2499 19H12.7499V14.1641L11.2499 12.6641V19ZM2.99992 7.00005V6.00005C2.99992 5.53769 3.10775 5.10048 3.29485 4.70903L2.29289 3.70708C1.90237 3.31655 1.90237 2.68354 2.29289 2.29302C2.68342 1.90249 3.31643 1.90249 3.70696 2.29302L21.707 20.293L21.7753 20.3692C22.0957 20.762 22.0731 21.341 21.707 21.7071C21.3408 22.0732 20.7618 22.0958 20.3691 21.7754L20.2929 21.7071L14.7499 16.1641V19H15.9999C16.5522 19 16.9999 19.4478 16.9999 20C16.9999 20.5523 16.5522 21 15.9999 21H7.99992C7.44764 21 6.99992 20.5523 6.99992 20C6.99992 19.4478 7.44764 19 7.99992 19H9.24992V10.6641L4.99992 6.41411V7.00005C4.9999 7.55231 4.55219 8.00005 3.99992 8.00005C3.44766 8.00005 2.99995 7.55231 2.99992 7.00005ZM9.24992 5.00005V4.96684C8.81883 4.85569 8.49992 4.46586 8.49992 4.00005C8.49992 3.44776 8.94764 3.00005 9.49992 3.00005H16.9999C17.4521 3.00005 17.8412 2.99966 18.162 3.02153C18.4919 3.04403 18.8224 3.09356 19.1484 3.22856C19.8831 3.53303 20.4669 4.11683 20.7714 4.85161C20.9064 5.17754 20.9559 5.50811 20.9784 5.83794C21.0003 6.15873 20.9999 6.54791 20.9999 7.00005C20.9999 7.55233 20.5522 8.00005 19.9999 8.00005C19.4476 8.00005 18.9999 7.55233 18.9999 7.00005C18.9999 6.52042 18.9995 6.21066 18.9833 5.97368C18.9678 5.74577 18.941 5.65884 18.9238 5.61723C18.8223 5.37231 18.6277 5.17771 18.3827 5.07622C18.3411 5.05898 18.2542 5.03221 18.0263 5.01665C17.7893 5.00048 17.4795 5.00005 16.9999 5.00005H14.7499V8.00005C14.7499 8.55233 14.3022 9.00005 13.7499 9.00005C13.1976 9.00005 12.7499 8.55233 12.7499 8.00005V5.00005H11.2499C11.2499 5.55233 10.8022 6.00005 10.2499 6.00005C9.69764 6.00005 9.24992 5.55233 9.24992 5.00005Z" fill="#475467"/>
</svg>
