<svg width="24" height="24" viewBox="0 0 24 24" fill="none" xmlns="http://www.w3.org/2000/svg">
<path d="M2.99992 7.00005V6.00005C2.99992 5.53767 3.10774 5.10049 3.29485 4.70903L2.29289 3.70708C1.90237 3.31655 1.90237 2.68354 2.29289 2.29302C2.68342 1.90249 3.31643 1.90249 3.70696 2.29302L21.707 20.293L21.7753 20.3692C22.0957 20.762 22.0731 21.341 21.707 21.7071C21.3408 22.0732 20.7618 22.0958 20.3691 21.7754L20.2929 21.7071L12.9999 14.4141V19H14.9999C15.5522 19 15.9999 19.4478 15.9999 20C15.9999 20.5523 15.5522 21 14.9999 21H8.99992C8.44764 21 7.99992 20.5523 7.99992 20C7.99992 19.4478 8.44764 19 8.99992 19H10.9999V12.4141L4.99992 6.41411V7.00005C4.99992 7.55233 4.55221 8.00005 3.99992 8.00005C3.44764 8.00005 2.99992 7.55233 2.99992 7.00005ZM10.9999 6.50005V5.00005H9.49992C8.94764 5.00005 8.49992 4.55233 8.49992 4.00005C8.49992 3.44776 8.94764 3.00005 9.49992 3.00005H16.9999C17.4521 3.00005 17.8412 2.99966 18.162 3.02153C18.4919 3.04403 18.8224 3.09356 19.1484 3.22856C19.8831 3.53303 20.4669 4.11683 20.7714 4.85161C20.9064 5.17754 20.9559 5.50811 20.9784 5.83794C21.0003 6.15873 20.9999 6.54791 20.9999 7.00005C20.9999 7.55233 20.5522 8.00005 19.9999 8.00005C19.4476 8.00005 18.9999 7.55233 18.9999 7.00005C18.9999 6.52042 18.9995 6.21066 18.9833 5.97368C18.9678 5.74577 18.941 5.65884 18.9238 5.61723C18.8223 5.37231 18.6277 5.17771 18.3827 5.07622C18.3411 5.05898 18.2542 5.03221 18.0263 5.01665C17.7893 5.00048 17.4795 5.00005 16.9999 5.00005H12.9999V6.50005C12.9999 7.05233 12.5522 7.50005 11.9999 7.50005C11.4476 7.50005 10.9999 7.05233 10.9999 6.50005Z" fill="#475467"/>
</svg>
