<svg width="24" height="24" viewBox="0 0 24 24" fill="none" xmlns="http://www.w3.org/2000/svg">
<path d="M10.9992 19.4004V13H3.59978C3.34542 13 3.08203 13.001 2.85564 12.9785C2.60628 12.9538 2.33006 12.8951 2.05192 12.7363C1.66641 12.5162 1.3286 12.1205 1.17204 11.7051C0.965655 11.1569 1.0769 10.6287 1.13786 10.248C1.97752 5.00541 6.51986 1.0001 11.9992 1C17.4786 1 22.0208 5.00537 22.8605 10.248C22.9215 10.6287 23.0337 11.1569 22.8273 11.7051C22.6708 12.1205 22.3329 12.5161 21.9474 12.7363C21.6692 12.8952 21.3922 12.9538 21.1427 12.9785C20.9165 13.001 20.6538 13 20.3996 13H12.9992V19.4004C12.9994 20.3211 13.7076 20.9999 14.4992 21C15.2909 21 15.999 20.3212 15.9992 19.4004C15.9992 18.8482 16.447 18.4005 16.9992 18.4004C17.5515 18.4004 17.9992 18.8481 17.9992 19.4004C17.999 21.3511 16.4687 23 14.4992 23C12.5298 22.9999 10.9994 21.351 10.9992 19.4004ZM11.9992 3C7.51785 3.0001 3.8002 6.27652 3.11345 10.5645C3.09432 10.6839 3.0792 10.7738 3.06853 10.8516C3.05993 10.9142 3.05607 10.9574 3.05388 10.9883C3.15889 10.9987 3.30702 11 3.59978 11H20.3996C20.6909 11 20.8386 10.9985 20.9435 10.9883C20.9413 10.9574 20.9384 10.9142 20.9299 10.8516C20.9192 10.7738 20.905 10.6838 20.8859 10.5645C20.1992 6.27645 16.4806 3 11.9992 3Z" fill="#475467"/>
</svg>
