<svg width="24" height="24" viewBox="0 0 24 24" fill="none" xmlns="http://www.w3.org/2000/svg">
<path d="M20 20C20.5523 20 21 20.4477 21 21C21 21.5523 20.5523 22 20 22H4C3.44772 22 3 21.5523 3 21C3 20.4477 3.44772 20 4 20H20ZM7.5 5H6V10C6 12.5185 7.55244 14.6727 9.75195 15.5625C8.35849 14.1231 7.5 12.1625 7.5 10V5ZM9.5 10C9.5 12.7036 11.2895 14.9902 13.75 15.7393C16.2098 14.9902 18 12.7048 18 10V5H17C16.4477 5 16 4.55228 16 4C16 3.44772 16.4477 3 17 3H21L21.1025 3.00488C21.6067 3.05621 22 3.48232 22 4C22 4.51768 21.6067 4.94379 21.1025 4.99512L21 5H20V10C20 14.4183 16.4183 18 12 18C7.58172 18 4 14.4183 4 10V5H3C2.44772 5 2 4.55228 2 4C2 3.44772 2.44772 3 3 3H10.5L10.6025 3.00488C11.1067 3.05621 11.5 3.48232 11.5 4C11.5 4.51768 11.1067 4.94379 10.6025 4.99512L10.5 5H9.5V10Z" fill="#475467"/>
</svg>
