<svg width="24" height="24" viewBox="0 0 24 24" fill="none" xmlns="http://www.w3.org/2000/svg">
<path d="M21 12C21 7.02944 16.9706 3 12 3C7.02944 3 3 7.02944 3 12C3 15.2259 4.69685 18.0566 7.25098 19.6465L7.50098 19.7969L7.58691 19.8525C7.9975 20.1494 8.12443 20.715 7.86523 21.1631C7.58861 21.6409 6.97699 21.8038 6.49902 21.5273C3.21393 19.6268 1 16.0727 1 12C1 5.92487 5.92487 1 12 1C18.0751 1 23 5.92487 23 12C23 16.2438 20.5964 19.925 17.0811 21.7588C16.7465 21.9333 16.3732 22.1335 15.9453 22.2451C15.4855 22.365 15.0211 22.3715 14.4629 22.2959C13.9505 22.2264 13.3921 21.9659 12.957 21.7021C12.522 21.4384 12.0329 21.0638 11.7344 20.6416C10.9706 19.5614 11 18.5302 11 17.2002V10.4141L8.70703 12.707C8.31651 13.0976 7.68349 13.0976 7.29297 12.707C6.90245 12.3165 6.90245 11.6835 7.29297 11.293L11.293 7.29297L11.3662 7.22656C11.5442 7.08073 11.7679 7 12 7C12.2652 7 12.5195 7.10543 12.707 7.29297L16.707 11.293L16.7754 11.3691C17.0957 11.7619 17.0731 12.3409 16.707 12.707C16.3409 13.0731 15.7619 13.0957 15.3691 12.7754L15.293 12.707L13 10.4141V17.2002C13 18.6513 13.03 19.0105 13.3672 19.4873C13.4345 19.5824 13.6544 19.7862 13.9941 19.9922C14.3339 20.1981 14.6161 20.2988 14.7314 20.3145C15.1176 20.3668 15.3054 20.3447 15.4404 20.3096C15.6076 20.266 15.7732 20.1852 16.1562 19.9854C19.037 18.4826 21 15.4696 21 12Z" fill="#475467"/>
</svg>
