<svg width="24" height="24" viewBox="0 0 24 24" fill="none" xmlns="http://www.w3.org/2000/svg">
<path d="M12.0001 14C15.5011 14 18.6092 15.6917 20.5821 18.3027C20.7591 18.5369 20.953 18.7909 21.0899 19.0352C21.2472 19.3159 21.3636 19.6411 21.3565 20.0361C21.3507 20.3538 21.2546 20.6519 21.1378 20.8867C21.0209 21.1214 20.8417 21.3772 20.5919 21.5732C20.2586 21.8348 19.8957 21.9272 19.5733 21.9658C19.2777 22.0013 18.9246 22 18.5723 22H5.42682C5.07477 22 4.72228 22.0012 4.42682 21.9658C4.10448 21.9272 3.74156 21.8347 3.40827 21.5732C3.15849 21.3772 2.97925 21.1214 2.86237 20.8867C2.7455 20.6519 2.64845 20.3538 2.64264 20.0361C2.63551 19.6412 2.75197 19.3159 2.90925 19.0352C3.04612 18.7908 3.241 18.537 3.41804 18.3027C5.39101 15.6917 8.49905 14 12.0001 14ZM12.0001 16C9.16104 16 6.63038 17.3692 5.01374 19.5088C4.91488 19.6396 4.83938 19.74 4.77643 19.8281C4.72927 19.8941 4.69754 19.9434 4.67487 19.9805C4.82337 19.9972 5.03482 20 5.42682 20H18.5723C18.9631 20 19.1748 19.9971 19.3233 19.9805C19.3007 19.9435 19.2705 19.8937 19.2237 19.8281C19.1608 19.74 19.0852 19.6396 18.9864 19.5088C17.3698 17.3693 14.839 16 12.0001 16ZM15.5001 7.5C15.5001 5.56705 13.933 4.00008 12.0001 4C10.0671 4 8.50007 5.567 8.50007 7.5C8.50007 9.433 10.0671 11 12.0001 11C13.933 10.9999 15.5001 9.43295 15.5001 7.5ZM17.5001 7.5C17.5001 10.5375 15.0376 12.9999 12.0001 13C8.9625 13 6.50007 10.5376 6.50007 7.5C6.50007 4.46243 8.9625 2 12.0001 2C15.0376 2.00008 17.5001 4.46248 17.5001 7.5Z" fill="#475467"/>
</svg>
