<svg width="24" height="24" viewBox="0 0 24 24" fill="none" xmlns="http://www.w3.org/2000/svg">
<path d="M11.9999 15C15.676 15 19.0073 16.554 21.4901 19.0674L21.7274 19.3145L21.7938 19.3916C22.1027 19.7936 22.0622 20.3723 21.6854 20.7275C21.3088 21.0825 20.7297 21.0884 20.3466 20.7568L20.2724 20.6855L19.8573 20.2656C17.7409 18.2205 14.9915 17 11.9999 17C8.8088 17 5.89314 18.3886 3.72743 20.6855C3.34863 21.0873 2.7162 21.1062 2.31435 20.7275C1.91258 20.3487 1.89369 19.7163 2.27236 19.3145C4.77821 16.6567 8.20512 15 11.9999 15ZM15.4999 7.5C15.4999 5.567 13.9329 4 11.9999 4C10.0669 4 8.4999 5.567 8.4999 7.5C8.4999 9.433 10.0669 11 11.9999 11C13.9329 11 15.4999 9.433 15.4999 7.5ZM17.4999 7.5C17.4999 10.5376 15.0375 13 11.9999 13C8.96233 13 6.4999 10.5376 6.4999 7.5C6.4999 4.46243 8.96233 2 11.9999 2C15.0375 2 17.4999 4.46243 17.4999 7.5Z" fill="#475467"/>
</svg>
