<svg width="24" height="24" viewBox="0 0 24 24" fill="none" xmlns="http://www.w3.org/2000/svg">
<path d="M9.49994 15C12.7827 15 15.6943 16.7197 17.7861 19.3818C18.1272 19.816 18.0521 20.4449 17.6181 20.7861C17.2111 21.1059 16.633 21.0599 16.2812 20.6953L16.2138 20.6182L15.8691 20.1992C14.1149 18.1648 11.88 17 9.49994 17C6.96117 17 4.58727 18.3257 2.78607 20.6182C2.44481 21.0522 1.81595 21.1273 1.38177 20.7861C0.947775 20.4449 0.87268 19.816 1.21381 19.3818C3.30557 16.7197 6.21719 15 9.49994 15ZM17.0888 16.3545C17.3023 15.8826 17.8367 15.6568 18.3173 15.8184L18.412 15.8555L18.7245 16.0029C20.2745 16.7687 21.6496 17.9355 22.7861 19.3818C23.1272 19.816 23.0521 20.4449 22.6181 20.7861C22.2111 21.1059 21.633 21.0599 21.2812 20.6953L21.2138 20.6182L21.0156 20.373C20.0821 19.2474 19.0037 18.3715 17.8388 17.7959L17.5878 17.6777L17.497 17.6309C17.0585 17.3765 16.8755 16.8263 17.0888 16.3545ZM12.9999 7.5C12.9999 5.567 11.4329 4 9.49994 4C7.56694 4 5.99994 5.567 5.99994 7.5C5.99994 9.433 7.56694 11 9.49994 11C11.4329 11 12.9999 9.433 12.9999 7.5ZM17.4999 7.5C17.4999 6.21309 16.8058 5.08622 15.7675 4.47754L15.5546 4.36328L15.4658 4.31348C15.0368 4.04326 14.874 3.48621 15.1044 3.02246C15.335 2.55885 15.8771 2.35253 16.3515 2.53125L16.4453 2.57227L16.7773 2.75195C18.4044 3.70566 19.4999 5.47409 19.4999 7.5C19.4999 9.66087 18.2537 11.5289 16.4453 12.4277C15.9507 12.6735 15.3503 12.472 15.1044 11.9775C14.8587 11.483 15.0602 10.8826 15.5546 10.6367C16.7095 10.0628 17.4999 8.87276 17.4999 7.5ZM14.9999 7.5C14.9999 10.5376 12.5375 13 9.49994 13C6.46237 13 3.99994 10.5376 3.99994 7.5C3.99994 4.46243 6.46237 2 9.49994 2C12.5375 2 14.9999 4.46243 14.9999 7.5Z" fill="#475467"/>
</svg>
