<svg width="24" height="24" viewBox="0 0 24 24" fill="none" xmlns="http://www.w3.org/2000/svg">
<path d="M15 21V19.7998C15 18.9434 14.9997 18.3612 14.9629 17.9111C14.9271 17.4727 14.8619 17.2482 14.7822 17.0918C14.5905 16.7155 14.2845 16.4095 13.9082 16.2178C13.7518 16.1381 13.5273 16.0729 13.0889 16.0371C12.6388 16.0003 12.0566 16 11.2002 16H6.79981C5.94342 16 5.36117 16.0003 4.91113 16.0371C4.47272 16.0729 4.2482 16.1381 4.0918 16.2178C3.71555 16.4095 3.40951 16.7155 3.21778 17.0918C3.13809 17.2482 3.07293 17.4727 3.03711 17.9111C3.00035 18.3612 3 18.9434 3 19.7998V21C3 21.5523 2.55229 22 2 22C1.44772 22 1 21.5523 1 21V19.7998C1 18.9763 0.998979 18.2984 1.04395 17.748C1.08988 17.186 1.18827 16.6689 1.43555 16.1836C1.81902 15.4311 2.43109 14.819 3.1836 14.4355C3.6689 14.1883 4.18599 14.0899 4.74805 14.0439C5.29843 13.999 5.97632 14 6.79981 14H11.2002C12.0237 14 12.7016 13.999 13.252 14.0439C13.814 14.0899 14.3311 14.1883 14.8164 14.4355C15.5689 14.819 16.181 15.4311 16.5645 16.1836C16.8117 16.6689 16.9101 17.186 16.9561 17.748C17.001 18.2984 17 18.9763 17 19.7998V21C17 21.5523 16.5523 22 16 22C15.4477 22 15 21.5523 15 21ZM11.5 7.49999C11.5 6.11927 10.3807 4.99999 9 4.99999C7.61929 4.99999 6.5 6.11927 6.5 7.49999C6.5 8.8807 7.61929 9.99999 9 9.99999C10.3807 9.99999 11.5 8.8807 11.5 7.49999ZM18.293 2.29295C18.6835 1.90243 19.3165 1.90243 19.707 2.29295L22.707 5.29295C22.8946 5.48049 23 5.73477 23 5.99999C23 6.2652 22.8946 6.51948 22.707 6.70702L19.707 9.70702C19.3165 10.0975 18.6835 10.0975 18.293 9.70702C17.9024 9.31649 17.9024 8.68348 18.293 8.29295L19.5859 6.99999H16C15.4477 6.99999 15 6.55227 15 5.99999C15 5.4477 15.4477 4.99999 16 4.99999H19.5859L18.293 3.70702L18.2246 3.63084C17.9043 3.23807 17.9269 2.65907 18.293 2.29295ZM13.5 7.49999C13.5 9.98527 11.4853 12 9 12C6.51472 12 4.5 9.98527 4.5 7.49999C4.5 5.0147 6.51472 2.99999 9 2.99999C11.4853 2.99999 13.5 5.0147 13.5 7.49999Z" fill="#475467"/>
</svg>
