<svg width="24" height="24" viewBox="0 0 24 24" fill="none" xmlns="http://www.w3.org/2000/svg">
<path d="M1.29297 1.29302C1.68349 0.902491 2.31651 0.902491 2.70703 1.29302L22.707 21.293L22.7754 21.3692C23.0957 21.762 23.0731 22.341 22.707 22.7071C22.3409 23.0732 21.7619 23.0958 21.3691 22.7754L21.293 22.7071L17.1045 18.5186C16.3715 19.4213 15.2547 20 14 20H5C2.79086 20 1 18.2092 1 16V8.00005C1 6.48778 1.83903 5.1712 3.07715 4.49126L1.29297 2.70708C0.902444 2.31655 0.902444 1.68354 1.29297 1.29302ZM12.2002 4.00005C13.0237 4.00005 13.7016 3.99902 14.252 4.04399C14.814 4.08992 15.3311 4.18832 15.8164 4.43559C16.5689 4.81906 17.181 5.43113 17.5645 6.18364C17.8117 6.66895 17.9101 7.18604 17.9561 7.74809C17.9971 8.25008 17.9988 8.85815 17.999 9.58598L19.9268 7.65825C20.1269 7.45811 20.3248 7.25949 20.4971 7.11528C20.644 6.99231 20.9534 6.74584 21.3818 6.71196L21.5605 6.70805C21.9161 6.72238 22.255 6.86335 22.5166 7.10454L22.6406 7.23345L22.7344 7.35845C22.93 7.65509 22.9666 7.97645 22.9814 8.1436C23.0013 8.36739 23 8.64857 23 8.93169V15.0684C23 15.3515 23.0013 15.6327 22.9814 15.8565C22.9645 16.0475 22.9194 16.44 22.6406 16.7666C22.3288 17.1318 21.8605 17.3258 21.3818 17.2881C20.9534 17.2542 20.644 17.0078 20.4971 16.8848C20.3248 16.7406 20.1269 16.542 19.9268 16.3418L16.293 12.7071C16.1054 12.5195 16 12.2653 16 12V9.79985C16 8.94346 15.9997 8.36122 15.9629 7.91118C15.9271 7.47276 15.8619 7.24824 15.7822 7.09184C15.5905 6.71559 15.2845 6.40955 14.9082 6.21782C14.7518 6.13813 14.5273 6.07298 14.0889 6.03716C13.6388 6.0004 13.0566 6.00005 12.2002 6.00005H9.5C8.94772 6.00005 8.5 5.55233 8.5 5.00005C8.5 4.44776 8.94772 4.00005 9.5 4.00005H12.2002ZM18.4141 12L21 14.585V9.41411L18.4141 12ZM3 16C3 17.1046 3.89543 18 5 18H14C14.7014 18 15.3176 17.6369 15.6748 17.0889L4.62207 6.03618C3.69824 6.2129 3 7.02471 3 8.00005V16Z" fill="#475467"/>
</svg>
