<svg width="24" height="24" viewBox="0 0 24 24" fill="none" xmlns="http://www.w3.org/2000/svg">
<path d="M12 1C12.5875 1 13.1649 1.04575 13.7285 1.13477L14.2871 1.23828L14.3857 1.26465C14.8686 1.41906 15.1658 1.91721 15.0586 2.42383C14.9514 2.93015 14.4783 3.26497 13.9746 3.21094L13.873 3.19531L13.416 3.11035C13.2784 3.08863 13.1397 3.07109 13 3.05566V6.08398C13.9113 6.2369 14.7519 6.59586 15.4746 7.11035L17.6162 4.96875C17.5093 4.88321 17.4009 4.79943 17.29 4.71875L16.9014 4.4502L16.8184 4.39062C16.4234 4.07272 16.326 3.50047 16.6084 3.06641C16.8908 2.63258 17.4528 2.49065 17.9033 2.72266L17.9922 2.77344L18.2324 2.93457C18.7798 3.31152 19.2903 3.73772 19.7598 4.20508C19.7658 4.21078 19.7724 4.2158 19.7783 4.22168C19.7835 4.22691 19.7879 4.23297 19.793 4.23828C20.3293 4.77673 20.8114 5.36998 21.2275 6.00977C21.5283 6.47268 21.3964 7.09154 20.9336 7.39258C20.4706 7.6936 19.8519 7.56253 19.5508 7.09961C19.3894 6.85157 19.2146 6.61318 19.0303 6.38281L16.8887 8.52441C17.4036 9.24734 17.762 10.0883 17.915 11H20.9434C20.9279 10.8604 20.9114 10.7215 20.8896 10.584L20.8047 10.127L20.7891 10.0254C20.7349 9.5216 21.0698 9.04862 21.5762 8.94141C22.0829 8.8342 22.581 9.1313 22.7354 9.61426L22.7617 9.71289L22.8652 10.2715C22.9543 10.8351 23 11.4125 23 12C23 12.783 22.9179 13.5478 22.7617 14.2861C22.6474 14.8265 22.1165 15.1719 21.5762 15.0576C21.0361 14.9432 20.6904 14.4123 20.8047 13.8721C20.8651 13.5864 20.9107 13.2954 20.9434 13H17.915C17.7621 13.9114 17.4033 14.7518 16.8887 15.4746L19.0303 17.6162C19.2134 17.3873 19.3874 17.1507 19.5479 16.9043L19.6084 16.8213C19.9264 16.4267 20.4978 16.3289 20.9316 16.6113C21.3945 16.9127 21.525 17.5323 21.2236 17.9951C20.8091 18.6317 20.3295 19.2216 19.7959 19.7578C19.7897 19.7643 19.7847 19.7719 19.7783 19.7783C19.7733 19.7834 19.7669 19.7871 19.7617 19.792C19.2229 20.3288 18.6296 20.8111 17.9893 21.2275C17.5263 21.5284 16.9075 21.3974 16.6064 20.9346C16.3054 20.4716 16.4364 19.8519 16.8994 19.5508L17.2881 19.2832C17.3999 19.2019 17.5084 19.1165 17.6162 19.0303L15.4746 16.8887C14.7518 17.4033 13.9114 17.7621 13 17.915V20.9434C13.2947 20.9108 13.5851 20.8659 13.8701 20.8057C14.4104 20.6915 14.9415 21.0369 15.0557 21.5771C15.1698 22.1174 14.8243 22.6484 14.2842 22.7627C13.5466 22.9185 12.7821 23 12 23C11.4111 23 10.8324 22.9537 10.2676 22.8643L9.70801 22.7607L9.60938 22.7344C9.12659 22.5798 8.83016 22.0817 8.9375 21.5752C9.04488 21.0688 9.51768 20.7337 10.0215 20.7881L10.123 20.8037L10.5811 20.8887C10.7196 20.9106 10.8594 20.9278 11 20.9434V17.915C10.0883 17.762 9.24734 17.4036 8.52441 16.8887L6.38281 19.0303C6.61283 19.2143 6.85099 19.3887 7.09863 19.5498C7.56156 19.851 7.69279 20.4707 7.3916 20.9336C7.10912 21.3676 6.54727 21.5096 6.09668 21.2773L6.00879 21.2266L5.76855 21.0664C4.66103 20.3039 3.70064 19.3434 2.9375 18.2363L2.77637 17.9971L2.72559 17.9082C2.49315 17.4577 2.63544 16.8959 3.06934 16.6133C3.50321 16.3307 4.07448 16.4276 4.39258 16.8223L4.45312 16.9053L4.7207 17.2939C4.80059 17.4036 4.8841 17.5104 4.96875 17.6162L7.11035 15.4746C6.59589 14.7519 6.23788 13.9112 6.08496 13H3.05664C3.07206 13.1396 3.08864 13.2785 3.11035 13.416L3.19531 13.873L3.21094 13.9746C3.26506 14.4784 2.93019 14.9514 2.42383 15.0586C1.91715 15.1658 1.419 14.8687 1.26465 14.3857L1.23828 14.2871L1.13477 13.7285C1.04575 13.1649 1 12.5875 1 12C1 11.2157 1.08257 10.4496 1.23926 9.70996C1.35374 9.16967 1.88452 8.82399 2.4248 8.93848C2.96495 9.05306 3.30975 9.58383 3.19531 10.124C3.13452 10.4109 3.08842 10.7033 3.05566 11H6.08496C6.23793 10.0885 6.59564 9.24724 7.11035 8.52441L4.96875 6.38281C4.78471 6.61285 4.61131 6.85196 4.4502 7.09961C4.14898 7.56241 3.52929 7.69275 3.06641 7.3916C2.6037 7.09042 2.47247 6.47164 2.77344 6.00879C3.18933 5.36954 3.6702 4.77635 4.20605 4.23828C4.21129 4.23281 4.2163 4.22706 4.22168 4.22168C4.22739 4.21597 4.23344 4.21062 4.23926 4.20508C4.77662 3.67006 5.36859 3.18981 6.00684 2.77441C6.46973 2.47317 7.08939 2.60449 7.39062 3.06738C7.69164 3.5301 7.56109 4.14887 7.09863 4.4502C6.85134 4.61113 6.61253 4.78496 6.38281 4.96875L8.52441 7.11035C9.24728 6.59561 10.0885 6.23694 11 6.08398V3.05566C10.7042 3.08832 10.413 3.1348 10.127 3.19531C9.58669 3.30961 9.0558 2.96405 8.94141 2.42383C8.82709 1.88351 9.17259 1.35261 9.71289 1.23828C10.4515 1.08201 11.2168 1 12 1ZM12 8C9.79088 8 8.00001 9.79086 8 12C8 14.2091 9.79086 16 12 16C14.2091 16 16 14.2091 16 12C16 9.79088 14.2091 8.00001 12 8Z" fill="#475467"/>
</svg>
