<svg width="24" height="24" viewBox="0 0 24 24" fill="none" xmlns="http://www.w3.org/2000/svg">
<path d="M12.8819 3.71203C13.3008 3.67906 13.7116 3.82333 14.0166 4.10461L14.1406 4.23254L14.2344 4.35851C14.43 4.65518 14.4666 4.97655 14.4815 5.14367C14.5013 5.36746 14.5 5.64864 14.5 5.93176V18.0685C14.5 18.3514 14.5012 18.6319 14.4815 18.8556C14.4645 19.0464 14.4197 19.4398 14.1406 19.7667C13.8288 20.1318 13.3605 20.3259 12.8819 20.2882C12.4535 20.2543 12.144 20.0079 11.9971 19.8849C11.8248 19.7407 11.6269 19.5421 11.4268 19.3419L8.26173 16.1759C8.1691 16.0833 8.12204 16.037 8.08693 16.005C8.08566 16.0038 8.08416 16.0031 8.08302 16.0021H8.08107C8.03359 15.9999 7.96784 16.0001 7.83693 16.0001H6.09962C5.83623 16.0001 5.57815 16.0012 5.36134 15.9835C5.13284 15.9648 4.86307 15.9206 4.59181 15.7823C4.21556 15.5906 3.90953 15.2846 3.71779 14.9083C3.57949 14.6369 3.53529 14.3664 3.51662 14.1378C3.49894 13.9211 3.50001 13.6637 3.50001 13.4005V10.5997C3.50001 10.3363 3.4989 10.0783 3.51662 9.86144C3.53531 9.63292 3.57956 9.3632 3.71779 9.09191C3.90952 8.71564 4.21555 8.40963 4.59181 8.21789C4.86307 8.07968 5.13284 8.03541 5.36134 8.01672C5.57815 7.999 5.83623 8.00012 6.09962 8.00012H7.83693C7.96788 8.00012 8.03358 7.99936 8.08107 7.99719L8.08693 7.99523C8.12204 7.96319 8.1691 7.91697 8.26173 7.82433L11.4268 4.65832C11.6269 4.4582 11.8249 4.25956 11.9971 4.11535C12.144 3.99238 12.4535 3.74591 12.8819 3.71203ZM18.5 12.0001C18.5 10.8039 18.1507 9.69171 17.5488 8.75695L17.4248 8.57238L17.3711 8.48547C17.1244 8.04258 17.2482 7.4761 17.6729 7.1798C18.0975 6.88358 18.6725 6.96248 19.0029 7.3468L19.0654 7.42785L19.2305 7.67394C20.0338 8.92155 20.5 10.4078 20.5 12.0001C20.5 13.6985 19.9696 15.2762 19.0654 16.5724C18.7495 17.0253 18.1258 17.1364 17.6729 16.8204C17.2199 16.5045 17.1089 15.8808 17.4248 15.4279C18.1024 14.4564 18.5 13.2762 18.5 12.0001ZM5.50001 13.4005C5.50001 13.6967 5.50124 13.8592 5.51076 13.9757C5.51109 13.9798 5.51139 13.9837 5.51173 13.9874C5.51576 13.9878 5.51994 13.989 5.52443 13.9894C5.64096 13.9989 5.80334 14.0001 6.09962 14.0001H7.83693C8.03392 14.0001 8.2958 13.9941 8.55275 14.0558C8.70587 14.0926 8.85418 14.1465 8.99415 14.2179L9.13087 14.295L9.29103 14.4064C9.44344 14.5245 9.57127 14.6573 9.6758 14.7618L12.5 17.5851V6.41418L9.6758 9.2384C9.53652 9.37767 9.35613 9.56713 9.13087 9.70519C8.95197 9.81483 8.75678 9.89545 8.55275 9.94445C8.2958 10.0061 8.03392 10.0001 7.83693 10.0001H6.09962C5.80334 10.0001 5.64096 10.0004 5.52443 10.0099C5.51997 10.0102 5.51573 10.0105 5.51173 10.0109C5.51133 10.0151 5.51115 10.0197 5.51076 10.0245C5.50123 10.1411 5.50001 10.3034 5.50001 10.5997V13.4005Z" fill="#475467"/>
</svg>
