<svg width="24" height="24" viewBox="0 0 24 24" fill="none" xmlns="http://www.w3.org/2000/svg">
<path d="M10.3819 3.71203C10.8008 3.67906 11.2116 3.82333 11.5166 4.10461L11.6406 4.23254L11.7344 4.35851C11.93 4.65518 11.9666 4.97655 11.9815 5.14367C12.0013 5.36746 12 5.64864 12 5.93176V18.0685C12 18.3514 12.0012 18.6319 11.9815 18.8556C11.9645 19.0464 11.9197 19.4398 11.6406 19.7667C11.3288 20.1318 10.8605 20.3259 10.3819 20.2882C9.95346 20.2543 9.64397 20.0079 9.49708 19.8849C9.32485 19.7407 9.12692 19.5421 8.92677 19.3419L5.76173 16.1759C5.6691 16.0833 5.62204 16.037 5.58693 16.005C5.58566 16.0038 5.58416 16.0031 5.58302 16.0021H5.58107C5.53359 15.9999 5.46784 16.0001 5.33693 16.0001H3.59962C3.33623 16.0001 3.07815 16.0012 2.86134 15.9835C2.63284 15.9648 2.36307 15.9206 2.09181 15.7823C1.71556 15.5906 1.40953 15.2846 1.21779 14.9083C1.07949 14.6369 1.03529 14.3664 1.01662 14.1378C0.998944 13.9211 1.00001 13.6637 1.00001 13.4005V10.5997C1.00001 10.3363 0.9989 10.0783 1.01662 9.86144C1.03531 9.63292 1.07956 9.3632 1.21779 9.09191C1.40952 8.71564 1.71555 8.40963 2.09181 8.21789C2.36307 8.07968 2.63284 8.03541 2.86134 8.01672C3.07815 7.999 3.33623 8.00012 3.59962 8.00012H5.33693C5.46788 8.00012 5.53358 7.99936 5.58107 7.99719L5.58693 7.99523C5.62204 7.96319 5.6691 7.91697 5.76173 7.82433L8.92677 4.65832C9.1269 4.4582 9.32487 4.25956 9.49708 4.11535C9.64397 3.99238 9.95347 3.74591 10.3819 3.71203ZM21 12.0001C21 9.75389 20.3283 7.66686 19.1738 5.92687L18.9365 5.5841L18.8809 5.49816C18.6278 5.05891 18.7437 4.49102 19.1641 4.18859C19.6124 3.86608 20.2371 3.96781 20.5596 4.41613C22.0952 6.55083 23 9.17131 23 12.0001C23 14.8289 22.0952 17.4494 20.5596 19.5841C20.237 20.0323 19.6124 20.1341 19.1641 19.8116C18.7157 19.4891 18.614 18.8645 18.9365 18.4161C20.2355 16.6104 21 14.3959 21 12.0001ZM16 12.0001C16 10.8038 15.6508 9.69172 15.0488 8.75695L14.9248 8.57238L14.8711 8.48547C14.6245 8.04263 14.7483 7.4761 15.1729 7.1798C15.6258 6.86386 16.2495 6.97495 16.5654 7.42785C17.4696 8.72406 18 10.3017 18 12.0001C18 13.6985 17.4696 15.2762 16.5654 16.5724C16.2494 17.0252 15.6258 17.1363 15.1729 16.8204C14.72 16.5045 14.609 15.8808 14.9248 15.4279C15.6024 14.4564 16 13.2762 16 12.0001ZM3.00001 13.4005C3.00001 13.6967 3.00124 13.8592 3.01076 13.9757C3.01109 13.9798 3.01139 13.9837 3.01173 13.9874C3.01576 13.9878 3.01994 13.989 3.02443 13.9894C3.14096 13.9989 3.30334 14.0001 3.59962 14.0001H5.33693C5.53392 14.0001 5.7958 13.9941 6.05275 14.0558C6.20587 14.0926 6.35418 14.1465 6.49415 14.2179L6.63087 14.295L6.79103 14.4064C6.94344 14.5245 7.07127 14.6573 7.1758 14.7618L10 17.5851V6.41418L7.1758 9.2384C7.03652 9.37767 6.85613 9.56713 6.63087 9.70519C6.45197 9.81483 6.25678 9.89545 6.05275 9.94445C5.7958 10.0061 5.53392 10.0001 5.33693 10.0001H3.59962C3.30334 10.0001 3.14096 10.0004 3.02443 10.0099C3.01997 10.0102 3.01573 10.0105 3.01173 10.0109C3.01133 10.0151 3.01115 10.0197 3.01076 10.0245C3.00123 10.1411 3.00001 10.3034 3.00001 10.5997V13.4005Z" fill="#475467"/>
</svg>
