<svg width="24" height="24" viewBox="0 0 24 24" fill="none" xmlns="http://www.w3.org/2000/svg">
<path d="M17.5 8.70014C17.5 8.12359 17.4987 7.75105 17.4756 7.46772C17.4534 7.19613 17.4158 7.09528 17.3906 7.04584C17.2948 6.85787 17.1421 6.70516 16.9541 6.60932C16.9047 6.58413 16.8038 6.54656 16.5322 6.52436C16.2489 6.50121 15.8764 6.49994 15.2998 6.49994H8.7002C8.12365 6.49994 7.75112 6.50121 7.46778 6.52436C7.19619 6.54656 7.09534 6.58413 7.0459 6.60932C6.85793 6.70516 6.70522 6.85787 6.60938 7.04584C6.58419 7.09528 6.54662 7.19613 6.52442 7.46772C6.50127 7.75105 6.5 8.12359 6.5 8.70014V15.2997C6.5 15.8763 6.50127 16.2488 6.52442 16.5322C6.54662 16.8038 6.58419 16.9046 6.60938 16.954C6.70522 17.142 6.85793 17.2947 7.0459 17.3906C7.09534 17.4158 7.19619 17.4533 7.46778 17.4755C7.75112 17.4987 8.12365 17.4999 8.7002 17.4999H15.2998C15.8764 17.4999 16.2489 17.4987 16.5322 17.4755C16.8038 17.4533 16.9047 17.4158 16.9541 17.3906C17.1421 17.2947 17.2948 17.142 17.3906 16.954C17.4158 16.9046 17.4534 16.8038 17.4756 16.5322C17.4987 16.2488 17.5 15.8763 17.5 15.2997V8.70014ZM15.2998 19.4999H8.7002C8.57094 19.4999 8.44578 19.4983 8.3252 19.498C8.56558 20.3348 8.63408 20.5054 8.72266 20.6181C8.82971 20.7542 8.97056 20.8603 9.13086 20.9257C9.26837 20.9818 9.46004 20.9999 10.4141 20.9999H13.5859C14.54 20.9999 14.7316 20.9818 14.8691 20.9257C15.0294 20.8603 15.1703 20.7542 15.2773 20.6181C15.3659 20.5054 15.4335 20.3346 15.6738 19.498C15.5536 19.4983 15.4287 19.4999 15.2998 19.4999ZM11 8.99994C11 8.44766 11.4477 7.99994 12 7.99994C12.5523 7.99994 13 8.44766 13 8.99994V11.5859L14.207 12.7929L14.2754 12.8691C14.5957 13.2619 14.5732 13.8409 14.207 14.207C13.8409 14.5731 13.2619 14.5957 12.8691 14.2753L12.793 14.207L11.293 12.707C11.1054 12.5194 11 12.2652 11 11.9999V8.99994ZM10.4141 2.99994C9.46004 2.99994 9.26837 3.01809 9.13086 3.07416C8.97056 3.13964 8.82971 3.24568 8.72266 3.38178C8.63411 3.49446 8.56537 3.6649 8.3252 4.50092C8.44578 4.50057 8.57094 4.49994 8.7002 4.49994H15.2998C15.4287 4.49994 15.5536 4.50057 15.6738 4.50092C15.4337 3.66513 15.3659 3.49445 15.2773 3.38178C15.1703 3.24568 15.0294 3.13964 14.8691 3.07416C14.7316 3.01809 14.54 2.99994 13.5859 2.99994H10.4141ZM19.5 15.2997C19.5 15.8433 19.5011 16.3116 19.4697 16.6953C19.4374 17.0905 19.3656 17.484 19.1729 17.8622C18.8853 18.4265 18.4265 18.8852 17.8623 19.1728C17.8571 19.1755 17.8509 19.177 17.8457 19.1796L17.625 19.954C17.412 20.6997 17.2439 21.3528 16.8506 21.8535C16.5294 22.2622 16.1072 22.5807 15.626 22.7773C15.0365 23.0181 14.3616 22.9999 13.5859 22.9999H10.4141C9.63837 22.9999 8.96356 23.0181 8.37403 22.7773C7.89281 22.5807 7.47061 22.2622 7.14942 21.8535C6.75612 21.3528 6.58805 20.6997 6.375 19.954L6.15332 19.1796C6.14837 19.1771 6.14265 19.1753 6.1377 19.1728C5.57348 18.8852 5.11473 18.4265 4.82715 17.8622C4.6344 17.484 4.56259 17.0905 4.53028 16.6953C4.49893 16.3116 4.5 15.8433 4.5 15.2997V8.70014C4.5 8.15659 4.49893 7.6883 4.53028 7.30463C4.56259 6.90937 4.6344 6.51594 4.82715 6.13764C5.11473 5.57342 5.57348 5.11467 6.1377 4.82709C6.14278 4.8245 6.14824 4.82183 6.15332 4.81928L6.375 4.04584C6.58805 3.30019 6.75613 2.64706 7.14942 2.14643C7.47061 1.73771 7.89281 1.41918 8.37403 1.2226C8.96356 0.98182 9.63837 0.999944 10.4141 0.999944H13.5859C14.3616 0.999944 15.0364 0.98182 15.626 1.2226C16.1072 1.41918 16.5294 1.73771 16.8506 2.14643C17.2439 2.64706 17.412 3.30019 17.625 4.04584L17.8457 4.81928C17.8511 4.82195 17.857 4.82437 17.8623 4.82709C18.4265 5.11467 18.8853 5.57342 19.1729 6.13764C19.3656 6.51594 19.4374 6.90937 19.4697 7.30463C19.5011 7.6883 19.5 8.15659 19.5 8.70014V15.2997Z" fill="#475467"/>
</svg>
