<svg width="24" height="24" viewBox="0 0 24 24" fill="none" xmlns="http://www.w3.org/2000/svg">
<path d="M19.5004 16C20.2892 16 20.9149 16.1538 21.4486 16.4121C21.8336 16.5984 22.148 16.8299 22.4037 17.0361L22.641 17.2314L22.7162 17.3008C23.0708 17.6629 23.1004 18.2429 22.7689 18.6406C22.4375 19.0383 21.8619 19.1135 21.4418 18.8301L21.3598 18.7686L21.1439 18.5908C20.9416 18.428 20.7736 18.3078 20.5775 18.2129C20.3363 18.0962 20.0116 18 19.5004 18C19.0205 18 18.7001 18.0932 18.4486 18.2139C18.1759 18.3448 17.9479 18.5232 17.6254 18.7812C17.3229 19.0232 16.9259 19.3448 16.4174 19.5889C15.8876 19.8432 15.2705 20 14.5004 20C13.7116 20 13.0859 19.8462 12.5522 19.5879C12.0387 19.3394 11.6504 19.0107 11.3598 18.7686C11.0505 18.5109 10.8389 18.3394 10.5775 18.2129C10.3363 18.0962 10.0116 18 9.50039 18C9.02051 18 8.70006 18.0932 8.44864 18.2139C8.17593 18.3448 7.9479 18.5232 7.62539 18.7812C7.32291 19.0232 6.92591 19.3448 6.41739 19.5889C5.88756 19.8432 5.2705 20 4.50039 20C3.7116 20 3.08591 19.8462 2.55215 19.5879C2.16721 19.4016 1.85281 19.1701 1.59707 18.9639L1.35977 18.7686L1.28457 18.6992C0.929962 18.3371 0.900368 17.7571 1.23184 17.3594C1.56332 16.9617 2.13886 16.8865 2.55899 17.1699L2.64102 17.2314L2.85684 17.4092C3.05918 17.572 3.2272 17.6922 3.42325 17.7871C3.66449 17.9038 3.98918 18 4.50039 18C4.98028 18 5.30073 17.9068 5.55215 17.7861C5.82486 17.6552 6.05289 17.4768 6.37539 17.2188C6.67787 16.9768 7.07488 16.6552 7.5834 16.4111C8.11322 16.1568 8.73029 16 9.50039 16C10.2892 16 10.9149 16.1538 11.4486 16.4121C11.9621 16.6606 12.3504 16.9893 12.641 17.2314C12.9502 17.4891 13.1619 17.6606 13.4232 17.7871C13.6645 17.9038 13.9892 18 14.5004 18C14.9803 18 15.3007 17.9068 15.5522 17.7861C15.8249 17.6552 16.0529 17.4768 16.3754 17.2188C16.6779 16.9768 17.0749 16.6552 17.5834 16.4111C18.1132 16.1568 18.7303 16 19.5004 16ZM19.5004 10C20.2892 10 20.9149 10.1538 21.4486 10.4121C21.8336 10.5984 22.148 10.8299 22.4037 11.0361L22.641 11.2314L22.7162 11.3008C23.0708 11.6629 23.1004 12.2429 22.7689 12.6406C22.4375 13.0383 21.8619 13.1135 21.4418 12.8301L21.3598 12.7686L21.1439 12.5908C20.9416 12.428 20.7736 12.3078 20.5775 12.2129C20.3363 12.0962 20.0116 12 19.5004 12C19.0205 12 18.7001 12.0932 18.4486 12.2139C18.1759 12.3448 17.9479 12.5232 17.6254 12.7812C17.3229 13.0232 16.9259 13.3448 16.4174 13.5889C15.8876 13.8432 15.2705 14 14.5004 14C13.7116 14 13.0859 13.8462 12.5522 13.5879C12.0387 13.3394 11.6504 13.0107 11.3598 12.7686C11.0505 12.5109 10.8389 12.3394 10.5775 12.2129C10.3363 12.0962 10.0116 12 9.50039 12C9.02051 12 8.70006 12.0932 8.44864 12.2139C8.17593 12.3448 7.9479 12.5232 7.62539 12.7812C7.32291 13.0232 6.92591 13.3448 6.41739 13.5889C5.88756 13.8432 5.2705 14 4.50039 14C3.7116 14 3.08591 13.8462 2.55215 13.5879C2.16721 13.4016 1.85281 13.1701 1.59707 12.9639L1.35977 12.7686L1.28457 12.6992C0.929962 12.3371 0.900368 11.7571 1.23184 11.3594C1.56332 10.9617 2.13886 10.8865 2.55899 11.1699L2.64102 11.2314L2.85684 11.4092C3.05918 11.572 3.2272 11.6922 3.42325 11.7871C3.66449 11.9038 3.98918 12 4.50039 12C4.98028 12 5.30073 11.9068 5.55215 11.7861C5.82486 11.6552 6.05289 11.4768 6.37539 11.2188C6.67787 10.9768 7.07488 10.6552 7.5834 10.4111C8.11322 10.1568 8.73029 10 9.50039 10C10.2892 10 10.9149 10.1538 11.4486 10.4121C11.9621 10.6606 12.3504 10.9893 12.641 11.2314C12.9502 11.4891 13.1619 11.6606 13.4232 11.7871C13.6645 11.9038 13.9892 12 14.5004 12C14.9803 12 15.3007 11.9068 15.5522 11.7861C15.8249 11.6552 16.0529 11.4768 16.3754 11.2188C16.6779 10.9768 17.0749 10.6552 17.5834 10.4111C18.1132 10.1568 18.7303 10 19.5004 10ZM19.5004 4C20.2892 4 20.9149 4.15384 21.4486 4.41211C21.8336 4.59838 22.148 4.82992 22.4037 5.03613L22.641 5.23145L22.7162 5.30078C23.0708 5.66294 23.1004 6.24286 22.7689 6.64062C22.4375 7.0383 21.8619 7.11354 21.4418 6.83008L21.3598 6.76855L21.1439 6.59082C20.9416 6.42801 20.7736 6.30778 20.5775 6.21289C20.3363 6.09616 20.0116 6 19.5004 6C19.0205 6 18.7001 6.09319 18.4486 6.21387C18.1759 6.34477 17.9479 6.52324 17.6254 6.78125C17.3229 7.02323 16.9259 7.34478 16.4174 7.58887C15.8876 7.84318 15.2705 8 14.5004 8C13.7116 8 13.0859 7.84616 12.5522 7.58789C12.0387 7.33943 11.6504 7.01073 11.3598 6.76855C11.0505 6.51087 10.8389 6.3394 10.5775 6.21289C10.3363 6.09616 10.0116 6 9.50039 6C9.02051 6 8.70006 6.09319 8.44864 6.21387C8.17593 6.34477 7.9479 6.52324 7.62539 6.78125C7.32291 7.02323 6.92591 7.34478 6.41739 7.58887C5.88756 7.84318 5.2705 8 4.50039 8C3.7116 8 3.08591 7.84616 2.55215 7.58789C2.16721 7.40162 1.85281 7.17008 1.59707 6.96387L1.35977 6.76855L1.28457 6.69922C0.929962 6.33706 0.900368 5.75714 1.23184 5.35938C1.56332 4.9617 2.13886 4.88646 2.55899 5.16992L2.64102 5.23145L2.85684 5.40918C3.05918 5.57199 3.2272 5.69222 3.42325 5.78711C3.66449 5.90384 3.98918 6 4.50039 6C4.98028 6 5.30073 5.90681 5.55215 5.78613C5.82486 5.65523 6.05289 5.47676 6.37539 5.21875C6.67787 4.97677 7.07488 4.65522 7.5834 4.41113C8.11322 4.15682 8.73029 4 9.50039 4C10.2892 4 10.9149 4.15384 11.4486 4.41211C11.9621 4.66057 12.3504 4.98927 12.641 5.23145C12.9502 5.48913 13.1619 5.6606 13.4232 5.78711C13.6645 5.90384 13.9892 6 14.5004 6C14.9803 6 15.3007 5.90681 15.5522 5.78613C15.8249 5.65523 16.0529 5.47676 16.3754 5.21875C16.6779 4.97677 17.0749 4.65522 17.5834 4.41113C18.1132 4.15682 18.7303 4 19.5004 4Z" fill="#475467"/>
</svg>
