<svg width="24" height="24" viewBox="0 0 24 24" fill="none" xmlns="http://www.w3.org/2000/svg">
<path d="M2.29283 2.29302C2.68336 1.90249 3.31637 1.90249 3.7069 2.29302L21.7069 20.293L21.7753 20.3692C22.0956 20.762 22.073 21.341 21.7069 21.7071C21.3408 22.0732 20.7618 22.0958 20.369 21.7754L20.2928 21.7071L15.2596 16.6739C15.2274 16.6581 15.1958 16.6406 15.1649 16.6211L15.0809 16.5625L14.9198 16.4405C14.7973 16.3521 14.6704 16.2696 14.5399 16.1924C13.7737 15.7416 12.8989 15.501 12.0047 15.501C10.9672 15.501 9.95514 15.824 9.10924 16.4249C9.091 16.4378 9.07138 16.4494 9.0526 16.461C8.99412 16.5037 8.93628 16.5476 8.87975 16.5928L8.85045 16.5557V16.5567L8.87975 16.5928C8.44854 16.9375 7.81943 16.8675 7.47447 16.4366C7.12954 16.0052 7.1994 15.3753 7.63072 15.0303C8.82793 14.073 10.3485 13.5 11.9999 13.5C12.0292 13.5 12.0585 13.5016 12.0878 13.502L9.42174 10.836C7.9086 11.2385 6.53508 11.9866 5.39244 12.9932C4.97806 13.3581 4.34636 13.3186 3.98131 12.9043C3.61624 12.4899 3.65673 11.8573 4.07115 11.4922C5.16493 10.5288 6.43674 9.76176 7.83092 9.24516L5.54283 6.95708C4.19532 7.60077 2.95846 8.44018 1.86901 9.43852C1.46182 9.81153 0.829006 9.78316 0.45592 9.37602C0.0831022 8.96893 0.110609 8.337 0.517443 7.96391C1.58021 6.99004 2.76708 6.14775 4.0526 5.46684L2.29283 3.70708L2.22447 3.63091C1.90412 3.23813 1.92672 2.65913 2.29283 2.29302ZM12.0096 18.5C12.5619 18.5 13.0096 18.9478 13.0096 19.5C13.0096 20.0523 12.5619 20.5 12.0096 20.5H11.9999C11.4476 20.5 10.9999 20.0523 10.9999 19.5C10.9999 18.9478 11.4476 18.5 11.9999 18.5H12.0096ZM14.3573 9.7022C14.5217 9.17523 15.0821 8.88082 15.6092 9.04497C17.1018 9.50998 18.5004 10.2659 19.7196 11.2813C20.144 11.6348 20.202 12.2661 19.8485 12.6905C19.517 13.0883 18.9416 13.1635 18.5213 12.8799L18.4403 12.8184L18.0516 12.5118C17.2625 11.918 16.3947 11.4472 15.4774 11.1114L15.0145 10.9551L14.9178 10.919C14.452 10.7199 14.2033 10.1963 14.3573 9.7022ZM11.9999 3.50298C16.0097 3.50299 19.8858 4.92018 22.9471 7.49712L23.2411 7.75005L23.3143 7.82134C23.6587 8.19318 23.6723 8.77277 23.3299 9.16118C22.9876 9.5496 22.411 9.60857 21.9989 9.31352L21.9188 9.25005L21.659 9.02739C18.9579 6.75362 15.5379 5.50299 11.9999 5.50298C11.4326 5.50298 10.8681 5.53437 10.3094 5.5977C9.76077 5.65977 9.2652 5.26553 9.20299 4.71684C9.14099 4.16822 9.53618 3.6726 10.0848 3.6104L10.5604 3.56352C11.0375 3.52299 11.5178 3.50298 11.9999 3.50298Z" fill="#475467"/>
</svg>
