<svg width="24" height="24" viewBox="0 0 24 24" fill="none" xmlns="http://www.w3.org/2000/svg">
<path d="M12.0096 18.5C12.5619 18.5 13.0096 18.9477 13.0096 19.5C13.0096 20.0523 12.5619 20.5 12.0096 20.5H11.9999C11.4476 20.5 10.9999 20.0523 10.9999 19.5C10.9999 18.9477 11.4476 18.5 11.9999 18.5H12.0096ZM8.87975 16.5928C8.44854 16.9375 7.81943 16.8675 7.47447 16.4365C7.12954 16.0052 7.1994 15.3752 7.63072 15.0303L8.87975 16.5928ZM11.9999 13.5C13.5249 13.5 14.9385 13.9885 16.0887 14.8174L16.3153 14.9883L16.3924 15.0557C16.7574 15.407 16.8043 15.9842 16.4852 16.3916C16.1658 16.7991 15.5934 16.8919 15.1649 16.6211L15.0809 16.5625L14.9198 16.4404C14.0983 15.8483 13.0909 15.5 11.9999 15.5C10.8186 15.5 9.73522 15.9086 8.87975 16.5928L7.63072 15.0303C8.82793 14.0729 10.3485 13.5 11.9999 13.5ZM11.9999 8.5C15.0382 8.50001 17.8149 9.6304 19.9286 11.4922C20.343 11.8573 20.3835 12.4899 20.0184 12.9043C19.6534 13.3186 19.0217 13.3581 18.6073 12.9932C16.8448 11.4405 14.5332 10.5 11.9999 10.5C9.46653 10.5 7.15497 11.4405 5.39244 12.9932C4.97806 13.3581 4.34636 13.3186 3.98131 12.9043C3.61624 12.4899 3.65673 11.8573 4.07115 11.4922C6.18482 9.63041 8.96158 8.5 11.9999 8.5ZM11.9999 3.5C16.287 3.50003 20.2052 5.08846 23.1952 7.70703L23.4823 7.96387L23.5536 8.03613C23.8909 8.41445 23.8934 8.99416 23.5438 9.37598C23.194 9.75771 22.6162 9.80585 22.2098 9.50293L22.1307 9.43848L21.8778 9.21191C19.2384 6.90018 15.7838 5.50003 11.9999 5.5C8.09392 5.5 4.53871 6.99206 1.86901 9.43848C1.46182 9.81148 0.829006 9.78311 0.45592 9.37598C0.0831022 8.96888 0.110609 8.33696 0.517443 7.96387C3.54148 5.19275 7.57433 3.5 11.9999 3.5Z" fill="#475467"/>
</svg>
