<svg width="24" height="24" viewBox="0 0 24 24" fill="none" xmlns="http://www.w3.org/2000/svg">
<path d="M11.6959 17.0479C13.8856 16.3474 16.3837 15.5249 19.2721 16.3399C19.7148 16.4648 20.2443 16.6501 20.6481 16.7979C20.853 16.8729 21.032 16.9404 21.1598 16.9893C21.2235 17.0137 21.2746 17.034 21.3102 17.0479C21.328 17.0548 21.3425 17.0597 21.3522 17.0635C21.3569 17.0654 21.3603 17.0674 21.3629 17.0684C21.3641 17.0689 21.3651 17.0691 21.3658 17.0694H21.3678L21.4606 17.1123C21.9109 17.345 22.1212 17.8856 21.9313 18.3672C21.7413 18.8487 21.2188 19.1001 20.7311 18.9629L20.6334 18.9307V18.9297H20.6314C20.6295 18.929 20.6258 18.9274 20.6217 18.9258C20.6135 18.9226 20.6015 18.9174 20.5856 18.9112C20.5529 18.8985 20.5042 18.8796 20.4439 18.8565C20.3233 18.8103 20.154 18.7466 19.9606 18.6758C19.5668 18.5317 19.0959 18.3682 18.7291 18.2647C16.4972 17.635 14.5554 18.2324 12.3053 18.9522C10.1156 19.6527 7.61743 20.4751 4.72911 19.6602C4.28633 19.5353 3.75691 19.3499 3.35313 19.2022C3.14817 19.1272 2.96915 19.0597 2.84141 19.0108C2.77765 18.9864 2.72663 18.966 2.69102 18.9522C2.67319 18.9452 2.65864 18.9403 2.64903 18.9366C2.64431 18.9347 2.64087 18.9327 2.63829 18.9317C2.63711 18.9312 2.63607 18.931 2.63536 18.9307H2.6334L2.54063 18.8877C2.09031 18.6551 1.87995 18.1145 2.06993 17.6328C2.25989 17.1514 2.78237 16.9 3.27012 17.0371L3.36778 17.0694L3.36973 17.0703C3.37167 17.0711 3.37539 17.0726 3.3795 17.0743C3.38767 17.0775 3.39971 17.0827 3.41563 17.0889C3.44824 17.1016 3.49695 17.1205 3.55723 17.1436C3.6779 17.1898 3.84715 17.2535 4.04063 17.3243C4.43441 17.4683 4.90527 17.6319 5.27207 17.7354C7.504 18.3651 9.44579 17.7677 11.6959 17.0479ZM11.6959 11.0479C13.8856 10.3474 16.3837 9.52495 19.2721 10.3399C19.7148 10.4648 20.2443 10.6501 20.6481 10.7979C20.853 10.8729 21.032 10.9404 21.1598 10.9893C21.2235 11.0137 21.2746 11.034 21.3102 11.0479C21.328 11.0548 21.3425 11.0597 21.3522 11.0635C21.3569 11.0654 21.3603 11.0674 21.3629 11.0684C21.3641 11.0689 21.3651 11.0691 21.3658 11.0694H21.3678L21.4606 11.1123C21.9109 11.345 22.1212 11.8856 21.9313 12.3672C21.7413 12.8487 21.2188 13.1001 20.7311 12.9629L20.6334 12.9307V12.9297H20.6314C20.6295 12.929 20.6258 12.9274 20.6217 12.9258C20.6135 12.9226 20.6015 12.9174 20.5856 12.9112C20.5529 12.8985 20.5042 12.8796 20.4439 12.8565C20.3233 12.8103 20.154 12.7466 19.9606 12.6758C19.5668 12.5317 19.0959 12.3682 18.7291 12.2647C16.4972 11.635 14.5554 12.2324 12.3053 12.9522C10.1156 13.6527 7.61743 14.4751 4.72911 13.6602C4.28633 13.5353 3.75691 13.3499 3.35313 13.2022C3.14817 13.1272 2.96915 13.0597 2.84141 13.0108C2.77765 12.9864 2.72663 12.966 2.69102 12.9522C2.67319 12.9452 2.65864 12.9403 2.64903 12.9366C2.64431 12.9347 2.64087 12.9327 2.63829 12.9317C2.63711 12.9312 2.63607 12.931 2.63536 12.9307H2.6334L2.54063 12.8877C2.09031 12.6551 1.87995 12.1145 2.06993 11.6328C2.25989 11.1514 2.78237 10.9 3.27012 11.0371L3.36778 11.0694L3.36973 11.0703C3.37167 11.0711 3.37539 11.0726 3.3795 11.0743C3.38767 11.0775 3.39971 11.0827 3.41563 11.0889C3.44824 11.1016 3.49695 11.1205 3.55723 11.1436C3.6779 11.1898 3.84715 11.2535 4.04063 11.3243C4.43441 11.4683 4.90527 11.6319 5.27207 11.7354C7.504 12.3651 9.44579 11.7677 11.6959 11.0479ZM11.6959 5.04788C13.8856 4.34741 16.3837 3.52495 19.2721 4.33988C19.7148 4.4648 20.2443 4.65013 20.6481 4.79788C20.853 4.87289 21.032 4.94037 21.1598 4.98929C21.2235 5.01371 21.2746 5.03402 21.3102 5.04788C21.328 5.05482 21.3425 5.05974 21.3522 5.06351C21.3569 5.06536 21.3603 5.06738 21.3629 5.06839C21.3641 5.06885 21.3651 5.06909 21.3658 5.06937H21.3678L21.4606 5.11234C21.9109 5.34498 22.1212 5.88555 21.9313 6.36722C21.7413 6.8487 21.2188 7.10009 20.7311 6.96292L20.6334 6.9307V6.92972H20.6314C20.6295 6.92896 20.6258 6.92742 20.6217 6.92581C20.6135 6.92261 20.6015 6.91736 20.5856 6.91116C20.5529 6.89847 20.5042 6.87956 20.4439 6.85648C20.3233 6.81026 20.154 6.74661 19.9606 6.67581C19.5668 6.53172 19.0959 6.36818 18.7291 6.26468C16.4972 5.63495 14.5554 6.23239 12.3053 6.95218C10.1156 7.65265 7.61743 8.47512 4.72911 7.66019C4.28633 7.53526 3.75691 7.34994 3.35313 7.20218C3.14817 7.12718 2.96915 7.0597 2.84141 7.01077C2.77765 6.98636 2.72663 6.96604 2.69102 6.95218C2.67319 6.94524 2.65864 6.94032 2.64903 6.93656C2.64431 6.93471 2.64087 6.93269 2.63829 6.93167C2.63711 6.93121 2.63607 6.93098 2.63536 6.9307H2.6334L2.54063 6.88773C2.09031 6.65508 1.87995 6.11451 2.06993 5.63284C2.25989 5.15136 2.78237 4.89998 3.27012 5.03714L3.36778 5.06937L3.36973 5.07034C3.37167 5.07111 3.37539 5.07264 3.3795 5.07425C3.38767 5.07745 3.39971 5.0827 3.41563 5.0889C3.44824 5.10159 3.49695 5.1205 3.55723 5.14359C3.6779 5.1898 3.84715 5.25345 4.04063 5.32425C4.43441 5.46835 4.90527 5.63189 5.27207 5.73538C7.504 6.36511 9.44579 5.76767 11.6959 5.04788Z" fill="#475467"/>
</svg>
