<svg width="24" height="24" viewBox="0 0 24 24" fill="none" xmlns="http://www.w3.org/2000/svg">
<path d="M2.29295 2.29287C2.65907 1.92675 3.23807 1.90416 3.63084 2.22451L3.70702 2.29287L8.69823 7.28408C8.7065 7.29213 8.7147 7.30021 8.72264 7.30849L16.6982 15.2841C16.7065 15.2921 16.7147 15.3002 16.7226 15.3085L21.707 20.2929L21.7754 20.369C22.0957 20.7618 22.0731 21.3408 21.707 21.7069C21.3409 22.073 20.7619 22.0956 20.3691 21.7753L20.293 21.7069L16.0674 17.4813L11.7685 22.6405C11.4843 22.9815 11.0087 23.0936 10.6015 22.9169C10.1945 22.74 9.95275 22.3163 10.0078 21.8759L10.8672 14.9999H4.70799C4.45551 14.9999 4.19659 15.0013 3.98729 14.9823C3.79864 14.9652 3.43792 14.9196 3.12499 14.6669C2.76645 14.3772 2.56047 13.9383 2.56737 13.4774L2.57811 13.331C2.62125 13.0004 2.78374 12.7486 2.87792 12.6122C2.99732 12.4394 3.16363 12.2416 3.32518 12.0477L6.64647 8.06044L2.29295 3.70693C1.90243 3.3164 1.90243 2.68339 2.29295 2.29287ZM12.415 18.7382L14.6465 16.0604L12.9599 14.3739L12.415 18.7382ZM19.292 8.9999C19.5445 8.9999 19.8034 8.99853 20.0127 9.01748C20.2013 9.03457 20.562 9.08019 20.875 9.3329C21.2335 9.62264 21.4395 10.0614 21.4326 10.5224C21.4265 10.925 21.2297 11.2318 21.1221 11.3876C21.0026 11.5604 20.8363 11.7582 20.6748 11.952L19.3183 13.58C18.9648 14.0041 18.3344 14.0613 17.9101 13.7079C17.4859 13.3544 17.4287 12.724 17.7822 12.2997L18.8652 10.9999H15.6504C15.0981 10.9999 14.6504 10.5522 14.6504 9.9999C14.6504 9.44761 15.0981 8.9999 15.6504 8.9999H19.292ZM5.13475 12.9999H11.5859L8.06737 9.48134L5.13475 12.9999ZM12.2314 1.35927C12.5156 1.01833 12.9913 0.906156 13.3984 1.0829C13.8054 1.25976 14.0472 1.68355 13.9922 2.12392L13.3926 6.92177C13.324 7.46968 12.8243 7.85834 12.2764 7.78994C11.7284 7.72144 11.3398 7.2217 11.4082 6.67373L11.584 5.25966L11.3408 5.55263C10.9872 5.97689 10.3569 6.03412 9.9326 5.68056C9.50839 5.32699 9.45113 4.69661 9.80467 4.27236L12.2314 1.35927Z" fill="#475467"/>
</svg>
